%TF.GenerationSoftware,KiCad,Pcbnew,(7.0.0-0)*%
%TF.CreationDate,2023-07-06T19:43:53+02:00*%
%TF.ProjectId,Mstr_Controller_Board_v01,4d737472-5f43-46f6-9e74-726f6c6c6572,v01*%
%TF.SameCoordinates,Original*%
%TF.FileFunction,Copper,L2,Bot*%
%TF.FilePolarity,Positive*%
%FSLAX46Y46*%
G04 Gerber Fmt 4.6, Leading zero omitted, Abs format (unit mm)*
G04 Created by KiCad (PCBNEW (7.0.0-0)) date 2023-07-06 19:43:53*
%MOMM*%
%LPD*%
G01*
G04 APERTURE LIST*
G04 Aperture macros list*
%AMRoundRect*
0 Rectangle with rounded corners*
0 $1 Rounding radius*
0 $2 $3 $4 $5 $6 $7 $8 $9 X,Y pos of 4 corners*
0 Add a 4 corners polygon primitive as box body*
4,1,4,$2,$3,$4,$5,$6,$7,$8,$9,$2,$3,0*
0 Add four circle primitives for the rounded corners*
1,1,$1+$1,$2,$3*
1,1,$1+$1,$4,$5*
1,1,$1+$1,$6,$7*
1,1,$1+$1,$8,$9*
0 Add four rect primitives between the rounded corners*
20,1,$1+$1,$2,$3,$4,$5,0*
20,1,$1+$1,$4,$5,$6,$7,0*
20,1,$1+$1,$6,$7,$8,$9,0*
20,1,$1+$1,$8,$9,$2,$3,0*%
%AMHorizOval*
0 Thick line with rounded ends*
0 $1 width*
0 $2 $3 position (X,Y) of the first rounded end (center of the circle)*
0 $4 $5 position (X,Y) of the second rounded end (center of the circle)*
0 Add line between two ends*
20,1,$1,$2,$3,$4,$5,0*
0 Add two circle primitives to create the rounded ends*
1,1,$1,$2,$3*
1,1,$1,$4,$5*%
G04 Aperture macros list end*
%TA.AperFunction,ComponentPad*%
%ADD10C,1.600000*%
%TD*%
%TA.AperFunction,ComponentPad*%
%ADD11O,1.600000X1.600000*%
%TD*%
%TA.AperFunction,ComponentPad*%
%ADD12C,2.000000*%
%TD*%
%TA.AperFunction,ComponentPad*%
%ADD13C,14.000000*%
%TD*%
%TA.AperFunction,ComponentPad*%
%ADD14O,1.700000X1.700000*%
%TD*%
%TA.AperFunction,ComponentPad*%
%ADD15R,1.700000X1.700000*%
%TD*%
%TA.AperFunction,ComponentPad*%
%ADD16C,15.000000*%
%TD*%
%TA.AperFunction,ComponentPad*%
%ADD17R,1.600000X1.600000*%
%TD*%
%TA.AperFunction,ComponentPad*%
%ADD18R,2.000000X1.905000*%
%TD*%
%TA.AperFunction,ComponentPad*%
%ADD19O,2.000000X1.905000*%
%TD*%
%TA.AperFunction,ComponentPad*%
%ADD20R,1.800000X1.800000*%
%TD*%
%TA.AperFunction,ComponentPad*%
%ADD21C,1.800000*%
%TD*%
%TA.AperFunction,ComponentPad*%
%ADD22R,2.000000X2.000000*%
%TD*%
%TA.AperFunction,ComponentPad*%
%ADD23O,2.000000X2.000000*%
%TD*%
%TA.AperFunction,ComponentPad*%
%ADD24C,3.716000*%
%TD*%
%TA.AperFunction,ComponentPad*%
%ADD25R,1.500000X1.500000*%
%TD*%
%TA.AperFunction,ComponentPad*%
%ADD26C,1.500000*%
%TD*%
%TA.AperFunction,ComponentPad*%
%ADD27HorizOval,0.800000X0.000000X0.000000X0.000000X0.000000X0*%
%TD*%
%TA.AperFunction,ComponentPad*%
%ADD28HorizOval,0.800000X0.000000X0.000000X0.000000X0.000000X0*%
%TD*%
%TA.AperFunction,ComponentPad*%
%ADD29C,0.800000*%
%TD*%
%TA.AperFunction,ComponentPad*%
%ADD30O,9.000000X6.000000*%
%TD*%
%TA.AperFunction,ComponentPad*%
%ADD31RoundRect,0.625000X0.625000X0.625000X-0.625000X0.625000X-0.625000X-0.625000X0.625000X-0.625000X0*%
%TD*%
%TA.AperFunction,ComponentPad*%
%ADD32C,2.500000*%
%TD*%
%TA.AperFunction,ComponentPad*%
%ADD33R,1.905000X2.000000*%
%TD*%
%TA.AperFunction,ComponentPad*%
%ADD34O,1.905000X2.000000*%
%TD*%
%TA.AperFunction,ViaPad*%
%ADD35C,0.800000*%
%TD*%
%TA.AperFunction,Conductor*%
%ADD36C,0.400000*%
%TD*%
%TA.AperFunction,Conductor*%
%ADD37C,0.250000*%
%TD*%
%TA.AperFunction,Conductor*%
%ADD38C,2.000000*%
%TD*%
%TA.AperFunction,Conductor*%
%ADD39C,0.500000*%
%TD*%
G04 APERTURE END LIST*
D10*
%TO.P,R4,1*%
%TO.N,SSS_Reset*%
X151638000Y-70373000D03*
D11*
%TO.P,R4,2*%
%TO.N,Net-(Q2-G)*%
X151637999Y-62752999D03*
%TD*%
D12*
%TO.P,J3,1,Pin_1*%
%TO.N,/BATT(+)*%
X57912000Y-114061000D03*
X60452000Y-114061000D03*
X62992000Y-114061000D03*
X57912000Y-111521000D03*
X60452000Y-111521000D03*
X62992000Y-111521000D03*
X57912000Y-108981000D03*
X60452000Y-108981000D03*
X62992000Y-108981000D03*
%TD*%
D13*
%TO.P,J1,1,Pin_1*%
%TO.N,V_Charge{slash}Load(+)*%
X117141000Y-46671000D03*
%TO.P,J1,2,Pin_2*%
%TO.N,V_batt(+)*%
X90141000Y-46671000D03*
D14*
%TO.P,J1,3,Pin_3*%
%TO.N,WPU_2*%
X146150999Y-82740999D03*
%TO.P,J1,4,Pin_4*%
%TO.N,V_batt(+)*%
X146150999Y-85280999D03*
D15*
%TO.P,J1,5,Pin_5*%
%TO.N,WPU_1*%
X146150999Y-87820999D03*
%TD*%
D12*
%TO.P,J6,1,Pin_1*%
%TO.N,/LOAD(-)*%
X213360000Y-44196000D03*
X215900000Y-44196000D03*
X218440000Y-44196000D03*
X213360000Y-41656000D03*
X215900000Y-41656000D03*
X218440000Y-41656000D03*
X213360000Y-39116000D03*
X215900000Y-39116000D03*
X218440000Y-39116000D03*
%TD*%
D16*
%TO.P,F3,1*%
%TO.N,V_Charge{slash}Load(+)*%
X135382000Y-44973000D03*
%TO.P,F3,2*%
%TO.N,/LOAD(+)*%
X186182000Y-44973000D03*
%TD*%
D12*
%TO.P,J4,1,Pin_1*%
%TO.N,/BATT(-)*%
X78994000Y-114061000D03*
X81534000Y-114061000D03*
X84074000Y-114061000D03*
X78994000Y-111521000D03*
X81534000Y-111521000D03*
X84074000Y-111521000D03*
X78994000Y-108981000D03*
X81534000Y-108981000D03*
X84074000Y-108981000D03*
%TD*%
D10*
%TO.P,R8,1*%
%TO.N,Net-(D2-A)*%
X182118000Y-78097000D03*
D11*
%TO.P,R8,2*%
%TO.N,Net-(R8-Pad2)*%
X174497999Y-78096999D03*
%TD*%
D15*
%TO.P,J2,1,Pin_1*%
%TO.N,/VCC_OFF_Board  *%
X197103999Y-83819999D03*
D14*
%TO.P,J2,2,Pin_2*%
%TO.N,/Comms_ISO_IN*%
X197103999Y-86359999D03*
%TO.P,J2,3,Pin_3*%
%TO.N,/Comms_ISO_OUT*%
X197103999Y-88899999D03*
%TO.P,J2,4,Pin_4*%
%TO.N,/GND_OFF_Board  *%
X197103999Y-91439999D03*
%TD*%
D17*
%TO.P,C7,1*%
%TO.N,VCC*%
X78525999Y-94248999D03*
D10*
%TO.P,C7,2*%
%TO.N,GND*%
X81026000Y-94249000D03*
%TD*%
D18*
%TO.P,Q1,1,G*%
%TO.N,Net-(Q1-G)*%
X155264999Y-75198999D03*
D19*
%TO.P,Q1,2,D*%
%TO.N,WPU_1*%
X155264999Y-77738999D03*
%TO.P,Q1,3,S*%
%TO.N,V_batt(-)*%
X155264999Y-80278999D03*
%TD*%
D20*
%TO.P,D2,1,K*%
%TO.N,GND*%
X197103999Y-71622999D03*
D21*
%TO.P,D2,2,A*%
%TO.N,Net-(D2-A)*%
X197104000Y-74163000D03*
%TD*%
D10*
%TO.P,R2,1*%
%TO.N,Net-(Q1-G)*%
X157734000Y-87645000D03*
D11*
%TO.P,R2,2*%
%TO.N,V_batt(-)*%
X157733999Y-95264999D03*
%TD*%
D12*
%TO.P,J5,1,Pin_1*%
%TO.N,/LOAD(+)*%
X198628000Y-44196000D03*
X201168000Y-44196000D03*
X203708000Y-44196000D03*
X198628000Y-41656000D03*
X201168000Y-41656000D03*
X203708000Y-41656000D03*
X198628000Y-39116000D03*
X201168000Y-39116000D03*
X203708000Y-39116000D03*
%TD*%
D10*
%TO.P,R1,1*%
%TO.N,SSS_Set*%
X153162000Y-95265000D03*
D11*
%TO.P,R1,2*%
%TO.N,Net-(Q1-G)*%
X153161999Y-87644999D03*
%TD*%
D17*
%TO.P,C6,1*%
%TO.N,V_batt(+)*%
X79755999Y-58942999D03*
D10*
%TO.P,C6,2*%
%TO.N,V_batt(+)_0*%
X77256000Y-58943000D03*
%TD*%
D17*
%TO.P,C4,1*%
%TO.N,V_batt(+)*%
X166115999Y-113029999D03*
D10*
%TO.P,C4,2*%
%TO.N,V_batt(-)*%
X163616000Y-113030000D03*
%TD*%
%TO.P,R7,1*%
%TO.N,Net-(D1-A)*%
X182118000Y-74287000D03*
D11*
%TO.P,R7,2*%
%TO.N,Net-(R7-Pad2)*%
X174497999Y-74286999D03*
%TD*%
D22*
%TO.P,C2,1*%
%TO.N,/VCC_OFF_Board  *%
X185927999Y-84312999D03*
D23*
%TO.P,C2,2*%
%TO.N,/GND_OFF_Board  *%
X185927999Y-99312999D03*
%TD*%
D17*
%TO.P,C3,1*%
%TO.N,VCC*%
X193761999Y-113298999D03*
D10*
%TO.P,C3,2*%
%TO.N,GND*%
X191262000Y-113299000D03*
%TD*%
D15*
%TO.P,U3,1*%
%TO.N,GND*%
X96397999Y-126524999D03*
D14*
%TO.P,U3,2*%
%TO.N,VCC*%
X96397999Y-129064999D03*
%TO.P,U3,3*%
%TO.N,SDA*%
X96397999Y-131604999D03*
%TO.P,U3,4*%
%TO.N,SCL*%
X96397999Y-134144999D03*
D24*
%TO.P,U3,P1*%
%TO.N,GND*%
X90958000Y-121935000D03*
%TO.P,U3,P2*%
X90958000Y-145935000D03*
%TO.P,U3,P3*%
%TO.N,N/C*%
X171958000Y-121935000D03*
%TO.P,U3,P4*%
%TO.N,GND*%
X171958000Y-145935000D03*
%TD*%
D10*
%TO.P,R3,1*%
%TO.N,Net-(Q2-G)*%
X156210000Y-62753000D03*
D11*
%TO.P,R3,2*%
%TO.N,V_batt(-)*%
X156209999Y-70372999D03*
%TD*%
D20*
%TO.P,D1,1,K*%
%TO.N,GND*%
X197103999Y-63297999D03*
D21*
%TO.P,D1,2,A*%
%TO.N,Net-(D1-A)*%
X197104000Y-60758000D03*
%TD*%
D16*
%TO.P,F2,1*%
%TO.N,V_batt(-)*%
X150876000Y-106949000D03*
%TO.P,F2,2*%
%TO.N,/BATT(-)*%
X100076000Y-106949000D03*
%TD*%
%TO.P,F1,1*%
%TO.N,V_batt(+)_0*%
X65278000Y-44211000D03*
%TO.P,F1,2*%
%TO.N,/BATT(+)*%
X65278000Y-95011000D03*
%TD*%
D25*
%TO.P,U2,1,VCC*%
%TO.N,VCC*%
X84205999Y-87531999D03*
D26*
%TO.P,U2,2,GND*%
%TO.N,GND*%
X86116000Y-87532000D03*
%TO.P,U2,3,VIOUT*%
%TO.N,I_Sense*%
X88026000Y-87532000D03*
D27*
%TO.P,U2,4,IP+*%
%TO.N,V_batt(+)*%
X87165999Y-65501999D03*
D28*
X87165999Y-66761999D03*
D29*
X87916000Y-64472000D03*
X87916000Y-67792000D03*
X89116000Y-64082000D03*
X89116000Y-68182000D03*
X90446000Y-64082000D03*
X90446000Y-68182000D03*
D30*
X91115999Y-66131999D03*
D29*
X91786000Y-64082000D03*
X91786000Y-68182000D03*
X93116000Y-64082000D03*
X93116000Y-68182000D03*
X94316000Y-64472000D03*
X94316000Y-67792000D03*
X95066000Y-65502000D03*
X95066000Y-66762000D03*
%TO.P,U2,5,IP-*%
%TO.N,V_batt(+)_0*%
X77166000Y-65502000D03*
X77166000Y-66762000D03*
X77916000Y-64472000D03*
X77916000Y-67792000D03*
X79116000Y-64082000D03*
X79116000Y-68182000D03*
X80446000Y-64082000D03*
X80446000Y-68182000D03*
D30*
X81115999Y-66131999D03*
D29*
X81786000Y-64082000D03*
X81786000Y-68182000D03*
X83116000Y-64082000D03*
X83116000Y-68182000D03*
X84316000Y-64472000D03*
X84316000Y-67792000D03*
D28*
X85065999Y-65501999D03*
D27*
X85065999Y-66761999D03*
%TD*%
D17*
%TO.P,C5,1*%
%TO.N,I_Sense*%
X94193999Y-93232999D03*
D10*
%TO.P,C5,2*%
%TO.N,GND*%
X91694000Y-93233000D03*
%TD*%
D16*
%TO.P,F4,1*%
%TO.N,V_batt(-)*%
X211582000Y-108966000D03*
%TO.P,F4,2*%
%TO.N,/LOAD(-)*%
X211582000Y-58166000D03*
%TD*%
D31*
%TO.P,U6,1,Vo(-)*%
%TO.N,GND*%
X215608000Y-147131000D03*
D32*
%TO.P,U6,2,Vo(+)*%
%TO.N,VCC*%
X215608000Y-121631000D03*
D31*
%TO.P,U6,3,Vi(-)*%
%TO.N,V_batt(-)*%
X179108000Y-147131000D03*
D32*
%TO.P,U6,4,Vi(+)*%
%TO.N,V_batt(+)*%
X179108000Y-121631000D03*
%TD*%
D22*
%TO.P,C1,1*%
%TO.N,VCC*%
X170433999Y-84312999D03*
D23*
%TO.P,C1,2*%
%TO.N,GND*%
X170433999Y-99312999D03*
%TD*%
D33*
%TO.P,Q2,1,G*%
%TO.N,Net-(Q2-G)*%
X155193999Y-57235999D03*
D34*
%TO.P,Q2,2,D*%
%TO.N,WPU_2*%
X152653999Y-57235999D03*
%TO.P,Q2,3,S*%
%TO.N,V_batt(-)*%
X150113999Y-57235999D03*
%TD*%
D14*
%TO.P,U1,0*%
%TO.N,WPU_2*%
X165513999Y-70857999D03*
%TO.P,U1,2*%
%TO.N,unconnected-(U1-Pad2)*%
X165513999Y-68317999D03*
D15*
%TO.P,U1,3V3*%
%TO.N,unconnected-(U1-Pad3V3)*%
X190753999Y-103877999D03*
D14*
%TO.P,U1,4*%
%TO.N,I_Sense*%
X165513999Y-73397999D03*
%TO.P,U1,5*%
%TO.N,WPU_1*%
X165513999Y-81017999D03*
%TO.P,U1,5V*%
%TO.N,VCC*%
X190753999Y-58157999D03*
%TO.P,U1,12*%
%TO.N,unconnected-(U1-Pad12)*%
X190753999Y-73397999D03*
%TO.P,U1,13*%
%TO.N,unconnected-(U1-Pad13)*%
X190753999Y-68317999D03*
%TO.P,U1,15*%
%TO.N,unconnected-(U1-Pad15)*%
X165513999Y-65777999D03*
%TO.P,U1,16*%
%TO.N,SSS_Reset*%
X165513999Y-75937999D03*
%TO.P,U1,17*%
%TO.N,SSS_Set*%
X165513999Y-78477999D03*
%TO.P,U1,18*%
%TO.N,Net-(R7-Pad2)*%
X165513999Y-83557999D03*
%TO.P,U1,19*%
%TO.N,Net-(R8-Pad2)*%
X165513999Y-86097999D03*
%TO.P,U1,21*%
%TO.N,SDA*%
X165513999Y-91177999D03*
%TO.P,U1,22*%
%TO.N,SCL*%
X165513999Y-98797999D03*
%TO.P,U1,23*%
%TO.N,unconnected-(U1-Pad23)*%
X165513999Y-101337999D03*
%TO.P,U1,26*%
%TO.N,unconnected-(U1-Pad26)*%
X190753999Y-81017999D03*
%TO.P,U1,27*%
%TO.N,unconnected-(U1-Pad27)*%
X190753999Y-78477999D03*
%TO.P,U1,33*%
%TO.N,unconnected-(U1-Pad33)*%
X190753999Y-86097999D03*
%TO.P,U1,CLK*%
%TO.N,unconnected-(U1-PadCLK)*%
X165513999Y-58157999D03*
%TO.P,U1,CMD*%
%TO.N,unconnected-(U1-PadCMD)*%
X190753999Y-60697999D03*
%TO.P,U1,D0*%
%TO.N,unconnected-(U1-PadD0)*%
X165513999Y-60697999D03*
%TO.P,U1,D1*%
%TO.N,unconnected-(U1-PadD1)*%
X165513999Y-63237999D03*
%TO.P,U1,D3*%
%TO.N,unconnected-(U1-PadD3)*%
X190753999Y-63237999D03*
%TO.P,U1,EN*%
%TO.N,VCC*%
X190753999Y-101337999D03*
%TO.P,U1,GND*%
%TO.N,GND*%
X190753999Y-70857999D03*
D15*
X165513999Y-103877999D03*
D14*
X165513999Y-88637999D03*
%TO.P,U1,RX*%
%TO.N,RX0*%
X165513999Y-93717999D03*
%TO.P,U1,TX*%
%TO.N,TX0*%
X165513999Y-96257999D03*
%TO.P,U1,VN*%
%TO.N,unconnected-(U1-PadVN)*%
X190753999Y-96257999D03*
%TO.P,U1,VP*%
%TO.N,unconnected-(U1-PadVP)*%
X190753999Y-98797999D03*
%TD*%
D35*
%TO.N,VCC*%
X175514000Y-87376000D03*
%TO.N,SCL*%
X145796000Y-94234000D03*
%TO.N,SDA*%
X145796000Y-91694000D03*
X160274000Y-89916000D03*
%TO.N,SCL*%
X160274000Y-91694000D03*
%TO.N,I_Sense*%
X147828000Y-66802000D03*
X106680000Y-81280000D03*
%TO.N,/BATT(-)*%
X83566000Y-101346000D03*
X82042000Y-102870000D03*
X89662000Y-95250000D03*
X85344000Y-98044000D03*
X85344000Y-100330000D03*
X87630000Y-93726000D03*
X87630000Y-96012000D03*
X87630000Y-102362000D03*
X85344000Y-96012000D03*
X85344000Y-93726000D03*
X87630000Y-100330000D03*
X87630000Y-98044000D03*
X85344000Y-102362000D03*
X98552000Y-98806000D03*
X104140000Y-97282000D03*
X106426000Y-101600000D03*
X90424000Y-97282000D03*
X106426000Y-94996000D03*
X106426000Y-99314000D03*
X94996000Y-97282000D03*
X104140000Y-99314000D03*
X104140000Y-90678000D03*
X104140000Y-92964000D03*
X101854000Y-97282000D03*
X92710000Y-97282000D03*
X106426000Y-92964000D03*
X106426000Y-90678000D03*
X101854000Y-92964000D03*
X97282000Y-90678000D03*
X90424000Y-99314000D03*
X97282000Y-97282000D03*
X106426000Y-97282000D03*
X97282000Y-92964000D03*
X92710000Y-101600000D03*
X99568000Y-97282000D03*
X104140000Y-94996000D03*
X95504000Y-99314000D03*
X90424000Y-101600000D03*
X99568000Y-90678000D03*
X99568000Y-92964000D03*
X101854000Y-90678000D03*
X97282000Y-94996000D03*
X92710000Y-99314000D03*
X99568000Y-94996000D03*
X101854000Y-94996000D03*
X120142000Y-110236000D03*
X113284000Y-114554000D03*
X115570000Y-114554000D03*
X110998000Y-114554000D03*
X120142000Y-112522000D03*
X110998000Y-110236000D03*
X115570000Y-116840000D03*
X108712000Y-118872000D03*
X117856000Y-110236000D03*
X108712000Y-114554000D03*
X117856000Y-112522000D03*
X117856000Y-118872000D03*
X117856000Y-121158000D03*
X115570000Y-112522000D03*
X120142000Y-121158000D03*
X120142000Y-118872000D03*
X115570000Y-121158000D03*
X108712000Y-116840000D03*
X110998000Y-118872000D03*
X115570000Y-110236000D03*
X113284000Y-110236000D03*
X110998000Y-116840000D03*
X108712000Y-112522000D03*
X110998000Y-121158000D03*
X117856000Y-116840000D03*
X110998000Y-112522000D03*
X108712000Y-121158000D03*
X108712000Y-110236000D03*
X113284000Y-118872000D03*
X113284000Y-121158000D03*
X117856000Y-114554000D03*
X115570000Y-118872000D03*
X113284000Y-116840000D03*
X120142000Y-116840000D03*
X113284000Y-112522000D03*
X120142000Y-114554000D03*
X120142000Y-90678000D03*
X113284000Y-94996000D03*
X117856000Y-105918000D03*
X115570000Y-94996000D03*
X110998000Y-94996000D03*
X120142000Y-103632000D03*
X120142000Y-107950000D03*
X120142000Y-92964000D03*
X110998000Y-90678000D03*
X115570000Y-97282000D03*
X108712000Y-99314000D03*
X108712000Y-105918000D03*
X117856000Y-90678000D03*
X108712000Y-94996000D03*
X117856000Y-107950000D03*
X117856000Y-92964000D03*
X117856000Y-99314000D03*
X117856000Y-101600000D03*
X115570000Y-92964000D03*
X115570000Y-105918000D03*
X113284000Y-107950000D03*
X120142000Y-101600000D03*
X120142000Y-99314000D03*
X115570000Y-101600000D03*
X115570000Y-107950000D03*
X108712000Y-97282000D03*
X110998000Y-99314000D03*
X110998000Y-105918000D03*
X115570000Y-90678000D03*
X113284000Y-90678000D03*
X110998000Y-107950000D03*
X120142000Y-105918000D03*
X110998000Y-97282000D03*
X108712000Y-92964000D03*
X110998000Y-101600000D03*
X117856000Y-97282000D03*
X113284000Y-105918000D03*
X117856000Y-103632000D03*
X110998000Y-92964000D03*
X108712000Y-107950000D03*
X108712000Y-101600000D03*
X108712000Y-90678000D03*
X113284000Y-99314000D03*
X113284000Y-101600000D03*
X117856000Y-94996000D03*
X115570000Y-99314000D03*
X113284000Y-97282000D03*
X110998000Y-103632000D03*
X120142000Y-97282000D03*
X113284000Y-92964000D03*
X120142000Y-94996000D03*
X113284000Y-103632000D03*
X108712000Y-103632000D03*
X115570000Y-103632000D03*
X87376000Y-109220000D03*
X87376000Y-111506000D03*
X87376000Y-115824000D03*
X87376000Y-113538000D03*
X76962000Y-114046000D03*
X78994000Y-105156000D03*
X106934000Y-120650000D03*
X81026000Y-104648000D03*
X91694000Y-118364000D03*
X78994000Y-114046000D03*
X83058000Y-104648000D03*
X102616000Y-116078000D03*
X78994000Y-120650000D03*
X81026000Y-120650000D03*
X76962000Y-106934000D03*
X87376000Y-120650000D03*
X91694000Y-104648000D03*
X93980000Y-120650000D03*
X104648000Y-120650000D03*
X78994000Y-109220000D03*
X100330000Y-116078000D03*
X85344000Y-120650000D03*
X91694000Y-109220000D03*
X106934000Y-118364000D03*
X76962000Y-118364000D03*
X89662000Y-118364000D03*
X104648000Y-118364000D03*
X98298000Y-118364000D03*
X96012000Y-118364000D03*
X104648000Y-116078000D03*
X91694000Y-116078000D03*
X89662000Y-113792000D03*
X76962000Y-111506000D03*
X91694000Y-106934000D03*
X96012000Y-120650000D03*
X98298000Y-120650000D03*
X96012000Y-116078000D03*
X89662000Y-116078000D03*
X83058000Y-106934000D03*
X78994000Y-106934000D03*
X85344000Y-104648000D03*
X89662000Y-104648000D03*
X91694000Y-111506000D03*
X106934000Y-116078000D03*
X106172000Y-113792000D03*
X89662000Y-111506000D03*
X87376000Y-118364000D03*
X87376000Y-106934000D03*
X100330000Y-118364000D03*
X91694000Y-113792000D03*
X93980000Y-118364000D03*
X89662000Y-109220000D03*
X87376000Y-104648000D03*
X83058000Y-120650000D03*
X78994000Y-118364000D03*
X81026000Y-106934000D03*
X78994000Y-116332000D03*
X76962000Y-116332000D03*
X96012000Y-113792000D03*
X76962000Y-109220000D03*
X81026000Y-118364000D03*
X102616000Y-118364000D03*
X98298000Y-116078000D03*
X85344000Y-118364000D03*
X93980000Y-111506000D03*
X100330000Y-120650000D03*
X89662000Y-106934000D03*
X83058000Y-118364000D03*
X102616000Y-120650000D03*
X93980000Y-113792000D03*
X85344000Y-106934000D03*
X93980000Y-116078000D03*
X78994000Y-111506000D03*
%TO.N,/BATT(+)*%
X76200000Y-97028000D03*
X76200000Y-92710000D03*
X76200000Y-94742000D03*
X76200000Y-99060000D03*
X74168000Y-97282000D03*
X74168000Y-92964000D03*
X74168000Y-94996000D03*
X77724000Y-88646000D03*
X77724000Y-84328000D03*
X75438000Y-82042000D03*
X75438000Y-88646000D03*
X77724000Y-80010000D03*
X77724000Y-82042000D03*
X75438000Y-80010000D03*
X75438000Y-84328000D03*
X75438000Y-86360000D03*
X77724000Y-86360000D03*
X75946000Y-90678000D03*
X54102000Y-79502000D03*
X54102000Y-83566000D03*
X54102000Y-89916000D03*
X54102000Y-100584000D03*
X54102000Y-98552000D03*
X54102000Y-96520000D03*
X54102000Y-87884000D03*
X54102000Y-81280000D03*
X54102000Y-92202000D03*
X54102000Y-102616000D03*
X54102000Y-85598000D03*
X54102000Y-94234000D03*
X56642000Y-81534000D03*
X61214000Y-88138000D03*
X70358000Y-88138000D03*
X56642000Y-85852000D03*
X70358000Y-83820000D03*
X63500000Y-81534000D03*
X56642000Y-100838000D03*
X72644000Y-83820000D03*
X73152000Y-90424000D03*
X61214000Y-81534000D03*
X68072000Y-81534000D03*
X72644000Y-79502000D03*
X65786000Y-79502000D03*
X70358000Y-79502000D03*
X72136000Y-101346000D03*
X73660000Y-99822000D03*
X61214000Y-83820000D03*
X58928000Y-90170000D03*
X56642000Y-90170000D03*
X65786000Y-81534000D03*
X70358000Y-81534000D03*
X61214000Y-102870000D03*
X58928000Y-83820000D03*
X65786000Y-83820000D03*
X68072000Y-79502000D03*
X72898000Y-88138000D03*
X72644000Y-81534000D03*
X58928000Y-85852000D03*
X58928000Y-79502000D03*
X56642000Y-102870000D03*
X61214000Y-85852000D03*
X63500000Y-79502000D03*
X56642000Y-94488000D03*
X68326000Y-102870000D03*
X68072000Y-83820000D03*
X63500000Y-85852000D03*
X68072000Y-85852000D03*
X61214000Y-79502000D03*
X58928000Y-102870000D03*
X58928000Y-81534000D03*
X56642000Y-79502000D03*
X56642000Y-88138000D03*
X72644000Y-85852000D03*
X56642000Y-96774000D03*
X70358000Y-102870000D03*
X56642000Y-98806000D03*
X58928000Y-100838000D03*
X65786000Y-85852000D03*
X63500000Y-83820000D03*
X58928000Y-88138000D03*
X56642000Y-83820000D03*
X70358000Y-85852000D03*
X56642000Y-92456000D03*
X63500000Y-121412000D03*
X58674000Y-121412000D03*
X54102000Y-121412000D03*
X65786000Y-121412000D03*
X56388000Y-121412000D03*
X60960000Y-121412000D03*
X67818000Y-121412000D03*
%TO.N,V_batt(-)*%
X167640000Y-115824000D03*
X174498000Y-118110000D03*
X172212000Y-118110000D03*
X172212000Y-115824000D03*
X169926000Y-115824000D03*
X165354000Y-118110000D03*
X167640000Y-118110000D03*
X165354000Y-115824000D03*
X169926000Y-118110000D03*
X184150000Y-118110000D03*
X181864000Y-118110000D03*
X184150000Y-107442000D03*
X177292000Y-111760000D03*
X179578000Y-111760000D03*
X175006000Y-111760000D03*
X184150000Y-109728000D03*
X175006000Y-107442000D03*
X179578000Y-114046000D03*
X181864000Y-107442000D03*
X181864000Y-109728000D03*
X181864000Y-116078000D03*
X179578000Y-109728000D03*
X184150000Y-116078000D03*
X179578000Y-107442000D03*
X177292000Y-107442000D03*
X181864000Y-114046000D03*
X175006000Y-109728000D03*
X181864000Y-111760000D03*
X179578000Y-116078000D03*
X177292000Y-114046000D03*
X184150000Y-114046000D03*
X177292000Y-109728000D03*
X184150000Y-111760000D03*
X139954000Y-98298000D03*
X133096000Y-102616000D03*
X137668000Y-113538000D03*
X135382000Y-102616000D03*
X130810000Y-102616000D03*
X139954000Y-111252000D03*
X139954000Y-100584000D03*
X135382000Y-104902000D03*
X137668000Y-98298000D03*
X137668000Y-100584000D03*
X137668000Y-106934000D03*
X137668000Y-109220000D03*
X135382000Y-100584000D03*
X135382000Y-113538000D03*
X139954000Y-109220000D03*
X139954000Y-106934000D03*
X135382000Y-109220000D03*
X130810000Y-106934000D03*
X130810000Y-113538000D03*
X135382000Y-98298000D03*
X133096000Y-98298000D03*
X139954000Y-113538000D03*
X130810000Y-104902000D03*
X130810000Y-109220000D03*
X137668000Y-104902000D03*
X133096000Y-113538000D03*
X137668000Y-111252000D03*
X130810000Y-100584000D03*
X133096000Y-106934000D03*
X133096000Y-109220000D03*
X137668000Y-102616000D03*
X135382000Y-106934000D03*
X133096000Y-104902000D03*
X130810000Y-111252000D03*
X139954000Y-104902000D03*
X133096000Y-100584000D03*
X139954000Y-102616000D03*
X133096000Y-111252000D03*
X135382000Y-111252000D03*
X157226000Y-118364000D03*
X150876000Y-118364000D03*
X144272000Y-118364000D03*
X148590000Y-118364000D03*
X131318000Y-118364000D03*
X159258000Y-118364000D03*
X133604000Y-118364000D03*
X152908000Y-118364000D03*
X142240000Y-118364000D03*
X139954000Y-118364000D03*
X161290000Y-118364000D03*
X146558000Y-118364000D03*
X155194000Y-118364000D03*
X135636000Y-118364000D03*
X137922000Y-118364000D03*
X131318000Y-116332000D03*
X159258000Y-116332000D03*
X157226000Y-116332000D03*
X150876000Y-116332000D03*
X144272000Y-116332000D03*
X148590000Y-116332000D03*
X133604000Y-116332000D03*
X152908000Y-116332000D03*
X142240000Y-116332000D03*
X139954000Y-116332000D03*
X161290000Y-116332000D03*
X146558000Y-116332000D03*
X155194000Y-116332000D03*
X137922000Y-116332000D03*
X135636000Y-116332000D03*
X157734000Y-112522000D03*
X144018000Y-112522000D03*
X142494000Y-107696000D03*
X144526000Y-98298000D03*
X161544000Y-98298000D03*
X168148000Y-107442000D03*
X146558000Y-98298000D03*
X148590000Y-98298000D03*
X168148000Y-109728000D03*
X144526000Y-114300000D03*
X146558000Y-114300000D03*
X142494000Y-100584000D03*
X157226000Y-98298000D03*
X159512000Y-100584000D03*
X159512000Y-114300000D03*
X155194000Y-114300000D03*
X161544000Y-100584000D03*
X165862000Y-109728000D03*
X142494000Y-112014000D03*
X161544000Y-112014000D03*
X170180000Y-109728000D03*
X142494000Y-105156000D03*
X157226000Y-100584000D03*
X161544000Y-114300000D03*
X161544000Y-109728000D03*
X144526000Y-100584000D03*
X150876000Y-98298000D03*
X155194000Y-98298000D03*
X172466000Y-109728000D03*
X172466000Y-107442000D03*
X142494000Y-98298000D03*
X142494000Y-114300000D03*
X157226000Y-114300000D03*
X161544000Y-105156000D03*
X159512000Y-112014000D03*
X152908000Y-98298000D03*
X161544000Y-102870000D03*
X163830000Y-107442000D03*
X159512000Y-98298000D03*
X142494000Y-109982000D03*
X161544000Y-107442000D03*
X142494000Y-102870000D03*
X163830000Y-109728000D03*
X165862000Y-107442000D03*
X159512000Y-105156000D03*
X170180000Y-107442000D03*
X159512000Y-107442000D03*
X159512000Y-102870000D03*
X159512000Y-109728000D03*
X198120000Y-107188000D03*
X196342000Y-107188000D03*
X201168000Y-100838000D03*
X203454000Y-105156000D03*
X203454000Y-98552000D03*
X203454000Y-102870000D03*
X203454000Y-87884000D03*
X202692000Y-107188000D03*
X202184000Y-86360000D03*
X201168000Y-102870000D03*
X201168000Y-87884000D03*
X201168000Y-94234000D03*
X201168000Y-96520000D03*
X203454000Y-96520000D03*
X203454000Y-94234000D03*
X201168000Y-105156000D03*
X203454000Y-100838000D03*
X201168000Y-92202000D03*
X201168000Y-98552000D03*
X201168000Y-89916000D03*
X200406000Y-107188000D03*
X203454000Y-92202000D03*
X203454000Y-89916000D03*
X202692000Y-109474000D03*
X188976000Y-111760000D03*
X196342000Y-114046000D03*
X198120000Y-113792000D03*
X186690000Y-118110000D03*
X202692000Y-111760000D03*
X190500000Y-106426000D03*
X198120000Y-116078000D03*
X186690000Y-116078000D03*
X200406000Y-109474000D03*
X200406000Y-111760000D03*
X200406000Y-118110000D03*
X198120000Y-111760000D03*
X202692000Y-118110000D03*
X188976000Y-118110000D03*
X186690000Y-113792000D03*
X198120000Y-109474000D03*
X196342000Y-109474000D03*
X200406000Y-116078000D03*
X186690000Y-111760000D03*
X191516000Y-107950000D03*
X186690000Y-109474000D03*
X200406000Y-113792000D03*
X198120000Y-118110000D03*
X188976000Y-113792000D03*
X196342000Y-116586000D03*
X202692000Y-116078000D03*
X196342000Y-111760000D03*
X202692000Y-113792000D03*
X188976000Y-116078000D03*
%TO.N,V_batt(+)*%
X81788000Y-42164000D03*
X102362000Y-50800000D03*
X100076000Y-44450000D03*
X102362000Y-55118000D03*
X90678000Y-57404000D03*
X100076000Y-35814000D03*
X100076000Y-48514000D03*
X90678000Y-33528000D03*
X95504000Y-72644000D03*
X100076000Y-37846000D03*
X100076000Y-57150000D03*
X90678000Y-37846000D03*
X102362000Y-57150000D03*
X97790000Y-57150000D03*
X95504000Y-61468000D03*
X88392000Y-35814000D03*
X92964000Y-55118000D03*
X84074000Y-57150000D03*
X102362000Y-61468000D03*
X100076000Y-72644000D03*
X83312000Y-55372000D03*
X81788000Y-49022000D03*
X77216000Y-37846000D03*
X88392000Y-70612000D03*
X84074000Y-35814000D03*
X79502000Y-51308000D03*
X90678000Y-55118000D03*
X84074000Y-40132000D03*
X81788000Y-40132000D03*
X91186000Y-72644000D03*
X79502000Y-35814000D03*
X95504000Y-59436000D03*
X102362000Y-46482000D03*
X77216000Y-35814000D03*
X77216000Y-42164000D03*
X97790000Y-70612000D03*
X90678000Y-35814000D03*
X87884000Y-61468000D03*
X100076000Y-68326000D03*
X95504000Y-40132000D03*
X86106000Y-55118000D03*
X85344000Y-59182000D03*
X96012000Y-63246000D03*
X81788000Y-53340000D03*
X95504000Y-35814000D03*
X100076000Y-61468000D03*
X97790000Y-61468000D03*
X100076000Y-55118000D03*
X80772000Y-55118000D03*
X81788000Y-35814000D03*
X77216000Y-40132000D03*
X88392000Y-59436000D03*
X86106000Y-37846000D03*
X84074000Y-37846000D03*
X83820000Y-53086000D03*
X100076000Y-59436000D03*
X81788000Y-37846000D03*
X79502000Y-42164000D03*
X100076000Y-46482000D03*
X98298000Y-48514000D03*
X77216000Y-33528000D03*
X90170000Y-61468000D03*
X92964000Y-57404000D03*
X97790000Y-33528000D03*
X102362000Y-59436000D03*
X100076000Y-70612000D03*
X77216000Y-46482000D03*
X97790000Y-68326000D03*
X102362000Y-33528000D03*
X102362000Y-70612000D03*
X97790000Y-55118000D03*
X77216000Y-53340000D03*
X102362000Y-68326000D03*
X97790000Y-35814000D03*
X88392000Y-55118000D03*
X100076000Y-42164000D03*
X92964000Y-59436000D03*
X79502000Y-44450000D03*
X86106000Y-35814000D03*
X77216000Y-51308000D03*
X95504000Y-57150000D03*
X82804000Y-58674000D03*
X86106000Y-33528000D03*
X79502000Y-46482000D03*
X92964000Y-33528000D03*
X98044000Y-44196000D03*
X100076000Y-40132000D03*
X96012000Y-69596000D03*
X102362000Y-65786000D03*
X88392000Y-33528000D03*
X102362000Y-35814000D03*
X93472000Y-72644000D03*
X95504000Y-33528000D03*
X102362000Y-42164000D03*
X81788000Y-46482000D03*
X81788000Y-33528000D03*
X95504000Y-37846000D03*
X102362000Y-37846000D03*
X100076000Y-50800000D03*
X92964000Y-37846000D03*
X97790000Y-65786000D03*
X90678000Y-59436000D03*
X86106000Y-57404000D03*
X102362000Y-48514000D03*
X79502000Y-53340000D03*
X81788000Y-51308000D03*
X102362000Y-52832000D03*
X100076000Y-65786000D03*
X100076000Y-52832000D03*
X79502000Y-40132000D03*
X91694000Y-70866000D03*
X97790000Y-40132000D03*
X93980000Y-70866000D03*
X100076000Y-33528000D03*
X77216000Y-44450000D03*
X102362000Y-44450000D03*
X95504000Y-55118000D03*
X102362000Y-63754000D03*
X97790000Y-37846000D03*
X97790000Y-59436000D03*
X97790000Y-42164000D03*
X97790000Y-52832000D03*
X102362000Y-72644000D03*
X88392000Y-57404000D03*
X95504000Y-52832000D03*
X97790000Y-63754000D03*
X92964000Y-35814000D03*
X81788000Y-44450000D03*
X79502000Y-33528000D03*
X97790000Y-72644000D03*
X88392000Y-72644000D03*
X92456000Y-61468000D03*
X79502000Y-49022000D03*
X84074000Y-33528000D03*
X77216000Y-49022000D03*
X88392000Y-37846000D03*
X102362000Y-40132000D03*
X100076000Y-63754000D03*
X97790000Y-50800000D03*
X79502000Y-37846000D03*
X81534000Y-56896000D03*
%TO.N,V_batt(+)_0*%
X57150000Y-59436000D03*
X54864000Y-70358000D03*
X54864000Y-68072000D03*
X66040000Y-66040000D03*
X76200000Y-72898000D03*
X79756000Y-62484000D03*
X74168000Y-45466000D03*
X54864000Y-66040000D03*
X70612000Y-61722000D03*
X66294000Y-35052000D03*
X57150000Y-53086000D03*
X66040000Y-68072000D03*
X66040000Y-72390000D03*
X59436000Y-59436000D03*
X73406000Y-35052000D03*
X63754000Y-66040000D03*
X54864000Y-46482000D03*
X77470000Y-62738000D03*
X75438000Y-64516000D03*
X59436000Y-66040000D03*
X63754000Y-70358000D03*
X59436000Y-57404000D03*
X54864000Y-53086000D03*
X73152000Y-55118000D03*
X63754000Y-33528000D03*
X57150000Y-63754000D03*
X71120000Y-35052000D03*
X54864000Y-44450000D03*
X70612000Y-72390000D03*
X68326000Y-63754000D03*
X68326000Y-70358000D03*
X70612000Y-53086000D03*
X61722000Y-68072000D03*
X74168000Y-40640000D03*
X73152000Y-61722000D03*
X70612000Y-55118000D03*
X73152000Y-66040000D03*
X61722000Y-72390000D03*
X66040000Y-63754000D03*
X80772000Y-70866000D03*
X70612000Y-57404000D03*
X64262000Y-35052000D03*
X54864000Y-61722000D03*
X68326000Y-61722000D03*
X63754000Y-57404000D03*
X56896000Y-35560000D03*
X70612000Y-59436000D03*
X61722000Y-70358000D03*
X68326000Y-66040000D03*
X73152000Y-63754000D03*
X70612000Y-33528000D03*
X57150000Y-66040000D03*
X78486000Y-72898000D03*
X57150000Y-57404000D03*
X59436000Y-61722000D03*
X54864000Y-48768000D03*
X83312000Y-72898000D03*
X75184000Y-57150000D03*
X58928000Y-35560000D03*
X61722000Y-55118000D03*
X66040000Y-61722000D03*
X61722000Y-59436000D03*
X76200000Y-70866000D03*
X57150000Y-61722000D03*
X66040000Y-70358000D03*
X56896000Y-37846000D03*
X68326000Y-59436000D03*
X68326000Y-72390000D03*
X54864000Y-37846000D03*
X59436000Y-72390000D03*
X68326000Y-57404000D03*
X72644000Y-33528000D03*
X63754000Y-55118000D03*
X54864000Y-57404000D03*
X78486000Y-70866000D03*
X73152000Y-70358000D03*
X59436000Y-63754000D03*
X66040000Y-55118000D03*
X75438000Y-66802000D03*
X61722000Y-66040000D03*
X73152000Y-68072000D03*
X68326000Y-33528000D03*
X54864000Y-40132000D03*
X54864000Y-72390000D03*
X61976000Y-35052000D03*
X74168000Y-43180000D03*
X59436000Y-55118000D03*
X54864000Y-59436000D03*
X74168000Y-38354000D03*
X68326000Y-68072000D03*
X61722000Y-63754000D03*
X72136000Y-50546000D03*
X54864000Y-50800000D03*
X63754000Y-59436000D03*
X73152000Y-59436000D03*
X82042000Y-62484000D03*
X61722000Y-57404000D03*
X63754000Y-53086000D03*
X61722000Y-61722000D03*
X63754000Y-61722000D03*
X61722000Y-53086000D03*
X73152000Y-57404000D03*
X70612000Y-70358000D03*
X75692000Y-61976000D03*
X70612000Y-68072000D03*
X54864000Y-63754000D03*
X54864000Y-42164000D03*
X84328000Y-62738000D03*
X58928000Y-33528000D03*
X59436000Y-53086000D03*
X75438000Y-68580000D03*
X70612000Y-63754000D03*
X57150000Y-68072000D03*
X74168000Y-47752000D03*
X68580000Y-35052000D03*
X68326000Y-53086000D03*
X83312000Y-70866000D03*
X63754000Y-68072000D03*
X63754000Y-63754000D03*
X63754000Y-72390000D03*
X66040000Y-59436000D03*
X57150000Y-70358000D03*
X73914000Y-50546000D03*
X70612000Y-66040000D03*
X66040000Y-57404000D03*
X73152000Y-72390000D03*
X72390000Y-36830000D03*
X74930000Y-59944000D03*
X57150000Y-72390000D03*
X73152000Y-53086000D03*
X57150000Y-55118000D03*
X66040000Y-53086000D03*
X59436000Y-68072000D03*
X68326000Y-55118000D03*
X61214000Y-33528000D03*
X66040000Y-33528000D03*
X54864000Y-55118000D03*
X59436000Y-70358000D03*
X80772000Y-72898000D03*
%TO.N,V_Charge{slash}Load(+)*%
X108966000Y-60452000D03*
X108966000Y-67056000D03*
X142494000Y-68326000D03*
X115570000Y-69088000D03*
X142748000Y-50038000D03*
X113284000Y-56134000D03*
X133350000Y-67056000D03*
X144780000Y-34290000D03*
X142748000Y-58928000D03*
X124460000Y-56134000D03*
X120142000Y-53848000D03*
X120142000Y-62738000D03*
X124460000Y-67056000D03*
X115570000Y-58166000D03*
X144780000Y-46736000D03*
X133350000Y-60452000D03*
X126746000Y-67056000D03*
X135890000Y-36576000D03*
X108966000Y-34290000D03*
X124460000Y-64770000D03*
X108966000Y-58166000D03*
X127000000Y-34290000D03*
X129032000Y-67056000D03*
X120142000Y-56134000D03*
X113284000Y-62738000D03*
X137922000Y-62738000D03*
X120142000Y-58166000D03*
X117856000Y-60452000D03*
X115570000Y-62738000D03*
X151384000Y-44704000D03*
X122174000Y-64770000D03*
X108966000Y-62738000D03*
X131064000Y-60452000D03*
X111252000Y-67056000D03*
X142494000Y-61722000D03*
X122174000Y-60452000D03*
X125984000Y-45466000D03*
X151384000Y-48768000D03*
X122174000Y-62738000D03*
X108966000Y-42926000D03*
X125984000Y-47752000D03*
X115316000Y-54356000D03*
X126746000Y-56134000D03*
X144526000Y-42672000D03*
X120142000Y-34290000D03*
X142748000Y-52070000D03*
X131318000Y-34290000D03*
X149860000Y-50546000D03*
X140462000Y-61722000D03*
X113284000Y-69088000D03*
X144780000Y-44704000D03*
X125222000Y-54102000D03*
X141732000Y-54102000D03*
X108966000Y-64770000D03*
X151384000Y-34290000D03*
X120142000Y-60452000D03*
X122174000Y-67056000D03*
X147066000Y-34290000D03*
X144526000Y-48768000D03*
X140462000Y-64008000D03*
X117856000Y-38608000D03*
X140462000Y-34290000D03*
X136906000Y-54102000D03*
X108966000Y-36576000D03*
X133350000Y-69088000D03*
X128270000Y-38862000D03*
X111252000Y-60452000D03*
X147320000Y-50546000D03*
X140462000Y-68326000D03*
X111252000Y-62738000D03*
X137922000Y-56134000D03*
X117856000Y-64770000D03*
X122428000Y-34290000D03*
X129794000Y-54102000D03*
X111252000Y-34290000D03*
X131064000Y-67056000D03*
X142748000Y-36576000D03*
X129032000Y-60452000D03*
X111252000Y-58166000D03*
X115570000Y-34290000D03*
X113284000Y-58166000D03*
X111252000Y-69088000D03*
X149352000Y-34290000D03*
X135636000Y-67056000D03*
X117856000Y-36576000D03*
X113284000Y-64770000D03*
X139192000Y-54102000D03*
X135636000Y-69088000D03*
X144526000Y-40894000D03*
X111252000Y-38608000D03*
X138176000Y-36576000D03*
X117602000Y-54610000D03*
X124206000Y-41148000D03*
X137922000Y-60452000D03*
X117856000Y-67056000D03*
X151384000Y-38608000D03*
X146812000Y-42672000D03*
X137922000Y-69088000D03*
X115570000Y-64770000D03*
X133604000Y-36576000D03*
X129286000Y-34290000D03*
X151384000Y-46736000D03*
X110744000Y-52070000D03*
X131064000Y-64770000D03*
X117856000Y-34290000D03*
X129032000Y-62738000D03*
X146812000Y-40894000D03*
X128270000Y-52324000D03*
X145034000Y-51308000D03*
X126746000Y-64770000D03*
X121920000Y-39116000D03*
X125984000Y-38862000D03*
X120142000Y-36576000D03*
X129032000Y-69088000D03*
X142494000Y-64008000D03*
X135636000Y-60452000D03*
X133350000Y-58166000D03*
X127508000Y-54102000D03*
X113284000Y-60452000D03*
X126746000Y-58166000D03*
X108966000Y-56134000D03*
X126746000Y-62738000D03*
X124460000Y-58166000D03*
X122174000Y-69088000D03*
X135636000Y-62738000D03*
X126746000Y-60452000D03*
X113284000Y-34290000D03*
X146304000Y-52578000D03*
X138176000Y-34290000D03*
X125984000Y-52324000D03*
X133604000Y-34290000D03*
X108966000Y-47498000D03*
X117856000Y-69088000D03*
X129032000Y-58166000D03*
X144780000Y-36576000D03*
X135636000Y-64770000D03*
X127000000Y-36576000D03*
X108966000Y-69088000D03*
X117856000Y-62738000D03*
X108966000Y-51816000D03*
X133350000Y-64770000D03*
X134112000Y-54102000D03*
X140716000Y-56642000D03*
X122174000Y-56134000D03*
X120142000Y-69088000D03*
X142494000Y-66040000D03*
X140716000Y-58928000D03*
X149098000Y-40894000D03*
X124460000Y-69088000D03*
X115570000Y-60452000D03*
X131826000Y-54102000D03*
X124460000Y-62738000D03*
X125984000Y-41148000D03*
X108966000Y-45212000D03*
X117856000Y-56134000D03*
X149352000Y-38608000D03*
X151384000Y-42672000D03*
X122936000Y-54102000D03*
X113284000Y-36576000D03*
X151384000Y-36576000D03*
X117856000Y-58166000D03*
X142748000Y-34290000D03*
X135636000Y-56134000D03*
X113284000Y-67056000D03*
X131064000Y-69088000D03*
X129286000Y-36576000D03*
X135636000Y-58166000D03*
X120142000Y-64770000D03*
X108966000Y-53848000D03*
X122174000Y-58166000D03*
X124460000Y-60452000D03*
X147066000Y-46736000D03*
X142748000Y-56642000D03*
X115570000Y-67056000D03*
X149352000Y-36576000D03*
X111252000Y-36576000D03*
X135890000Y-34290000D03*
X144780000Y-38608000D03*
X125984000Y-43180000D03*
X133350000Y-62738000D03*
X113284000Y-38608000D03*
X149098000Y-42672000D03*
X115570000Y-36576000D03*
X128270000Y-50038000D03*
X133350000Y-56134000D03*
X147066000Y-44704000D03*
X131064000Y-56134000D03*
X122428000Y-36576000D03*
X129032000Y-56134000D03*
X131064000Y-58166000D03*
X125984000Y-50038000D03*
X115570000Y-38608000D03*
X142494000Y-38608000D03*
X129032000Y-64770000D03*
X149098000Y-48768000D03*
X108966000Y-38608000D03*
X147066000Y-36576000D03*
X108966000Y-40894000D03*
X131064000Y-62738000D03*
X111252000Y-53848000D03*
X131318000Y-36576000D03*
X151384000Y-40894000D03*
X137922000Y-67056000D03*
X140716000Y-52070000D03*
X137922000Y-58166000D03*
X120142000Y-67056000D03*
X137922000Y-64770000D03*
X144018000Y-53594000D03*
X124714000Y-34290000D03*
X124714000Y-36576000D03*
X111252000Y-64770000D03*
X147066000Y-38608000D03*
X113284000Y-53848000D03*
X111252000Y-40894000D03*
X124206000Y-39116000D03*
X140462000Y-36576000D03*
X140462000Y-66040000D03*
X149098000Y-46736000D03*
X115570000Y-56134000D03*
X120142000Y-38608000D03*
X146812000Y-48768000D03*
X108966000Y-49530000D03*
X126746000Y-69088000D03*
X111252000Y-56134000D03*
X149098000Y-44704000D03*
%TO.N,/BATT(+)*%
X69469000Y-117348000D03*
X60579000Y-104648000D03*
X53721000Y-119380000D03*
X65278000Y-108966000D03*
X67183000Y-106680000D03*
X55626000Y-113284000D03*
X53721000Y-115316000D03*
X58293000Y-117348000D03*
X62611000Y-117348000D03*
X60579000Y-119380000D03*
X67183000Y-110998000D03*
X67183000Y-113284000D03*
X69469000Y-110998000D03*
X60579000Y-106680000D03*
X69469000Y-108966000D03*
X55626000Y-106680000D03*
X58293000Y-104648000D03*
X67183000Y-108966000D03*
X53721000Y-113284000D03*
X56007000Y-117348000D03*
X65278000Y-110998000D03*
X58293000Y-119380000D03*
X56007000Y-119380000D03*
X69469000Y-113284000D03*
X64897000Y-106680000D03*
X55626000Y-110998000D03*
X65278000Y-115316000D03*
X53721000Y-104648000D03*
X67183000Y-115316000D03*
X58293000Y-106680000D03*
X62611000Y-106680000D03*
X67183000Y-104648000D03*
X62611000Y-104648000D03*
X53721000Y-106680000D03*
X69469000Y-104648000D03*
X53721000Y-108966000D03*
X67183000Y-117348000D03*
X60579000Y-117348000D03*
X53721000Y-110998000D03*
X62611000Y-119380000D03*
X69469000Y-115316000D03*
X56007000Y-104648000D03*
X53721000Y-117348000D03*
X64897000Y-104140000D03*
X64897000Y-117348000D03*
X67183000Y-119380000D03*
X69469000Y-119380000D03*
X55626000Y-108966000D03*
X64897000Y-119380000D03*
X55626000Y-115316000D03*
X65278000Y-113284000D03*
X69469000Y-106680000D03*
%TO.N,/LOAD(+)*%
X181864000Y-34036000D03*
X193802000Y-49276000D03*
X196088000Y-42164000D03*
X177546000Y-38354000D03*
X177546000Y-49022000D03*
X163830000Y-44704000D03*
X196088000Y-48768000D03*
X156972000Y-46990000D03*
X183896000Y-34036000D03*
X159258000Y-36068000D03*
X156972000Y-36068000D03*
X196088000Y-50800000D03*
X175260000Y-49022000D03*
X163830000Y-49022000D03*
X175260000Y-40386000D03*
X161544000Y-34036000D03*
X166116000Y-42672000D03*
X163830000Y-53848000D03*
X172974000Y-44704000D03*
X161544000Y-46990000D03*
X192532000Y-34036000D03*
X170688000Y-38354000D03*
X166116000Y-51562000D03*
X196088000Y-53086000D03*
X196850000Y-36068000D03*
X194564000Y-44450000D03*
X166116000Y-49022000D03*
X192532000Y-36068000D03*
X156972000Y-40386000D03*
X170688000Y-42672000D03*
X197866000Y-47752000D03*
X205994000Y-34036000D03*
X194310000Y-46990000D03*
X172974000Y-34036000D03*
X172974000Y-51562000D03*
X168402000Y-42672000D03*
X183896000Y-53594000D03*
X201422000Y-36068000D03*
X172974000Y-42672000D03*
X188214000Y-53594000D03*
X191516000Y-37846000D03*
X170688000Y-36068000D03*
X186182000Y-34036000D03*
X161544000Y-38354000D03*
X190500000Y-36068000D03*
X161544000Y-42672000D03*
X172974000Y-46990000D03*
X166116000Y-38354000D03*
X168402000Y-34036000D03*
X194564000Y-54102000D03*
X196088000Y-44450000D03*
X175260000Y-44704000D03*
X163830000Y-42672000D03*
X193802000Y-38100000D03*
X161544000Y-49022000D03*
X193802000Y-40132000D03*
X172974000Y-40386000D03*
X190500000Y-34036000D03*
X166116000Y-40386000D03*
X163830000Y-36068000D03*
X175260000Y-46990000D03*
X199136000Y-34036000D03*
X156972000Y-44704000D03*
X168402000Y-44704000D03*
X172974000Y-53848000D03*
X177546000Y-40386000D03*
X156972000Y-51562000D03*
X194056000Y-51308000D03*
X166116000Y-34036000D03*
X201168000Y-46482000D03*
X188214000Y-34036000D03*
X194818000Y-36068000D03*
X166116000Y-44704000D03*
X198120000Y-54102000D03*
X166116000Y-53848000D03*
X196088000Y-46482000D03*
X179324000Y-51054000D03*
X196088000Y-40132000D03*
X170688000Y-49022000D03*
X194310000Y-41910000D03*
X159258000Y-51562000D03*
X175260000Y-38354000D03*
X163830000Y-40386000D03*
X181864000Y-37846000D03*
X170688000Y-53848000D03*
X177292000Y-51562000D03*
X206248000Y-37846000D03*
X172974000Y-38354000D03*
X168402000Y-53848000D03*
X156972000Y-49022000D03*
X203454000Y-46482000D03*
X179832000Y-36068000D03*
X168402000Y-40386000D03*
X161544000Y-53848000D03*
X161544000Y-36068000D03*
X163830000Y-51562000D03*
X206248000Y-40132000D03*
X206248000Y-44450000D03*
X183896000Y-36068000D03*
X159258000Y-40386000D03*
X156972000Y-42672000D03*
X201422000Y-34036000D03*
X177546000Y-34036000D03*
X203708000Y-34036000D03*
X198120000Y-52070000D03*
X198120000Y-49784000D03*
X185928000Y-53594000D03*
X188214000Y-36068000D03*
X203708000Y-36068000D03*
X159258000Y-46990000D03*
X206248000Y-42164000D03*
X175260000Y-51562000D03*
X198882000Y-46482000D03*
X196088000Y-38100000D03*
X175260000Y-42672000D03*
X193040000Y-53086000D03*
X170688000Y-34036000D03*
X191516000Y-52070000D03*
X161544000Y-40386000D03*
X196850000Y-34036000D03*
X166116000Y-46990000D03*
X175260000Y-36068000D03*
X179578000Y-53594000D03*
X175260000Y-34036000D03*
X156972000Y-34036000D03*
X161544000Y-44704000D03*
X179832000Y-34036000D03*
X168402000Y-46990000D03*
X190246000Y-53594000D03*
X172974000Y-49022000D03*
X163830000Y-38354000D03*
X161544000Y-51562000D03*
X170688000Y-51562000D03*
X170688000Y-40386000D03*
X168402000Y-51562000D03*
X163830000Y-46990000D03*
X156972000Y-38354000D03*
X168402000Y-36068000D03*
X168402000Y-49022000D03*
X170688000Y-44704000D03*
X177292000Y-53594000D03*
X177546000Y-46990000D03*
X159258000Y-49022000D03*
X159258000Y-38354000D03*
X205740000Y-46482000D03*
X186182000Y-36068000D03*
X181610000Y-53594000D03*
X194818000Y-34036000D03*
X170688000Y-46990000D03*
X159258000Y-42672000D03*
X181864000Y-36068000D03*
X168402000Y-38354000D03*
X159258000Y-34036000D03*
X177546000Y-36068000D03*
X163830000Y-34036000D03*
X179578000Y-39116000D03*
X172974000Y-36068000D03*
X177546000Y-44704000D03*
X159258000Y-44704000D03*
X177546000Y-42672000D03*
X175260000Y-53594000D03*
X166116000Y-36068000D03*
X192024000Y-54356000D03*
X205994000Y-36068000D03*
X199136000Y-36068000D03*
%TO.N,/LOAD(-)*%
X208280000Y-68580000D03*
X212852000Y-70866000D03*
X217424000Y-75184000D03*
X222250000Y-47498000D03*
X205486000Y-64262000D03*
X203708000Y-77216000D03*
X215392000Y-47752000D03*
X221996000Y-64516000D03*
X213106000Y-36576000D03*
X203200000Y-59944000D03*
X212852000Y-77216000D03*
X217678000Y-64770000D03*
X217424000Y-49530000D03*
X222250000Y-45466000D03*
X221996000Y-68580000D03*
X210566000Y-75184000D03*
X210566000Y-77216000D03*
X219710000Y-68580000D03*
X219710000Y-79502000D03*
X220472000Y-38862000D03*
X217424000Y-79502000D03*
X217424000Y-66548000D03*
X219710000Y-72898000D03*
X201422000Y-68580000D03*
X205994000Y-81534000D03*
X221996000Y-72898000D03*
X220472000Y-43180000D03*
X202946000Y-51562000D03*
X215138000Y-75184000D03*
X208280000Y-79502000D03*
X211074000Y-40894000D03*
X215138000Y-66548000D03*
X215138000Y-77216000D03*
X213360000Y-33274000D03*
X208280000Y-77216000D03*
X215646000Y-33274000D03*
X205994000Y-66548000D03*
X201422000Y-75184000D03*
X208280000Y-81534000D03*
X203708000Y-79502000D03*
X204978000Y-51308000D03*
X212852000Y-79502000D03*
X222250000Y-41148000D03*
X201422000Y-77216000D03*
X220472000Y-45466000D03*
X221488000Y-37084000D03*
X219964000Y-47498000D03*
X219964000Y-58166000D03*
X217424000Y-77216000D03*
X201422000Y-66548000D03*
X211074000Y-49530000D03*
X215138000Y-36576000D03*
X200914000Y-64262000D03*
X203200000Y-62230000D03*
X202946000Y-53594000D03*
X219202000Y-34544000D03*
X221996000Y-77216000D03*
X217424000Y-68580000D03*
X212852000Y-75184000D03*
X221996000Y-62484000D03*
X205994000Y-68580000D03*
X205994000Y-70866000D03*
X212852000Y-81534000D03*
X205994000Y-77216000D03*
X203708000Y-66548000D03*
X220726000Y-35306000D03*
X211074000Y-36576000D03*
X219710000Y-62484000D03*
X200914000Y-59944000D03*
X219456000Y-36576000D03*
X210566000Y-81534000D03*
X219710000Y-49530000D03*
X203708000Y-72898000D03*
X201422000Y-72898000D03*
X217424000Y-72898000D03*
X217424000Y-36576000D03*
X201422000Y-81534000D03*
X221996000Y-51562000D03*
X201422000Y-79502000D03*
X205994000Y-75184000D03*
X203708000Y-68580000D03*
X221996000Y-79502000D03*
X219710000Y-51562000D03*
X200914000Y-62230000D03*
X221996000Y-53848000D03*
X219710000Y-77216000D03*
X215138000Y-68580000D03*
X213360000Y-49530000D03*
X208280000Y-72898000D03*
X217424000Y-81534000D03*
X221996000Y-58166000D03*
X212852000Y-72898000D03*
X208280000Y-75184000D03*
X208280000Y-70866000D03*
X215138000Y-79502000D03*
X208280000Y-66548000D03*
X217424000Y-34798000D03*
X219710000Y-81534000D03*
X212852000Y-66548000D03*
X203708000Y-81534000D03*
X205994000Y-79502000D03*
X215138000Y-81534000D03*
X202946000Y-57912000D03*
X211074000Y-47498000D03*
X219710000Y-64516000D03*
X215138000Y-34798000D03*
X221996000Y-75184000D03*
X221996000Y-49530000D03*
X201422000Y-70866000D03*
X219964000Y-60198000D03*
X221996000Y-70866000D03*
X215138000Y-72898000D03*
X221996000Y-66548000D03*
X210566000Y-79502000D03*
X203708000Y-70866000D03*
X210566000Y-70866000D03*
X211328000Y-35052000D03*
X211074000Y-45212000D03*
X207010000Y-51054000D03*
X221996000Y-55880000D03*
X213106000Y-34798000D03*
X219710000Y-75184000D03*
X205994000Y-72898000D03*
X211074000Y-42926000D03*
X217424000Y-51562000D03*
X204724000Y-53340000D03*
X203200000Y-64262000D03*
X221996000Y-60198000D03*
X212852000Y-68580000D03*
X217678000Y-47498000D03*
X215392000Y-50038000D03*
X219710000Y-70866000D03*
X213360000Y-47498000D03*
X202946000Y-55880000D03*
X221996000Y-81534000D03*
X219710000Y-66548000D03*
X215138000Y-70866000D03*
X222250000Y-43180000D03*
X210566000Y-66548000D03*
X219710000Y-55880000D03*
X203708000Y-75184000D03*
X210566000Y-68580000D03*
X210566000Y-72898000D03*
X222250000Y-38862000D03*
X217678000Y-33274000D03*
X217424000Y-70866000D03*
X211074000Y-38608000D03*
X219710000Y-53848000D03*
X211328000Y-33274000D03*
X220472000Y-41148000D03*
%TO.N,V_batt(-)*%
X221996000Y-116840000D03*
X217424000Y-91186000D03*
X212852000Y-118618000D03*
X219710000Y-93472000D03*
X208280000Y-118618000D03*
X221996000Y-110744000D03*
X221996000Y-114808000D03*
X220218000Y-109982000D03*
X221996000Y-89154000D03*
X210566000Y-95504000D03*
X219710000Y-91186000D03*
X219710000Y-114808000D03*
X219710000Y-95504000D03*
X217424000Y-99822000D03*
X219710000Y-86868000D03*
X211836000Y-117348000D03*
X210566000Y-97790000D03*
X212852000Y-86868000D03*
X210566000Y-93472000D03*
X210566000Y-99822000D03*
X221996000Y-106426000D03*
X219710000Y-99822000D03*
X210566000Y-86868000D03*
X217424000Y-95504000D03*
X210566000Y-89154000D03*
X205994000Y-91186000D03*
X219710000Y-104140000D03*
X208280000Y-99822000D03*
X205994000Y-118618000D03*
X208280000Y-95504000D03*
X221996000Y-99822000D03*
X208280000Y-116840000D03*
X208280000Y-86868000D03*
X208280000Y-97790000D03*
X217678000Y-116840000D03*
X212852000Y-91186000D03*
X212852000Y-93472000D03*
X205994000Y-86868000D03*
X219710000Y-116840000D03*
X212852000Y-95504000D03*
X215138000Y-86868000D03*
X221996000Y-108458000D03*
X219710000Y-97790000D03*
X221996000Y-91186000D03*
X217678000Y-102108000D03*
X205994000Y-97790000D03*
X215138000Y-97790000D03*
X205994000Y-93472000D03*
X217424000Y-97790000D03*
X219710000Y-102108000D03*
X208280000Y-89154000D03*
X205994000Y-99822000D03*
X219964000Y-106680000D03*
X221996000Y-112776000D03*
X217678000Y-118618000D03*
X205994000Y-95504000D03*
X215392000Y-116840000D03*
X221996000Y-104140000D03*
X221996000Y-97790000D03*
X215392000Y-118618000D03*
X221996000Y-93472000D03*
X205994000Y-89154000D03*
X217678000Y-114808000D03*
X219710000Y-118618000D03*
X205994000Y-102108000D03*
X221996000Y-86868000D03*
X212852000Y-97790000D03*
X212852000Y-99822000D03*
X217424000Y-93472000D03*
X210566000Y-91186000D03*
X212852000Y-89154000D03*
X210566000Y-118618000D03*
X219710000Y-112776000D03*
X215138000Y-91186000D03*
X217424000Y-89154000D03*
X208280000Y-93472000D03*
X221996000Y-102108000D03*
X215138000Y-89154000D03*
X205994000Y-116840000D03*
X208280000Y-91186000D03*
X221996000Y-118618000D03*
X215138000Y-99822000D03*
X221996000Y-95504000D03*
X215138000Y-93472000D03*
X215138000Y-95504000D03*
X217424000Y-86868000D03*
X219710000Y-89154000D03*
%TD*%
D36*
%TO.N,GND*%
X81026000Y-94249000D02*
X81026000Y-99314000D01*
X81026000Y-99314000D02*
X73406000Y-106934000D01*
X73406000Y-106934000D02*
X73406000Y-117463371D01*
X73406000Y-117463371D02*
X79132629Y-123190000D01*
X79132629Y-123190000D02*
X89703000Y-123190000D01*
X89703000Y-123190000D02*
X90958000Y-121935000D01*
%TO.N,VCC*%
X78526000Y-94249000D02*
X78526000Y-99528000D01*
X78526000Y-99528000D02*
X71628000Y-106426000D01*
X71628000Y-106426000D02*
X71628000Y-117856000D01*
X82804000Y-129032000D02*
X92456000Y-129032000D01*
X71628000Y-117856000D02*
X82804000Y-129032000D01*
X175514000Y-87376000D02*
X172451000Y-84313000D01*
X172451000Y-84313000D02*
X170434000Y-84313000D01*
D37*
%TO.N,SDA*%
X96398000Y-131605000D02*
X122141000Y-131605000D01*
X122141000Y-131605000D02*
X127254000Y-126492000D01*
X127254000Y-126492000D02*
X127254000Y-98298000D01*
X133858000Y-91694000D02*
X145796000Y-91694000D01*
X127254000Y-98298000D02*
X133858000Y-91694000D01*
%TO.N,SCL*%
X96398000Y-134145000D02*
X121379000Y-134145000D01*
X121379000Y-134145000D02*
X128524000Y-127000000D01*
X128524000Y-127000000D02*
X128524000Y-99558695D01*
X133848695Y-94234000D02*
X145796000Y-94234000D01*
X128524000Y-99558695D02*
X133848695Y-94234000D01*
X164076000Y-98798000D02*
X160274000Y-94996000D01*
X165514000Y-98798000D02*
X164076000Y-98798000D01*
X160274000Y-94996000D02*
X160274000Y-91694000D01*
%TO.N,SDA*%
X161798000Y-89916000D02*
X163068000Y-91186000D01*
X160274000Y-89916000D02*
X161798000Y-89916000D01*
X163068000Y-91186000D02*
X163076000Y-91178000D01*
X163076000Y-91178000D02*
X165514000Y-91178000D01*
D36*
%TO.N,VCC*%
X92456000Y-129032000D02*
X92964000Y-129032000D01*
X92964000Y-129540000D02*
X92456000Y-129032000D01*
X92964000Y-129540000D02*
X92964000Y-137922000D01*
X92964000Y-129032000D02*
X92964000Y-129540000D01*
X93472000Y-129032000D02*
X96365000Y-129032000D01*
X92964000Y-129032000D02*
X93472000Y-129032000D01*
X92964000Y-129540000D02*
X93472000Y-129032000D01*
X92964000Y-137922000D02*
X104902000Y-149860000D01*
X104902000Y-149860000D02*
X197104000Y-149860000D01*
X215608000Y-131356000D02*
X215608000Y-121631000D01*
X197104000Y-149860000D02*
X215608000Y-131356000D01*
X104648000Y-79248000D02*
X89154000Y-79248000D01*
X89154000Y-79248000D02*
X84206000Y-84196000D01*
X84206000Y-84196000D02*
X84206000Y-87532000D01*
X190754000Y-58158000D02*
X188984000Y-56388000D01*
X158750000Y-53594000D02*
X149098000Y-53594000D01*
X144780000Y-57912000D02*
X144780000Y-69596000D01*
X188984000Y-56388000D02*
X161544000Y-56388000D01*
X161544000Y-56388000D02*
X158750000Y-53594000D01*
X149098000Y-53594000D02*
X144780000Y-57912000D01*
X144780000Y-69596000D02*
X141224000Y-73152000D01*
X141224000Y-73152000D02*
X110744000Y-73152000D01*
X110744000Y-73152000D02*
X104648000Y-79248000D01*
D37*
X96365000Y-129032000D02*
X96398000Y-129065000D01*
%TO.N,I_Sense*%
X113030000Y-74930000D02*
X143002000Y-74930000D01*
X147828000Y-70104000D02*
X147828000Y-66802000D01*
X106680000Y-81280000D02*
X113030000Y-74930000D01*
X143002000Y-74930000D02*
X147828000Y-70104000D01*
D38*
%TO.N,V_batt(+)*%
X172974000Y-113030000D02*
X166116000Y-113030000D01*
X179108000Y-121631000D02*
X179108000Y-119164000D01*
X179108000Y-119164000D02*
X172974000Y-113030000D01*
D39*
%TO.N,WPU_1*%
X160289000Y-77739000D02*
X155265000Y-77739000D01*
X165514000Y-81018000D02*
X163568000Y-81018000D01*
X163568000Y-81018000D02*
X160289000Y-77739000D01*
D38*
%TO.N,V_batt(-)*%
X179108000Y-147131000D02*
X179108000Y-140246000D01*
X163576000Y-124714000D02*
X163616000Y-124674000D01*
X163616000Y-124674000D02*
X163616000Y-113030000D01*
X179108000Y-140246000D02*
X163576000Y-124714000D01*
%TD*%
%TA.AperFunction,Conductor*%
%TO.N,/LOAD(+)*%
G36*
X207202000Y-32021113D02*
G01*
X207247387Y-32066500D01*
X207264000Y-32128500D01*
X207264000Y-47882000D01*
X207247387Y-47944000D01*
X207202000Y-47989387D01*
X207140000Y-48006000D01*
X199390000Y-48006000D01*
X199390000Y-48022326D01*
X199390000Y-55248000D01*
X199373387Y-55310000D01*
X199328000Y-55355387D01*
X199266000Y-55372000D01*
X161570019Y-55372000D01*
X161522566Y-55362561D01*
X161482338Y-55335681D01*
X159262939Y-53116282D01*
X159257822Y-53110847D01*
X159217929Y-53065817D01*
X159168410Y-53031636D01*
X159162404Y-53027216D01*
X159120961Y-52994747D01*
X159120958Y-52994745D01*
X159115057Y-52990122D01*
X159108219Y-52987044D01*
X159108210Y-52987039D01*
X159105810Y-52985959D01*
X159086268Y-52974937D01*
X159084107Y-52973445D01*
X159084102Y-52973442D01*
X159077930Y-52969182D01*
X159021702Y-52947857D01*
X159014784Y-52944991D01*
X158966772Y-52923383D01*
X158966769Y-52923382D01*
X158959932Y-52920305D01*
X158952560Y-52918954D01*
X158952551Y-52918951D01*
X158949952Y-52918475D01*
X158928340Y-52912450D01*
X158925891Y-52911521D01*
X158925885Y-52911519D01*
X158918872Y-52908860D01*
X158911430Y-52907956D01*
X158911425Y-52907955D01*
X158859171Y-52901610D01*
X158851771Y-52900483D01*
X158799987Y-52890994D01*
X158799982Y-52890993D01*
X158792606Y-52889642D01*
X158785126Y-52890094D01*
X158785118Y-52890094D01*
X158732567Y-52893274D01*
X158725079Y-52893500D01*
X155572000Y-52893500D01*
X155510000Y-52876887D01*
X155464613Y-52831500D01*
X155448000Y-52769500D01*
X155448000Y-32128500D01*
X155464613Y-32066500D01*
X155510000Y-32021113D01*
X155572000Y-32004500D01*
X207140000Y-32004500D01*
X207202000Y-32021113D01*
G37*
%TD.AperFunction*%
%TD*%
%TA.AperFunction,Conductor*%
%TO.N,V_batt(-)*%
G36*
X223444423Y-85360608D02*
G01*
X223489809Y-85405984D01*
X223506431Y-85467973D01*
X223513876Y-119255973D01*
X223497272Y-119317984D01*
X223451884Y-119363383D01*
X223389876Y-119380000D01*
X180733605Y-119380000D01*
X180667220Y-119360733D01*
X180621465Y-119308921D01*
X180610557Y-119240663D01*
X180611723Y-119231307D01*
X180611722Y-119231307D01*
X180612357Y-119226221D01*
X180608605Y-119135527D01*
X180608500Y-119130404D01*
X180608500Y-119104502D01*
X180608500Y-119101933D01*
X180606148Y-119073557D01*
X180605831Y-119068450D01*
X180602081Y-118977763D01*
X180601029Y-118972746D01*
X180601028Y-118972738D01*
X180597263Y-118954783D01*
X180595046Y-118939572D01*
X180593108Y-118916179D01*
X180570824Y-118828186D01*
X180569670Y-118823193D01*
X180552102Y-118739408D01*
X180551049Y-118734386D01*
X180542514Y-118712514D01*
X180537829Y-118697890D01*
X180532063Y-118675119D01*
X180495600Y-118591993D01*
X180493668Y-118587330D01*
X180460656Y-118502726D01*
X180448637Y-118482556D01*
X180441602Y-118468889D01*
X180434233Y-118452090D01*
X180432173Y-118447393D01*
X180382546Y-118371432D01*
X180379833Y-118367085D01*
X180335994Y-118293515D01*
X180335989Y-118293508D01*
X180333366Y-118289106D01*
X180330052Y-118285193D01*
X180330049Y-118285189D01*
X180318190Y-118271187D01*
X180309001Y-118258864D01*
X180298972Y-118243513D01*
X180298971Y-118243512D01*
X180296164Y-118239215D01*
X180234694Y-118172441D01*
X180231301Y-118168598D01*
X180214567Y-118148839D01*
X180214557Y-118148828D01*
X180212902Y-118146874D01*
X180192771Y-118126743D01*
X180189222Y-118123045D01*
X180131212Y-118060029D01*
X180131210Y-118060027D01*
X180127744Y-118056262D01*
X180123708Y-118053121D01*
X180123702Y-118053115D01*
X180109211Y-118041837D01*
X180097693Y-118031665D01*
X175365028Y-113299000D01*
X189956532Y-113299000D01*
X189957004Y-113304395D01*
X189965334Y-113399614D01*
X189976365Y-113525692D01*
X189977762Y-113530907D01*
X189977764Y-113530916D01*
X190033858Y-113740263D01*
X190033861Y-113740271D01*
X190035261Y-113745496D01*
X190131432Y-113951734D01*
X190261953Y-114138139D01*
X190422861Y-114299047D01*
X190609266Y-114429568D01*
X190815504Y-114525739D01*
X190820734Y-114527140D01*
X190820736Y-114527141D01*
X190968817Y-114566819D01*
X191035308Y-114584635D01*
X191262000Y-114604468D01*
X191488692Y-114584635D01*
X191708496Y-114525739D01*
X191914734Y-114429568D01*
X192101139Y-114299047D01*
X192259080Y-114141105D01*
X192315556Y-114108779D01*
X192380629Y-114109505D01*
X192436373Y-114143085D01*
X192467193Y-114199828D01*
X192467909Y-114206483D01*
X192518204Y-114341331D01*
X192523518Y-114348430D01*
X192523519Y-114348431D01*
X192527817Y-114354173D01*
X192604454Y-114456546D01*
X192719669Y-114542796D01*
X192854517Y-114593091D01*
X192914127Y-114599500D01*
X194609872Y-114599499D01*
X194669483Y-114593091D01*
X194804331Y-114542796D01*
X194919546Y-114456546D01*
X195005796Y-114341331D01*
X195056091Y-114206483D01*
X195062500Y-114146873D01*
X195062499Y-112451128D01*
X195056091Y-112391517D01*
X195005796Y-112256669D01*
X194919546Y-112141454D01*
X194904555Y-112130232D01*
X194811431Y-112060519D01*
X194811430Y-112060518D01*
X194804331Y-112055204D01*
X194692155Y-112013365D01*
X194676752Y-112007620D01*
X194676750Y-112007619D01*
X194669483Y-112004909D01*
X194661770Y-112004079D01*
X194661767Y-112004079D01*
X194613180Y-111998855D01*
X194613169Y-111998854D01*
X194609873Y-111998500D01*
X194606550Y-111998500D01*
X192917439Y-111998500D01*
X192917420Y-111998500D01*
X192914128Y-111998501D01*
X192910850Y-111998853D01*
X192910838Y-111998854D01*
X192862231Y-112004079D01*
X192862225Y-112004080D01*
X192854517Y-112004909D01*
X192847252Y-112007618D01*
X192847246Y-112007620D01*
X192727980Y-112052104D01*
X192727978Y-112052104D01*
X192719669Y-112055204D01*
X192712572Y-112060516D01*
X192712568Y-112060519D01*
X192611550Y-112136141D01*
X192611546Y-112136144D01*
X192604454Y-112141454D01*
X192599144Y-112148546D01*
X192599141Y-112148550D01*
X192523519Y-112249568D01*
X192523516Y-112249572D01*
X192518204Y-112256669D01*
X192515104Y-112264978D01*
X192515104Y-112264980D01*
X192470619Y-112384249D01*
X192470617Y-112384254D01*
X192467909Y-112391517D01*
X192467193Y-112398171D01*
X192436372Y-112454914D01*
X192380628Y-112488495D01*
X192315556Y-112489220D01*
X192259077Y-112456891D01*
X192104968Y-112302782D01*
X192101139Y-112298953D01*
X191934293Y-112182127D01*
X191919173Y-112171540D01*
X191919171Y-112171539D01*
X191914734Y-112168432D01*
X191708496Y-112072261D01*
X191703271Y-112070861D01*
X191703263Y-112070858D01*
X191493916Y-112014764D01*
X191493907Y-112014762D01*
X191488692Y-112013365D01*
X191483304Y-112012893D01*
X191483301Y-112012893D01*
X191267395Y-111994004D01*
X191262000Y-111993532D01*
X191256605Y-111994004D01*
X191040698Y-112012893D01*
X191040693Y-112012893D01*
X191035308Y-112013365D01*
X191030094Y-112014762D01*
X191030083Y-112014764D01*
X190820736Y-112070858D01*
X190820724Y-112070862D01*
X190815504Y-112072261D01*
X190810599Y-112074547D01*
X190810594Y-112074550D01*
X190614176Y-112166142D01*
X190614172Y-112166144D01*
X190609266Y-112168432D01*
X190604833Y-112171535D01*
X190604826Y-112171540D01*
X190427296Y-112295847D01*
X190427291Y-112295850D01*
X190422861Y-112298953D01*
X190419037Y-112302776D01*
X190419031Y-112302782D01*
X190265782Y-112456031D01*
X190265776Y-112456037D01*
X190261953Y-112459861D01*
X190258850Y-112464291D01*
X190258847Y-112464296D01*
X190134540Y-112641826D01*
X190134535Y-112641833D01*
X190131432Y-112646266D01*
X190129144Y-112651172D01*
X190129142Y-112651176D01*
X190037550Y-112847594D01*
X190037547Y-112847599D01*
X190035261Y-112852504D01*
X190033862Y-112857724D01*
X190033858Y-112857736D01*
X189977764Y-113067083D01*
X189977762Y-113067094D01*
X189976365Y-113072308D01*
X189975893Y-113077693D01*
X189975893Y-113077698D01*
X189957004Y-113293605D01*
X189956532Y-113299000D01*
X175365028Y-113299000D01*
X174106334Y-112040306D01*
X174096161Y-112028787D01*
X174084888Y-112014303D01*
X174084887Y-112014302D01*
X174081738Y-112010256D01*
X174014953Y-111948776D01*
X174011255Y-111945227D01*
X173992939Y-111926911D01*
X173992938Y-111926910D01*
X173991126Y-111925098D01*
X173969388Y-111906687D01*
X173965546Y-111903294D01*
X173902554Y-111845305D01*
X173902549Y-111845301D01*
X173898785Y-111841836D01*
X173894499Y-111839035D01*
X173894489Y-111839028D01*
X173879123Y-111828989D01*
X173866804Y-111819803D01*
X173852806Y-111807947D01*
X173852803Y-111807945D01*
X173848894Y-111804634D01*
X173770926Y-111758174D01*
X173766583Y-111755464D01*
X173694904Y-111708634D01*
X173694901Y-111708632D01*
X173690607Y-111705827D01*
X173685910Y-111703766D01*
X173685907Y-111703765D01*
X173669109Y-111696397D01*
X173655446Y-111689363D01*
X173639685Y-111679971D01*
X173639672Y-111679964D01*
X173635274Y-111677344D01*
X173630502Y-111675481D01*
X173630496Y-111675479D01*
X173573479Y-111653231D01*
X173550717Y-111644349D01*
X173546004Y-111642397D01*
X173462881Y-111605937D01*
X173457918Y-111604680D01*
X173457915Y-111604679D01*
X173440113Y-111600171D01*
X173425488Y-111595486D01*
X173403614Y-111586951D01*
X173398609Y-111585901D01*
X173398604Y-111585900D01*
X173314793Y-111568326D01*
X173309803Y-111567171D01*
X173226790Y-111546150D01*
X173226786Y-111546149D01*
X173221821Y-111544892D01*
X173216720Y-111544469D01*
X173216713Y-111544468D01*
X173198418Y-111542952D01*
X173183221Y-111540738D01*
X173160237Y-111535919D01*
X173155116Y-111535707D01*
X173155107Y-111535706D01*
X173069559Y-111532168D01*
X173064447Y-111531851D01*
X173038609Y-111529710D01*
X173038594Y-111529709D01*
X173036067Y-111529500D01*
X173033514Y-111529500D01*
X173007596Y-111529500D01*
X173002472Y-111529394D01*
X172916901Y-111525854D01*
X172916890Y-111525854D01*
X172911779Y-111525643D01*
X172906705Y-111526275D01*
X172906692Y-111526276D01*
X172888472Y-111528548D01*
X172873135Y-111529500D01*
X166053933Y-111529500D01*
X166051383Y-111529711D01*
X166051366Y-111529712D01*
X165873298Y-111544467D01*
X165873288Y-111544468D01*
X165868179Y-111544892D01*
X165863213Y-111546149D01*
X165863204Y-111546151D01*
X165632089Y-111604678D01*
X165632084Y-111604679D01*
X165627119Y-111605937D01*
X165622425Y-111607995D01*
X165622422Y-111607997D01*
X165404095Y-111703764D01*
X165404090Y-111703766D01*
X165399393Y-111705827D01*
X165394054Y-111709314D01*
X165392555Y-111710009D01*
X165390592Y-111711072D01*
X165390525Y-111710949D01*
X165361620Y-111724346D01*
X165326244Y-111729500D01*
X165271439Y-111729500D01*
X165271420Y-111729500D01*
X165268128Y-111729501D01*
X165264850Y-111729853D01*
X165264838Y-111729854D01*
X165216231Y-111735079D01*
X165216225Y-111735080D01*
X165208517Y-111735909D01*
X165201252Y-111738618D01*
X165201246Y-111738620D01*
X165081980Y-111783104D01*
X165081978Y-111783104D01*
X165073669Y-111786204D01*
X165066572Y-111791516D01*
X165066568Y-111791519D01*
X164965550Y-111867141D01*
X164965546Y-111867144D01*
X164958454Y-111872454D01*
X164953144Y-111879546D01*
X164953141Y-111879550D01*
X164877519Y-111980568D01*
X164877516Y-111980572D01*
X164872204Y-111987669D01*
X164869104Y-111995978D01*
X164869104Y-111995980D01*
X164824620Y-112115247D01*
X164824619Y-112115250D01*
X164821909Y-112122517D01*
X164821079Y-112130227D01*
X164821079Y-112130232D01*
X164815855Y-112178819D01*
X164815854Y-112178831D01*
X164815500Y-112182127D01*
X164815500Y-112185449D01*
X164815500Y-112249051D01*
X164800555Y-112308068D01*
X164739610Y-112420683D01*
X164739605Y-112420693D01*
X164737172Y-112425190D01*
X164735511Y-112430026D01*
X164735507Y-112430037D01*
X164658094Y-112655534D01*
X164658092Y-112655541D01*
X164656429Y-112660386D01*
X164655585Y-112665441D01*
X164655585Y-112665443D01*
X164616344Y-112900601D01*
X164616343Y-112900613D01*
X164615500Y-112905665D01*
X164615500Y-113154335D01*
X164616343Y-113159387D01*
X164616344Y-113159398D01*
X164640540Y-113304395D01*
X164656429Y-113399614D01*
X164658093Y-113404461D01*
X164658094Y-113404465D01*
X164735507Y-113629962D01*
X164735510Y-113629969D01*
X164737172Y-113634810D01*
X164739607Y-113639311D01*
X164739610Y-113639316D01*
X164800555Y-113751933D01*
X164815500Y-113810948D01*
X164815500Y-113874560D01*
X164815500Y-113874578D01*
X164815501Y-113877872D01*
X164815853Y-113881150D01*
X164815854Y-113881161D01*
X164821079Y-113929768D01*
X164821080Y-113929773D01*
X164821909Y-113937483D01*
X164824619Y-113944749D01*
X164824620Y-113944753D01*
X164858217Y-114034831D01*
X164872204Y-114072331D01*
X164877518Y-114079430D01*
X164877519Y-114079431D01*
X164925518Y-114143550D01*
X164958454Y-114187546D01*
X165073669Y-114273796D01*
X165208517Y-114324091D01*
X165268127Y-114330500D01*
X165326241Y-114330499D01*
X165361625Y-114335655D01*
X165390520Y-114349049D01*
X165390587Y-114348926D01*
X165392576Y-114350002D01*
X165394068Y-114350694D01*
X165395099Y-114351368D01*
X165395103Y-114351370D01*
X165399393Y-114354173D01*
X165627119Y-114454063D01*
X165868179Y-114515108D01*
X166053933Y-114530500D01*
X172301110Y-114530500D01*
X172348563Y-114539939D01*
X172388791Y-114566819D01*
X176990291Y-119168319D01*
X177020541Y-119217682D01*
X177025083Y-119275398D01*
X177002928Y-119328885D01*
X176958905Y-119366485D01*
X176902610Y-119380000D01*
X129410000Y-119380000D01*
X129348000Y-119363387D01*
X129302613Y-119318000D01*
X129286000Y-119256000D01*
X129286000Y-99732647D01*
X129295439Y-99685194D01*
X129322319Y-99644966D01*
X132410967Y-96556319D01*
X132451195Y-96529439D01*
X132498648Y-96520000D01*
X149081674Y-96520000D01*
X149098000Y-96520000D01*
X149098000Y-116332000D01*
X158750000Y-116332000D01*
X158750000Y-96520000D01*
X158766326Y-96520000D01*
X160862048Y-96520000D01*
X160909501Y-96529439D01*
X160949727Y-96556318D01*
X162006151Y-97612742D01*
X162777681Y-98384272D01*
X162804561Y-98424500D01*
X162814000Y-98471953D01*
X162814000Y-105410000D01*
X162830326Y-105410000D01*
X199627674Y-105410000D01*
X199644000Y-105410000D01*
X199644000Y-85468000D01*
X199660613Y-85406000D01*
X199706000Y-85360613D01*
X199768000Y-85344000D01*
X223382431Y-85344000D01*
X223444423Y-85360608D01*
G37*
%TD.AperFunction*%
%TD*%
%TA.AperFunction,Conductor*%
%TO.N,V_batt(+)*%
G36*
X103316000Y-32021113D02*
G01*
X103361387Y-32066500D01*
X103378000Y-32128500D01*
X103378000Y-74298000D01*
X103361387Y-74360000D01*
X103316000Y-74405387D01*
X103254000Y-74422000D01*
X86992000Y-74422000D01*
X86930000Y-74405387D01*
X86884613Y-74360000D01*
X86868000Y-74298000D01*
X86868000Y-60468326D01*
X86868000Y-60452000D01*
X86851674Y-60452000D01*
X79372000Y-60452000D01*
X79310000Y-60435387D01*
X79264613Y-60390000D01*
X79248000Y-60328000D01*
X79248000Y-54880326D01*
X79248000Y-54864000D01*
X79231674Y-54864000D01*
X76578000Y-54864000D01*
X76516000Y-54847387D01*
X76470613Y-54802000D01*
X76454000Y-54740000D01*
X76454000Y-32128500D01*
X76470613Y-32066500D01*
X76516000Y-32021113D01*
X76578000Y-32004500D01*
X103254000Y-32004500D01*
X103316000Y-32021113D01*
G37*
%TD.AperFunction*%
%TD*%
%TA.AperFunction,Conductor*%
%TO.N,V_Charge{slash}Load(+)*%
G36*
X152338000Y-32021113D02*
G01*
X152383387Y-32066500D01*
X152400000Y-32128500D01*
X152400000Y-50217600D01*
X152382329Y-50281397D01*
X152334353Y-50327011D01*
X150323825Y-51399293D01*
X144794873Y-54348067D01*
X144794871Y-54348068D01*
X144780000Y-54356000D01*
X144780000Y-54372857D01*
X144780000Y-56869980D01*
X144770561Y-56917433D01*
X144743681Y-56957661D01*
X144302290Y-57399051D01*
X144296838Y-57404184D01*
X144257431Y-57439096D01*
X144257425Y-57439102D01*
X144251817Y-57444071D01*
X144247560Y-57450236D01*
X144247551Y-57450248D01*
X144217649Y-57493568D01*
X144213213Y-57499597D01*
X144180749Y-57541035D01*
X144180743Y-57541043D01*
X144176122Y-57546943D01*
X144173044Y-57553780D01*
X144173043Y-57553783D01*
X144171962Y-57556185D01*
X144160940Y-57575727D01*
X144159441Y-57577898D01*
X144159437Y-57577904D01*
X144155182Y-57584070D01*
X144152526Y-57591070D01*
X144152522Y-57591080D01*
X144133853Y-57640305D01*
X144130989Y-57647219D01*
X144109382Y-57695229D01*
X144109379Y-57695235D01*
X144106305Y-57702068D01*
X144104953Y-57709439D01*
X144104951Y-57709449D01*
X144104474Y-57712053D01*
X144098456Y-57733643D01*
X144097519Y-57736114D01*
X144097517Y-57736119D01*
X144094860Y-57743128D01*
X144093956Y-57750565D01*
X144093956Y-57750569D01*
X144087610Y-57802827D01*
X144086483Y-57810226D01*
X144076994Y-57862010D01*
X144076993Y-57862018D01*
X144075642Y-57869394D01*
X144076094Y-57876873D01*
X144076094Y-57876881D01*
X144079274Y-57929433D01*
X144079500Y-57936921D01*
X144079500Y-69254481D01*
X144070061Y-69301934D01*
X144043181Y-69342162D01*
X143063662Y-70321681D01*
X143023434Y-70348561D01*
X142975981Y-70358000D01*
X107566000Y-70358000D01*
X107504000Y-70341387D01*
X107458613Y-70296000D01*
X107442000Y-70234000D01*
X107442000Y-32128500D01*
X107458613Y-32066500D01*
X107504000Y-32021113D01*
X107566000Y-32004500D01*
X152276000Y-32004500D01*
X152338000Y-32021113D01*
G37*
%TD.AperFunction*%
%TD*%
%TA.AperFunction,Conductor*%
%TO.N,/LOAD(-)*%
G36*
X216640874Y-32004579D02*
G01*
X216920540Y-32014566D01*
X217128862Y-32022376D01*
X217137388Y-32022993D01*
X217395506Y-32050742D01*
X217395892Y-32050785D01*
X217627218Y-32076848D01*
X217635279Y-32078027D01*
X217888076Y-32123635D01*
X217888535Y-32123720D01*
X218120244Y-32167561D01*
X218127777Y-32169233D01*
X218375328Y-32232415D01*
X218376424Y-32232702D01*
X218605275Y-32294021D01*
X218612280Y-32296123D01*
X218854022Y-32376581D01*
X218855661Y-32377141D01*
X219079749Y-32455552D01*
X219086247Y-32458033D01*
X219321121Y-32555320D01*
X219323255Y-32556227D01*
X219541168Y-32651300D01*
X219547028Y-32654043D01*
X219774283Y-32767797D01*
X219776573Y-32768976D01*
X219938399Y-32854502D01*
X219986977Y-32880177D01*
X219992309Y-32883165D01*
X220074075Y-32931678D01*
X220210651Y-33012712D01*
X220213275Y-33014314D01*
X220414917Y-33141013D01*
X220419654Y-33144144D01*
X220628088Y-33288861D01*
X220630955Y-33290913D01*
X220822637Y-33432380D01*
X220826792Y-33435585D01*
X221024294Y-33594741D01*
X221027371Y-33597304D01*
X221207954Y-33752707D01*
X221211559Y-33755934D01*
X221310171Y-33847744D01*
X221397195Y-33928766D01*
X221400345Y-33931806D01*
X221568848Y-34100306D01*
X221571900Y-34103470D01*
X221744741Y-34289113D01*
X221747957Y-34292705D01*
X221901423Y-34471035D01*
X221903366Y-34473293D01*
X221905928Y-34476370D01*
X222007761Y-34602735D01*
X222065097Y-34673885D01*
X222068304Y-34678042D01*
X222209745Y-34869688D01*
X222211831Y-34872602D01*
X222356527Y-35081003D01*
X222359664Y-35085750D01*
X222486336Y-35287345D01*
X222487985Y-35290044D01*
X222617512Y-35508349D01*
X222620500Y-35513681D01*
X222731679Y-35724040D01*
X222732933Y-35726478D01*
X222846624Y-35953604D01*
X222849394Y-35959521D01*
X222944461Y-36177417D01*
X222945368Y-36179551D01*
X223042655Y-36414422D01*
X223045135Y-36420920D01*
X223123526Y-36644946D01*
X223124139Y-36646742D01*
X223204552Y-36888343D01*
X223206673Y-36895409D01*
X223267948Y-37124095D01*
X223268321Y-37125521D01*
X223331444Y-37372830D01*
X223333134Y-37380444D01*
X223376920Y-37611857D01*
X223377112Y-37612893D01*
X223422661Y-37865352D01*
X223423851Y-37873486D01*
X223449886Y-38104557D01*
X223449955Y-38105185D01*
X223477697Y-38363214D01*
X223478321Y-38371833D01*
X223486490Y-38590158D01*
X223486493Y-38590369D01*
X223486498Y-38590369D01*
X223496083Y-38858751D01*
X223496162Y-38863150D01*
X223505817Y-82679973D01*
X223489213Y-82741984D01*
X223443825Y-82787383D01*
X223381817Y-82804000D01*
X200276000Y-82804000D01*
X200214000Y-82787387D01*
X200168613Y-82742000D01*
X200152000Y-82680000D01*
X200152000Y-58036000D01*
X200168613Y-57974000D01*
X200214000Y-57928613D01*
X200276000Y-57912000D01*
X201913674Y-57912000D01*
X201930000Y-57912000D01*
X201930000Y-50416000D01*
X201946613Y-50354000D01*
X201992000Y-50308613D01*
X202054000Y-50292000D01*
X210041674Y-50292000D01*
X210058000Y-50292000D01*
X210058000Y-32128500D01*
X210074613Y-32066500D01*
X210120000Y-32021113D01*
X210182000Y-32004500D01*
X216636449Y-32004500D01*
X216640874Y-32004579D01*
G37*
%TD.AperFunction*%
%TD*%
%TA.AperFunction,Conductor*%
%TO.N,V_batt(+)_0*%
G36*
X75122000Y-32021113D02*
G01*
X75167387Y-32066500D01*
X75184000Y-32128500D01*
X75184000Y-56134000D01*
X77600000Y-56134000D01*
X77662000Y-56150613D01*
X77707387Y-56196000D01*
X77724000Y-56258000D01*
X77724000Y-61722000D01*
X81026000Y-61722000D01*
X84966000Y-61722000D01*
X85028000Y-61738613D01*
X85073387Y-61784000D01*
X85090000Y-61846000D01*
X85090000Y-74226253D01*
X85073429Y-74288180D01*
X85028146Y-74333556D01*
X84966254Y-74350252D01*
X67622779Y-74385657D01*
X52726091Y-74416068D01*
X52663984Y-74399539D01*
X52618493Y-74354141D01*
X52601838Y-74292068D01*
X52601838Y-38864213D01*
X52601917Y-38859788D01*
X52612306Y-38568876D01*
X52612349Y-38568877D01*
X52612314Y-38568671D01*
X52619662Y-38372317D01*
X52620280Y-38363762D01*
X52648859Y-38097939D01*
X52674091Y-37874002D01*
X52675281Y-37865877D01*
X52721737Y-37608387D01*
X52721808Y-37608004D01*
X52764767Y-37380965D01*
X52766434Y-37373453D01*
X52830539Y-37122295D01*
X52830768Y-37121418D01*
X52891172Y-36895986D01*
X52893290Y-36888932D01*
X52974718Y-36644277D01*
X52975188Y-36642901D01*
X53052666Y-36421483D01*
X53055114Y-36415068D01*
X53153464Y-36177633D01*
X53154272Y-36175730D01*
X53248355Y-35960089D01*
X53251061Y-35954308D01*
X53365899Y-35724891D01*
X53367051Y-35722652D01*
X53477172Y-35514293D01*
X53480114Y-35509042D01*
X53610817Y-35288754D01*
X53612371Y-35286211D01*
X53737961Y-35086336D01*
X53741009Y-35081724D01*
X53886957Y-34871519D01*
X53888924Y-34868771D01*
X54029225Y-34678670D01*
X54032377Y-34674583D01*
X54192850Y-34475448D01*
X54195303Y-34472503D01*
X54349461Y-34293368D01*
X54352631Y-34289827D01*
X54526856Y-34102696D01*
X54529819Y-34099626D01*
X54696967Y-33932478D01*
X54700038Y-33929514D01*
X54887181Y-33755277D01*
X54890677Y-33752148D01*
X55069844Y-33597962D01*
X55072782Y-33595514D01*
X55271959Y-33435008D01*
X55276015Y-33431880D01*
X55466052Y-33291626D01*
X55468849Y-33289624D01*
X55679048Y-33143680D01*
X55683694Y-33140609D01*
X55883549Y-33015032D01*
X55886092Y-33013478D01*
X56106410Y-32882757D01*
X56111600Y-32879850D01*
X56320031Y-32769691D01*
X56322215Y-32768566D01*
X56551610Y-32653739D01*
X56557427Y-32651016D01*
X56773142Y-32556901D01*
X56774969Y-32556125D01*
X57012383Y-32457784D01*
X57018860Y-32455313D01*
X57240154Y-32377878D01*
X57241693Y-32377353D01*
X57486276Y-32295947D01*
X57493295Y-32293840D01*
X57718781Y-32233422D01*
X57719637Y-32233198D01*
X57970782Y-32169097D01*
X57978312Y-32167426D01*
X58205267Y-32124483D01*
X58205706Y-32124401D01*
X58463268Y-32077932D01*
X58471331Y-32076752D01*
X58695278Y-32051519D01*
X58961074Y-32022943D01*
X58969627Y-32022324D01*
X59166833Y-32014945D01*
X59167040Y-32014980D01*
X59167039Y-32014937D01*
X59457070Y-32004578D01*
X59461496Y-32004500D01*
X75060000Y-32004500D01*
X75122000Y-32021113D01*
G37*
%TD.AperFunction*%
%TD*%
%TA.AperFunction,Conductor*%
%TO.N,V_batt(-)*%
G36*
X153159731Y-55378648D02*
G01*
X153195493Y-55397881D01*
X153765090Y-55838024D01*
X153801353Y-55883100D01*
X153813219Y-55939721D01*
X153799136Y-55991754D01*
X153797704Y-55993669D01*
X153794607Y-56001971D01*
X153794606Y-56001974D01*
X153786273Y-56024315D01*
X153754159Y-56072131D01*
X153703906Y-56100279D01*
X153646357Y-56102686D01*
X153593930Y-56078832D01*
X153455493Y-55971082D01*
X153455482Y-55971074D01*
X153451439Y-55967928D01*
X153286106Y-55878454D01*
X153244168Y-55855758D01*
X153244163Y-55855756D01*
X153239664Y-55853321D01*
X153234818Y-55851657D01*
X153234815Y-55851656D01*
X153016766Y-55776800D01*
X153016765Y-55776799D01*
X153011913Y-55775134D01*
X153006863Y-55774291D01*
X153006854Y-55774289D01*
X152779461Y-55736344D01*
X152779452Y-55736343D01*
X152774399Y-55735500D01*
X152533601Y-55735500D01*
X152528548Y-55736343D01*
X152528538Y-55736344D01*
X152301145Y-55774289D01*
X152301133Y-55774291D01*
X152296087Y-55775134D01*
X152291237Y-55776798D01*
X152291233Y-55776800D01*
X152073184Y-55851656D01*
X152073176Y-55851659D01*
X152068336Y-55853321D01*
X152063840Y-55855753D01*
X152063831Y-55855758D01*
X151861069Y-55965488D01*
X151861065Y-55965490D01*
X151856561Y-55967928D01*
X151852521Y-55971072D01*
X151852514Y-55971077D01*
X151670584Y-56112678D01*
X151670576Y-56112685D01*
X151666537Y-56115829D01*
X151663067Y-56119597D01*
X151663063Y-56119602D01*
X151506918Y-56289220D01*
X151506909Y-56289230D01*
X151503449Y-56292990D01*
X151500654Y-56297267D01*
X151500647Y-56297277D01*
X151374547Y-56490289D01*
X151371745Y-56494578D01*
X151369690Y-56499262D01*
X151369685Y-56499272D01*
X151291461Y-56677606D01*
X151275017Y-56715095D01*
X151273759Y-56720060D01*
X151273758Y-56720065D01*
X151217164Y-56943549D01*
X151217162Y-56943558D01*
X151215905Y-56948524D01*
X151215481Y-56953633D01*
X151215480Y-56953643D01*
X151201212Y-57125833D01*
X151201211Y-57125850D01*
X151201000Y-57128400D01*
X151201000Y-57343600D01*
X151201211Y-57346150D01*
X151201212Y-57346166D01*
X151215480Y-57518356D01*
X151215481Y-57518364D01*
X151215905Y-57523476D01*
X151217162Y-57528443D01*
X151217164Y-57528450D01*
X151261130Y-57702068D01*
X151275017Y-57756905D01*
X151277077Y-57761601D01*
X151369685Y-57972727D01*
X151369688Y-57972732D01*
X151371745Y-57977422D01*
X151412104Y-58039196D01*
X151500647Y-58174722D01*
X151500650Y-58174726D01*
X151503449Y-58179010D01*
X151506914Y-58182774D01*
X151506918Y-58182779D01*
X151524005Y-58201340D01*
X151666537Y-58356171D01*
X151856561Y-58504072D01*
X152068336Y-58618679D01*
X152296087Y-58696866D01*
X152533601Y-58736500D01*
X152769266Y-58736500D01*
X152774399Y-58736500D01*
X153011913Y-58696866D01*
X153239664Y-58618679D01*
X153451439Y-58504072D01*
X153593932Y-58393165D01*
X153646357Y-58369313D01*
X153703907Y-58371720D01*
X153754160Y-58399868D01*
X153786273Y-58447685D01*
X153794602Y-58470017D01*
X153794605Y-58470023D01*
X153797704Y-58478331D01*
X153803018Y-58485430D01*
X153803019Y-58485431D01*
X153818799Y-58506511D01*
X153883954Y-58593546D01*
X153999169Y-58679796D01*
X154134017Y-58730091D01*
X154193627Y-58736500D01*
X156194372Y-58736499D01*
X156253983Y-58730091D01*
X156388831Y-58679796D01*
X156504046Y-58593546D01*
X156590296Y-58478331D01*
X156640591Y-58343483D01*
X156645034Y-58302152D01*
X156668678Y-58241608D01*
X156719703Y-58201340D01*
X156784089Y-58192417D01*
X156844142Y-58217292D01*
X158701819Y-59652769D01*
X158737305Y-59696233D01*
X158750000Y-59750888D01*
X158750000Y-76864500D01*
X158733387Y-76926500D01*
X158688000Y-76971887D01*
X158626000Y-76988500D01*
X156630226Y-76988500D01*
X156575766Y-76975900D01*
X156532372Y-76940662D01*
X156529922Y-76937514D01*
X156422165Y-76799067D01*
X156398312Y-76746640D01*
X156400720Y-76689090D01*
X156428870Y-76638837D01*
X156476686Y-76606725D01*
X156507331Y-76595296D01*
X156622546Y-76509046D01*
X156708796Y-76393831D01*
X156759091Y-76258983D01*
X156765500Y-76199373D01*
X156765499Y-74198628D01*
X156759091Y-74139017D01*
X156708796Y-74004169D01*
X156622546Y-73888954D01*
X156507331Y-73802704D01*
X156372483Y-73752409D01*
X156364770Y-73751579D01*
X156364767Y-73751579D01*
X156316180Y-73746355D01*
X156316169Y-73746354D01*
X156312873Y-73746000D01*
X156309550Y-73746000D01*
X154220439Y-73746000D01*
X154220420Y-73746000D01*
X154217128Y-73746001D01*
X154213850Y-73746353D01*
X154213838Y-73746354D01*
X154165231Y-73751579D01*
X154165225Y-73751580D01*
X154157517Y-73752409D01*
X154150252Y-73755118D01*
X154150246Y-73755120D01*
X154030980Y-73799604D01*
X154030978Y-73799604D01*
X154022669Y-73802704D01*
X154015572Y-73808016D01*
X154015568Y-73808019D01*
X153914550Y-73883641D01*
X153914546Y-73883644D01*
X153907454Y-73888954D01*
X153902144Y-73896046D01*
X153902141Y-73896050D01*
X153826519Y-73997068D01*
X153826516Y-73997072D01*
X153821204Y-74004169D01*
X153818104Y-74012478D01*
X153818104Y-74012480D01*
X153773620Y-74131747D01*
X153773619Y-74131750D01*
X153770909Y-74139017D01*
X153770079Y-74146727D01*
X153770079Y-74146732D01*
X153764855Y-74195319D01*
X153764854Y-74195331D01*
X153764500Y-74198627D01*
X153764500Y-74201948D01*
X153764500Y-74201949D01*
X153764500Y-76196060D01*
X153764500Y-76196078D01*
X153764501Y-76199372D01*
X153764853Y-76202650D01*
X153764854Y-76202661D01*
X153770079Y-76251268D01*
X153770080Y-76251273D01*
X153770909Y-76258983D01*
X153773619Y-76266249D01*
X153773620Y-76266253D01*
X153807217Y-76356331D01*
X153821204Y-76393831D01*
X153907454Y-76509046D01*
X154022669Y-76595296D01*
X154053309Y-76606724D01*
X154053312Y-76606725D01*
X154101129Y-76638838D01*
X154129279Y-76689091D01*
X154131687Y-76746640D01*
X154107833Y-76799069D01*
X154000077Y-76937514D01*
X154000072Y-76937521D01*
X153996928Y-76941561D01*
X153994490Y-76946065D01*
X153994488Y-76946069D01*
X153884758Y-77148831D01*
X153884753Y-77148840D01*
X153882321Y-77153336D01*
X153880659Y-77158176D01*
X153880656Y-77158184D01*
X153805800Y-77376233D01*
X153804134Y-77381087D01*
X153803291Y-77386133D01*
X153803289Y-77386145D01*
X153765344Y-77613538D01*
X153765343Y-77613548D01*
X153764500Y-77618601D01*
X153764500Y-77859399D01*
X153765343Y-77864452D01*
X153765344Y-77864461D01*
X153803289Y-78091854D01*
X153803291Y-78091863D01*
X153804134Y-78096913D01*
X153805799Y-78101765D01*
X153805800Y-78101766D01*
X153836165Y-78190218D01*
X153882321Y-78324664D01*
X153884756Y-78329163D01*
X153884758Y-78329168D01*
X153963268Y-78474241D01*
X153996928Y-78536439D01*
X154144829Y-78726463D01*
X154148602Y-78729936D01*
X154318220Y-78886081D01*
X154318223Y-78886083D01*
X154321990Y-78889551D01*
X154523578Y-79021255D01*
X154744095Y-79117983D01*
X154977524Y-79177095D01*
X155157400Y-79192000D01*
X155370030Y-79192000D01*
X155372600Y-79192000D01*
X155552476Y-79177095D01*
X155785905Y-79117983D01*
X156006422Y-79021255D01*
X156208010Y-78889551D01*
X156385171Y-78726463D01*
X156532372Y-78537337D01*
X156575765Y-78502100D01*
X156630226Y-78489500D01*
X158626000Y-78489500D01*
X158688000Y-78506113D01*
X158733387Y-78551500D01*
X158750000Y-78613500D01*
X158750000Y-86530591D01*
X158732009Y-86594919D01*
X158683257Y-86640580D01*
X158617890Y-86654326D01*
X158554877Y-86632166D01*
X158391173Y-86517540D01*
X158391171Y-86517539D01*
X158386734Y-86514432D01*
X158180496Y-86418261D01*
X158175271Y-86416861D01*
X158175263Y-86416858D01*
X157965916Y-86360764D01*
X157965907Y-86360762D01*
X157960692Y-86359365D01*
X157955304Y-86358893D01*
X157955301Y-86358893D01*
X157739395Y-86340004D01*
X157734000Y-86339532D01*
X157728605Y-86340004D01*
X157512698Y-86358893D01*
X157512693Y-86358893D01*
X157507308Y-86359365D01*
X157502094Y-86360762D01*
X157502083Y-86360764D01*
X157292736Y-86416858D01*
X157292724Y-86416862D01*
X157287504Y-86418261D01*
X157282599Y-86420547D01*
X157282594Y-86420550D01*
X157086176Y-86512142D01*
X157086172Y-86512144D01*
X157081266Y-86514432D01*
X157076833Y-86517535D01*
X157076826Y-86517540D01*
X156899296Y-86641847D01*
X156899291Y-86641850D01*
X156894861Y-86644953D01*
X156891037Y-86648776D01*
X156891031Y-86648782D01*
X156737782Y-86802031D01*
X156737776Y-86802037D01*
X156733953Y-86805861D01*
X156730850Y-86810291D01*
X156730847Y-86810296D01*
X156606540Y-86987826D01*
X156606535Y-86987833D01*
X156603432Y-86992266D01*
X156601144Y-86997172D01*
X156601142Y-86997176D01*
X156509550Y-87193594D01*
X156509547Y-87193599D01*
X156507261Y-87198504D01*
X156505862Y-87203724D01*
X156505858Y-87203736D01*
X156449764Y-87413083D01*
X156449762Y-87413094D01*
X156448365Y-87418308D01*
X156428532Y-87645000D01*
X156448365Y-87871692D01*
X156449762Y-87876907D01*
X156449764Y-87876916D01*
X156505858Y-88086263D01*
X156505861Y-88086271D01*
X156507261Y-88091496D01*
X156603432Y-88297734D01*
X156733953Y-88484139D01*
X156894861Y-88645047D01*
X157081266Y-88775568D01*
X157287504Y-88871739D01*
X157507308Y-88930635D01*
X157734000Y-88950468D01*
X157960692Y-88930635D01*
X158180496Y-88871739D01*
X158386734Y-88775568D01*
X158554877Y-88657833D01*
X158617890Y-88635674D01*
X158683257Y-88649420D01*
X158732009Y-88695081D01*
X158750000Y-88759409D01*
X158750000Y-116332000D01*
X149098000Y-116332000D01*
X149098000Y-95265000D01*
X151856532Y-95265000D01*
X151876365Y-95491692D01*
X151877762Y-95496907D01*
X151877764Y-95496916D01*
X151933858Y-95706263D01*
X151933861Y-95706271D01*
X151935261Y-95711496D01*
X152031432Y-95917734D01*
X152161953Y-96104139D01*
X152322861Y-96265047D01*
X152509266Y-96395568D01*
X152715504Y-96491739D01*
X152935308Y-96550635D01*
X153162000Y-96570468D01*
X153388692Y-96550635D01*
X153608496Y-96491739D01*
X153814734Y-96395568D01*
X154001139Y-96265047D01*
X154162047Y-96104139D01*
X154292568Y-95917734D01*
X154388739Y-95711496D01*
X154447635Y-95491692D01*
X154467468Y-95265000D01*
X154447635Y-95038308D01*
X154388739Y-94818504D01*
X154292568Y-94612266D01*
X154162047Y-94425861D01*
X154001139Y-94264953D01*
X153814734Y-94134432D01*
X153608496Y-94038261D01*
X153603271Y-94036861D01*
X153603263Y-94036858D01*
X153393916Y-93980764D01*
X153393907Y-93980762D01*
X153388692Y-93979365D01*
X153383304Y-93978893D01*
X153383301Y-93978893D01*
X153167395Y-93960004D01*
X153162000Y-93959532D01*
X153156605Y-93960004D01*
X152940698Y-93978893D01*
X152940693Y-93978893D01*
X152935308Y-93979365D01*
X152930094Y-93980762D01*
X152930083Y-93980764D01*
X152720736Y-94036858D01*
X152720724Y-94036862D01*
X152715504Y-94038261D01*
X152710599Y-94040547D01*
X152710594Y-94040550D01*
X152514176Y-94132142D01*
X152514172Y-94132144D01*
X152509266Y-94134432D01*
X152504833Y-94137535D01*
X152504826Y-94137540D01*
X152327296Y-94261847D01*
X152327291Y-94261850D01*
X152322861Y-94264953D01*
X152319037Y-94268776D01*
X152319031Y-94268782D01*
X152165782Y-94422031D01*
X152165776Y-94422037D01*
X152161953Y-94425861D01*
X152158850Y-94430291D01*
X152158847Y-94430296D01*
X152034540Y-94607826D01*
X152034535Y-94607833D01*
X152031432Y-94612266D01*
X152029144Y-94617172D01*
X152029142Y-94617176D01*
X151937550Y-94813594D01*
X151937547Y-94813599D01*
X151935261Y-94818504D01*
X151933862Y-94823724D01*
X151933858Y-94823736D01*
X151877764Y-95033083D01*
X151877762Y-95033094D01*
X151876365Y-95038308D01*
X151856532Y-95265000D01*
X149098000Y-95265000D01*
X149098000Y-87645000D01*
X151856532Y-87645000D01*
X151876365Y-87871692D01*
X151877762Y-87876907D01*
X151877764Y-87876916D01*
X151933858Y-88086263D01*
X151933861Y-88086271D01*
X151935261Y-88091496D01*
X152031432Y-88297734D01*
X152161953Y-88484139D01*
X152322861Y-88645047D01*
X152509266Y-88775568D01*
X152715504Y-88871739D01*
X152935308Y-88930635D01*
X153162000Y-88950468D01*
X153388692Y-88930635D01*
X153608496Y-88871739D01*
X153814734Y-88775568D01*
X154001139Y-88645047D01*
X154162047Y-88484139D01*
X154292568Y-88297734D01*
X154388739Y-88091496D01*
X154447635Y-87871692D01*
X154467468Y-87645000D01*
X154447635Y-87418308D01*
X154388739Y-87198504D01*
X154292568Y-86992266D01*
X154162047Y-86805861D01*
X154001139Y-86644953D01*
X153814734Y-86514432D01*
X153608496Y-86418261D01*
X153603271Y-86416861D01*
X153603263Y-86416858D01*
X153393916Y-86360764D01*
X153393907Y-86360762D01*
X153388692Y-86359365D01*
X153383304Y-86358893D01*
X153383301Y-86358893D01*
X153167395Y-86340004D01*
X153162000Y-86339532D01*
X153156605Y-86340004D01*
X152940698Y-86358893D01*
X152940693Y-86358893D01*
X152935308Y-86359365D01*
X152930094Y-86360762D01*
X152930083Y-86360764D01*
X152720736Y-86416858D01*
X152720724Y-86416862D01*
X152715504Y-86418261D01*
X152710599Y-86420547D01*
X152710594Y-86420550D01*
X152514176Y-86512142D01*
X152514172Y-86512144D01*
X152509266Y-86514432D01*
X152504833Y-86517535D01*
X152504826Y-86517540D01*
X152327296Y-86641847D01*
X152327291Y-86641850D01*
X152322861Y-86644953D01*
X152319037Y-86648776D01*
X152319031Y-86648782D01*
X152165782Y-86802031D01*
X152165776Y-86802037D01*
X152161953Y-86805861D01*
X152158850Y-86810291D01*
X152158847Y-86810296D01*
X152034540Y-86987826D01*
X152034535Y-86987833D01*
X152031432Y-86992266D01*
X152029144Y-86997172D01*
X152029142Y-86997176D01*
X151937550Y-87193594D01*
X151937547Y-87193599D01*
X151935261Y-87198504D01*
X151933862Y-87203724D01*
X151933858Y-87203736D01*
X151877764Y-87413083D01*
X151877762Y-87413094D01*
X151876365Y-87418308D01*
X151856532Y-87645000D01*
X149098000Y-87645000D01*
X149098000Y-70373000D01*
X150332532Y-70373000D01*
X150352365Y-70599692D01*
X150353762Y-70604907D01*
X150353764Y-70604916D01*
X150409858Y-70814263D01*
X150409861Y-70814271D01*
X150411261Y-70819496D01*
X150507432Y-71025734D01*
X150637953Y-71212139D01*
X150798861Y-71373047D01*
X150985266Y-71503568D01*
X151191504Y-71599739D01*
X151411308Y-71658635D01*
X151638000Y-71678468D01*
X151864692Y-71658635D01*
X152084496Y-71599739D01*
X152290734Y-71503568D01*
X152477139Y-71373047D01*
X152638047Y-71212139D01*
X152768568Y-71025734D01*
X152864739Y-70819496D01*
X152923635Y-70599692D01*
X152943468Y-70373000D01*
X152923635Y-70146308D01*
X152864739Y-69926504D01*
X152768568Y-69720266D01*
X152638047Y-69533861D01*
X152477139Y-69372953D01*
X152290734Y-69242432D01*
X152084496Y-69146261D01*
X152079271Y-69144861D01*
X152079263Y-69144858D01*
X151869916Y-69088764D01*
X151869907Y-69088762D01*
X151864692Y-69087365D01*
X151859304Y-69086893D01*
X151859301Y-69086893D01*
X151643395Y-69068004D01*
X151638000Y-69067532D01*
X151632605Y-69068004D01*
X151416698Y-69086893D01*
X151416693Y-69086893D01*
X151411308Y-69087365D01*
X151406094Y-69088762D01*
X151406083Y-69088764D01*
X151196736Y-69144858D01*
X151196724Y-69144862D01*
X151191504Y-69146261D01*
X151186599Y-69148547D01*
X151186594Y-69148550D01*
X150990176Y-69240142D01*
X150990172Y-69240144D01*
X150985266Y-69242432D01*
X150980833Y-69245535D01*
X150980826Y-69245540D01*
X150803296Y-69369847D01*
X150803291Y-69369850D01*
X150798861Y-69372953D01*
X150795037Y-69376776D01*
X150795031Y-69376782D01*
X150641782Y-69530031D01*
X150641776Y-69530037D01*
X150637953Y-69533861D01*
X150634850Y-69538291D01*
X150634847Y-69538296D01*
X150510540Y-69715826D01*
X150510535Y-69715833D01*
X150507432Y-69720266D01*
X150505144Y-69725172D01*
X150505142Y-69725176D01*
X150413550Y-69921594D01*
X150413547Y-69921599D01*
X150411261Y-69926504D01*
X150409862Y-69931724D01*
X150409858Y-69931736D01*
X150353764Y-70141083D01*
X150353762Y-70141094D01*
X150352365Y-70146308D01*
X150332532Y-70373000D01*
X149098000Y-70373000D01*
X149098000Y-62753000D01*
X150332532Y-62753000D01*
X150352365Y-62979692D01*
X150353762Y-62984907D01*
X150353764Y-62984916D01*
X150409858Y-63194263D01*
X150409861Y-63194271D01*
X150411261Y-63199496D01*
X150507432Y-63405734D01*
X150637953Y-63592139D01*
X150798861Y-63753047D01*
X150985266Y-63883568D01*
X151191504Y-63979739D01*
X151411308Y-64038635D01*
X151638000Y-64058468D01*
X151864692Y-64038635D01*
X152084496Y-63979739D01*
X152290734Y-63883568D01*
X152477139Y-63753047D01*
X152638047Y-63592139D01*
X152768568Y-63405734D01*
X152864739Y-63199496D01*
X152923635Y-62979692D01*
X152943468Y-62753000D01*
X154904532Y-62753000D01*
X154924365Y-62979692D01*
X154925762Y-62984907D01*
X154925764Y-62984916D01*
X154981858Y-63194263D01*
X154981861Y-63194271D01*
X154983261Y-63199496D01*
X155079432Y-63405734D01*
X155209953Y-63592139D01*
X155370861Y-63753047D01*
X155557266Y-63883568D01*
X155763504Y-63979739D01*
X155983308Y-64038635D01*
X156210000Y-64058468D01*
X156436692Y-64038635D01*
X156656496Y-63979739D01*
X156862734Y-63883568D01*
X157049139Y-63753047D01*
X157210047Y-63592139D01*
X157340568Y-63405734D01*
X157436739Y-63199496D01*
X157495635Y-62979692D01*
X157515468Y-62753000D01*
X157495635Y-62526308D01*
X157436739Y-62306504D01*
X157340568Y-62100266D01*
X157210047Y-61913861D01*
X157049139Y-61752953D01*
X156862734Y-61622432D01*
X156656496Y-61526261D01*
X156651271Y-61524861D01*
X156651263Y-61524858D01*
X156441916Y-61468764D01*
X156441907Y-61468762D01*
X156436692Y-61467365D01*
X156431304Y-61466893D01*
X156431301Y-61466893D01*
X156215395Y-61448004D01*
X156210000Y-61447532D01*
X156204605Y-61448004D01*
X155988698Y-61466893D01*
X155988693Y-61466893D01*
X155983308Y-61467365D01*
X155978094Y-61468762D01*
X155978083Y-61468764D01*
X155768736Y-61524858D01*
X155768724Y-61524862D01*
X155763504Y-61526261D01*
X155758599Y-61528547D01*
X155758594Y-61528550D01*
X155562176Y-61620142D01*
X155562172Y-61620144D01*
X155557266Y-61622432D01*
X155552833Y-61625535D01*
X155552826Y-61625540D01*
X155375296Y-61749847D01*
X155375291Y-61749850D01*
X155370861Y-61752953D01*
X155367037Y-61756776D01*
X155367031Y-61756782D01*
X155213782Y-61910031D01*
X155213776Y-61910037D01*
X155209953Y-61913861D01*
X155206850Y-61918291D01*
X155206847Y-61918296D01*
X155082540Y-62095826D01*
X155082535Y-62095833D01*
X155079432Y-62100266D01*
X155077144Y-62105172D01*
X155077142Y-62105176D01*
X154985550Y-62301594D01*
X154985547Y-62301599D01*
X154983261Y-62306504D01*
X154981862Y-62311724D01*
X154981858Y-62311736D01*
X154925764Y-62521083D01*
X154925762Y-62521094D01*
X154924365Y-62526308D01*
X154904532Y-62753000D01*
X152943468Y-62753000D01*
X152923635Y-62526308D01*
X152864739Y-62306504D01*
X152768568Y-62100266D01*
X152638047Y-61913861D01*
X152477139Y-61752953D01*
X152290734Y-61622432D01*
X152084496Y-61526261D01*
X152079271Y-61524861D01*
X152079263Y-61524858D01*
X151869916Y-61468764D01*
X151869907Y-61468762D01*
X151864692Y-61467365D01*
X151859304Y-61466893D01*
X151859301Y-61466893D01*
X151643395Y-61448004D01*
X151638000Y-61447532D01*
X151632605Y-61448004D01*
X151416698Y-61466893D01*
X151416693Y-61466893D01*
X151411308Y-61467365D01*
X151406094Y-61468762D01*
X151406083Y-61468764D01*
X151196736Y-61524858D01*
X151196724Y-61524862D01*
X151191504Y-61526261D01*
X151186599Y-61528547D01*
X151186594Y-61528550D01*
X150990176Y-61620142D01*
X150990172Y-61620144D01*
X150985266Y-61622432D01*
X150980833Y-61625535D01*
X150980826Y-61625540D01*
X150803296Y-61749847D01*
X150803291Y-61749850D01*
X150798861Y-61752953D01*
X150795037Y-61756776D01*
X150795031Y-61756782D01*
X150641782Y-61910031D01*
X150641776Y-61910037D01*
X150637953Y-61913861D01*
X150634850Y-61918291D01*
X150634847Y-61918296D01*
X150510540Y-62095826D01*
X150510535Y-62095833D01*
X150507432Y-62100266D01*
X150505144Y-62105172D01*
X150505142Y-62105176D01*
X150413550Y-62301594D01*
X150413547Y-62301599D01*
X150411261Y-62306504D01*
X150409862Y-62311724D01*
X150409858Y-62311736D01*
X150353764Y-62521083D01*
X150353762Y-62521094D01*
X150352365Y-62526308D01*
X150332532Y-62753000D01*
X149098000Y-62753000D01*
X149098000Y-55496000D01*
X149114613Y-55434000D01*
X149160000Y-55388613D01*
X149222000Y-55372000D01*
X153119674Y-55372000D01*
X153159731Y-55378648D01*
G37*
%TD.AperFunction*%
%TD*%
%TA.AperFunction,Conductor*%
%TO.N,VCC*%
G36*
X198566000Y-56658613D02*
G01*
X198611387Y-56704000D01*
X198628000Y-56766000D01*
X198628000Y-60154515D01*
X198609994Y-60218867D01*
X198561206Y-60264531D01*
X198495805Y-60278244D01*
X198432783Y-60256024D01*
X198390444Y-60204325D01*
X198341983Y-60093845D01*
X198341982Y-60093844D01*
X198339924Y-60089151D01*
X198212979Y-59894847D01*
X198055784Y-59724087D01*
X197977728Y-59663334D01*
X197876672Y-59584679D01*
X197876671Y-59584678D01*
X197872626Y-59581530D01*
X197776620Y-59529574D01*
X197673007Y-59473501D01*
X197673002Y-59473499D01*
X197668503Y-59471064D01*
X197663657Y-59469400D01*
X197663654Y-59469399D01*
X197453834Y-59397368D01*
X197453833Y-59397367D01*
X197448981Y-59395702D01*
X197443931Y-59394859D01*
X197443922Y-59394857D01*
X197225111Y-59358344D01*
X197225102Y-59358343D01*
X197220049Y-59357500D01*
X196987951Y-59357500D01*
X196982898Y-59358343D01*
X196982888Y-59358344D01*
X196764077Y-59394857D01*
X196764065Y-59394859D01*
X196759019Y-59395702D01*
X196754169Y-59397366D01*
X196754165Y-59397368D01*
X196544345Y-59469399D01*
X196544337Y-59469402D01*
X196539497Y-59471064D01*
X196535001Y-59473496D01*
X196534992Y-59473501D01*
X196339882Y-59579090D01*
X196339878Y-59579092D01*
X196335374Y-59581530D01*
X196331334Y-59584674D01*
X196331327Y-59584679D01*
X196156263Y-59720936D01*
X196156255Y-59720943D01*
X196152216Y-59724087D01*
X196148746Y-59727855D01*
X196148742Y-59727860D01*
X195998491Y-59891077D01*
X195998488Y-59891080D01*
X195995021Y-59894847D01*
X195992226Y-59899124D01*
X195992219Y-59899134D01*
X195909935Y-60025081D01*
X195868076Y-60089151D01*
X195866021Y-60093835D01*
X195866016Y-60093845D01*
X195776903Y-60297003D01*
X195774843Y-60301700D01*
X195773585Y-60306665D01*
X195773584Y-60306670D01*
X195719125Y-60521720D01*
X195719123Y-60521729D01*
X195717866Y-60526695D01*
X195717442Y-60531802D01*
X195717441Y-60531813D01*
X195699200Y-60751955D01*
X195698700Y-60758000D01*
X195699124Y-60763117D01*
X195717441Y-60984186D01*
X195717442Y-60984195D01*
X195717866Y-60989305D01*
X195719123Y-60994272D01*
X195719125Y-60994279D01*
X195773584Y-61209329D01*
X195774843Y-61214300D01*
X195776903Y-61218996D01*
X195866016Y-61422154D01*
X195866019Y-61422159D01*
X195868076Y-61426849D01*
X195931548Y-61524001D01*
X195992219Y-61616865D01*
X195992222Y-61616869D01*
X195995021Y-61621153D01*
X195998491Y-61624922D01*
X196089801Y-61724112D01*
X196118574Y-61776865D01*
X196119167Y-61836951D01*
X196091440Y-61890261D01*
X196041906Y-61924276D01*
X195969982Y-61951102D01*
X195969973Y-61951106D01*
X195961669Y-61954204D01*
X195954572Y-61959516D01*
X195954568Y-61959519D01*
X195853550Y-62035141D01*
X195853546Y-62035144D01*
X195846454Y-62040454D01*
X195841144Y-62047546D01*
X195841141Y-62047550D01*
X195765519Y-62148568D01*
X195765516Y-62148572D01*
X195760204Y-62155669D01*
X195757104Y-62163978D01*
X195757104Y-62163980D01*
X195712620Y-62283247D01*
X195712619Y-62283250D01*
X195709909Y-62290517D01*
X195709079Y-62298227D01*
X195709079Y-62298232D01*
X195703855Y-62346819D01*
X195703854Y-62346831D01*
X195703500Y-62350127D01*
X195703500Y-62353448D01*
X195703500Y-62353449D01*
X195703500Y-64242560D01*
X195703500Y-64242578D01*
X195703501Y-64245872D01*
X195703853Y-64249150D01*
X195703854Y-64249161D01*
X195709079Y-64297768D01*
X195709080Y-64297773D01*
X195709909Y-64305483D01*
X195712619Y-64312749D01*
X195712620Y-64312753D01*
X195746217Y-64402831D01*
X195760204Y-64440331D01*
X195765518Y-64447430D01*
X195765519Y-64447431D01*
X195812068Y-64509613D01*
X195846454Y-64555546D01*
X195961669Y-64641796D01*
X196096517Y-64692091D01*
X196156127Y-64698500D01*
X198051872Y-64698499D01*
X198111483Y-64692091D01*
X198246331Y-64641796D01*
X198361546Y-64555546D01*
X198366862Y-64548445D01*
X198404734Y-64497856D01*
X198452489Y-64459372D01*
X198512847Y-64448483D01*
X198571040Y-64467852D01*
X198612832Y-64512740D01*
X198628000Y-64572167D01*
X198628000Y-70348833D01*
X198612832Y-70408260D01*
X198571040Y-70453148D01*
X198512847Y-70472517D01*
X198452489Y-70461628D01*
X198404734Y-70423144D01*
X198366862Y-70372554D01*
X198366858Y-70372550D01*
X198361546Y-70365454D01*
X198246331Y-70279204D01*
X198111483Y-70228909D01*
X198103770Y-70228079D01*
X198103767Y-70228079D01*
X198055180Y-70222855D01*
X198055169Y-70222854D01*
X198051873Y-70222500D01*
X198048550Y-70222500D01*
X196159439Y-70222500D01*
X196159420Y-70222500D01*
X196156128Y-70222501D01*
X196152850Y-70222853D01*
X196152838Y-70222854D01*
X196104231Y-70228079D01*
X196104225Y-70228080D01*
X196096517Y-70228909D01*
X196089252Y-70231618D01*
X196089246Y-70231620D01*
X195969980Y-70276104D01*
X195969978Y-70276104D01*
X195961669Y-70279204D01*
X195954572Y-70284516D01*
X195954568Y-70284519D01*
X195853550Y-70360141D01*
X195853546Y-70360144D01*
X195846454Y-70365454D01*
X195841144Y-70372546D01*
X195841141Y-70372550D01*
X195765519Y-70473568D01*
X195765516Y-70473572D01*
X195760204Y-70480669D01*
X195757104Y-70488978D01*
X195757104Y-70488980D01*
X195712620Y-70608247D01*
X195712619Y-70608250D01*
X195709909Y-70615517D01*
X195709079Y-70623227D01*
X195709079Y-70623232D01*
X195703855Y-70671819D01*
X195703854Y-70671831D01*
X195703500Y-70675127D01*
X195703500Y-70678448D01*
X195703500Y-70678449D01*
X195703500Y-72567560D01*
X195703500Y-72567578D01*
X195703501Y-72570872D01*
X195703853Y-72574150D01*
X195703854Y-72574161D01*
X195709079Y-72622768D01*
X195709080Y-72622773D01*
X195709909Y-72630483D01*
X195712619Y-72637749D01*
X195712620Y-72637753D01*
X195741704Y-72715731D01*
X195760204Y-72765331D01*
X195846454Y-72880546D01*
X195961669Y-72966796D01*
X196021764Y-72989209D01*
X196041904Y-72996722D01*
X196091440Y-73030737D01*
X196119166Y-73084047D01*
X196118574Y-73144133D01*
X196089801Y-73196886D01*
X195998496Y-73296070D01*
X195998485Y-73296083D01*
X195995021Y-73299847D01*
X195992226Y-73304124D01*
X195992219Y-73304134D01*
X195895421Y-73452296D01*
X195868076Y-73494151D01*
X195866021Y-73498835D01*
X195866016Y-73498845D01*
X195776903Y-73702003D01*
X195774843Y-73706700D01*
X195773585Y-73711665D01*
X195773584Y-73711670D01*
X195719125Y-73926720D01*
X195719123Y-73926729D01*
X195717866Y-73931695D01*
X195717442Y-73936802D01*
X195717441Y-73936813D01*
X195707642Y-74055083D01*
X195698700Y-74163000D01*
X195699124Y-74168117D01*
X195717441Y-74389186D01*
X195717442Y-74389195D01*
X195717866Y-74394305D01*
X195719123Y-74399272D01*
X195719125Y-74399279D01*
X195772676Y-74610743D01*
X195774843Y-74619300D01*
X195776903Y-74623996D01*
X195866016Y-74827154D01*
X195866019Y-74827159D01*
X195868076Y-74831849D01*
X195914781Y-74903336D01*
X195992219Y-75021865D01*
X195992222Y-75021869D01*
X195995021Y-75026153D01*
X196152216Y-75196913D01*
X196335374Y-75339470D01*
X196539497Y-75449936D01*
X196759019Y-75525298D01*
X196987951Y-75563500D01*
X197214916Y-75563500D01*
X197220049Y-75563500D01*
X197448981Y-75525298D01*
X197668503Y-75449936D01*
X197872626Y-75339470D01*
X198055784Y-75196913D01*
X198212979Y-75026153D01*
X198339924Y-74831849D01*
X198390444Y-74716674D01*
X198432783Y-74664976D01*
X198495805Y-74642756D01*
X198561206Y-74656469D01*
X198609994Y-74702133D01*
X198628000Y-74766485D01*
X198628000Y-82666062D01*
X198611091Y-82728572D01*
X198564975Y-82774034D01*
X198502230Y-82790049D01*
X198439967Y-82772250D01*
X198398139Y-82728591D01*
X198397796Y-82727669D01*
X198311546Y-82612454D01*
X198196331Y-82526204D01*
X198061483Y-82475909D01*
X198053770Y-82475079D01*
X198053767Y-82475079D01*
X198005180Y-82469855D01*
X198005169Y-82469854D01*
X198001873Y-82469500D01*
X197998550Y-82469500D01*
X196209439Y-82469500D01*
X196209420Y-82469500D01*
X196206128Y-82469501D01*
X196202850Y-82469853D01*
X196202838Y-82469854D01*
X196154231Y-82475079D01*
X196154225Y-82475080D01*
X196146517Y-82475909D01*
X196139252Y-82478618D01*
X196139246Y-82478620D01*
X196019980Y-82523104D01*
X196019978Y-82523104D01*
X196011669Y-82526204D01*
X196004572Y-82531516D01*
X196004568Y-82531519D01*
X195903550Y-82607141D01*
X195903546Y-82607144D01*
X195896454Y-82612454D01*
X195891144Y-82619546D01*
X195891141Y-82619550D01*
X195815519Y-82720568D01*
X195815516Y-82720572D01*
X195810204Y-82727669D01*
X195807104Y-82735978D01*
X195807104Y-82735980D01*
X195762620Y-82855247D01*
X195762619Y-82855250D01*
X195759909Y-82862517D01*
X195759079Y-82870227D01*
X195759079Y-82870232D01*
X195753855Y-82918819D01*
X195753854Y-82918831D01*
X195753500Y-82922127D01*
X195753500Y-82925448D01*
X195753500Y-82925449D01*
X195753500Y-84714560D01*
X195753500Y-84714578D01*
X195753501Y-84717872D01*
X195753853Y-84721150D01*
X195753854Y-84721161D01*
X195759079Y-84769768D01*
X195759080Y-84769773D01*
X195759909Y-84777483D01*
X195762619Y-84784749D01*
X195762620Y-84784753D01*
X195786938Y-84849951D01*
X195810204Y-84912331D01*
X195896454Y-85027546D01*
X196011669Y-85113796D01*
X196121405Y-85154725D01*
X196143082Y-85162810D01*
X196193462Y-85197789D01*
X196220915Y-85252633D01*
X196218726Y-85313926D01*
X196187431Y-85366673D01*
X196065505Y-85488599D01*
X196062402Y-85493029D01*
X196062399Y-85493034D01*
X195933073Y-85677731D01*
X195933068Y-85677738D01*
X195929965Y-85682171D01*
X195927677Y-85687077D01*
X195927675Y-85687081D01*
X195832386Y-85891427D01*
X195832383Y-85891432D01*
X195830097Y-85896337D01*
X195828698Y-85901557D01*
X195828694Y-85901569D01*
X195770337Y-86119365D01*
X195770335Y-86119371D01*
X195768937Y-86124592D01*
X195748341Y-86360000D01*
X195748813Y-86365395D01*
X195765984Y-86561663D01*
X195768937Y-86595408D01*
X195770336Y-86600630D01*
X195770337Y-86600634D01*
X195828694Y-86818430D01*
X195828697Y-86818438D01*
X195830097Y-86823663D01*
X195832385Y-86828570D01*
X195832386Y-86828572D01*
X195927678Y-87032927D01*
X195927681Y-87032933D01*
X195929965Y-87037830D01*
X195933064Y-87042257D01*
X195933066Y-87042259D01*
X196062399Y-87226966D01*
X196062402Y-87226970D01*
X196065505Y-87231401D01*
X196232599Y-87398495D01*
X196237032Y-87401599D01*
X196237038Y-87401604D01*
X196418158Y-87528425D01*
X196457024Y-87572743D01*
X196471035Y-87630000D01*
X196457024Y-87687257D01*
X196418159Y-87731575D01*
X196361806Y-87771034D01*
X196232599Y-87861505D01*
X196228775Y-87865328D01*
X196228769Y-87865334D01*
X196069334Y-88024769D01*
X196069328Y-88024775D01*
X196065505Y-88028599D01*
X196062402Y-88033029D01*
X196062399Y-88033034D01*
X195933073Y-88217731D01*
X195933068Y-88217738D01*
X195929965Y-88222171D01*
X195927677Y-88227077D01*
X195927675Y-88227081D01*
X195832386Y-88431427D01*
X195832383Y-88431432D01*
X195830097Y-88436337D01*
X195828698Y-88441557D01*
X195828694Y-88441569D01*
X195770337Y-88659365D01*
X195770335Y-88659371D01*
X195768937Y-88664592D01*
X195748341Y-88900000D01*
X195748813Y-88905395D01*
X195765984Y-89101663D01*
X195768937Y-89135408D01*
X195770336Y-89140630D01*
X195770337Y-89140634D01*
X195828694Y-89358430D01*
X195828697Y-89358438D01*
X195830097Y-89363663D01*
X195832385Y-89368570D01*
X195832386Y-89368572D01*
X195927678Y-89572927D01*
X195927681Y-89572933D01*
X195929965Y-89577830D01*
X195933064Y-89582257D01*
X195933066Y-89582259D01*
X196062399Y-89766966D01*
X196062402Y-89766970D01*
X196065505Y-89771401D01*
X196232599Y-89938495D01*
X196237032Y-89941599D01*
X196237038Y-89941604D01*
X196418158Y-90068425D01*
X196457024Y-90112743D01*
X196471035Y-90170000D01*
X196457024Y-90227257D01*
X196418159Y-90271575D01*
X196237041Y-90398395D01*
X196232599Y-90401505D01*
X196228775Y-90405328D01*
X196228769Y-90405334D01*
X196069334Y-90564769D01*
X196069328Y-90564775D01*
X196065505Y-90568599D01*
X196062402Y-90573029D01*
X196062399Y-90573034D01*
X195933073Y-90757731D01*
X195933068Y-90757738D01*
X195929965Y-90762171D01*
X195927677Y-90767077D01*
X195927675Y-90767081D01*
X195832386Y-90971427D01*
X195832383Y-90971432D01*
X195830097Y-90976337D01*
X195828698Y-90981557D01*
X195828694Y-90981569D01*
X195770337Y-91199365D01*
X195770335Y-91199371D01*
X195768937Y-91204592D01*
X195748341Y-91440000D01*
X195748813Y-91445395D01*
X195768305Y-91668193D01*
X195768937Y-91675408D01*
X195770336Y-91680630D01*
X195770337Y-91680634D01*
X195828694Y-91898430D01*
X195828697Y-91898438D01*
X195830097Y-91903663D01*
X195832385Y-91908570D01*
X195832386Y-91908572D01*
X195927678Y-92112927D01*
X195927681Y-92112933D01*
X195929965Y-92117830D01*
X195933064Y-92122257D01*
X195933066Y-92122259D01*
X196062399Y-92306966D01*
X196062402Y-92306970D01*
X196065505Y-92311401D01*
X196232599Y-92478495D01*
X196237031Y-92481598D01*
X196237033Y-92481600D01*
X196270819Y-92505257D01*
X196426170Y-92614035D01*
X196640337Y-92713903D01*
X196868592Y-92775063D01*
X197104000Y-92795659D01*
X197339408Y-92775063D01*
X197567663Y-92713903D01*
X197781830Y-92614035D01*
X197975401Y-92478495D01*
X198142495Y-92311401D01*
X198278035Y-92117830D01*
X198377903Y-91903663D01*
X198384225Y-91880067D01*
X198412578Y-91828389D01*
X198461590Y-91795640D01*
X198520185Y-91789223D01*
X198575123Y-91810587D01*
X198613989Y-91854905D01*
X198628000Y-91912162D01*
X198628000Y-104270000D01*
X198611387Y-104332000D01*
X198566000Y-104377387D01*
X198504000Y-104394000D01*
X192228500Y-104394000D01*
X192166500Y-104377387D01*
X192121113Y-104332000D01*
X192104500Y-104270000D01*
X192104499Y-102983439D01*
X192104499Y-102980128D01*
X192098091Y-102920517D01*
X192047796Y-102785669D01*
X191961546Y-102670454D01*
X191846331Y-102584204D01*
X191711483Y-102533909D01*
X191703770Y-102533079D01*
X191703767Y-102533079D01*
X191655180Y-102527855D01*
X191655169Y-102527854D01*
X191651873Y-102527500D01*
X191648550Y-102527500D01*
X189859439Y-102527500D01*
X189859420Y-102527500D01*
X189856128Y-102527501D01*
X189852850Y-102527853D01*
X189852838Y-102527854D01*
X189804231Y-102533079D01*
X189804225Y-102533080D01*
X189796517Y-102533909D01*
X189789252Y-102536618D01*
X189789246Y-102536620D01*
X189669980Y-102581104D01*
X189669978Y-102581104D01*
X189661669Y-102584204D01*
X189654572Y-102589516D01*
X189654568Y-102589519D01*
X189553550Y-102665141D01*
X189553546Y-102665144D01*
X189546454Y-102670454D01*
X189541144Y-102677546D01*
X189541141Y-102677550D01*
X189465519Y-102778568D01*
X189465516Y-102778572D01*
X189460204Y-102785669D01*
X189457104Y-102793978D01*
X189457104Y-102793980D01*
X189412620Y-102913247D01*
X189412619Y-102913250D01*
X189409909Y-102920517D01*
X189409079Y-102928227D01*
X189409079Y-102928232D01*
X189403855Y-102976819D01*
X189403854Y-102976831D01*
X189403500Y-102980127D01*
X189403500Y-102983448D01*
X189403500Y-102983449D01*
X189403501Y-104270000D01*
X189386888Y-104332000D01*
X189341501Y-104377387D01*
X189279501Y-104394000D01*
X166988500Y-104394000D01*
X166926500Y-104377387D01*
X166881113Y-104332000D01*
X166864500Y-104270000D01*
X166864499Y-102983439D01*
X166864499Y-102980128D01*
X166858091Y-102920517D01*
X166807796Y-102785669D01*
X166721546Y-102670454D01*
X166606331Y-102584204D01*
X166536359Y-102558106D01*
X166474916Y-102535189D01*
X166424537Y-102500210D01*
X166397084Y-102445365D01*
X166399273Y-102384072D01*
X166430566Y-102331329D01*
X166552495Y-102209401D01*
X166688035Y-102015830D01*
X166787903Y-101801663D01*
X166849063Y-101573408D01*
X166869659Y-101338000D01*
X166849063Y-101102592D01*
X166787903Y-100874337D01*
X166688035Y-100660171D01*
X166552495Y-100466599D01*
X166385401Y-100299505D01*
X166380968Y-100296401D01*
X166380961Y-100296395D01*
X166199842Y-100169575D01*
X166160976Y-100125257D01*
X166146965Y-100068000D01*
X166160976Y-100010743D01*
X166199842Y-99966425D01*
X166380961Y-99839604D01*
X166380961Y-99839603D01*
X166385401Y-99836495D01*
X166552495Y-99669401D01*
X166688035Y-99475830D01*
X166763964Y-99313000D01*
X168928357Y-99313000D01*
X168928781Y-99318117D01*
X168948467Y-99555701D01*
X168948468Y-99555709D01*
X168948892Y-99560821D01*
X168950149Y-99565788D01*
X168950151Y-99565795D01*
X168975265Y-99664966D01*
X169009937Y-99801881D01*
X169011997Y-99806577D01*
X169107766Y-100024910D01*
X169107769Y-100024916D01*
X169109827Y-100029607D01*
X169112627Y-100033893D01*
X169112631Y-100033900D01*
X169190874Y-100153659D01*
X169245836Y-100237785D01*
X169249310Y-100241559D01*
X169249311Y-100241560D01*
X169410784Y-100416967D01*
X169410787Y-100416970D01*
X169414256Y-100420738D01*
X169610491Y-100573474D01*
X169829190Y-100691828D01*
X170064386Y-100772571D01*
X170309665Y-100813500D01*
X170553201Y-100813500D01*
X170558335Y-100813500D01*
X170803614Y-100772571D01*
X171038810Y-100691828D01*
X171257509Y-100573474D01*
X171453744Y-100420738D01*
X171622164Y-100237785D01*
X171758173Y-100029607D01*
X171858063Y-99801881D01*
X171919108Y-99560821D01*
X171939643Y-99313000D01*
X184422357Y-99313000D01*
X184422781Y-99318117D01*
X184442467Y-99555701D01*
X184442468Y-99555709D01*
X184442892Y-99560821D01*
X184444149Y-99565788D01*
X184444151Y-99565795D01*
X184469265Y-99664966D01*
X184503937Y-99801881D01*
X184505997Y-99806577D01*
X184601766Y-100024910D01*
X184601769Y-100024916D01*
X184603827Y-100029607D01*
X184606627Y-100033893D01*
X184606631Y-100033900D01*
X184684874Y-100153659D01*
X184739836Y-100237785D01*
X184743310Y-100241559D01*
X184743311Y-100241560D01*
X184904784Y-100416967D01*
X184904787Y-100416970D01*
X184908256Y-100420738D01*
X185104491Y-100573474D01*
X185323190Y-100691828D01*
X185558386Y-100772571D01*
X185803665Y-100813500D01*
X186047201Y-100813500D01*
X186052335Y-100813500D01*
X186297614Y-100772571D01*
X186532810Y-100691828D01*
X186751509Y-100573474D01*
X186947744Y-100420738D01*
X187116164Y-100237785D01*
X187252173Y-100029607D01*
X187352063Y-99801881D01*
X187413108Y-99560821D01*
X187433643Y-99313000D01*
X187413108Y-99065179D01*
X187352063Y-98824119D01*
X187340606Y-98798000D01*
X189398341Y-98798000D01*
X189418937Y-99033408D01*
X189420336Y-99038630D01*
X189420337Y-99038634D01*
X189478694Y-99256430D01*
X189478697Y-99256438D01*
X189480097Y-99261663D01*
X189482385Y-99266570D01*
X189482386Y-99266572D01*
X189577678Y-99470927D01*
X189577681Y-99470933D01*
X189579965Y-99475830D01*
X189583064Y-99480257D01*
X189583066Y-99480259D01*
X189712399Y-99664966D01*
X189712402Y-99664970D01*
X189715505Y-99669401D01*
X189882599Y-99836495D01*
X190076170Y-99972035D01*
X190290337Y-100071903D01*
X190518592Y-100133063D01*
X190754000Y-100153659D01*
X190989408Y-100133063D01*
X191217663Y-100071903D01*
X191431830Y-99972035D01*
X191625401Y-99836495D01*
X191792495Y-99669401D01*
X191928035Y-99475830D01*
X192027903Y-99261663D01*
X192089063Y-99033408D01*
X192109659Y-98798000D01*
X192089063Y-98562592D01*
X192027903Y-98334337D01*
X191928035Y-98120171D01*
X191792495Y-97926599D01*
X191625401Y-97759505D01*
X191620968Y-97756401D01*
X191620961Y-97756395D01*
X191439842Y-97629575D01*
X191400976Y-97585257D01*
X191386965Y-97528000D01*
X191400976Y-97470743D01*
X191439842Y-97426425D01*
X191620961Y-97299604D01*
X191620961Y-97299603D01*
X191625401Y-97296495D01*
X191792495Y-97129401D01*
X191928035Y-96935830D01*
X192027903Y-96721663D01*
X192089063Y-96493408D01*
X192109659Y-96258000D01*
X192089063Y-96022592D01*
X192027903Y-95794337D01*
X191928035Y-95580171D01*
X191792495Y-95386599D01*
X191625401Y-95219505D01*
X191620970Y-95216402D01*
X191620966Y-95216399D01*
X191436259Y-95087066D01*
X191436257Y-95087064D01*
X191431830Y-95083965D01*
X191426933Y-95081681D01*
X191426927Y-95081678D01*
X191222572Y-94986386D01*
X191222570Y-94986385D01*
X191217663Y-94984097D01*
X191212438Y-94982697D01*
X191212430Y-94982694D01*
X190994634Y-94924337D01*
X190994630Y-94924336D01*
X190989408Y-94922937D01*
X190984020Y-94922465D01*
X190984017Y-94922465D01*
X190759395Y-94902813D01*
X190754000Y-94902341D01*
X190748605Y-94902813D01*
X190523982Y-94922465D01*
X190523977Y-94922465D01*
X190518592Y-94922937D01*
X190513371Y-94924335D01*
X190513365Y-94924337D01*
X190295569Y-94982694D01*
X190295557Y-94982698D01*
X190290337Y-94984097D01*
X190285432Y-94986383D01*
X190285427Y-94986386D01*
X190081081Y-95081675D01*
X190081077Y-95081677D01*
X190076171Y-95083965D01*
X190071738Y-95087068D01*
X190071731Y-95087073D01*
X189887034Y-95216399D01*
X189887029Y-95216402D01*
X189882599Y-95219505D01*
X189878775Y-95223328D01*
X189878769Y-95223334D01*
X189719334Y-95382769D01*
X189719328Y-95382775D01*
X189715505Y-95386599D01*
X189712402Y-95391029D01*
X189712399Y-95391034D01*
X189583073Y-95575731D01*
X189583068Y-95575738D01*
X189579965Y-95580171D01*
X189577677Y-95585077D01*
X189577675Y-95585081D01*
X189482386Y-95789427D01*
X189482383Y-95789432D01*
X189480097Y-95794337D01*
X189478698Y-95799557D01*
X189478694Y-95799569D01*
X189420337Y-96017365D01*
X189420335Y-96017371D01*
X189418937Y-96022592D01*
X189398341Y-96258000D01*
X189418937Y-96493408D01*
X189420336Y-96498630D01*
X189420337Y-96498634D01*
X189478694Y-96716430D01*
X189478697Y-96716438D01*
X189480097Y-96721663D01*
X189482385Y-96726570D01*
X189482386Y-96726572D01*
X189577678Y-96930927D01*
X189577681Y-96930933D01*
X189579965Y-96935830D01*
X189583064Y-96940257D01*
X189583066Y-96940259D01*
X189712399Y-97124966D01*
X189712402Y-97124970D01*
X189715505Y-97129401D01*
X189882599Y-97296495D01*
X189887032Y-97299599D01*
X189887038Y-97299604D01*
X190068158Y-97426425D01*
X190107024Y-97470743D01*
X190121035Y-97528000D01*
X190107024Y-97585257D01*
X190068159Y-97629575D01*
X189887041Y-97756395D01*
X189882599Y-97759505D01*
X189878775Y-97763328D01*
X189878769Y-97763334D01*
X189719334Y-97922769D01*
X189719328Y-97922775D01*
X189715505Y-97926599D01*
X189712402Y-97931029D01*
X189712399Y-97931034D01*
X189583073Y-98115731D01*
X189583068Y-98115738D01*
X189579965Y-98120171D01*
X189577677Y-98125077D01*
X189577675Y-98125081D01*
X189482386Y-98329427D01*
X189482383Y-98329432D01*
X189480097Y-98334337D01*
X189478698Y-98339557D01*
X189478694Y-98339569D01*
X189420337Y-98557365D01*
X189420335Y-98557371D01*
X189418937Y-98562592D01*
X189418465Y-98567977D01*
X189418465Y-98567982D01*
X189415569Y-98601089D01*
X189398341Y-98798000D01*
X187340606Y-98798000D01*
X187252173Y-98596393D01*
X187233611Y-98567982D01*
X187118971Y-98392512D01*
X187116164Y-98388215D01*
X186947744Y-98205262D01*
X186820328Y-98106090D01*
X186755559Y-98055678D01*
X186755557Y-98055676D01*
X186751509Y-98052526D01*
X186745587Y-98049321D01*
X186537316Y-97936610D01*
X186537310Y-97936607D01*
X186532810Y-97934172D01*
X186527969Y-97932510D01*
X186527962Y-97932507D01*
X186302465Y-97855094D01*
X186302461Y-97855093D01*
X186297614Y-97853429D01*
X186288768Y-97851952D01*
X186057398Y-97813344D01*
X186057387Y-97813343D01*
X186052335Y-97812500D01*
X185803665Y-97812500D01*
X185798613Y-97813343D01*
X185798601Y-97813344D01*
X185563443Y-97852585D01*
X185563441Y-97852585D01*
X185558386Y-97853429D01*
X185553541Y-97855092D01*
X185553534Y-97855094D01*
X185328037Y-97932507D01*
X185328026Y-97932511D01*
X185323190Y-97934172D01*
X185318693Y-97936605D01*
X185318683Y-97936610D01*
X185109002Y-98050084D01*
X185108995Y-98050088D01*
X185104491Y-98052526D01*
X185100448Y-98055672D01*
X185100440Y-98055678D01*
X185011272Y-98125081D01*
X184908256Y-98205262D01*
X184904793Y-98209023D01*
X184904784Y-98209032D01*
X184743311Y-98384439D01*
X184743305Y-98384446D01*
X184739836Y-98388215D01*
X184737031Y-98392506D01*
X184737028Y-98392512D01*
X184606631Y-98592099D01*
X184606624Y-98592111D01*
X184603827Y-98596393D01*
X184601772Y-98601077D01*
X184601766Y-98601089D01*
X184513027Y-98803395D01*
X184503937Y-98824119D01*
X184502679Y-98829084D01*
X184502678Y-98829089D01*
X184444151Y-99060204D01*
X184444149Y-99060213D01*
X184442892Y-99065179D01*
X184442468Y-99070288D01*
X184442467Y-99070298D01*
X184426611Y-99261663D01*
X184422357Y-99313000D01*
X171939643Y-99313000D01*
X171919108Y-99065179D01*
X171858063Y-98824119D01*
X171758173Y-98596393D01*
X171739611Y-98567982D01*
X171624971Y-98392512D01*
X171622164Y-98388215D01*
X171453744Y-98205262D01*
X171326328Y-98106090D01*
X171261559Y-98055678D01*
X171261557Y-98055676D01*
X171257509Y-98052526D01*
X171251587Y-98049321D01*
X171043316Y-97936610D01*
X171043310Y-97936607D01*
X171038810Y-97934172D01*
X171033969Y-97932510D01*
X171033962Y-97932507D01*
X170808465Y-97855094D01*
X170808461Y-97855093D01*
X170803614Y-97853429D01*
X170794768Y-97851952D01*
X170563398Y-97813344D01*
X170563387Y-97813343D01*
X170558335Y-97812500D01*
X170309665Y-97812500D01*
X170304613Y-97813343D01*
X170304601Y-97813344D01*
X170069443Y-97852585D01*
X170069441Y-97852585D01*
X170064386Y-97853429D01*
X170059541Y-97855092D01*
X170059534Y-97855094D01*
X169834037Y-97932507D01*
X169834026Y-97932511D01*
X169829190Y-97934172D01*
X169824693Y-97936605D01*
X169824683Y-97936610D01*
X169615002Y-98050084D01*
X169614995Y-98050088D01*
X169610491Y-98052526D01*
X169606448Y-98055672D01*
X169606440Y-98055678D01*
X169517272Y-98125081D01*
X169414256Y-98205262D01*
X169410793Y-98209023D01*
X169410784Y-98209032D01*
X169249311Y-98384439D01*
X169249305Y-98384446D01*
X169245836Y-98388215D01*
X169243031Y-98392506D01*
X169243028Y-98392512D01*
X169112631Y-98592099D01*
X169112624Y-98592111D01*
X169109827Y-98596393D01*
X169107772Y-98601077D01*
X169107766Y-98601089D01*
X169019027Y-98803395D01*
X169009937Y-98824119D01*
X169008679Y-98829084D01*
X169008678Y-98829089D01*
X168950151Y-99060204D01*
X168950149Y-99060213D01*
X168948892Y-99065179D01*
X168948468Y-99070288D01*
X168948467Y-99070298D01*
X168932611Y-99261663D01*
X168928357Y-99313000D01*
X166763964Y-99313000D01*
X166787903Y-99261663D01*
X166849063Y-99033408D01*
X166869659Y-98798000D01*
X166849063Y-98562592D01*
X166787903Y-98334337D01*
X166688035Y-98120171D01*
X166552495Y-97926599D01*
X166385401Y-97759505D01*
X166380968Y-97756401D01*
X166380961Y-97756395D01*
X166199842Y-97629575D01*
X166160976Y-97585257D01*
X166146965Y-97528000D01*
X166160976Y-97470743D01*
X166199842Y-97426425D01*
X166380961Y-97299604D01*
X166380961Y-97299603D01*
X166385401Y-97296495D01*
X166552495Y-97129401D01*
X166688035Y-96935830D01*
X166787903Y-96721663D01*
X166849063Y-96493408D01*
X166869659Y-96258000D01*
X166849063Y-96022592D01*
X166787903Y-95794337D01*
X166688035Y-95580171D01*
X166552495Y-95386599D01*
X166385401Y-95219505D01*
X166380968Y-95216401D01*
X166380961Y-95216395D01*
X166199842Y-95089575D01*
X166160976Y-95045257D01*
X166146965Y-94988000D01*
X166160976Y-94930743D01*
X166199842Y-94886425D01*
X166380961Y-94759604D01*
X166380961Y-94759603D01*
X166385401Y-94756495D01*
X166552495Y-94589401D01*
X166688035Y-94395830D01*
X166787903Y-94181663D01*
X166849063Y-93953408D01*
X166869659Y-93718000D01*
X166849063Y-93482592D01*
X166787903Y-93254337D01*
X166688035Y-93040171D01*
X166552495Y-92846599D01*
X166385401Y-92679505D01*
X166380970Y-92676402D01*
X166380966Y-92676399D01*
X166199841Y-92549574D01*
X166160976Y-92505256D01*
X166146965Y-92447999D01*
X166160976Y-92390742D01*
X166199839Y-92346426D01*
X166385401Y-92216495D01*
X166552495Y-92049401D01*
X166688035Y-91855830D01*
X166787903Y-91641663D01*
X166849063Y-91413408D01*
X166869659Y-91178000D01*
X166849063Y-90942592D01*
X166787903Y-90714337D01*
X166688035Y-90500171D01*
X166552495Y-90306599D01*
X166385401Y-90139505D01*
X166380968Y-90136401D01*
X166380961Y-90136395D01*
X166199842Y-90009575D01*
X166160976Y-89965257D01*
X166146965Y-89908000D01*
X166160976Y-89850743D01*
X166199842Y-89806425D01*
X166380961Y-89679604D01*
X166380961Y-89679603D01*
X166385401Y-89676495D01*
X166552495Y-89509401D01*
X166688035Y-89315830D01*
X166787903Y-89101663D01*
X166849063Y-88873408D01*
X166869659Y-88638000D01*
X166849063Y-88402592D01*
X166787903Y-88174337D01*
X166688035Y-87960171D01*
X166552495Y-87766599D01*
X166385401Y-87599505D01*
X166380968Y-87596401D01*
X166380961Y-87596395D01*
X166199842Y-87469575D01*
X166160976Y-87425257D01*
X166146965Y-87368000D01*
X166160976Y-87310743D01*
X166199842Y-87266425D01*
X166380961Y-87139604D01*
X166380961Y-87139603D01*
X166385401Y-87136495D01*
X166552495Y-86969401D01*
X166688035Y-86775830D01*
X166787903Y-86561663D01*
X166849063Y-86333408D01*
X166869659Y-86098000D01*
X189398341Y-86098000D01*
X189418937Y-86333408D01*
X189420336Y-86338630D01*
X189420337Y-86338634D01*
X189478694Y-86556430D01*
X189478697Y-86556438D01*
X189480097Y-86561663D01*
X189482385Y-86566570D01*
X189482386Y-86566572D01*
X189577678Y-86770927D01*
X189577681Y-86770933D01*
X189579965Y-86775830D01*
X189583064Y-86780257D01*
X189583066Y-86780259D01*
X189712399Y-86964966D01*
X189712402Y-86964970D01*
X189715505Y-86969401D01*
X189882599Y-87136495D01*
X190076170Y-87272035D01*
X190290337Y-87371903D01*
X190518592Y-87433063D01*
X190754000Y-87453659D01*
X190989408Y-87433063D01*
X191217663Y-87371903D01*
X191431830Y-87272035D01*
X191625401Y-87136495D01*
X191792495Y-86969401D01*
X191928035Y-86775830D01*
X192027903Y-86561663D01*
X192089063Y-86333408D01*
X192109659Y-86098000D01*
X192089063Y-85862592D01*
X192027903Y-85634337D01*
X191928035Y-85420171D01*
X191792495Y-85226599D01*
X191625401Y-85059505D01*
X191620970Y-85056402D01*
X191620966Y-85056399D01*
X191436259Y-84927066D01*
X191436257Y-84927064D01*
X191431830Y-84923965D01*
X191426933Y-84921681D01*
X191426927Y-84921678D01*
X191222572Y-84826386D01*
X191222570Y-84826385D01*
X191217663Y-84824097D01*
X191212438Y-84822697D01*
X191212430Y-84822694D01*
X190994634Y-84764337D01*
X190994630Y-84764336D01*
X190989408Y-84762937D01*
X190984020Y-84762465D01*
X190984017Y-84762465D01*
X190759395Y-84742813D01*
X190754000Y-84742341D01*
X190748605Y-84742813D01*
X190523982Y-84762465D01*
X190523977Y-84762465D01*
X190518592Y-84762937D01*
X190513371Y-84764335D01*
X190513365Y-84764337D01*
X190295569Y-84822694D01*
X190295557Y-84822698D01*
X190290337Y-84824097D01*
X190285432Y-84826383D01*
X190285427Y-84826386D01*
X190081081Y-84921675D01*
X190081077Y-84921677D01*
X190076171Y-84923965D01*
X190071738Y-84927068D01*
X190071731Y-84927073D01*
X189887034Y-85056399D01*
X189887029Y-85056402D01*
X189882599Y-85059505D01*
X189878775Y-85063328D01*
X189878769Y-85063334D01*
X189719334Y-85222769D01*
X189719328Y-85222775D01*
X189715505Y-85226599D01*
X189712402Y-85231029D01*
X189712399Y-85231034D01*
X189583073Y-85415731D01*
X189583068Y-85415738D01*
X189579965Y-85420171D01*
X189577677Y-85425077D01*
X189577675Y-85425081D01*
X189482386Y-85629427D01*
X189482383Y-85629432D01*
X189480097Y-85634337D01*
X189478698Y-85639557D01*
X189478694Y-85639569D01*
X189420337Y-85857365D01*
X189420335Y-85857371D01*
X189418937Y-85862592D01*
X189418465Y-85867977D01*
X189418465Y-85867982D01*
X189405972Y-86010777D01*
X189398341Y-86098000D01*
X166869659Y-86098000D01*
X166849063Y-85862592D01*
X166787903Y-85634337D01*
X166688035Y-85420171D01*
X166644207Y-85357578D01*
X184427500Y-85357578D01*
X184427501Y-85360872D01*
X184427853Y-85364150D01*
X184427854Y-85364161D01*
X184433079Y-85412768D01*
X184433080Y-85412773D01*
X184433909Y-85420483D01*
X184436619Y-85427749D01*
X184436620Y-85427753D01*
X184460969Y-85493034D01*
X184484204Y-85555331D01*
X184489518Y-85562430D01*
X184489519Y-85562431D01*
X184547264Y-85639569D01*
X184570454Y-85670546D01*
X184685669Y-85756796D01*
X184820517Y-85807091D01*
X184880127Y-85813500D01*
X186975872Y-85813499D01*
X187035483Y-85807091D01*
X187170331Y-85756796D01*
X187285546Y-85670546D01*
X187371796Y-85555331D01*
X187422091Y-85420483D01*
X187428500Y-85360873D01*
X187428499Y-83265128D01*
X187422091Y-83205517D01*
X187371796Y-83070669D01*
X187285546Y-82955454D01*
X187170331Y-82869204D01*
X187035483Y-82818909D01*
X187027770Y-82818079D01*
X187027767Y-82818079D01*
X186979180Y-82812855D01*
X186979169Y-82812854D01*
X186975873Y-82812500D01*
X186972550Y-82812500D01*
X184883439Y-82812500D01*
X184883420Y-82812500D01*
X184880128Y-82812501D01*
X184876850Y-82812853D01*
X184876838Y-82812854D01*
X184828231Y-82818079D01*
X184828225Y-82818080D01*
X184820517Y-82818909D01*
X184813252Y-82821618D01*
X184813246Y-82821620D01*
X184693980Y-82866104D01*
X184693978Y-82866104D01*
X184685669Y-82869204D01*
X184678572Y-82874516D01*
X184678568Y-82874519D01*
X184577550Y-82950141D01*
X184577546Y-82950144D01*
X184570454Y-82955454D01*
X184565144Y-82962546D01*
X184565141Y-82962550D01*
X184489519Y-83063568D01*
X184489516Y-83063572D01*
X184484204Y-83070669D01*
X184481104Y-83078978D01*
X184481104Y-83078980D01*
X184436620Y-83198247D01*
X184436619Y-83198250D01*
X184433909Y-83205517D01*
X184433079Y-83213227D01*
X184433079Y-83213232D01*
X184427855Y-83261819D01*
X184427854Y-83261831D01*
X184427500Y-83265127D01*
X184427500Y-83268448D01*
X184427500Y-83268449D01*
X184427500Y-85357560D01*
X184427500Y-85357578D01*
X166644207Y-85357578D01*
X166552495Y-85226599D01*
X166385401Y-85059505D01*
X166380970Y-85056402D01*
X166380966Y-85056399D01*
X166199841Y-84929574D01*
X166160976Y-84885256D01*
X166146965Y-84827999D01*
X166160976Y-84770742D01*
X166199839Y-84726426D01*
X166385401Y-84596495D01*
X166552495Y-84429401D01*
X166688035Y-84235830D01*
X166787903Y-84021663D01*
X166849063Y-83793408D01*
X166869659Y-83558000D01*
X166849063Y-83322592D01*
X166787903Y-83094337D01*
X166688035Y-82880171D01*
X166552495Y-82686599D01*
X166385401Y-82519505D01*
X166380968Y-82516401D01*
X166380961Y-82516395D01*
X166199842Y-82389575D01*
X166160976Y-82345257D01*
X166146965Y-82288000D01*
X166160976Y-82230743D01*
X166199842Y-82186425D01*
X166380961Y-82059604D01*
X166380961Y-82059603D01*
X166385401Y-82056495D01*
X166552495Y-81889401D01*
X166688035Y-81695830D01*
X166787903Y-81481663D01*
X166849063Y-81253408D01*
X166869659Y-81018000D01*
X189398341Y-81018000D01*
X189418937Y-81253408D01*
X189420336Y-81258630D01*
X189420337Y-81258634D01*
X189478694Y-81476430D01*
X189478697Y-81476438D01*
X189480097Y-81481663D01*
X189482385Y-81486570D01*
X189482386Y-81486572D01*
X189577678Y-81690927D01*
X189577681Y-81690933D01*
X189579965Y-81695830D01*
X189583064Y-81700257D01*
X189583066Y-81700259D01*
X189712399Y-81884966D01*
X189712402Y-81884970D01*
X189715505Y-81889401D01*
X189882599Y-82056495D01*
X190076170Y-82192035D01*
X190290337Y-82291903D01*
X190518592Y-82353063D01*
X190754000Y-82373659D01*
X190989408Y-82353063D01*
X191217663Y-82291903D01*
X191431830Y-82192035D01*
X191625401Y-82056495D01*
X191792495Y-81889401D01*
X191928035Y-81695830D01*
X192027903Y-81481663D01*
X192089063Y-81253408D01*
X192109659Y-81018000D01*
X192089063Y-80782592D01*
X192027903Y-80554337D01*
X191928035Y-80340171D01*
X191792495Y-80146599D01*
X191625401Y-79979505D01*
X191620968Y-79976401D01*
X191620961Y-79976395D01*
X191439842Y-79849575D01*
X191400976Y-79805257D01*
X191386965Y-79748000D01*
X191400976Y-79690743D01*
X191439842Y-79646425D01*
X191620961Y-79519604D01*
X191620961Y-79519603D01*
X191625401Y-79516495D01*
X191792495Y-79349401D01*
X191928035Y-79155830D01*
X192027903Y-78941663D01*
X192089063Y-78713408D01*
X192109659Y-78478000D01*
X192089063Y-78242592D01*
X192027903Y-78014337D01*
X191928035Y-77800171D01*
X191792495Y-77606599D01*
X191625401Y-77439505D01*
X191620970Y-77436402D01*
X191620966Y-77436399D01*
X191436259Y-77307066D01*
X191436257Y-77307064D01*
X191431830Y-77303965D01*
X191426933Y-77301681D01*
X191426927Y-77301678D01*
X191222572Y-77206386D01*
X191222570Y-77206385D01*
X191217663Y-77204097D01*
X191212438Y-77202697D01*
X191212430Y-77202694D01*
X190994634Y-77144337D01*
X190994630Y-77144336D01*
X190989408Y-77142937D01*
X190984020Y-77142465D01*
X190984017Y-77142465D01*
X190759395Y-77122813D01*
X190754000Y-77122341D01*
X190748605Y-77122813D01*
X190523982Y-77142465D01*
X190523977Y-77142465D01*
X190518592Y-77142937D01*
X190513371Y-77144335D01*
X190513365Y-77144337D01*
X190295569Y-77202694D01*
X190295557Y-77202698D01*
X190290337Y-77204097D01*
X190285432Y-77206383D01*
X190285427Y-77206386D01*
X190081081Y-77301675D01*
X190081077Y-77301677D01*
X190076171Y-77303965D01*
X190071738Y-77307068D01*
X190071731Y-77307073D01*
X189887034Y-77436399D01*
X189887029Y-77436402D01*
X189882599Y-77439505D01*
X189878775Y-77443328D01*
X189878769Y-77443334D01*
X189719334Y-77602769D01*
X189719328Y-77602775D01*
X189715505Y-77606599D01*
X189712402Y-77611029D01*
X189712399Y-77611034D01*
X189583073Y-77795731D01*
X189583068Y-77795738D01*
X189579965Y-77800171D01*
X189577677Y-77805077D01*
X189577675Y-77805081D01*
X189482386Y-78009427D01*
X189482383Y-78009432D01*
X189480097Y-78014337D01*
X189478698Y-78019557D01*
X189478694Y-78019569D01*
X189420337Y-78237365D01*
X189420335Y-78237371D01*
X189418937Y-78242592D01*
X189418465Y-78247977D01*
X189418465Y-78247982D01*
X189411384Y-78328916D01*
X189398341Y-78478000D01*
X189418937Y-78713408D01*
X189420336Y-78718630D01*
X189420337Y-78718634D01*
X189478694Y-78936430D01*
X189478697Y-78936438D01*
X189480097Y-78941663D01*
X189482385Y-78946570D01*
X189482386Y-78946572D01*
X189577678Y-79150927D01*
X189577681Y-79150933D01*
X189579965Y-79155830D01*
X189583064Y-79160257D01*
X189583066Y-79160259D01*
X189712399Y-79344966D01*
X189712402Y-79344970D01*
X189715505Y-79349401D01*
X189882599Y-79516495D01*
X189887032Y-79519599D01*
X189887038Y-79519604D01*
X190068158Y-79646425D01*
X190107024Y-79690743D01*
X190121035Y-79748000D01*
X190107024Y-79805257D01*
X190068159Y-79849575D01*
X189887041Y-79976395D01*
X189882599Y-79979505D01*
X189878775Y-79983328D01*
X189878769Y-79983334D01*
X189719334Y-80142769D01*
X189719328Y-80142775D01*
X189715505Y-80146599D01*
X189712402Y-80151029D01*
X189712399Y-80151034D01*
X189583073Y-80335731D01*
X189583068Y-80335738D01*
X189579965Y-80340171D01*
X189577677Y-80345077D01*
X189577675Y-80345081D01*
X189482386Y-80549427D01*
X189482383Y-80549432D01*
X189480097Y-80554337D01*
X189478698Y-80559557D01*
X189478694Y-80559569D01*
X189420337Y-80777365D01*
X189420335Y-80777371D01*
X189418937Y-80782592D01*
X189398341Y-81018000D01*
X166869659Y-81018000D01*
X166849063Y-80782592D01*
X166787903Y-80554337D01*
X166688035Y-80340171D01*
X166552495Y-80146599D01*
X166385401Y-79979505D01*
X166380968Y-79976401D01*
X166380961Y-79976395D01*
X166199842Y-79849575D01*
X166160976Y-79805257D01*
X166146965Y-79748000D01*
X166160976Y-79690743D01*
X166199842Y-79646425D01*
X166380961Y-79519604D01*
X166380961Y-79519603D01*
X166385401Y-79516495D01*
X166552495Y-79349401D01*
X166688035Y-79155830D01*
X166787903Y-78941663D01*
X166849063Y-78713408D01*
X166869659Y-78478000D01*
X166849063Y-78242592D01*
X166810052Y-78097000D01*
X173192532Y-78097000D01*
X173193004Y-78102395D01*
X173205269Y-78242592D01*
X173212365Y-78323692D01*
X173213762Y-78328907D01*
X173213764Y-78328916D01*
X173269858Y-78538263D01*
X173269861Y-78538271D01*
X173271261Y-78543496D01*
X173367432Y-78749734D01*
X173497953Y-78936139D01*
X173658861Y-79097047D01*
X173845266Y-79227568D01*
X174051504Y-79323739D01*
X174056734Y-79325140D01*
X174056736Y-79325141D01*
X174147276Y-79349401D01*
X174271308Y-79382635D01*
X174498000Y-79402468D01*
X174724692Y-79382635D01*
X174944496Y-79323739D01*
X175150734Y-79227568D01*
X175337139Y-79097047D01*
X175498047Y-78936139D01*
X175628568Y-78749734D01*
X175724739Y-78543496D01*
X175783635Y-78323692D01*
X175803468Y-78097000D01*
X180812532Y-78097000D01*
X180813004Y-78102395D01*
X180825269Y-78242592D01*
X180832365Y-78323692D01*
X180833762Y-78328907D01*
X180833764Y-78328916D01*
X180889858Y-78538263D01*
X180889861Y-78538271D01*
X180891261Y-78543496D01*
X180987432Y-78749734D01*
X181117953Y-78936139D01*
X181278861Y-79097047D01*
X181465266Y-79227568D01*
X181671504Y-79323739D01*
X181676734Y-79325140D01*
X181676736Y-79325141D01*
X181767276Y-79349401D01*
X181891308Y-79382635D01*
X182118000Y-79402468D01*
X182344692Y-79382635D01*
X182564496Y-79323739D01*
X182770734Y-79227568D01*
X182957139Y-79097047D01*
X183118047Y-78936139D01*
X183248568Y-78749734D01*
X183344739Y-78543496D01*
X183403635Y-78323692D01*
X183423468Y-78097000D01*
X183403635Y-77870308D01*
X183344739Y-77650504D01*
X183248568Y-77444266D01*
X183118047Y-77257861D01*
X182957139Y-77096953D01*
X182770734Y-76966432D01*
X182564496Y-76870261D01*
X182559271Y-76868861D01*
X182559263Y-76868858D01*
X182349916Y-76812764D01*
X182349907Y-76812762D01*
X182344692Y-76811365D01*
X182339304Y-76810893D01*
X182339301Y-76810893D01*
X182123395Y-76792004D01*
X182118000Y-76791532D01*
X182112605Y-76792004D01*
X181896698Y-76810893D01*
X181896693Y-76810893D01*
X181891308Y-76811365D01*
X181886094Y-76812762D01*
X181886083Y-76812764D01*
X181676736Y-76868858D01*
X181676724Y-76868862D01*
X181671504Y-76870261D01*
X181666599Y-76872547D01*
X181666594Y-76872550D01*
X181470176Y-76964142D01*
X181470172Y-76964144D01*
X181465266Y-76966432D01*
X181460833Y-76969535D01*
X181460826Y-76969540D01*
X181283296Y-77093847D01*
X181283291Y-77093850D01*
X181278861Y-77096953D01*
X181275037Y-77100776D01*
X181275031Y-77100782D01*
X181121782Y-77254031D01*
X181121776Y-77254037D01*
X181117953Y-77257861D01*
X181114850Y-77262291D01*
X181114847Y-77262296D01*
X180990540Y-77439826D01*
X180990535Y-77439833D01*
X180987432Y-77444266D01*
X180985144Y-77449172D01*
X180985142Y-77449176D01*
X180893550Y-77645594D01*
X180893547Y-77645599D01*
X180891261Y-77650504D01*
X180889862Y-77655724D01*
X180889858Y-77655736D01*
X180833764Y-77865083D01*
X180833762Y-77865094D01*
X180832365Y-77870308D01*
X180831893Y-77875693D01*
X180831893Y-77875698D01*
X180819764Y-78014337D01*
X180812532Y-78097000D01*
X175803468Y-78097000D01*
X175783635Y-77870308D01*
X175724739Y-77650504D01*
X175628568Y-77444266D01*
X175498047Y-77257861D01*
X175337139Y-77096953D01*
X175150734Y-76966432D01*
X174944496Y-76870261D01*
X174939271Y-76868861D01*
X174939263Y-76868858D01*
X174729916Y-76812764D01*
X174729907Y-76812762D01*
X174724692Y-76811365D01*
X174719304Y-76810893D01*
X174719301Y-76810893D01*
X174503395Y-76792004D01*
X174498000Y-76791532D01*
X174492605Y-76792004D01*
X174276698Y-76810893D01*
X174276693Y-76810893D01*
X174271308Y-76811365D01*
X174266094Y-76812762D01*
X174266083Y-76812764D01*
X174056736Y-76868858D01*
X174056724Y-76868862D01*
X174051504Y-76870261D01*
X174046599Y-76872547D01*
X174046594Y-76872550D01*
X173850176Y-76964142D01*
X173850172Y-76964144D01*
X173845266Y-76966432D01*
X173840833Y-76969535D01*
X173840826Y-76969540D01*
X173663296Y-77093847D01*
X173663291Y-77093850D01*
X173658861Y-77096953D01*
X173655037Y-77100776D01*
X173655031Y-77100782D01*
X173501782Y-77254031D01*
X173501776Y-77254037D01*
X173497953Y-77257861D01*
X173494850Y-77262291D01*
X173494847Y-77262296D01*
X173370540Y-77439826D01*
X173370535Y-77439833D01*
X173367432Y-77444266D01*
X173365144Y-77449172D01*
X173365142Y-77449176D01*
X173273550Y-77645594D01*
X173273547Y-77645599D01*
X173271261Y-77650504D01*
X173269862Y-77655724D01*
X173269858Y-77655736D01*
X173213764Y-77865083D01*
X173213762Y-77865094D01*
X173212365Y-77870308D01*
X173211893Y-77875693D01*
X173211893Y-77875698D01*
X173199764Y-78014337D01*
X173192532Y-78097000D01*
X166810052Y-78097000D01*
X166787903Y-78014337D01*
X166688035Y-77800171D01*
X166552495Y-77606599D01*
X166385401Y-77439505D01*
X166380968Y-77436401D01*
X166380961Y-77436395D01*
X166199842Y-77309575D01*
X166160976Y-77265257D01*
X166146965Y-77208000D01*
X166160976Y-77150743D01*
X166199842Y-77106425D01*
X166380961Y-76979604D01*
X166380961Y-76979603D01*
X166385401Y-76976495D01*
X166552495Y-76809401D01*
X166688035Y-76615830D01*
X166787903Y-76401663D01*
X166849063Y-76173408D01*
X166869659Y-75938000D01*
X166849063Y-75702592D01*
X166787903Y-75474337D01*
X166688035Y-75260171D01*
X166552495Y-75066599D01*
X166385401Y-74899505D01*
X166380968Y-74896401D01*
X166380961Y-74896395D01*
X166199842Y-74769575D01*
X166160976Y-74725257D01*
X166146965Y-74668000D01*
X166160976Y-74610743D01*
X166199842Y-74566425D01*
X166380961Y-74439604D01*
X166380961Y-74439603D01*
X166385401Y-74436495D01*
X166534896Y-74287000D01*
X173192532Y-74287000D01*
X173212365Y-74513692D01*
X173213762Y-74518907D01*
X173213764Y-74518916D01*
X173269858Y-74728263D01*
X173269861Y-74728271D01*
X173271261Y-74733496D01*
X173367432Y-74939734D01*
X173497953Y-75126139D01*
X173658861Y-75287047D01*
X173845266Y-75417568D01*
X174051504Y-75513739D01*
X174056734Y-75515140D01*
X174056736Y-75515141D01*
X174266083Y-75571235D01*
X174271308Y-75572635D01*
X174498000Y-75592468D01*
X174724692Y-75572635D01*
X174944496Y-75513739D01*
X175150734Y-75417568D01*
X175337139Y-75287047D01*
X175498047Y-75126139D01*
X175628568Y-74939734D01*
X175724739Y-74733496D01*
X175783635Y-74513692D01*
X175803468Y-74287000D01*
X180812532Y-74287000D01*
X180832365Y-74513692D01*
X180833762Y-74518907D01*
X180833764Y-74518916D01*
X180889858Y-74728263D01*
X180889861Y-74728271D01*
X180891261Y-74733496D01*
X180987432Y-74939734D01*
X181117953Y-75126139D01*
X181278861Y-75287047D01*
X181465266Y-75417568D01*
X181671504Y-75513739D01*
X181676734Y-75515140D01*
X181676736Y-75515141D01*
X181886083Y-75571235D01*
X181891308Y-75572635D01*
X182118000Y-75592468D01*
X182344692Y-75572635D01*
X182564496Y-75513739D01*
X182770734Y-75417568D01*
X182957139Y-75287047D01*
X183118047Y-75126139D01*
X183248568Y-74939734D01*
X183344739Y-74733496D01*
X183403635Y-74513692D01*
X183423468Y-74287000D01*
X183403635Y-74060308D01*
X183344739Y-73840504D01*
X183248568Y-73634266D01*
X183118047Y-73447861D01*
X183068186Y-73398000D01*
X189398341Y-73398000D01*
X189418937Y-73633408D01*
X189420336Y-73638630D01*
X189420337Y-73638634D01*
X189478694Y-73856430D01*
X189478697Y-73856438D01*
X189480097Y-73861663D01*
X189482385Y-73866570D01*
X189482386Y-73866572D01*
X189577678Y-74070927D01*
X189577681Y-74070933D01*
X189579965Y-74075830D01*
X189583064Y-74080257D01*
X189583066Y-74080259D01*
X189712399Y-74264966D01*
X189712402Y-74264970D01*
X189715505Y-74269401D01*
X189882599Y-74436495D01*
X190076170Y-74572035D01*
X190290337Y-74671903D01*
X190518592Y-74733063D01*
X190754000Y-74753659D01*
X190989408Y-74733063D01*
X191217663Y-74671903D01*
X191431830Y-74572035D01*
X191625401Y-74436495D01*
X191792495Y-74269401D01*
X191928035Y-74075830D01*
X192027903Y-73861663D01*
X192089063Y-73633408D01*
X192109659Y-73398000D01*
X192089063Y-73162592D01*
X192027903Y-72934337D01*
X191928035Y-72720171D01*
X191792495Y-72526599D01*
X191625401Y-72359505D01*
X191620968Y-72356401D01*
X191620961Y-72356395D01*
X191439842Y-72229575D01*
X191400976Y-72185257D01*
X191386965Y-72128000D01*
X191400976Y-72070743D01*
X191439842Y-72026425D01*
X191620961Y-71899604D01*
X191620961Y-71899603D01*
X191625401Y-71896495D01*
X191792495Y-71729401D01*
X191928035Y-71535830D01*
X192027903Y-71321663D01*
X192089063Y-71093408D01*
X192109659Y-70858000D01*
X192089063Y-70622592D01*
X192027903Y-70394337D01*
X191928035Y-70180171D01*
X191792495Y-69986599D01*
X191625401Y-69819505D01*
X191620968Y-69816401D01*
X191620961Y-69816395D01*
X191439842Y-69689575D01*
X191400976Y-69645257D01*
X191386965Y-69588000D01*
X191400976Y-69530743D01*
X191439842Y-69486425D01*
X191620961Y-69359604D01*
X191620961Y-69359603D01*
X191625401Y-69356495D01*
X191792495Y-69189401D01*
X191928035Y-68995830D01*
X192027903Y-68781663D01*
X192089063Y-68553408D01*
X192109659Y-68318000D01*
X192089063Y-68082592D01*
X192027903Y-67854337D01*
X191928035Y-67640171D01*
X191792495Y-67446599D01*
X191625401Y-67279505D01*
X191620970Y-67276402D01*
X191620966Y-67276399D01*
X191436259Y-67147066D01*
X191436257Y-67147064D01*
X191431830Y-67143965D01*
X191426933Y-67141681D01*
X191426927Y-67141678D01*
X191222572Y-67046386D01*
X191222570Y-67046385D01*
X191217663Y-67044097D01*
X191212438Y-67042697D01*
X191212430Y-67042694D01*
X190994634Y-66984337D01*
X190994630Y-66984336D01*
X190989408Y-66982937D01*
X190984020Y-66982465D01*
X190984017Y-66982465D01*
X190759395Y-66962813D01*
X190754000Y-66962341D01*
X190748605Y-66962813D01*
X190523982Y-66982465D01*
X190523977Y-66982465D01*
X190518592Y-66982937D01*
X190513371Y-66984335D01*
X190513365Y-66984337D01*
X190295569Y-67042694D01*
X190295557Y-67042698D01*
X190290337Y-67044097D01*
X190285432Y-67046383D01*
X190285427Y-67046386D01*
X190081081Y-67141675D01*
X190081077Y-67141677D01*
X190076171Y-67143965D01*
X190071738Y-67147068D01*
X190071731Y-67147073D01*
X189887034Y-67276399D01*
X189887029Y-67276402D01*
X189882599Y-67279505D01*
X189878775Y-67283328D01*
X189878769Y-67283334D01*
X189719334Y-67442769D01*
X189719328Y-67442775D01*
X189715505Y-67446599D01*
X189712402Y-67451029D01*
X189712399Y-67451034D01*
X189583073Y-67635731D01*
X189583068Y-67635738D01*
X189579965Y-67640171D01*
X189577677Y-67645077D01*
X189577675Y-67645081D01*
X189482386Y-67849427D01*
X189482383Y-67849432D01*
X189480097Y-67854337D01*
X189478698Y-67859557D01*
X189478694Y-67859569D01*
X189420337Y-68077365D01*
X189420335Y-68077371D01*
X189418937Y-68082592D01*
X189398341Y-68318000D01*
X189418937Y-68553408D01*
X189420336Y-68558630D01*
X189420337Y-68558634D01*
X189478694Y-68776430D01*
X189478697Y-68776438D01*
X189480097Y-68781663D01*
X189482385Y-68786570D01*
X189482386Y-68786572D01*
X189577678Y-68990927D01*
X189577681Y-68990933D01*
X189579965Y-68995830D01*
X189583064Y-69000257D01*
X189583066Y-69000259D01*
X189712399Y-69184966D01*
X189712402Y-69184970D01*
X189715505Y-69189401D01*
X189882599Y-69356495D01*
X189887032Y-69359599D01*
X189887038Y-69359604D01*
X190068158Y-69486425D01*
X190107024Y-69530743D01*
X190121035Y-69588000D01*
X190107024Y-69645257D01*
X190068159Y-69689575D01*
X189887041Y-69816395D01*
X189882599Y-69819505D01*
X189878775Y-69823328D01*
X189878769Y-69823334D01*
X189719334Y-69982769D01*
X189719328Y-69982775D01*
X189715505Y-69986599D01*
X189712402Y-69991029D01*
X189712399Y-69991034D01*
X189583073Y-70175731D01*
X189583068Y-70175738D01*
X189579965Y-70180171D01*
X189577677Y-70185077D01*
X189577675Y-70185081D01*
X189482386Y-70389427D01*
X189482383Y-70389432D01*
X189480097Y-70394337D01*
X189478698Y-70399557D01*
X189478694Y-70399569D01*
X189420337Y-70617365D01*
X189420335Y-70617371D01*
X189418937Y-70622592D01*
X189418465Y-70627977D01*
X189418465Y-70627982D01*
X189414050Y-70678449D01*
X189398341Y-70858000D01*
X189418937Y-71093408D01*
X189420336Y-71098630D01*
X189420337Y-71098634D01*
X189478694Y-71316430D01*
X189478697Y-71316438D01*
X189480097Y-71321663D01*
X189482385Y-71326570D01*
X189482386Y-71326572D01*
X189577678Y-71530927D01*
X189577681Y-71530933D01*
X189579965Y-71535830D01*
X189583064Y-71540257D01*
X189583066Y-71540259D01*
X189712399Y-71724966D01*
X189712402Y-71724970D01*
X189715505Y-71729401D01*
X189882599Y-71896495D01*
X189887032Y-71899599D01*
X189887038Y-71899604D01*
X190068158Y-72026425D01*
X190107024Y-72070743D01*
X190121035Y-72128000D01*
X190107024Y-72185257D01*
X190068159Y-72229575D01*
X189887041Y-72356395D01*
X189882599Y-72359505D01*
X189878775Y-72363328D01*
X189878769Y-72363334D01*
X189719334Y-72522769D01*
X189719328Y-72522775D01*
X189715505Y-72526599D01*
X189712402Y-72531029D01*
X189712399Y-72531034D01*
X189583073Y-72715731D01*
X189583068Y-72715738D01*
X189579965Y-72720171D01*
X189577677Y-72725077D01*
X189577675Y-72725081D01*
X189482386Y-72929427D01*
X189482383Y-72929432D01*
X189480097Y-72934337D01*
X189478698Y-72939557D01*
X189478694Y-72939569D01*
X189420337Y-73157365D01*
X189420335Y-73157371D01*
X189418937Y-73162592D01*
X189418465Y-73167977D01*
X189418465Y-73167982D01*
X189407259Y-73296070D01*
X189398341Y-73398000D01*
X183068186Y-73398000D01*
X182957139Y-73286953D01*
X182828509Y-73196886D01*
X182775173Y-73159540D01*
X182775171Y-73159539D01*
X182770734Y-73156432D01*
X182564496Y-73060261D01*
X182559271Y-73058861D01*
X182559263Y-73058858D01*
X182349916Y-73002764D01*
X182349907Y-73002762D01*
X182344692Y-73001365D01*
X182339304Y-73000893D01*
X182339301Y-73000893D01*
X182123395Y-72982004D01*
X182118000Y-72981532D01*
X182112605Y-72982004D01*
X181896698Y-73000893D01*
X181896693Y-73000893D01*
X181891308Y-73001365D01*
X181886094Y-73002762D01*
X181886083Y-73002764D01*
X181676736Y-73058858D01*
X181676724Y-73058862D01*
X181671504Y-73060261D01*
X181666599Y-73062547D01*
X181666594Y-73062550D01*
X181470176Y-73154142D01*
X181470172Y-73154144D01*
X181465266Y-73156432D01*
X181460833Y-73159535D01*
X181460826Y-73159540D01*
X181283296Y-73283847D01*
X181283291Y-73283850D01*
X181278861Y-73286953D01*
X181275037Y-73290776D01*
X181275031Y-73290782D01*
X181121782Y-73444031D01*
X181121776Y-73444037D01*
X181117953Y-73447861D01*
X181114850Y-73452291D01*
X181114847Y-73452296D01*
X180990540Y-73629826D01*
X180990535Y-73629833D01*
X180987432Y-73634266D01*
X180985144Y-73639172D01*
X180985142Y-73639176D01*
X180893550Y-73835594D01*
X180893547Y-73835599D01*
X180891261Y-73840504D01*
X180889862Y-73845724D01*
X180889858Y-73845736D01*
X180833764Y-74055083D01*
X180833762Y-74055094D01*
X180832365Y-74060308D01*
X180831893Y-74065693D01*
X180831893Y-74065698D01*
X180822933Y-74168117D01*
X180812532Y-74287000D01*
X175803468Y-74287000D01*
X175783635Y-74060308D01*
X175724739Y-73840504D01*
X175628568Y-73634266D01*
X175498047Y-73447861D01*
X175337139Y-73286953D01*
X175208509Y-73196886D01*
X175155173Y-73159540D01*
X175155171Y-73159539D01*
X175150734Y-73156432D01*
X174944496Y-73060261D01*
X174939271Y-73058861D01*
X174939263Y-73058858D01*
X174729916Y-73002764D01*
X174729907Y-73002762D01*
X174724692Y-73001365D01*
X174719304Y-73000893D01*
X174719301Y-73000893D01*
X174503395Y-72982004D01*
X174498000Y-72981532D01*
X174492605Y-72982004D01*
X174276698Y-73000893D01*
X174276693Y-73000893D01*
X174271308Y-73001365D01*
X174266094Y-73002762D01*
X174266083Y-73002764D01*
X174056736Y-73058858D01*
X174056724Y-73058862D01*
X174051504Y-73060261D01*
X174046599Y-73062547D01*
X174046594Y-73062550D01*
X173850176Y-73154142D01*
X173850172Y-73154144D01*
X173845266Y-73156432D01*
X173840833Y-73159535D01*
X173840826Y-73159540D01*
X173663296Y-73283847D01*
X173663291Y-73283850D01*
X173658861Y-73286953D01*
X173655037Y-73290776D01*
X173655031Y-73290782D01*
X173501782Y-73444031D01*
X173501776Y-73444037D01*
X173497953Y-73447861D01*
X173494850Y-73452291D01*
X173494847Y-73452296D01*
X173370540Y-73629826D01*
X173370535Y-73629833D01*
X173367432Y-73634266D01*
X173365144Y-73639172D01*
X173365142Y-73639176D01*
X173273550Y-73835594D01*
X173273547Y-73835599D01*
X173271261Y-73840504D01*
X173269862Y-73845724D01*
X173269858Y-73845736D01*
X173213764Y-74055083D01*
X173213762Y-74055094D01*
X173212365Y-74060308D01*
X173211893Y-74065693D01*
X173211893Y-74065698D01*
X173202933Y-74168117D01*
X173192532Y-74287000D01*
X166534896Y-74287000D01*
X166552495Y-74269401D01*
X166688035Y-74075830D01*
X166787903Y-73861663D01*
X166849063Y-73633408D01*
X166869659Y-73398000D01*
X166849063Y-73162592D01*
X166787903Y-72934337D01*
X166688035Y-72720171D01*
X166552495Y-72526599D01*
X166385401Y-72359505D01*
X166380968Y-72356401D01*
X166380961Y-72356395D01*
X166199842Y-72229575D01*
X166160976Y-72185257D01*
X166146965Y-72128000D01*
X166160976Y-72070743D01*
X166199842Y-72026425D01*
X166380961Y-71899604D01*
X166380961Y-71899603D01*
X166385401Y-71896495D01*
X166552495Y-71729401D01*
X166688035Y-71535830D01*
X166787903Y-71321663D01*
X166849063Y-71093408D01*
X166869659Y-70858000D01*
X166849063Y-70622592D01*
X166787903Y-70394337D01*
X166688035Y-70180171D01*
X166552495Y-69986599D01*
X166385401Y-69819505D01*
X166380968Y-69816401D01*
X166380961Y-69816395D01*
X166199842Y-69689575D01*
X166160976Y-69645257D01*
X166146965Y-69588000D01*
X166160976Y-69530743D01*
X166199842Y-69486425D01*
X166380961Y-69359604D01*
X166380961Y-69359603D01*
X166385401Y-69356495D01*
X166552495Y-69189401D01*
X166688035Y-68995830D01*
X166787903Y-68781663D01*
X166849063Y-68553408D01*
X166869659Y-68318000D01*
X166849063Y-68082592D01*
X166787903Y-67854337D01*
X166688035Y-67640171D01*
X166552495Y-67446599D01*
X166385401Y-67279505D01*
X166380968Y-67276401D01*
X166380961Y-67276395D01*
X166199842Y-67149575D01*
X166160976Y-67105257D01*
X166146965Y-67048000D01*
X166160976Y-66990743D01*
X166199842Y-66946425D01*
X166380961Y-66819604D01*
X166380961Y-66819603D01*
X166385401Y-66816495D01*
X166552495Y-66649401D01*
X166688035Y-66455830D01*
X166787903Y-66241663D01*
X166849063Y-66013408D01*
X166869659Y-65778000D01*
X166849063Y-65542592D01*
X166787903Y-65314337D01*
X166688035Y-65100171D01*
X166552495Y-64906599D01*
X166385401Y-64739505D01*
X166380968Y-64736401D01*
X166380961Y-64736395D01*
X166199842Y-64609575D01*
X166160976Y-64565257D01*
X166146965Y-64508000D01*
X166160976Y-64450743D01*
X166199842Y-64406425D01*
X166380961Y-64279604D01*
X166380961Y-64279603D01*
X166385401Y-64276495D01*
X166552495Y-64109401D01*
X166688035Y-63915830D01*
X166787903Y-63701663D01*
X166849063Y-63473408D01*
X166869659Y-63238000D01*
X189398341Y-63238000D01*
X189418937Y-63473408D01*
X189420336Y-63478630D01*
X189420337Y-63478634D01*
X189478694Y-63696430D01*
X189478697Y-63696438D01*
X189480097Y-63701663D01*
X189482385Y-63706570D01*
X189482386Y-63706572D01*
X189577678Y-63910927D01*
X189577681Y-63910933D01*
X189579965Y-63915830D01*
X189583064Y-63920257D01*
X189583066Y-63920259D01*
X189712399Y-64104966D01*
X189712402Y-64104970D01*
X189715505Y-64109401D01*
X189882599Y-64276495D01*
X189887031Y-64279598D01*
X189887033Y-64279600D01*
X190031260Y-64380589D01*
X190076170Y-64412035D01*
X190290337Y-64511903D01*
X190518592Y-64573063D01*
X190754000Y-64593659D01*
X190989408Y-64573063D01*
X191217663Y-64511903D01*
X191431830Y-64412035D01*
X191625401Y-64276495D01*
X191792495Y-64109401D01*
X191928035Y-63915830D01*
X192027903Y-63701663D01*
X192089063Y-63473408D01*
X192109659Y-63238000D01*
X192089063Y-63002592D01*
X192027903Y-62774337D01*
X191928035Y-62560171D01*
X191792495Y-62366599D01*
X191625401Y-62199505D01*
X191620968Y-62196401D01*
X191620961Y-62196395D01*
X191439842Y-62069575D01*
X191400976Y-62025257D01*
X191386965Y-61968000D01*
X191400976Y-61910743D01*
X191439842Y-61866425D01*
X191620961Y-61739604D01*
X191620961Y-61739603D01*
X191625401Y-61736495D01*
X191792495Y-61569401D01*
X191928035Y-61375830D01*
X192027903Y-61161663D01*
X192089063Y-60933408D01*
X192109659Y-60698000D01*
X192089063Y-60462592D01*
X192027903Y-60234337D01*
X191928035Y-60020171D01*
X191792495Y-59826599D01*
X191625401Y-59659505D01*
X191620970Y-59656402D01*
X191620966Y-59656399D01*
X191436259Y-59527066D01*
X191436257Y-59527064D01*
X191431830Y-59523965D01*
X191426933Y-59521681D01*
X191426927Y-59521678D01*
X191222572Y-59426386D01*
X191222570Y-59426385D01*
X191217663Y-59424097D01*
X191212438Y-59422697D01*
X191212430Y-59422694D01*
X190994634Y-59364337D01*
X190994630Y-59364336D01*
X190989408Y-59362937D01*
X190984020Y-59362465D01*
X190984017Y-59362465D01*
X190759395Y-59342813D01*
X190754000Y-59342341D01*
X190748605Y-59342813D01*
X190523982Y-59362465D01*
X190523977Y-59362465D01*
X190518592Y-59362937D01*
X190513371Y-59364335D01*
X190513365Y-59364337D01*
X190295569Y-59422694D01*
X190295557Y-59422698D01*
X190290337Y-59424097D01*
X190285432Y-59426383D01*
X190285427Y-59426386D01*
X190081081Y-59521675D01*
X190081077Y-59521677D01*
X190076171Y-59523965D01*
X190071738Y-59527068D01*
X190071731Y-59527073D01*
X189887034Y-59656399D01*
X189887029Y-59656402D01*
X189882599Y-59659505D01*
X189878775Y-59663328D01*
X189878769Y-59663334D01*
X189719334Y-59822769D01*
X189719328Y-59822775D01*
X189715505Y-59826599D01*
X189712402Y-59831029D01*
X189712399Y-59831034D01*
X189583073Y-60015731D01*
X189583068Y-60015738D01*
X189579965Y-60020171D01*
X189577677Y-60025077D01*
X189577675Y-60025081D01*
X189482386Y-60229427D01*
X189482383Y-60229432D01*
X189480097Y-60234337D01*
X189478698Y-60239557D01*
X189478694Y-60239569D01*
X189420337Y-60457365D01*
X189420335Y-60457371D01*
X189418937Y-60462592D01*
X189418465Y-60467977D01*
X189418465Y-60467982D01*
X189412881Y-60531813D01*
X189398341Y-60698000D01*
X189418937Y-60933408D01*
X189420336Y-60938630D01*
X189420337Y-60938634D01*
X189478694Y-61156430D01*
X189478697Y-61156438D01*
X189480097Y-61161663D01*
X189482385Y-61166570D01*
X189482386Y-61166572D01*
X189577678Y-61370927D01*
X189577681Y-61370933D01*
X189579965Y-61375830D01*
X189583064Y-61380257D01*
X189583066Y-61380259D01*
X189712399Y-61564966D01*
X189712402Y-61564970D01*
X189715505Y-61569401D01*
X189882599Y-61736495D01*
X189887032Y-61739599D01*
X189887038Y-61739604D01*
X190068158Y-61866425D01*
X190107024Y-61910743D01*
X190121035Y-61968000D01*
X190107024Y-62025257D01*
X190068159Y-62069575D01*
X189887041Y-62196395D01*
X189882599Y-62199505D01*
X189878775Y-62203328D01*
X189878769Y-62203334D01*
X189719334Y-62362769D01*
X189719328Y-62362775D01*
X189715505Y-62366599D01*
X189712402Y-62371029D01*
X189712399Y-62371034D01*
X189583073Y-62555731D01*
X189583068Y-62555738D01*
X189579965Y-62560171D01*
X189577677Y-62565077D01*
X189577675Y-62565081D01*
X189482386Y-62769427D01*
X189482383Y-62769432D01*
X189480097Y-62774337D01*
X189478698Y-62779557D01*
X189478694Y-62779569D01*
X189420337Y-62997365D01*
X189420335Y-62997371D01*
X189418937Y-63002592D01*
X189398341Y-63238000D01*
X166869659Y-63238000D01*
X166849063Y-63002592D01*
X166787903Y-62774337D01*
X166688035Y-62560171D01*
X166552495Y-62366599D01*
X166385401Y-62199505D01*
X166380968Y-62196401D01*
X166380961Y-62196395D01*
X166199842Y-62069575D01*
X166160976Y-62025257D01*
X166146965Y-61968000D01*
X166160976Y-61910743D01*
X166199842Y-61866425D01*
X166380961Y-61739604D01*
X166380961Y-61739603D01*
X166385401Y-61736495D01*
X166552495Y-61569401D01*
X166688035Y-61375830D01*
X166787903Y-61161663D01*
X166849063Y-60933408D01*
X166869659Y-60698000D01*
X166849063Y-60462592D01*
X166787903Y-60234337D01*
X166688035Y-60020171D01*
X166552495Y-59826599D01*
X166385401Y-59659505D01*
X166380970Y-59656402D01*
X166380966Y-59656399D01*
X166199841Y-59529574D01*
X166160976Y-59485256D01*
X166146965Y-59427999D01*
X166160976Y-59370742D01*
X166199839Y-59326426D01*
X166385401Y-59196495D01*
X166552495Y-59029401D01*
X166688035Y-58835830D01*
X166787903Y-58621663D01*
X166849063Y-58393408D01*
X166869659Y-58158000D01*
X166849063Y-57922592D01*
X166787903Y-57694337D01*
X166688035Y-57480171D01*
X166552495Y-57286599D01*
X166385401Y-57119505D01*
X166380970Y-57116402D01*
X166380966Y-57116399D01*
X166196259Y-56987066D01*
X166196257Y-56987064D01*
X166191830Y-56983965D01*
X166186933Y-56981681D01*
X166186927Y-56981678D01*
X165982569Y-56886384D01*
X165982562Y-56886381D01*
X165977663Y-56884097D01*
X165972433Y-56882695D01*
X165971956Y-56882522D01*
X165916653Y-56842342D01*
X165891045Y-56778962D01*
X165902915Y-56711642D01*
X165948656Y-56660842D01*
X166014366Y-56642000D01*
X198504000Y-56642000D01*
X198566000Y-56658613D01*
G37*
%TD.AperFunction*%
%TD*%
%TA.AperFunction,Conductor*%
%TO.N,/BATT(+)*%
G36*
X79440000Y-78502613D02*
G01*
X79485387Y-78548000D01*
X79502000Y-78610000D01*
X79502000Y-92824721D01*
X79484264Y-92888626D01*
X79436131Y-92934251D01*
X79373873Y-92947991D01*
X79373873Y-92948500D01*
X79371568Y-92948500D01*
X79371567Y-92948500D01*
X79370547Y-92948500D01*
X77681439Y-92948500D01*
X77681420Y-92948500D01*
X77678128Y-92948501D01*
X77674850Y-92948853D01*
X77674838Y-92948854D01*
X77626231Y-92954079D01*
X77626225Y-92954080D01*
X77618517Y-92954909D01*
X77611252Y-92957618D01*
X77611246Y-92957620D01*
X77491980Y-93002104D01*
X77491978Y-93002104D01*
X77483669Y-93005204D01*
X77476572Y-93010516D01*
X77476568Y-93010519D01*
X77375550Y-93086141D01*
X77375546Y-93086144D01*
X77368454Y-93091454D01*
X77363144Y-93098546D01*
X77363141Y-93098550D01*
X77287519Y-93199568D01*
X77287516Y-93199572D01*
X77282204Y-93206669D01*
X77279104Y-93214978D01*
X77279104Y-93214980D01*
X77234620Y-93334247D01*
X77234619Y-93334250D01*
X77231909Y-93341517D01*
X77231079Y-93349227D01*
X77231079Y-93349232D01*
X77225855Y-93397819D01*
X77225854Y-93397831D01*
X77225500Y-93401127D01*
X77225500Y-93404448D01*
X77225500Y-93404449D01*
X77225500Y-95093560D01*
X77225500Y-95093578D01*
X77225501Y-95096872D01*
X77225853Y-95100150D01*
X77225854Y-95100161D01*
X77231079Y-95148768D01*
X77231080Y-95148773D01*
X77231909Y-95156483D01*
X77234619Y-95163749D01*
X77234620Y-95163753D01*
X77268217Y-95253831D01*
X77282204Y-95291331D01*
X77368454Y-95406546D01*
X77483669Y-95492796D01*
X77618517Y-95543091D01*
X77678127Y-95549500D01*
X77701500Y-95549500D01*
X77763500Y-95566113D01*
X77808887Y-95611500D01*
X77825500Y-95673500D01*
X77825500Y-98557911D01*
X77815372Y-98606995D01*
X77786641Y-98648061D01*
X70367202Y-105655308D01*
X70367199Y-105655311D01*
X70358000Y-105664000D01*
X70358000Y-105676661D01*
X70358000Y-122304000D01*
X70341387Y-122366000D01*
X70296000Y-122411387D01*
X70234000Y-122428000D01*
X52725838Y-122428000D01*
X52663838Y-122411387D01*
X52618451Y-122366000D01*
X52601838Y-122304000D01*
X52601838Y-78610000D01*
X52618451Y-78548000D01*
X52663838Y-78502613D01*
X52725838Y-78486000D01*
X79378000Y-78486000D01*
X79440000Y-78502613D01*
G37*
%TD.AperFunction*%
%TD*%
%TA.AperFunction,Conductor*%
%TO.N,/BATT(-)*%
G36*
X121350000Y-89424613D02*
G01*
X121395387Y-89470000D01*
X121412000Y-89532000D01*
X121412000Y-122304000D01*
X121395387Y-122366000D01*
X121350000Y-122411387D01*
X121288000Y-122428000D01*
X93415736Y-122428000D01*
X93362719Y-122416095D01*
X93319883Y-122382665D01*
X93295452Y-122334129D01*
X93294119Y-122279809D01*
X93301340Y-122243507D01*
X93321561Y-121935000D01*
X93301340Y-121626493D01*
X93241025Y-121323265D01*
X93141646Y-121030504D01*
X93004904Y-120753220D01*
X92833139Y-120496155D01*
X92830461Y-120493102D01*
X92830457Y-120493096D01*
X92631963Y-120266758D01*
X92629290Y-120263710D01*
X92626241Y-120261036D01*
X92399903Y-120062542D01*
X92399895Y-120062536D01*
X92396845Y-120059861D01*
X92393463Y-120057601D01*
X92143155Y-119890350D01*
X92143150Y-119890347D01*
X92139781Y-119888096D01*
X92136145Y-119886303D01*
X92136140Y-119886300D01*
X91866138Y-119753150D01*
X91866137Y-119753149D01*
X91862496Y-119751354D01*
X91569735Y-119651975D01*
X91565758Y-119651184D01*
X91565751Y-119651182D01*
X91270489Y-119592452D01*
X91270488Y-119592451D01*
X91266507Y-119591660D01*
X91262457Y-119591394D01*
X91262453Y-119591394D01*
X90962058Y-119571705D01*
X90958000Y-119571439D01*
X90953942Y-119571705D01*
X90653546Y-119591394D01*
X90653540Y-119591394D01*
X90649493Y-119591660D01*
X90645513Y-119592451D01*
X90645510Y-119592452D01*
X90350248Y-119651182D01*
X90350237Y-119651184D01*
X90346265Y-119651975D01*
X90342422Y-119653279D01*
X90342420Y-119653280D01*
X90057350Y-119750048D01*
X90057343Y-119750050D01*
X90053504Y-119751354D01*
X90049867Y-119753147D01*
X90049861Y-119753150D01*
X89779860Y-119886300D01*
X89779848Y-119886306D01*
X89776220Y-119888096D01*
X89772857Y-119890343D01*
X89772845Y-119890350D01*
X89522536Y-120057601D01*
X89522526Y-120057607D01*
X89519155Y-120059861D01*
X89516111Y-120062530D01*
X89516096Y-120062542D01*
X89289758Y-120261036D01*
X89289750Y-120261043D01*
X89286710Y-120263710D01*
X89284043Y-120266750D01*
X89284036Y-120266758D01*
X89085542Y-120493096D01*
X89085530Y-120493111D01*
X89082861Y-120496155D01*
X89080607Y-120499526D01*
X89080601Y-120499536D01*
X88913350Y-120749845D01*
X88913343Y-120749857D01*
X88911096Y-120753220D01*
X88909306Y-120756848D01*
X88909300Y-120756860D01*
X88776150Y-121026861D01*
X88776147Y-121026867D01*
X88774354Y-121030504D01*
X88674975Y-121323265D01*
X88674184Y-121327237D01*
X88674182Y-121327248D01*
X88615452Y-121622510D01*
X88614660Y-121626493D01*
X88594439Y-121935000D01*
X88614660Y-122243507D01*
X88615451Y-122247488D01*
X88615452Y-122247489D01*
X88621881Y-122279809D01*
X88620548Y-122334129D01*
X88596117Y-122382665D01*
X88553281Y-122416095D01*
X88500264Y-122428000D01*
X79412648Y-122428000D01*
X79365195Y-122418561D01*
X79324967Y-122391681D01*
X74712319Y-117779033D01*
X74685439Y-117738805D01*
X74676000Y-117691352D01*
X74676000Y-107495512D01*
X74686149Y-107446380D01*
X74714934Y-107405291D01*
X76031804Y-106163670D01*
X83566000Y-99060000D01*
X83566000Y-93233000D01*
X90388532Y-93233000D01*
X90389004Y-93238395D01*
X90401645Y-93382888D01*
X90408365Y-93459692D01*
X90409762Y-93464907D01*
X90409764Y-93464916D01*
X90465858Y-93674263D01*
X90465861Y-93674271D01*
X90467261Y-93679496D01*
X90563432Y-93885734D01*
X90693953Y-94072139D01*
X90854861Y-94233047D01*
X91041266Y-94363568D01*
X91247504Y-94459739D01*
X91252734Y-94461140D01*
X91252736Y-94461141D01*
X91462083Y-94517235D01*
X91467308Y-94518635D01*
X91694000Y-94538468D01*
X91920692Y-94518635D01*
X92140496Y-94459739D01*
X92346734Y-94363568D01*
X92533139Y-94233047D01*
X92691080Y-94075105D01*
X92747556Y-94042779D01*
X92812629Y-94043505D01*
X92868373Y-94077085D01*
X92899193Y-94133828D01*
X92899909Y-94140483D01*
X92950204Y-94275331D01*
X93036454Y-94390546D01*
X93151669Y-94476796D01*
X93286517Y-94527091D01*
X93346127Y-94533500D01*
X95041872Y-94533499D01*
X95101483Y-94527091D01*
X95236331Y-94476796D01*
X95351546Y-94390546D01*
X95437796Y-94275331D01*
X95488091Y-94140483D01*
X95494500Y-94080873D01*
X95494499Y-92385128D01*
X95488091Y-92325517D01*
X95437796Y-92190669D01*
X95351546Y-92075454D01*
X95236331Y-91989204D01*
X95124155Y-91947365D01*
X95108752Y-91941620D01*
X95108750Y-91941619D01*
X95101483Y-91938909D01*
X95093770Y-91938079D01*
X95093767Y-91938079D01*
X95045180Y-91932855D01*
X95045169Y-91932854D01*
X95041873Y-91932500D01*
X95038550Y-91932500D01*
X93349439Y-91932500D01*
X93349420Y-91932500D01*
X93346128Y-91932501D01*
X93342850Y-91932853D01*
X93342838Y-91932854D01*
X93294231Y-91938079D01*
X93294225Y-91938080D01*
X93286517Y-91938909D01*
X93279252Y-91941618D01*
X93279246Y-91941620D01*
X93159980Y-91986104D01*
X93159978Y-91986104D01*
X93151669Y-91989204D01*
X93144572Y-91994516D01*
X93144568Y-91994519D01*
X93043550Y-92070141D01*
X93043546Y-92070144D01*
X93036454Y-92075454D01*
X93031144Y-92082546D01*
X93031141Y-92082550D01*
X92955519Y-92183568D01*
X92955516Y-92183572D01*
X92950204Y-92190669D01*
X92947104Y-92198978D01*
X92947104Y-92198980D01*
X92902619Y-92318249D01*
X92902617Y-92318254D01*
X92899909Y-92325517D01*
X92899193Y-92332171D01*
X92868372Y-92388914D01*
X92812628Y-92422495D01*
X92747556Y-92423220D01*
X92691077Y-92390891D01*
X92536968Y-92236782D01*
X92533139Y-92232953D01*
X92346734Y-92102432D01*
X92140496Y-92006261D01*
X92135271Y-92004861D01*
X92135263Y-92004858D01*
X91925916Y-91948764D01*
X91925907Y-91948762D01*
X91920692Y-91947365D01*
X91915304Y-91946893D01*
X91915301Y-91946893D01*
X91699395Y-91928004D01*
X91694000Y-91927532D01*
X91688605Y-91928004D01*
X91472698Y-91946893D01*
X91472693Y-91946893D01*
X91467308Y-91947365D01*
X91462094Y-91948762D01*
X91462083Y-91948764D01*
X91252736Y-92004858D01*
X91252724Y-92004862D01*
X91247504Y-92006261D01*
X91242599Y-92008547D01*
X91242594Y-92008550D01*
X91046176Y-92100142D01*
X91046172Y-92100144D01*
X91041266Y-92102432D01*
X91036833Y-92105535D01*
X91036826Y-92105540D01*
X90859296Y-92229847D01*
X90859291Y-92229850D01*
X90854861Y-92232953D01*
X90851037Y-92236776D01*
X90851031Y-92236782D01*
X90697782Y-92390031D01*
X90697776Y-92390037D01*
X90693953Y-92393861D01*
X90690850Y-92398291D01*
X90690847Y-92398296D01*
X90566540Y-92575826D01*
X90566535Y-92575833D01*
X90563432Y-92580266D01*
X90561144Y-92585172D01*
X90561142Y-92585176D01*
X90469550Y-92781594D01*
X90469547Y-92781599D01*
X90467261Y-92786504D01*
X90465862Y-92791724D01*
X90465858Y-92791736D01*
X90409764Y-93001083D01*
X90409762Y-93001094D01*
X90408365Y-93006308D01*
X90407893Y-93011693D01*
X90407893Y-93011698D01*
X90398555Y-93118432D01*
X90388532Y-93233000D01*
X83566000Y-93233000D01*
X83566000Y-89532000D01*
X83582613Y-89470000D01*
X83628000Y-89424613D01*
X83690000Y-89408000D01*
X121288000Y-89408000D01*
X121350000Y-89424613D01*
G37*
%TD.AperFunction*%
%TD*%
M02*
