M48
; DRILL file {KiCad (7.0.0-0)} date Thursday, 06 July 2023 at 19:43:48
; FORMAT={-:-/ absolute / metric / decimal}
; #@! TF.CreationDate,2023-07-06T19:43:48+02:00
; #@! TF.GenerationSoftware,Kicad,Pcbnew,(7.0.0-0)
; #@! TF.FileFunction,Plated,1,2,PTH
FMAT,2
METRIC
; #@! TA.AperFunction,Plated,PTH,ViaDrill
T1C0.400
; #@! TA.AperFunction,Plated,PTH,ComponentDrill
T2C0.500
; #@! TA.AperFunction,Plated,PTH,ComponentDrill
T3C0.800
; #@! TA.AperFunction,Plated,PTH,ComponentDrill
T4C0.900
; #@! TA.AperFunction,Plated,PTH,ComponentDrill
T5C1.000
; #@! TA.AperFunction,Plated,PTH,ComponentDrill
T6C1.100
; #@! TA.AperFunction,Plated,PTH,ComponentDrill
T7C1.400
; #@! TA.AperFunction,Plated,PTH,ComponentDrill
T8C1.500
; #@! TA.AperFunction,Plated,PTH,ComponentDrill
T9C2.000
; #@! TA.AperFunction,Plated,PTH,ComponentDrill
T10C2.700
; #@! TA.AperFunction,Plated,PTH,ComponentDrill
T11C8.500
; #@! TA.AperFunction,Plated,PTH,ComponentDrill
T12C8.640
%
G90
G05
T1
X53.721Y-104.648
X53.721Y-106.68
X53.721Y-108.966
X53.721Y-110.998
X53.721Y-113.284
X53.721Y-115.316
X53.721Y-117.348
X53.721Y-119.38
X54.102Y-79.502
X54.102Y-81.28
X54.102Y-83.566
X54.102Y-85.598
X54.102Y-87.884
X54.102Y-89.916
X54.102Y-92.202
X54.102Y-94.234
X54.102Y-96.52
X54.102Y-98.552
X54.102Y-100.584
X54.102Y-102.616
X54.102Y-121.412
X54.864Y-37.846
X54.864Y-40.132
X54.864Y-42.164
X54.864Y-44.45
X54.864Y-46.482
X54.864Y-48.768
X54.864Y-50.8
X54.864Y-53.086
X54.864Y-55.118
X54.864Y-57.404
X54.864Y-59.436
X54.864Y-61.722
X54.864Y-63.754
X54.864Y-66.04
X54.864Y-68.072
X54.864Y-70.358
X54.864Y-72.39
X55.626Y-106.68
X55.626Y-108.966
X55.626Y-110.998
X55.626Y-113.284
X55.626Y-115.316
X56.007Y-104.648
X56.007Y-117.348
X56.007Y-119.38
X56.388Y-121.412
X56.642Y-79.502
X56.642Y-81.534
X56.642Y-83.82
X56.642Y-85.852
X56.642Y-88.138
X56.642Y-90.17
X56.642Y-92.456
X56.642Y-94.488
X56.642Y-96.774
X56.642Y-98.806
X56.642Y-100.838
X56.642Y-102.87
X56.896Y-35.56
X56.896Y-37.846
X57.15Y-53.086
X57.15Y-55.118
X57.15Y-57.404
X57.15Y-59.436
X57.15Y-61.722
X57.15Y-63.754
X57.15Y-66.04
X57.15Y-68.072
X57.15Y-70.358
X57.15Y-72.39
X58.293Y-104.648
X58.293Y-106.68
X58.293Y-117.348
X58.293Y-119.38
X58.674Y-121.412
X58.928Y-33.528
X58.928Y-35.56
X58.928Y-79.502
X58.928Y-81.534
X58.928Y-83.82
X58.928Y-85.852
X58.928Y-88.138
X58.928Y-90.17
X58.928Y-100.838
X58.928Y-102.87
X59.436Y-53.086
X59.436Y-55.118
X59.436Y-57.404
X59.436Y-59.436
X59.436Y-61.722
X59.436Y-63.754
X59.436Y-66.04
X59.436Y-68.072
X59.436Y-70.358
X59.436Y-72.39
X60.579Y-104.648
X60.579Y-106.68
X60.579Y-117.348
X60.579Y-119.38
X60.96Y-121.412
X61.214Y-33.528
X61.214Y-79.502
X61.214Y-81.534
X61.214Y-83.82
X61.214Y-85.852
X61.214Y-88.138
X61.214Y-102.87
X61.722Y-53.086
X61.722Y-55.118
X61.722Y-57.404
X61.722Y-59.436
X61.722Y-61.722
X61.722Y-63.754
X61.722Y-66.04
X61.722Y-68.072
X61.722Y-70.358
X61.722Y-72.39
X61.976Y-35.052
X62.611Y-104.648
X62.611Y-106.68
X62.611Y-117.348
X62.611Y-119.38
X63.5Y-79.502
X63.5Y-81.534
X63.5Y-83.82
X63.5Y-85.852
X63.5Y-121.412
X63.754Y-33.528
X63.754Y-53.086
X63.754Y-55.118
X63.754Y-57.404
X63.754Y-59.436
X63.754Y-61.722
X63.754Y-63.754
X63.754Y-66.04
X63.754Y-68.072
X63.754Y-70.358
X63.754Y-72.39
X64.262Y-35.052
X64.897Y-104.14
X64.897Y-106.68
X64.897Y-117.348
X64.897Y-119.38
X65.278Y-108.966
X65.278Y-110.998
X65.278Y-113.284
X65.278Y-115.316
X65.786Y-79.502
X65.786Y-81.534
X65.786Y-83.82
X65.786Y-85.852
X65.786Y-121.412
X66.04Y-33.528
X66.04Y-53.086
X66.04Y-55.118
X66.04Y-57.404
X66.04Y-59.436
X66.04Y-61.722
X66.04Y-63.754
X66.04Y-66.04
X66.04Y-68.072
X66.04Y-70.358
X66.04Y-72.39
X66.294Y-35.052
X67.183Y-104.648
X67.183Y-106.68
X67.183Y-108.966
X67.183Y-110.998
X67.183Y-113.284
X67.183Y-115.316
X67.183Y-117.348
X67.183Y-119.38
X67.818Y-121.412
X68.072Y-79.502
X68.072Y-81.534
X68.072Y-83.82
X68.072Y-85.852
X68.326Y-33.528
X68.326Y-53.086
X68.326Y-55.118
X68.326Y-57.404
X68.326Y-59.436
X68.326Y-61.722
X68.326Y-63.754
X68.326Y-66.04
X68.326Y-68.072
X68.326Y-70.358
X68.326Y-72.39
X68.326Y-102.87
X68.58Y-35.052
X69.469Y-104.648
X69.469Y-106.68
X69.469Y-108.966
X69.469Y-110.998
X69.469Y-113.284
X69.469Y-115.316
X69.469Y-117.348
X69.469Y-119.38
X70.358Y-79.502
X70.358Y-81.534
X70.358Y-83.82
X70.358Y-85.852
X70.358Y-88.138
X70.358Y-102.87
X70.612Y-33.528
X70.612Y-53.086
X70.612Y-55.118
X70.612Y-57.404
X70.612Y-59.436
X70.612Y-61.722
X70.612Y-63.754
X70.612Y-66.04
X70.612Y-68.072
X70.612Y-70.358
X70.612Y-72.39
X71.12Y-35.052
X72.136Y-50.546
X72.136Y-101.346
X72.39Y-36.83
X72.644Y-33.528
X72.644Y-79.502
X72.644Y-81.534
X72.644Y-83.82
X72.644Y-85.852
X72.898Y-88.138
X73.152Y-53.086
X73.152Y-55.118
X73.152Y-57.404
X73.152Y-59.436
X73.152Y-61.722
X73.152Y-63.754
X73.152Y-66.04
X73.152Y-68.072
X73.152Y-70.358
X73.152Y-72.39
X73.152Y-90.424
X73.406Y-35.052
X73.66Y-99.822
X73.914Y-50.546
X74.168Y-38.354
X74.168Y-40.64
X74.168Y-43.18
X74.168Y-45.466
X74.168Y-47.752
X74.168Y-92.964
X74.168Y-94.996
X74.168Y-97.282
X74.93Y-59.944
X75.184Y-57.15
X75.438Y-64.516
X75.438Y-66.802
X75.438Y-68.58
X75.438Y-80.01
X75.438Y-82.042
X75.438Y-84.328
X75.438Y-86.36
X75.438Y-88.646
X75.692Y-61.976
X75.946Y-90.678
X76.2Y-70.866
X76.2Y-72.898
X76.2Y-92.71
X76.2Y-94.742
X76.2Y-97.028
X76.2Y-99.06
X76.962Y-106.934
X76.962Y-109.22
X76.962Y-111.506
X76.962Y-114.046
X76.962Y-116.332
X76.962Y-118.364
X77.216Y-33.528
X77.216Y-35.814
X77.216Y-37.846
X77.216Y-40.132
X77.216Y-42.164
X77.216Y-44.45
X77.216Y-46.482
X77.216Y-49.022
X77.216Y-51.308
X77.216Y-53.34
X77.47Y-62.738
X77.724Y-80.01
X77.724Y-82.042
X77.724Y-84.328
X77.724Y-86.36
X77.724Y-88.646
X78.486Y-70.866
X78.486Y-72.898
X78.994Y-105.156
X78.994Y-106.934
X78.994Y-109.22
X78.994Y-111.506
X78.994Y-114.046
X78.994Y-116.332
X78.994Y-118.364
X78.994Y-120.65
X79.502Y-33.528
X79.502Y-35.814
X79.502Y-37.846
X79.502Y-40.132
X79.502Y-42.164
X79.502Y-44.45
X79.502Y-46.482
X79.502Y-49.022
X79.502Y-51.308
X79.502Y-53.34
X79.756Y-62.484
X80.772Y-55.118
X80.772Y-70.866
X80.772Y-72.898
X81.026Y-104.648
X81.026Y-106.934
X81.026Y-118.364
X81.026Y-120.65
X81.534Y-56.896
X81.788Y-33.528
X81.788Y-35.814
X81.788Y-37.846
X81.788Y-40.132
X81.788Y-42.164
X81.788Y-44.45
X81.788Y-46.482
X81.788Y-49.022
X81.788Y-51.308
X81.788Y-53.34
X82.042Y-62.484
X82.042Y-102.87
X82.804Y-58.674
X83.058Y-104.648
X83.058Y-106.934
X83.058Y-118.364
X83.058Y-120.65
X83.312Y-55.372
X83.312Y-70.866
X83.312Y-72.898
X83.566Y-101.346
X83.82Y-53.086
X84.074Y-33.528
X84.074Y-35.814
X84.074Y-37.846
X84.074Y-40.132
X84.074Y-57.15
X84.328Y-62.738
X85.344Y-59.182
X85.344Y-93.726
X85.344Y-96.012
X85.344Y-98.044
X85.344Y-100.33
X85.344Y-102.362
X85.344Y-104.648
X85.344Y-106.934
X85.344Y-118.364
X85.344Y-120.65
X86.106Y-33.528
X86.106Y-35.814
X86.106Y-37.846
X86.106Y-55.118
X86.106Y-57.404
X87.376Y-104.648
X87.376Y-106.934
X87.376Y-109.22
X87.376Y-111.506
X87.376Y-113.538
X87.376Y-115.824
X87.376Y-118.364
X87.376Y-120.65
X87.63Y-93.726
X87.63Y-96.012
X87.63Y-98.044
X87.63Y-100.33
X87.63Y-102.362
X87.884Y-61.468
X88.392Y-33.528
X88.392Y-35.814
X88.392Y-37.846
X88.392Y-55.118
X88.392Y-57.404
X88.392Y-59.436
X88.392Y-70.612
X88.392Y-72.644
X89.662Y-95.25
X89.662Y-104.648
X89.662Y-106.934
X89.662Y-109.22
X89.662Y-111.506
X89.662Y-113.792
X89.662Y-116.078
X89.662Y-118.364
X90.17Y-61.468
X90.424Y-97.282
X90.424Y-99.314
X90.424Y-101.6
X90.678Y-33.528
X90.678Y-35.814
X90.678Y-37.846
X90.678Y-55.118
X90.678Y-57.404
X90.678Y-59.436
X91.186Y-72.644
X91.694Y-70.866
X91.694Y-104.648
X91.694Y-106.934
X91.694Y-109.22
X91.694Y-111.506
X91.694Y-113.792
X91.694Y-116.078
X91.694Y-118.364
X92.456Y-61.468
X92.71Y-97.282
X92.71Y-99.314
X92.71Y-101.6
X92.964Y-33.528
X92.964Y-35.814
X92.964Y-37.846
X92.964Y-55.118
X92.964Y-57.404
X92.964Y-59.436
X93.472Y-72.644
X93.98Y-70.866
X93.98Y-111.506
X93.98Y-113.792
X93.98Y-116.078
X93.98Y-118.364
X93.98Y-120.65
X94.996Y-97.282
X95.504Y-33.528
X95.504Y-35.814
X95.504Y-37.846
X95.504Y-40.132
X95.504Y-52.832
X95.504Y-55.118
X95.504Y-57.15
X95.504Y-59.436
X95.504Y-61.468
X95.504Y-72.644
X95.504Y-99.314
X96.012Y-63.246
X96.012Y-69.596
X96.012Y-113.792
X96.012Y-116.078
X96.012Y-118.364
X96.012Y-120.65
X97.282Y-90.678
X97.282Y-92.964
X97.282Y-94.996
X97.282Y-97.282
X97.79Y-33.528
X97.79Y-35.814
X97.79Y-37.846
X97.79Y-40.132
X97.79Y-42.164
X97.79Y-50.8
X97.79Y-52.832
X97.79Y-55.118
X97.79Y-57.15
X97.79Y-59.436
X97.79Y-61.468
X97.79Y-63.754
X97.79Y-65.786
X97.79Y-68.326
X97.79Y-70.612
X97.79Y-72.644
X98.044Y-44.196
X98.298Y-48.514
X98.298Y-116.078
X98.298Y-118.364
X98.298Y-120.65
X98.552Y-98.806
X99.568Y-90.678
X99.568Y-92.964
X99.568Y-94.996
X99.568Y-97.282
X100.076Y-33.528
X100.076Y-35.814
X100.076Y-37.846
X100.076Y-40.132
X100.076Y-42.164
X100.076Y-44.45
X100.076Y-46.482
X100.076Y-48.514
X100.076Y-50.8
X100.076Y-52.832
X100.076Y-55.118
X100.076Y-57.15
X100.076Y-59.436
X100.076Y-61.468
X100.076Y-63.754
X100.076Y-65.786
X100.076Y-68.326
X100.076Y-70.612
X100.076Y-72.644
X100.33Y-116.078
X100.33Y-118.364
X100.33Y-120.65
X101.854Y-90.678
X101.854Y-92.964
X101.854Y-94.996
X101.854Y-97.282
X102.362Y-33.528
X102.362Y-35.814
X102.362Y-37.846
X102.362Y-40.132
X102.362Y-42.164
X102.362Y-44.45
X102.362Y-46.482
X102.362Y-48.514
X102.362Y-50.8
X102.362Y-52.832
X102.362Y-55.118
X102.362Y-57.15
X102.362Y-59.436
X102.362Y-61.468
X102.362Y-63.754
X102.362Y-65.786
X102.362Y-68.326
X102.362Y-70.612
X102.362Y-72.644
X102.616Y-116.078
X102.616Y-118.364
X102.616Y-120.65
X104.14Y-90.678
X104.14Y-92.964
X104.14Y-94.996
X104.14Y-97.282
X104.14Y-99.314
X104.648Y-116.078
X104.648Y-118.364
X104.648Y-120.65
X106.172Y-113.792
X106.426Y-90.678
X106.426Y-92.964
X106.426Y-94.996
X106.426Y-97.282
X106.426Y-99.314
X106.426Y-101.6
X106.68Y-81.28
X106.934Y-116.078
X106.934Y-118.364
X106.934Y-120.65
X108.712Y-90.678
X108.712Y-92.964
X108.712Y-94.996
X108.712Y-97.282
X108.712Y-99.314
X108.712Y-101.6
X108.712Y-103.632
X108.712Y-105.918
X108.712Y-107.95
X108.712Y-110.236
X108.712Y-112.522
X108.712Y-114.554
X108.712Y-116.84
X108.712Y-118.872
X108.712Y-121.158
X108.966Y-34.29
X108.966Y-36.576
X108.966Y-38.608
X108.966Y-40.894
X108.966Y-42.926
X108.966Y-45.212
X108.966Y-47.498
X108.966Y-49.53
X108.966Y-51.816
X108.966Y-53.848
X108.966Y-56.134
X108.966Y-58.166
X108.966Y-60.452
X108.966Y-62.738
X108.966Y-64.77
X108.966Y-67.056
X108.966Y-69.088
X110.744Y-52.07
X110.998Y-90.678
X110.998Y-92.964
X110.998Y-94.996
X110.998Y-97.282
X110.998Y-99.314
X110.998Y-101.6
X110.998Y-103.632
X110.998Y-105.918
X110.998Y-107.95
X110.998Y-110.236
X110.998Y-112.522
X110.998Y-114.554
X110.998Y-116.84
X110.998Y-118.872
X110.998Y-121.158
X111.252Y-34.29
X111.252Y-36.576
X111.252Y-38.608
X111.252Y-40.894
X111.252Y-53.848
X111.252Y-56.134
X111.252Y-58.166
X111.252Y-60.452
X111.252Y-62.738
X111.252Y-64.77
X111.252Y-67.056
X111.252Y-69.088
X113.284Y-34.29
X113.284Y-36.576
X113.284Y-38.608
X113.284Y-53.848
X113.284Y-56.134
X113.284Y-58.166
X113.284Y-60.452
X113.284Y-62.738
X113.284Y-64.77
X113.284Y-67.056
X113.284Y-69.088
X113.284Y-90.678
X113.284Y-92.964
X113.284Y-94.996
X113.284Y-97.282
X113.284Y-99.314
X113.284Y-101.6
X113.284Y-103.632
X113.284Y-105.918
X113.284Y-107.95
X113.284Y-110.236
X113.284Y-112.522
X113.284Y-114.554
X113.284Y-116.84
X113.284Y-118.872
X113.284Y-121.158
X115.316Y-54.356
X115.57Y-34.29
X115.57Y-36.576
X115.57Y-38.608
X115.57Y-56.134
X115.57Y-58.166
X115.57Y-60.452
X115.57Y-62.738
X115.57Y-64.77
X115.57Y-67.056
X115.57Y-69.088
X115.57Y-90.678
X115.57Y-92.964
X115.57Y-94.996
X115.57Y-97.282
X115.57Y-99.314
X115.57Y-101.6
X115.57Y-103.632
X115.57Y-105.918
X115.57Y-107.95
X115.57Y-110.236
X115.57Y-112.522
X115.57Y-114.554
X115.57Y-116.84
X115.57Y-118.872
X115.57Y-121.158
X117.602Y-54.61
X117.856Y-34.29
X117.856Y-36.576
X117.856Y-38.608
X117.856Y-56.134
X117.856Y-58.166
X117.856Y-60.452
X117.856Y-62.738
X117.856Y-64.77
X117.856Y-67.056
X117.856Y-69.088
X117.856Y-90.678
X117.856Y-92.964
X117.856Y-94.996
X117.856Y-97.282
X117.856Y-99.314
X117.856Y-101.6
X117.856Y-103.632
X117.856Y-105.918
X117.856Y-107.95
X117.856Y-110.236
X117.856Y-112.522
X117.856Y-114.554
X117.856Y-116.84
X117.856Y-118.872
X117.856Y-121.158
X120.142Y-34.29
X120.142Y-36.576
X120.142Y-38.608
X120.142Y-53.848
X120.142Y-56.134
X120.142Y-58.166
X120.142Y-60.452
X120.142Y-62.738
X120.142Y-64.77
X120.142Y-67.056
X120.142Y-69.088
X120.142Y-90.678
X120.142Y-92.964
X120.142Y-94.996
X120.142Y-97.282
X120.142Y-99.314
X120.142Y-101.6
X120.142Y-103.632
X120.142Y-105.918
X120.142Y-107.95
X120.142Y-110.236
X120.142Y-112.522
X120.142Y-114.554
X120.142Y-116.84
X120.142Y-118.872
X120.142Y-121.158
X121.92Y-39.116
X122.174Y-56.134
X122.174Y-58.166
X122.174Y-60.452
X122.174Y-62.738
X122.174Y-64.77
X122.174Y-67.056
X122.174Y-69.088
X122.428Y-34.29
X122.428Y-36.576
X122.936Y-54.102
X124.206Y-39.116
X124.206Y-41.148
X124.46Y-56.134
X124.46Y-58.166
X124.46Y-60.452
X124.46Y-62.738
X124.46Y-64.77
X124.46Y-67.056
X124.46Y-69.088
X124.714Y-34.29
X124.714Y-36.576
X125.222Y-54.102
X125.984Y-38.862
X125.984Y-41.148
X125.984Y-43.18
X125.984Y-45.466
X125.984Y-47.752
X125.984Y-50.038
X125.984Y-52.324
X126.746Y-56.134
X126.746Y-58.166
X126.746Y-60.452
X126.746Y-62.738
X126.746Y-64.77
X126.746Y-67.056
X126.746Y-69.088
X127.0Y-34.29
X127.0Y-36.576
X127.508Y-54.102
X128.27Y-38.862
X128.27Y-50.038
X128.27Y-52.324
X129.032Y-56.134
X129.032Y-58.166
X129.032Y-60.452
X129.032Y-62.738
X129.032Y-64.77
X129.032Y-67.056
X129.032Y-69.088
X129.286Y-34.29
X129.286Y-36.576
X129.794Y-54.102
X130.81Y-100.584
X130.81Y-102.616
X130.81Y-104.902
X130.81Y-106.934
X130.81Y-109.22
X130.81Y-111.252
X130.81Y-113.538
X131.064Y-56.134
X131.064Y-58.166
X131.064Y-60.452
X131.064Y-62.738
X131.064Y-64.77
X131.064Y-67.056
X131.064Y-69.088
X131.318Y-34.29
X131.318Y-36.576
X131.318Y-116.332
X131.318Y-118.364
X131.826Y-54.102
X133.096Y-98.298
X133.096Y-100.584
X133.096Y-102.616
X133.096Y-104.902
X133.096Y-106.934
X133.096Y-109.22
X133.096Y-111.252
X133.096Y-113.538
X133.35Y-56.134
X133.35Y-58.166
X133.35Y-60.452
X133.35Y-62.738
X133.35Y-64.77
X133.35Y-67.056
X133.35Y-69.088
X133.604Y-34.29
X133.604Y-36.576
X133.604Y-116.332
X133.604Y-118.364
X134.112Y-54.102
X135.382Y-98.298
X135.382Y-100.584
X135.382Y-102.616
X135.382Y-104.902
X135.382Y-106.934
X135.382Y-109.22
X135.382Y-111.252
X135.382Y-113.538
X135.636Y-56.134
X135.636Y-58.166
X135.636Y-60.452
X135.636Y-62.738
X135.636Y-64.77
X135.636Y-67.056
X135.636Y-69.088
X135.636Y-116.332
X135.636Y-118.364
X135.89Y-34.29
X135.89Y-36.576
X136.906Y-54.102
X137.668Y-98.298
X137.668Y-100.584
X137.668Y-102.616
X137.668Y-104.902
X137.668Y-106.934
X137.668Y-109.22
X137.668Y-111.252
X137.668Y-113.538
X137.922Y-56.134
X137.922Y-58.166
X137.922Y-60.452
X137.922Y-62.738
X137.922Y-64.77
X137.922Y-67.056
X137.922Y-69.088
X137.922Y-116.332
X137.922Y-118.364
X138.176Y-34.29
X138.176Y-36.576
X139.192Y-54.102
X139.954Y-98.298
X139.954Y-100.584
X139.954Y-102.616
X139.954Y-104.902
X139.954Y-106.934
X139.954Y-109.22
X139.954Y-111.252
X139.954Y-113.538
X139.954Y-116.332
X139.954Y-118.364
X140.462Y-34.29
X140.462Y-36.576
X140.462Y-61.722
X140.462Y-64.008
X140.462Y-66.04
X140.462Y-68.326
X140.716Y-52.07
X140.716Y-56.642
X140.716Y-58.928
X141.732Y-54.102
X142.24Y-116.332
X142.24Y-118.364
X142.494Y-38.608
X142.494Y-61.722
X142.494Y-64.008
X142.494Y-66.04
X142.494Y-68.326
X142.494Y-98.298
X142.494Y-100.584
X142.494Y-102.87
X142.494Y-105.156
X142.494Y-107.696
X142.494Y-109.982
X142.494Y-112.014
X142.494Y-114.3
X142.748Y-34.29
X142.748Y-36.576
X142.748Y-50.038
X142.748Y-52.07
X142.748Y-56.642
X142.748Y-58.928
X144.018Y-53.594
X144.018Y-112.522
X144.272Y-116.332
X144.272Y-118.364
X144.526Y-40.894
X144.526Y-42.672
X144.526Y-48.768
X144.526Y-98.298
X144.526Y-100.584
X144.526Y-114.3
X144.78Y-34.29
X144.78Y-36.576
X144.78Y-38.608
X144.78Y-44.704
X144.78Y-46.736
X145.034Y-51.308
X145.796Y-91.694
X145.796Y-94.234
X146.304Y-52.578
X146.558Y-98.298
X146.558Y-114.3
X146.558Y-116.332
X146.558Y-118.364
X146.812Y-40.894
X146.812Y-42.672
X146.812Y-48.768
X147.066Y-34.29
X147.066Y-36.576
X147.066Y-38.608
X147.066Y-44.704
X147.066Y-46.736
X147.32Y-50.546
X147.828Y-66.802
X148.59Y-98.298
X148.59Y-116.332
X148.59Y-118.364
X149.098Y-40.894
X149.098Y-42.672
X149.098Y-44.704
X149.098Y-46.736
X149.098Y-48.768
X149.352Y-34.29
X149.352Y-36.576
X149.352Y-38.608
X149.86Y-50.546
X150.876Y-98.298
X150.876Y-116.332
X150.876Y-118.364
X151.384Y-34.29
X151.384Y-36.576
X151.384Y-38.608
X151.384Y-40.894
X151.384Y-42.672
X151.384Y-44.704
X151.384Y-46.736
X151.384Y-48.768
X152.908Y-98.298
X152.908Y-116.332
X152.908Y-118.364
X155.194Y-98.298
X155.194Y-114.3
X155.194Y-116.332
X155.194Y-118.364
X156.972Y-34.036
X156.972Y-36.068
X156.972Y-38.354
X156.972Y-40.386
X156.972Y-42.672
X156.972Y-44.704
X156.972Y-46.99
X156.972Y-49.022
X156.972Y-51.562
X157.226Y-98.298
X157.226Y-100.584
X157.226Y-114.3
X157.226Y-116.332
X157.226Y-118.364
X157.734Y-112.522
X159.258Y-34.036
X159.258Y-36.068
X159.258Y-38.354
X159.258Y-40.386
X159.258Y-42.672
X159.258Y-44.704
X159.258Y-46.99
X159.258Y-49.022
X159.258Y-51.562
X159.258Y-116.332
X159.258Y-118.364
X159.512Y-98.298
X159.512Y-100.584
X159.512Y-102.87
X159.512Y-105.156
X159.512Y-107.442
X159.512Y-109.728
X159.512Y-112.014
X159.512Y-114.3
X160.274Y-89.916
X160.274Y-91.694
X161.29Y-116.332
X161.29Y-118.364
X161.544Y-34.036
X161.544Y-36.068
X161.544Y-38.354
X161.544Y-40.386
X161.544Y-42.672
X161.544Y-44.704
X161.544Y-46.99
X161.544Y-49.022
X161.544Y-51.562
X161.544Y-53.848
X161.544Y-98.298
X161.544Y-100.584
X161.544Y-102.87
X161.544Y-105.156
X161.544Y-107.442
X161.544Y-109.728
X161.544Y-112.014
X161.544Y-114.3
X163.83Y-34.036
X163.83Y-36.068
X163.83Y-38.354
X163.83Y-40.386
X163.83Y-42.672
X163.83Y-44.704
X163.83Y-46.99
X163.83Y-49.022
X163.83Y-51.562
X163.83Y-53.848
X163.83Y-107.442
X163.83Y-109.728
X165.354Y-115.824
X165.354Y-118.11
X165.862Y-107.442
X165.862Y-109.728
X166.116Y-34.036
X166.116Y-36.068
X166.116Y-38.354
X166.116Y-40.386
X166.116Y-42.672
X166.116Y-44.704
X166.116Y-46.99
X166.116Y-49.022
X166.116Y-51.562
X166.116Y-53.848
X167.64Y-115.824
X167.64Y-118.11
X168.148Y-107.442
X168.148Y-109.728
X168.402Y-34.036
X168.402Y-36.068
X168.402Y-38.354
X168.402Y-40.386
X168.402Y-42.672
X168.402Y-44.704
X168.402Y-46.99
X168.402Y-49.022
X168.402Y-51.562
X168.402Y-53.848
X169.926Y-115.824
X169.926Y-118.11
X170.18Y-107.442
X170.18Y-109.728
X170.688Y-34.036
X170.688Y-36.068
X170.688Y-38.354
X170.688Y-40.386
X170.688Y-42.672
X170.688Y-44.704
X170.688Y-46.99
X170.688Y-49.022
X170.688Y-51.562
X170.688Y-53.848
X172.212Y-115.824
X172.212Y-118.11
X172.466Y-107.442
X172.466Y-109.728
X172.974Y-34.036
X172.974Y-36.068
X172.974Y-38.354
X172.974Y-40.386
X172.974Y-42.672
X172.974Y-44.704
X172.974Y-46.99
X172.974Y-49.022
X172.974Y-51.562
X172.974Y-53.848
X174.498Y-118.11
X175.006Y-107.442
X175.006Y-109.728
X175.006Y-111.76
X175.26Y-34.036
X175.26Y-36.068
X175.26Y-38.354
X175.26Y-40.386
X175.26Y-42.672
X175.26Y-44.704
X175.26Y-46.99
X175.26Y-49.022
X175.26Y-51.562
X175.26Y-53.594
X175.514Y-87.376
X177.292Y-51.562
X177.292Y-53.594
X177.292Y-107.442
X177.292Y-109.728
X177.292Y-111.76
X177.292Y-114.046
X177.546Y-34.036
X177.546Y-36.068
X177.546Y-38.354
X177.546Y-40.386
X177.546Y-42.672
X177.546Y-44.704
X177.546Y-46.99
X177.546Y-49.022
X179.324Y-51.054
X179.578Y-39.116
X179.578Y-53.594
X179.578Y-107.442
X179.578Y-109.728
X179.578Y-111.76
X179.578Y-114.046
X179.578Y-116.078
X179.832Y-34.036
X179.832Y-36.068
X181.61Y-53.594
X181.864Y-34.036
X181.864Y-36.068
X181.864Y-37.846
X181.864Y-107.442
X181.864Y-109.728
X181.864Y-111.76
X181.864Y-114.046
X181.864Y-116.078
X181.864Y-118.11
X183.896Y-34.036
X183.896Y-36.068
X183.896Y-53.594
X184.15Y-107.442
X184.15Y-109.728
X184.15Y-111.76
X184.15Y-114.046
X184.15Y-116.078
X184.15Y-118.11
X185.928Y-53.594
X186.182Y-34.036
X186.182Y-36.068
X186.69Y-109.474
X186.69Y-111.76
X186.69Y-113.792
X186.69Y-116.078
X186.69Y-118.11
X188.214Y-34.036
X188.214Y-36.068
X188.214Y-53.594
X188.976Y-111.76
X188.976Y-113.792
X188.976Y-116.078
X188.976Y-118.11
X190.246Y-53.594
X190.5Y-34.036
X190.5Y-36.068
X190.5Y-106.426
X191.516Y-37.846
X191.516Y-52.07
X191.516Y-107.95
X192.024Y-54.356
X192.532Y-34.036
X192.532Y-36.068
X193.04Y-53.086
X193.802Y-38.1
X193.802Y-40.132
X193.802Y-49.276
X194.056Y-51.308
X194.31Y-41.91
X194.31Y-46.99
X194.564Y-44.45
X194.564Y-54.102
X194.818Y-34.036
X194.818Y-36.068
X196.088Y-38.1
X196.088Y-40.132
X196.088Y-42.164
X196.088Y-44.45
X196.088Y-46.482
X196.088Y-48.768
X196.088Y-50.8
X196.088Y-53.086
X196.342Y-107.188
X196.342Y-109.474
X196.342Y-111.76
X196.342Y-114.046
X196.342Y-116.586
X196.85Y-34.036
X196.85Y-36.068
X197.866Y-47.752
X198.12Y-49.784
X198.12Y-52.07
X198.12Y-54.102
X198.12Y-107.188
X198.12Y-109.474
X198.12Y-111.76
X198.12Y-113.792
X198.12Y-116.078
X198.12Y-118.11
X198.882Y-46.482
X199.136Y-34.036
X199.136Y-36.068
X200.406Y-107.188
X200.406Y-109.474
X200.406Y-111.76
X200.406Y-113.792
X200.406Y-116.078
X200.406Y-118.11
X200.914Y-59.944
X200.914Y-62.23
X200.914Y-64.262
X201.168Y-46.482
X201.168Y-87.884
X201.168Y-89.916
X201.168Y-92.202
X201.168Y-94.234
X201.168Y-96.52
X201.168Y-98.552
X201.168Y-100.838
X201.168Y-102.87
X201.168Y-105.156
X201.422Y-34.036
X201.422Y-36.068
X201.422Y-66.548
X201.422Y-68.58
X201.422Y-70.866
X201.422Y-72.898
X201.422Y-75.184
X201.422Y-77.216
X201.422Y-79.502
X201.422Y-81.534
X202.184Y-86.36
X202.692Y-107.188
X202.692Y-109.474
X202.692Y-111.76
X202.692Y-113.792
X202.692Y-116.078
X202.692Y-118.11
X202.946Y-51.562
X202.946Y-53.594
X202.946Y-55.88
X202.946Y-57.912
X203.2Y-59.944
X203.2Y-62.23
X203.2Y-64.262
X203.454Y-46.482
X203.454Y-87.884
X203.454Y-89.916
X203.454Y-92.202
X203.454Y-94.234
X203.454Y-96.52
X203.454Y-98.552
X203.454Y-100.838
X203.454Y-102.87
X203.454Y-105.156
X203.708Y-34.036
X203.708Y-36.068
X203.708Y-66.548
X203.708Y-68.58
X203.708Y-70.866
X203.708Y-72.898
X203.708Y-75.184
X203.708Y-77.216
X203.708Y-79.502
X203.708Y-81.534
X204.724Y-53.34
X204.978Y-51.308
X205.486Y-64.262
X205.74Y-46.482
X205.994Y-34.036
X205.994Y-36.068
X205.994Y-66.548
X205.994Y-68.58
X205.994Y-70.866
X205.994Y-72.898
X205.994Y-75.184
X205.994Y-77.216
X205.994Y-79.502
X205.994Y-81.534
X205.994Y-86.868
X205.994Y-89.154
X205.994Y-91.186
X205.994Y-93.472
X205.994Y-95.504
X205.994Y-97.79
X205.994Y-99.822
X205.994Y-102.108
X205.994Y-116.84
X205.994Y-118.618
X206.248Y-37.846
X206.248Y-40.132
X206.248Y-42.164
X206.248Y-44.45
X207.01Y-51.054
X208.28Y-66.548
X208.28Y-68.58
X208.28Y-70.866
X208.28Y-72.898
X208.28Y-75.184
X208.28Y-77.216
X208.28Y-79.502
X208.28Y-81.534
X208.28Y-86.868
X208.28Y-89.154
X208.28Y-91.186
X208.28Y-93.472
X208.28Y-95.504
X208.28Y-97.79
X208.28Y-99.822
X208.28Y-116.84
X208.28Y-118.618
X210.566Y-66.548
X210.566Y-68.58
X210.566Y-70.866
X210.566Y-72.898
X210.566Y-75.184
X210.566Y-77.216
X210.566Y-79.502
X210.566Y-81.534
X210.566Y-86.868
X210.566Y-89.154
X210.566Y-91.186
X210.566Y-93.472
X210.566Y-95.504
X210.566Y-97.79
X210.566Y-99.822
X210.566Y-118.618
X211.074Y-36.576
X211.074Y-38.608
X211.074Y-40.894
X211.074Y-42.926
X211.074Y-45.212
X211.074Y-47.498
X211.074Y-49.53
X211.328Y-33.274
X211.328Y-35.052
X211.836Y-117.348
X212.852Y-66.548
X212.852Y-68.58
X212.852Y-70.866
X212.852Y-72.898
X212.852Y-75.184
X212.852Y-77.216
X212.852Y-79.502
X212.852Y-81.534
X212.852Y-86.868
X212.852Y-89.154
X212.852Y-91.186
X212.852Y-93.472
X212.852Y-95.504
X212.852Y-97.79
X212.852Y-99.822
X212.852Y-118.618
X213.106Y-34.798
X213.106Y-36.576
X213.36Y-33.274
X213.36Y-47.498
X213.36Y-49.53
X215.138Y-34.798
X215.138Y-36.576
X215.138Y-66.548
X215.138Y-68.58
X215.138Y-70.866
X215.138Y-72.898
X215.138Y-75.184
X215.138Y-77.216
X215.138Y-79.502
X215.138Y-81.534
X215.138Y-86.868
X215.138Y-89.154
X215.138Y-91.186
X215.138Y-93.472
X215.138Y-95.504
X215.138Y-97.79
X215.138Y-99.822
X215.392Y-47.752
X215.392Y-50.038
X215.392Y-116.84
X215.392Y-118.618
X215.646Y-33.274
X217.424Y-34.798
X217.424Y-36.576
X217.424Y-49.53
X217.424Y-51.562
X217.424Y-66.548
X217.424Y-68.58
X217.424Y-70.866
X217.424Y-72.898
X217.424Y-75.184
X217.424Y-77.216
X217.424Y-79.502
X217.424Y-81.534
X217.424Y-86.868
X217.424Y-89.154
X217.424Y-91.186
X217.424Y-93.472
X217.424Y-95.504
X217.424Y-97.79
X217.424Y-99.822
X217.678Y-33.274
X217.678Y-47.498
X217.678Y-64.77
X217.678Y-102.108
X217.678Y-114.808
X217.678Y-116.84
X217.678Y-118.618
X219.202Y-34.544
X219.456Y-36.576
X219.71Y-49.53
X219.71Y-51.562
X219.71Y-53.848
X219.71Y-55.88
X219.71Y-62.484
X219.71Y-64.516
X219.71Y-66.548
X219.71Y-68.58
X219.71Y-70.866
X219.71Y-72.898
X219.71Y-75.184
X219.71Y-77.216
X219.71Y-79.502
X219.71Y-81.534
X219.71Y-86.868
X219.71Y-89.154
X219.71Y-91.186
X219.71Y-93.472
X219.71Y-95.504
X219.71Y-97.79
X219.71Y-99.822
X219.71Y-102.108
X219.71Y-104.14
X219.71Y-112.776
X219.71Y-114.808
X219.71Y-116.84
X219.71Y-118.618
X219.964Y-47.498
X219.964Y-58.166
X219.964Y-60.198
X219.964Y-106.68
X220.218Y-109.982
X220.472Y-38.862
X220.472Y-41.148
X220.472Y-43.18
X220.472Y-45.466
X220.726Y-35.306
X221.488Y-37.084
X221.996Y-49.53
X221.996Y-51.562
X221.996Y-53.848
X221.996Y-55.88
X221.996Y-58.166
X221.996Y-60.198
X221.996Y-62.484
X221.996Y-64.516
X221.996Y-66.548
X221.996Y-68.58
X221.996Y-70.866
X221.996Y-72.898
X221.996Y-75.184
X221.996Y-77.216
X221.996Y-79.502
X221.996Y-81.534
X221.996Y-86.868
X221.996Y-89.154
X221.996Y-91.186
X221.996Y-93.472
X221.996Y-95.504
X221.996Y-97.79
X221.996Y-99.822
X221.996Y-102.108
X221.996Y-104.14
X221.996Y-106.426
X221.996Y-108.458
X221.996Y-110.744
X221.996Y-112.776
X221.996Y-114.808
X221.996Y-116.84
X221.996Y-118.618
X222.25Y-38.862
X222.25Y-41.148
X222.25Y-43.18
X222.25Y-45.466
X222.25Y-47.498
T2
X77.166Y-65.502
X77.166Y-66.762
X77.916Y-64.472
X77.916Y-67.792
X79.116Y-64.082
X79.116Y-68.182
X80.446Y-64.082
X80.446Y-68.182
X81.786Y-64.082
X81.786Y-68.182
X83.116Y-64.082
X83.116Y-68.182
X84.316Y-64.472
X84.316Y-67.792
X85.066Y-65.502
X85.066Y-66.762
X87.166Y-65.502
X87.166Y-66.762
X87.916Y-64.472
X87.916Y-67.792
X89.116Y-64.082
X89.116Y-68.182
X90.446Y-64.082
X90.446Y-68.182
X91.786Y-64.082
X91.786Y-68.182
X93.116Y-64.082
X93.116Y-68.182
X94.316Y-64.472
X94.316Y-67.792
X95.066Y-65.502
X95.066Y-66.762
T3
X77.256Y-58.943
X78.526Y-94.249
X79.756Y-58.943
X81.026Y-94.249
X84.206Y-87.532
X86.116Y-87.532
X88.026Y-87.532
X91.694Y-93.233
X94.194Y-93.233
X151.638Y-62.753
X151.638Y-70.373
X153.162Y-87.645
X153.162Y-95.265
X156.21Y-62.753
X156.21Y-70.373
X157.734Y-87.645
X157.734Y-95.265
X163.616Y-113.03
X166.116Y-113.03
X174.498Y-74.287
X174.498Y-78.097
X182.118Y-74.287
X182.118Y-78.097
X191.262Y-113.299
X193.762Y-113.299
T4
X197.104Y-60.758
X197.104Y-63.298
X197.104Y-71.623
X197.104Y-74.163
T5
X96.398Y-126.525
X96.398Y-129.065
X96.398Y-131.605
X96.398Y-134.145
X146.151Y-82.741
X146.151Y-85.281
X146.151Y-87.821
X165.514Y-58.158
X165.514Y-60.698
X165.514Y-63.238
X165.514Y-65.778
X165.514Y-68.318
X165.514Y-70.858
X165.514Y-73.398
X165.514Y-75.938
X165.514Y-78.478
X165.514Y-81.018
X165.514Y-83.558
X165.514Y-86.098
X165.514Y-88.638
X165.514Y-91.178
X165.514Y-93.718
X165.514Y-96.258
X165.514Y-98.798
X165.514Y-101.338
X165.514Y-103.878
X170.434Y-84.313
X170.434Y-99.313
X185.928Y-84.313
X185.928Y-99.313
X190.754Y-58.158
X190.754Y-60.698
X190.754Y-63.238
X190.754Y-68.318
X190.754Y-70.858
X190.754Y-73.398
X190.754Y-78.478
X190.754Y-81.018
X190.754Y-86.098
X190.754Y-96.258
X190.754Y-98.798
X190.754Y-101.338
X190.754Y-103.878
X197.104Y-83.82
X197.104Y-86.36
X197.104Y-88.9
X197.104Y-91.44
T6
X150.114Y-57.236
X152.654Y-57.236
X155.194Y-57.236
X155.265Y-75.199
X155.265Y-77.739
X155.265Y-80.279
T7
X179.108Y-121.631
X179.108Y-147.131
X215.608Y-121.631
X215.608Y-147.131
T8
X57.912Y-108.981
X57.912Y-111.521
X57.912Y-114.061
X60.452Y-108.981
X60.452Y-111.521
X60.452Y-114.061
X62.992Y-108.981
X62.992Y-111.521
X62.992Y-114.061
X78.994Y-108.981
X78.994Y-111.521
X78.994Y-114.061
X81.534Y-108.981
X81.534Y-111.521
X81.534Y-114.061
X84.074Y-108.981
X84.074Y-111.521
X84.074Y-114.061
X198.628Y-39.116
X198.628Y-41.656
X198.628Y-44.196
X201.168Y-39.116
X201.168Y-41.656
X201.168Y-44.196
X203.708Y-39.116
X203.708Y-41.656
X203.708Y-44.196
X213.36Y-39.116
X213.36Y-41.656
X213.36Y-44.196
X215.9Y-39.116
X215.9Y-41.656
X215.9Y-44.196
X218.44Y-39.116
X218.44Y-41.656
X218.44Y-44.196
T10
X90.958Y-121.935
X90.958Y-145.935
X171.958Y-121.935
X171.958Y-145.935
T11
X90.141Y-46.671
X117.141Y-46.671
T12
X65.278Y-44.211
X65.278Y-95.011
X100.076Y-106.949
X135.382Y-44.973
X150.876Y-106.949
X186.182Y-44.973
X211.582Y-58.166
X211.582Y-108.966
T9
G00X79.116Y-66.132
M15
G01X83.116Y-66.132
M16
G05
G00X89.116Y-66.132
M15
G01X93.116Y-66.132
M16
G05
T0
M30
