%TF.GenerationSoftware,KiCad,Pcbnew,(7.0.0-0)*%
%TF.CreationDate,2023-07-06T19:43:53+02:00*%
%TF.ProjectId,Mstr_Controller_Board_v01,4d737472-5f43-46f6-9e74-726f6c6c6572,v01*%
%TF.SameCoordinates,Original*%
%TF.FileFunction,Soldermask,Top*%
%TF.FilePolarity,Negative*%
%FSLAX46Y46*%
G04 Gerber Fmt 4.6, Leading zero omitted, Abs format (unit mm)*
G04 Created by KiCad (PCBNEW (7.0.0-0)) date 2023-07-06 19:43:53*
%MOMM*%
%LPD*%
G01*
G04 APERTURE LIST*
G04 Aperture macros list*
%AMRoundRect*
0 Rectangle with rounded corners*
0 $1 Rounding radius*
0 $2 $3 $4 $5 $6 $7 $8 $9 X,Y pos of 4 corners*
0 Add a 4 corners polygon primitive as box body*
4,1,4,$2,$3,$4,$5,$6,$7,$8,$9,$2,$3,0*
0 Add four circle primitives for the rounded corners*
1,1,$1+$1,$2,$3*
1,1,$1+$1,$4,$5*
1,1,$1+$1,$6,$7*
1,1,$1+$1,$8,$9*
0 Add four rect primitives between the rounded corners*
20,1,$1+$1,$2,$3,$4,$5,0*
20,1,$1+$1,$4,$5,$6,$7,0*
20,1,$1+$1,$6,$7,$8,$9,0*
20,1,$1+$1,$8,$9,$2,$3,0*%
%AMHorizOval*
0 Thick line with rounded ends*
0 $1 width*
0 $2 $3 position (X,Y) of the first rounded end (center of the circle)*
0 $4 $5 position (X,Y) of the second rounded end (center of the circle)*
0 Add line between two ends*
20,1,$1,$2,$3,$4,$5,0*
0 Add two circle primitives to create the rounded ends*
1,1,$1,$2,$3*
1,1,$1,$4,$5*%
G04 Aperture macros list end*
%ADD10C,1.600000*%
%ADD11O,1.600000X1.600000*%
%ADD12C,2.000000*%
%ADD13C,14.000000*%
%ADD14O,1.700000X1.700000*%
%ADD15R,1.700000X1.700000*%
%ADD16C,15.000000*%
%ADD17R,1.663700X0.558800*%
%ADD18R,1.600000X1.600000*%
%ADD19R,2.000000X1.905000*%
%ADD20O,2.000000X1.905000*%
%ADD21R,1.800000X1.800000*%
%ADD22C,1.800000*%
%ADD23R,2.000000X2.000000*%
%ADD24O,2.000000X2.000000*%
%ADD25C,3.716000*%
%ADD26R,1.500000X1.500000*%
%ADD27C,1.500000*%
%ADD28HorizOval,0.800000X0.000000X0.000000X0.000000X0.000000X0*%
%ADD29HorizOval,0.800000X0.000000X0.000000X0.000000X0.000000X0*%
%ADD30C,0.800000*%
%ADD31O,9.000000X6.000000*%
%ADD32RoundRect,0.625000X0.625000X0.625000X-0.625000X0.625000X-0.625000X-0.625000X0.625000X-0.625000X0*%
%ADD33C,2.500000*%
%ADD34R,1.905000X2.000000*%
%ADD35O,1.905000X2.000000*%
G04 APERTURE END LIST*
D10*
%TO.C,R4*%
X151638000Y-70373000D03*
D11*
X151637999Y-62752999D03*
%TD*%
D12*
%TO.C,J3*%
X57912000Y-114061000D03*
X60452000Y-114061000D03*
X62992000Y-114061000D03*
X57912000Y-111521000D03*
X60452000Y-111521000D03*
X62992000Y-111521000D03*
X57912000Y-108981000D03*
X60452000Y-108981000D03*
X62992000Y-108981000D03*
%TD*%
D13*
%TO.C,J1*%
X117141000Y-46671000D03*
X90141000Y-46671000D03*
D14*
X146150999Y-82740999D03*
X146150999Y-85280999D03*
D15*
X146150999Y-87820999D03*
%TD*%
D12*
%TO.C,J6*%
X213360000Y-44196000D03*
X215900000Y-44196000D03*
X218440000Y-44196000D03*
X213360000Y-41656000D03*
X215900000Y-41656000D03*
X218440000Y-41656000D03*
X213360000Y-39116000D03*
X215900000Y-39116000D03*
X218440000Y-39116000D03*
%TD*%
D16*
%TO.C,F3*%
X135382000Y-44973000D03*
X186182000Y-44973000D03*
%TD*%
D12*
%TO.C,J4*%
X78994000Y-114061000D03*
X81534000Y-114061000D03*
X84074000Y-114061000D03*
X78994000Y-111521000D03*
X81534000Y-111521000D03*
X84074000Y-111521000D03*
X78994000Y-108981000D03*
X81534000Y-108981000D03*
X84074000Y-108981000D03*
%TD*%
D17*
%TO.C,U5*%
X175482249Y-89780999D03*
X175482249Y-91050999D03*
X175482249Y-92320999D03*
X175482249Y-93590999D03*
X181133749Y-93590999D03*
X181133749Y-92320999D03*
X181133749Y-91050999D03*
X181133749Y-89780999D03*
%TD*%
D10*
%TO.C,R8*%
X182118000Y-78097000D03*
D11*
X174497999Y-78096999D03*
%TD*%
D15*
%TO.C,J2*%
X197103999Y-83819999D03*
D14*
X197103999Y-86359999D03*
X197103999Y-88899999D03*
X197103999Y-91439999D03*
%TD*%
D18*
%TO.C,C7*%
X78525999Y-94248999D03*
D10*
X81026000Y-94249000D03*
%TD*%
D19*
%TO.C,Q1*%
X155264999Y-75198999D03*
D20*
X155264999Y-77738999D03*
X155264999Y-80278999D03*
%TD*%
D21*
%TO.C,D2*%
X197103999Y-71622999D03*
D22*
X197104000Y-74163000D03*
%TD*%
D10*
%TO.C,R2*%
X157734000Y-87645000D03*
D11*
X157733999Y-95264999D03*
%TD*%
D12*
%TO.C,J5*%
X198628000Y-44196000D03*
X201168000Y-44196000D03*
X203708000Y-44196000D03*
X198628000Y-41656000D03*
X201168000Y-41656000D03*
X203708000Y-41656000D03*
X198628000Y-39116000D03*
X201168000Y-39116000D03*
X203708000Y-39116000D03*
%TD*%
D10*
%TO.C,R1*%
X153162000Y-95265000D03*
D11*
X153161999Y-87644999D03*
%TD*%
D18*
%TO.C,C6*%
X79755999Y-58942999D03*
D10*
X77256000Y-58943000D03*
%TD*%
D18*
%TO.C,C4*%
X166115999Y-113029999D03*
D10*
X163616000Y-113030000D03*
%TD*%
%TO.C,R7*%
X182118000Y-74287000D03*
D11*
X174497999Y-74286999D03*
%TD*%
D23*
%TO.C,C2*%
X185927999Y-84312999D03*
D24*
X185927999Y-99312999D03*
%TD*%
D18*
%TO.C,C3*%
X193761999Y-113298999D03*
D10*
X191262000Y-113299000D03*
%TD*%
D15*
%TO.C,U3*%
X96397999Y-126524999D03*
D14*
X96397999Y-129064999D03*
X96397999Y-131604999D03*
X96397999Y-134144999D03*
D25*
X90958000Y-121935000D03*
X90958000Y-145935000D03*
X171958000Y-121935000D03*
X171958000Y-145935000D03*
%TD*%
D10*
%TO.C,R3*%
X156210000Y-62753000D03*
D11*
X156209999Y-70372999D03*
%TD*%
D21*
%TO.C,D1*%
X197103999Y-63297999D03*
D22*
X197104000Y-60758000D03*
%TD*%
D16*
%TO.C,F2*%
X150876000Y-106949000D03*
X100076000Y-106949000D03*
%TD*%
%TO.C,F1*%
X65278000Y-44211000D03*
X65278000Y-95011000D03*
%TD*%
D26*
%TO.C,U2*%
X84205999Y-87531999D03*
D27*
X86116000Y-87532000D03*
X88026000Y-87532000D03*
D28*
X87165999Y-65501999D03*
D29*
X87165999Y-66761999D03*
D30*
X87916000Y-64472000D03*
X87916000Y-67792000D03*
X89116000Y-64082000D03*
X89116000Y-68182000D03*
X90446000Y-64082000D03*
X90446000Y-68182000D03*
D31*
X91115999Y-66131999D03*
D30*
X91786000Y-64082000D03*
X91786000Y-68182000D03*
X93116000Y-64082000D03*
X93116000Y-68182000D03*
X94316000Y-64472000D03*
X94316000Y-67792000D03*
X95066000Y-65502000D03*
X95066000Y-66762000D03*
X77166000Y-65502000D03*
X77166000Y-66762000D03*
X77916000Y-64472000D03*
X77916000Y-67792000D03*
X79116000Y-64082000D03*
X79116000Y-68182000D03*
X80446000Y-64082000D03*
X80446000Y-68182000D03*
D31*
X81115999Y-66131999D03*
D30*
X81786000Y-64082000D03*
X81786000Y-68182000D03*
X83116000Y-64082000D03*
X83116000Y-68182000D03*
X84316000Y-64472000D03*
X84316000Y-67792000D03*
D29*
X85065999Y-65501999D03*
D28*
X85065999Y-66761999D03*
%TD*%
D18*
%TO.C,C5*%
X94193999Y-93232999D03*
D10*
X91694000Y-93233000D03*
%TD*%
D16*
%TO.C,F4*%
X211582000Y-108966000D03*
X211582000Y-58166000D03*
%TD*%
D32*
%TO.C,U6*%
X215608000Y-147131000D03*
D33*
X215608000Y-121631000D03*
D32*
X179108000Y-147131000D03*
D33*
X179108000Y-121631000D03*
%TD*%
D23*
%TO.C,C1*%
X170433999Y-84312999D03*
D24*
X170433999Y-99312999D03*
%TD*%
D34*
%TO.C,Q2*%
X155193999Y-57235999D03*
D35*
X152653999Y-57235999D03*
X150113999Y-57235999D03*
%TD*%
D14*
%TO.C,U1*%
X165513999Y-70857999D03*
X165513999Y-68317999D03*
D15*
X190753999Y-103877999D03*
D14*
X165513999Y-73397999D03*
X165513999Y-81017999D03*
X190753999Y-58157999D03*
X190753999Y-73397999D03*
X190753999Y-68317999D03*
X165513999Y-65777999D03*
X165513999Y-75937999D03*
X165513999Y-78477999D03*
X165513999Y-83557999D03*
X165513999Y-86097999D03*
X165513999Y-91177999D03*
X165513999Y-98797999D03*
X165513999Y-101337999D03*
X190753999Y-81017999D03*
X190753999Y-78477999D03*
X190753999Y-86097999D03*
X165513999Y-58157999D03*
X190753999Y-60697999D03*
X165513999Y-60697999D03*
X165513999Y-63237999D03*
X190753999Y-63237999D03*
X190753999Y-101337999D03*
X190753999Y-70857999D03*
D15*
X165513999Y-103877999D03*
D14*
X165513999Y-88637999D03*
X165513999Y-93717999D03*
X165513999Y-96257999D03*
X190753999Y-96257999D03*
X190753999Y-98797999D03*
%TD*%
M02*
