M48
; DRILL file {KiCad (7.0.0-0)} date Thursday, 06 July 2023 at 20:28:12
; FORMAT={-:-/ absolute / metric / decimal}
; #@! TF.CreationDate,2023-07-06T20:28:12+02:00
; #@! TF.GenerationSoftware,Kicad,Pcbnew,(7.0.0-0)
; #@! TF.FileFunction,Plated,1,2,PTH
FMAT,2
METRIC
; #@! TA.AperFunction,Plated,PTH,ViaDrill
T1C0.400
; #@! TA.AperFunction,Plated,PTH,ComponentDrill
T2C1.000
; #@! TA.AperFunction,Plated,PTH,ComponentDrill
T3C1.100
; #@! TA.AperFunction,Plated,PTH,ComponentDrill
T4C1.500
%
G90
G05
T1
X122.31Y-78.238
X124.182Y-67.818
X124.69Y-72.644
X125.24Y-61.388
X125.96Y-67.808
X126.52Y-75.758
X127.8Y-72.738
X129.68Y-68.238
X129.77Y-78.486
X133.1Y-75.268
X141.2Y-51.054
X141.868Y-58.204
X149.023Y-65.481
X149.023Y-66.497
X150.039Y-65.481
X150.039Y-66.497
X151.055Y-65.481
X151.055Y-66.497
X152.071Y-65.481
X152.071Y-66.497
X152.122Y-57.912
X153.087Y-65.481
X153.087Y-66.497
X154.103Y-65.481
X154.103Y-66.497
X154.154Y-42.164
X154.154Y-43.18
X155.119Y-65.481
X155.119Y-66.497
X155.17Y-42.164
X155.17Y-43.18
X156.135Y-65.481
X156.135Y-66.497
X156.186Y-42.164
X156.186Y-43.18
X157.151Y-65.481
X157.151Y-66.497
X157.202Y-42.164
X157.202Y-43.18
X157.202Y-57.912
X158.167Y-65.481
X158.167Y-66.497
X159.183Y-65.481
X159.183Y-66.497
T2
X121.797Y-67.777
X121.797Y-70.317
X121.797Y-72.857
X121.797Y-75.397
X122.404Y-46.228
X122.404Y-51.308
X122.404Y-56.388
X122.404Y-61.468
X126.903Y-53.828
X126.903Y-58.908
X126.903Y-63.988
X131.802Y-68.326
X133.609Y-53.828
X133.609Y-58.908
X133.609Y-63.988
X134.342Y-68.326
X136.882Y-68.326
X138.104Y-46.228
X138.104Y-51.308
X138.104Y-56.388
X138.104Y-61.468
X140.929Y-69.85
X140.929Y-72.39
X140.929Y-74.93
X140.929Y-77.47
X142.339Y-54.797
X143.74Y-50.876
X144.879Y-54.797
X146.28Y-50.876
X147.419Y-54.797
X149.959Y-51.787
X149.959Y-54.797
X152.499Y-51.787
X152.499Y-54.797
X155.039Y-51.787
X155.039Y-54.797
X157.579Y-51.787
T3
X144.502Y-70.764
X144.502Y-73.304
X144.502Y-75.844
X151.256Y-45.923
X153.796Y-45.923
X156.336Y-45.923
T4
X143.435Y-45.517
X146.435Y-45.517
X153.162Y-76.048
X156.162Y-76.048
T0
M30
