%TF.GenerationSoftware,KiCad,Pcbnew,(7.0.0-0)*%
%TF.CreationDate,2023-07-06T20:29:09+02:00*%
%TF.ProjectId,Monitoring_Board_v01,4d6f6e69-746f-4726-996e-675f426f6172,v01*%
%TF.SameCoordinates,Original*%
%TF.FileFunction,Soldermask,Bot*%
%TF.FilePolarity,Negative*%
%FSLAX46Y46*%
G04 Gerber Fmt 4.6, Leading zero omitted, Abs format (unit mm)*
G04 Created by KiCad (PCBNEW (7.0.0-0)) date 2023-07-06 20:29:09*
%MOMM*%
%LPD*%
G01*
G04 APERTURE LIST*
%ADD10R,1.700000X1.700000*%
%ADD11O,1.700000X1.700000*%
%ADD12R,2.000000X1.905000*%
%ADD13O,2.000000X1.905000*%
%ADD14C,3.000000*%
%ADD15C,1.700000*%
%ADD16R,1.905000X2.000000*%
%ADD17O,1.905000X2.000000*%
G04 APERTURE END LIST*
D10*
%TO.C,J6*%
X143739999Y-50876220D03*
D11*
X146279999Y-50876220D03*
%TD*%
%TO.C,J3*%
X152499282Y-51787220D03*
X149959282Y-51787220D03*
X155039282Y-51787220D03*
D10*
X157579282Y-51787220D03*
%TD*%
D12*
%TO.C,Q1*%
X144501999Y-70764399D03*
D13*
X144501999Y-73304399D03*
X144501999Y-75844399D03*
%TD*%
D14*
%TO.C,J7*%
X143435200Y-45516800D03*
X146435200Y-45516800D03*
%TD*%
D10*
%TO.C,J5*%
X121796570Y-67777199D03*
D11*
X121796570Y-70317199D03*
X121796570Y-72857199D03*
X121796570Y-75397199D03*
%TD*%
%TO.C,U1*%
X138103999Y-61467999D03*
X138103999Y-56387999D03*
X138103999Y-51307999D03*
X122403999Y-61467999D03*
X122403999Y-56387999D03*
X122403999Y-51307999D03*
D15*
X122404000Y-46228000D03*
D11*
X133608599Y-63987999D03*
X126902999Y-58907999D03*
D15*
X133608600Y-53828000D03*
D11*
X133608599Y-58907999D03*
D15*
X126903000Y-53828000D03*
D11*
X126902999Y-63987999D03*
D15*
X138104000Y-46228000D03*
%TD*%
D11*
%TO.C,J2*%
X144879282Y-54797220D03*
X142339282Y-54797220D03*
X149959282Y-54797220D03*
D10*
X155039282Y-54797220D03*
D11*
X152499282Y-54797220D03*
X147419282Y-54797220D03*
%TD*%
D14*
%TO.C,J8*%
X156162000Y-76047600D03*
X153162000Y-76047600D03*
%TD*%
D16*
%TO.C,Q2*%
X151256282Y-45923220D03*
D17*
X153796282Y-45923220D03*
X156336282Y-45923220D03*
%TD*%
D10*
%TO.C,J1*%
X131801999Y-68325999D03*
D11*
X134341999Y-68325999D03*
X136881999Y-68325999D03*
%TD*%
D10*
%TO.C,J4*%
X140928866Y-69849999D03*
D11*
X140928866Y-72389999D03*
X140928866Y-74929999D03*
X140928866Y-77469999D03*
%TD*%
M02*
