%TF.GenerationSoftware,KiCad,Pcbnew,(7.0.0-0)*%
%TF.CreationDate,2023-07-06T20:29:09+02:00*%
%TF.ProjectId,Monitoring_Board_v01,4d6f6e69-746f-4726-996e-675f426f6172,v01*%
%TF.SameCoordinates,Original*%
%TF.FileFunction,Legend,Bot*%
%TF.FilePolarity,Positive*%
%FSLAX46Y46*%
G04 Gerber Fmt 4.6, Leading zero omitted, Abs format (unit mm)*
G04 Created by KiCad (PCBNEW (7.0.0-0)) date 2023-07-06 20:29:09*
%MOMM*%
%LPD*%
G01*
G04 APERTURE LIST*
%ADD10C,0.300000*%
G04 APERTURE END LIST*
D10*
X156082857Y-62377571D02*
X156082857Y-60877571D01*
X156082857Y-60877571D02*
X155582857Y-61949000D01*
X155582857Y-61949000D02*
X155082857Y-60877571D01*
X155082857Y-60877571D02*
X155082857Y-62377571D01*
X154154285Y-62377571D02*
X154297142Y-62306142D01*
X154297142Y-62306142D02*
X154368571Y-62234714D01*
X154368571Y-62234714D02*
X154439999Y-62091857D01*
X154439999Y-62091857D02*
X154439999Y-61663285D01*
X154439999Y-61663285D02*
X154368571Y-61520428D01*
X154368571Y-61520428D02*
X154297142Y-61449000D01*
X154297142Y-61449000D02*
X154154285Y-61377571D01*
X154154285Y-61377571D02*
X153939999Y-61377571D01*
X153939999Y-61377571D02*
X153797142Y-61449000D01*
X153797142Y-61449000D02*
X153725714Y-61520428D01*
X153725714Y-61520428D02*
X153654285Y-61663285D01*
X153654285Y-61663285D02*
X153654285Y-62091857D01*
X153654285Y-62091857D02*
X153725714Y-62234714D01*
X153725714Y-62234714D02*
X153797142Y-62306142D01*
X153797142Y-62306142D02*
X153939999Y-62377571D01*
X153939999Y-62377571D02*
X154154285Y-62377571D01*
X153011428Y-61377571D02*
X153011428Y-62377571D01*
X153011428Y-61520428D02*
X152939999Y-61449000D01*
X152939999Y-61449000D02*
X152797142Y-61377571D01*
X152797142Y-61377571D02*
X152582856Y-61377571D01*
X152582856Y-61377571D02*
X152439999Y-61449000D01*
X152439999Y-61449000D02*
X152368571Y-61591857D01*
X152368571Y-61591857D02*
X152368571Y-62377571D01*
X151654285Y-62377571D02*
X151654285Y-61377571D01*
X151654285Y-60877571D02*
X151725713Y-60949000D01*
X151725713Y-60949000D02*
X151654285Y-61020428D01*
X151654285Y-61020428D02*
X151582856Y-60949000D01*
X151582856Y-60949000D02*
X151654285Y-60877571D01*
X151654285Y-60877571D02*
X151654285Y-61020428D01*
X151154284Y-61377571D02*
X150582856Y-61377571D01*
X150939999Y-60877571D02*
X150939999Y-62163285D01*
X150939999Y-62163285D02*
X150868570Y-62306142D01*
X150868570Y-62306142D02*
X150725713Y-62377571D01*
X150725713Y-62377571D02*
X150582856Y-62377571D01*
X149868570Y-62377571D02*
X150011427Y-62306142D01*
X150011427Y-62306142D02*
X150082856Y-62234714D01*
X150082856Y-62234714D02*
X150154284Y-62091857D01*
X150154284Y-62091857D02*
X150154284Y-61663285D01*
X150154284Y-61663285D02*
X150082856Y-61520428D01*
X150082856Y-61520428D02*
X150011427Y-61449000D01*
X150011427Y-61449000D02*
X149868570Y-61377571D01*
X149868570Y-61377571D02*
X149654284Y-61377571D01*
X149654284Y-61377571D02*
X149511427Y-61449000D01*
X149511427Y-61449000D02*
X149439999Y-61520428D01*
X149439999Y-61520428D02*
X149368570Y-61663285D01*
X149368570Y-61663285D02*
X149368570Y-62091857D01*
X149368570Y-62091857D02*
X149439999Y-62234714D01*
X149439999Y-62234714D02*
X149511427Y-62306142D01*
X149511427Y-62306142D02*
X149654284Y-62377571D01*
X149654284Y-62377571D02*
X149868570Y-62377571D01*
X148725713Y-62377571D02*
X148725713Y-61377571D01*
X148725713Y-61663285D02*
X148654284Y-61520428D01*
X148654284Y-61520428D02*
X148582856Y-61449000D01*
X148582856Y-61449000D02*
X148439998Y-61377571D01*
X148439998Y-61377571D02*
X148297141Y-61377571D01*
X147797142Y-62377571D02*
X147797142Y-61377571D01*
X147797142Y-60877571D02*
X147868570Y-60949000D01*
X147868570Y-60949000D02*
X147797142Y-61020428D01*
X147797142Y-61020428D02*
X147725713Y-60949000D01*
X147725713Y-60949000D02*
X147797142Y-60877571D01*
X147797142Y-60877571D02*
X147797142Y-61020428D01*
X147082856Y-61377571D02*
X147082856Y-62377571D01*
X147082856Y-61520428D02*
X147011427Y-61449000D01*
X147011427Y-61449000D02*
X146868570Y-61377571D01*
X146868570Y-61377571D02*
X146654284Y-61377571D01*
X146654284Y-61377571D02*
X146511427Y-61449000D01*
X146511427Y-61449000D02*
X146439999Y-61591857D01*
X146439999Y-61591857D02*
X146439999Y-62377571D01*
X145082856Y-61377571D02*
X145082856Y-62591857D01*
X145082856Y-62591857D02*
X145154284Y-62734714D01*
X145154284Y-62734714D02*
X145225713Y-62806142D01*
X145225713Y-62806142D02*
X145368570Y-62877571D01*
X145368570Y-62877571D02*
X145582856Y-62877571D01*
X145582856Y-62877571D02*
X145725713Y-62806142D01*
X145082856Y-62306142D02*
X145225713Y-62377571D01*
X145225713Y-62377571D02*
X145511427Y-62377571D01*
X145511427Y-62377571D02*
X145654284Y-62306142D01*
X145654284Y-62306142D02*
X145725713Y-62234714D01*
X145725713Y-62234714D02*
X145797141Y-62091857D01*
X145797141Y-62091857D02*
X145797141Y-61663285D01*
X145797141Y-61663285D02*
X145725713Y-61520428D01*
X145725713Y-61520428D02*
X145654284Y-61449000D01*
X145654284Y-61449000D02*
X145511427Y-61377571D01*
X145511427Y-61377571D02*
X145225713Y-61377571D01*
X145225713Y-61377571D02*
X145082856Y-61449000D01*
X156082857Y-64807571D02*
X156082857Y-63307571D01*
X156082857Y-63307571D02*
X155582857Y-64379000D01*
X155582857Y-64379000D02*
X155082857Y-63307571D01*
X155082857Y-63307571D02*
X155082857Y-64807571D01*
X154154285Y-64807571D02*
X154297142Y-64736142D01*
X154297142Y-64736142D02*
X154368571Y-64664714D01*
X154368571Y-64664714D02*
X154439999Y-64521857D01*
X154439999Y-64521857D02*
X154439999Y-64093285D01*
X154439999Y-64093285D02*
X154368571Y-63950428D01*
X154368571Y-63950428D02*
X154297142Y-63879000D01*
X154297142Y-63879000D02*
X154154285Y-63807571D01*
X154154285Y-63807571D02*
X153939999Y-63807571D01*
X153939999Y-63807571D02*
X153797142Y-63879000D01*
X153797142Y-63879000D02*
X153725714Y-63950428D01*
X153725714Y-63950428D02*
X153654285Y-64093285D01*
X153654285Y-64093285D02*
X153654285Y-64521857D01*
X153654285Y-64521857D02*
X153725714Y-64664714D01*
X153725714Y-64664714D02*
X153797142Y-64736142D01*
X153797142Y-64736142D02*
X153939999Y-64807571D01*
X153939999Y-64807571D02*
X154154285Y-64807571D01*
X152368571Y-64807571D02*
X152368571Y-63307571D01*
X152368571Y-64736142D02*
X152511428Y-64807571D01*
X152511428Y-64807571D02*
X152797142Y-64807571D01*
X152797142Y-64807571D02*
X152939999Y-64736142D01*
X152939999Y-64736142D02*
X153011428Y-64664714D01*
X153011428Y-64664714D02*
X153082856Y-64521857D01*
X153082856Y-64521857D02*
X153082856Y-64093285D01*
X153082856Y-64093285D02*
X153011428Y-63950428D01*
X153011428Y-63950428D02*
X152939999Y-63879000D01*
X152939999Y-63879000D02*
X152797142Y-63807571D01*
X152797142Y-63807571D02*
X152511428Y-63807571D01*
X152511428Y-63807571D02*
X152368571Y-63879000D01*
X151011428Y-63807571D02*
X151011428Y-64807571D01*
X151654285Y-63807571D02*
X151654285Y-64593285D01*
X151654285Y-64593285D02*
X151582856Y-64736142D01*
X151582856Y-64736142D02*
X151439999Y-64807571D01*
X151439999Y-64807571D02*
X151225713Y-64807571D01*
X151225713Y-64807571D02*
X151082856Y-64736142D01*
X151082856Y-64736142D02*
X151011428Y-64664714D01*
X150082856Y-64807571D02*
X150225713Y-64736142D01*
X150225713Y-64736142D02*
X150297142Y-64593285D01*
X150297142Y-64593285D02*
X150297142Y-63307571D01*
X148939999Y-64736142D02*
X149082856Y-64807571D01*
X149082856Y-64807571D02*
X149368571Y-64807571D01*
X149368571Y-64807571D02*
X149511428Y-64736142D01*
X149511428Y-64736142D02*
X149582856Y-64593285D01*
X149582856Y-64593285D02*
X149582856Y-64021857D01*
X149582856Y-64021857D02*
X149511428Y-63879000D01*
X149511428Y-63879000D02*
X149368571Y-63807571D01*
X149368571Y-63807571D02*
X149082856Y-63807571D01*
X149082856Y-63807571D02*
X148939999Y-63879000D01*
X148939999Y-63879000D02*
X148868571Y-64021857D01*
X148868571Y-64021857D02*
X148868571Y-64164714D01*
X148868571Y-64164714D02*
X149582856Y-64307571D01*
X155582857Y-66451857D02*
X155368571Y-66523285D01*
X155368571Y-66523285D02*
X155297142Y-66594714D01*
X155297142Y-66594714D02*
X155225714Y-66737571D01*
X155225714Y-66737571D02*
X155225714Y-66951857D01*
X155225714Y-66951857D02*
X155297142Y-67094714D01*
X155297142Y-67094714D02*
X155368571Y-67166142D01*
X155368571Y-67166142D02*
X155511428Y-67237571D01*
X155511428Y-67237571D02*
X156082857Y-67237571D01*
X156082857Y-67237571D02*
X156082857Y-65737571D01*
X156082857Y-65737571D02*
X155582857Y-65737571D01*
X155582857Y-65737571D02*
X155440000Y-65809000D01*
X155440000Y-65809000D02*
X155368571Y-65880428D01*
X155368571Y-65880428D02*
X155297142Y-66023285D01*
X155297142Y-66023285D02*
X155297142Y-66166142D01*
X155297142Y-66166142D02*
X155368571Y-66309000D01*
X155368571Y-66309000D02*
X155440000Y-66380428D01*
X155440000Y-66380428D02*
X155582857Y-66451857D01*
X155582857Y-66451857D02*
X156082857Y-66451857D01*
X154582857Y-67237571D02*
X154582857Y-65737571D01*
X154582857Y-65737571D02*
X154082857Y-66809000D01*
X154082857Y-66809000D02*
X153582857Y-65737571D01*
X153582857Y-65737571D02*
X153582857Y-67237571D01*
X152939999Y-67166142D02*
X152725714Y-67237571D01*
X152725714Y-67237571D02*
X152368571Y-67237571D01*
X152368571Y-67237571D02*
X152225714Y-67166142D01*
X152225714Y-67166142D02*
X152154285Y-67094714D01*
X152154285Y-67094714D02*
X152082856Y-66951857D01*
X152082856Y-66951857D02*
X152082856Y-66809000D01*
X152082856Y-66809000D02*
X152154285Y-66666142D01*
X152154285Y-66666142D02*
X152225714Y-66594714D01*
X152225714Y-66594714D02*
X152368571Y-66523285D01*
X152368571Y-66523285D02*
X152654285Y-66451857D01*
X152654285Y-66451857D02*
X152797142Y-66380428D01*
X152797142Y-66380428D02*
X152868571Y-66309000D01*
X152868571Y-66309000D02*
X152939999Y-66166142D01*
X152939999Y-66166142D02*
X152939999Y-66023285D01*
X152939999Y-66023285D02*
X152868571Y-65880428D01*
X152868571Y-65880428D02*
X152797142Y-65809000D01*
X152797142Y-65809000D02*
X152654285Y-65737571D01*
X152654285Y-65737571D02*
X152297142Y-65737571D01*
X152297142Y-65737571D02*
X152082856Y-65809000D01*
X151582857Y-66237571D02*
X151225714Y-67237571D01*
X151225714Y-67237571D02*
X150868571Y-66237571D01*
X150011428Y-65737571D02*
X149868571Y-65737571D01*
X149868571Y-65737571D02*
X149725714Y-65809000D01*
X149725714Y-65809000D02*
X149654286Y-65880428D01*
X149654286Y-65880428D02*
X149582857Y-66023285D01*
X149582857Y-66023285D02*
X149511428Y-66309000D01*
X149511428Y-66309000D02*
X149511428Y-66666142D01*
X149511428Y-66666142D02*
X149582857Y-66951857D01*
X149582857Y-66951857D02*
X149654286Y-67094714D01*
X149654286Y-67094714D02*
X149725714Y-67166142D01*
X149725714Y-67166142D02*
X149868571Y-67237571D01*
X149868571Y-67237571D02*
X150011428Y-67237571D01*
X150011428Y-67237571D02*
X150154286Y-67166142D01*
X150154286Y-67166142D02*
X150225714Y-67094714D01*
X150225714Y-67094714D02*
X150297143Y-66951857D01*
X150297143Y-66951857D02*
X150368571Y-66666142D01*
X150368571Y-66666142D02*
X150368571Y-66309000D01*
X150368571Y-66309000D02*
X150297143Y-66023285D01*
X150297143Y-66023285D02*
X150225714Y-65880428D01*
X150225714Y-65880428D02*
X150154286Y-65809000D01*
X150154286Y-65809000D02*
X150011428Y-65737571D01*
X148082857Y-67237571D02*
X148940000Y-67237571D01*
X148511429Y-67237571D02*
X148511429Y-65737571D01*
X148511429Y-65737571D02*
X148654286Y-65951857D01*
X148654286Y-65951857D02*
X148797143Y-66094714D01*
X148797143Y-66094714D02*
X148940000Y-66166142D01*
M02*
