%TF.GenerationSoftware,KiCad,Pcbnew,(7.0.0-0)*%
%TF.CreationDate,2023-06-12T13:32:23+02:00*%
%TF.ProjectId,Monitoring_Board_v01,4d6f6e69-746f-4726-996e-675f426f6172,v01*%
%TF.SameCoordinates,Original*%
%TF.FileFunction,Soldermask,Top*%
%TF.FilePolarity,Negative*%
%FSLAX46Y46*%
G04 Gerber Fmt 4.6, Leading zero omitted, Abs format (unit mm)*
G04 Created by KiCad (PCBNEW (7.0.0-0)) date 2023-06-12 13:32:23*
%MOMM*%
%LPD*%
G01*
G04 APERTURE LIST*
G04 Aperture macros list*
%AMRoundRect*
0 Rectangle with rounded corners*
0 $1 Rounding radius*
0 $2 $3 $4 $5 $6 $7 $8 $9 X,Y pos of 4 corners*
0 Add a 4 corners polygon primitive as box body*
4,1,4,$2,$3,$4,$5,$6,$7,$8,$9,$2,$3,0*
0 Add four circle primitives for the rounded corners*
1,1,$1+$1,$2,$3*
1,1,$1+$1,$4,$5*
1,1,$1+$1,$6,$7*
1,1,$1+$1,$8,$9*
0 Add four rect primitives between the rounded corners*
20,1,$1+$1,$2,$3,$4,$5,0*
20,1,$1+$1,$4,$5,$6,$7,0*
20,1,$1+$1,$6,$7,$8,$9,0*
20,1,$1+$1,$8,$9,$2,$3,0*%
G04 Aperture macros list end*
%ADD10RoundRect,0.250001X0.462499X0.624999X-0.462499X0.624999X-0.462499X-0.624999X0.462499X-0.624999X0*%
%ADD11R,1.700000X1.700000*%
%ADD12O,1.700000X1.700000*%
%ADD13RoundRect,0.250000X0.400000X0.625000X-0.400000X0.625000X-0.400000X-0.625000X0.400000X-0.625000X0*%
%ADD14RoundRect,0.250000X-0.400000X-0.625000X0.400000X-0.625000X0.400000X0.625000X-0.400000X0.625000X0*%
%ADD15R,1.663700X0.558800*%
%ADD16RoundRect,0.250000X0.350000X0.450000X-0.350000X0.450000X-0.350000X-0.450000X0.350000X-0.450000X0*%
%ADD17RoundRect,0.020000X-0.690000X-0.180000X0.690000X-0.180000X0.690000X0.180000X-0.690000X0.180000X0*%
%ADD18RoundRect,0.150000X0.587500X0.150000X-0.587500X0.150000X-0.587500X-0.150000X0.587500X-0.150000X0*%
%ADD19R,2.000000X1.905000*%
%ADD20O,2.000000X1.905000*%
%ADD21RoundRect,0.250000X-0.625000X0.400000X-0.625000X-0.400000X0.625000X-0.400000X0.625000X0.400000X0*%
%ADD22C,3.000000*%
%ADD23RoundRect,0.237500X0.300000X0.237500X-0.300000X0.237500X-0.300000X-0.237500X0.300000X-0.237500X0*%
%ADD24RoundRect,0.237500X-0.300000X-0.237500X0.300000X-0.237500X0.300000X0.237500X-0.300000X0.237500X0*%
%ADD25R,1.500000X0.400000*%
%ADD26C,1.700000*%
%ADD27R,1.905000X2.000000*%
%ADD28O,1.905000X2.000000*%
%ADD29RoundRect,0.250001X-0.462499X-0.624999X0.462499X-0.624999X0.462499X0.624999X-0.462499X0.624999X0*%
G04 APERTURE END LIST*
D10*
%TO.C,D1*%
X122731000Y-42799000D03*
X125706000Y-42799000D03*
%TD*%
D11*
%TO.C,J6*%
X143739999Y-50876220D03*
D12*
X146279999Y-50876220D03*
%TD*%
D13*
%TO.C,R11*%
X144932283Y-62179221D03*
X141832283Y-62179221D03*
%TD*%
D14*
%TO.C,R15*%
X152145283Y-62545000D03*
X155245283Y-62545000D03*
%TD*%
D15*
%TO.C,U4*%
X131230499Y-73024999D03*
X131230499Y-74294999D03*
X131230499Y-75564999D03*
X131230499Y-76834999D03*
X136881999Y-76834999D03*
X136881999Y-75564999D03*
X136881999Y-74294999D03*
X136881999Y-73024999D03*
%TD*%
D12*
%TO.C,J3*%
X152499282Y-51787220D03*
X149959282Y-51787220D03*
X155039282Y-51787220D03*
D11*
X157579282Y-51787220D03*
%TD*%
D16*
%TO.C,TH1*%
X134908000Y-50546000D03*
X132908000Y-50546000D03*
%TD*%
D17*
%TO.C,U3*%
X124635171Y-69396304D03*
X124635171Y-70046304D03*
X124635171Y-70696304D03*
X124635171Y-71346304D03*
X128175171Y-71346304D03*
X128175171Y-70696304D03*
X128175171Y-70046304D03*
X128175171Y-69396304D03*
%TD*%
D18*
%TO.C,U5*%
X150109283Y-60574000D03*
X150109283Y-58674000D03*
X148234283Y-59624000D03*
%TD*%
D19*
%TO.C,Q1*%
X144501999Y-70764399D03*
D20*
X144501999Y-73304399D03*
X144501999Y-75844399D03*
%TD*%
D13*
%TO.C,R14*%
X155245283Y-60259000D03*
X152145283Y-60259000D03*
%TD*%
D14*
%TO.C,R12*%
X141832283Y-59893221D03*
X144932283Y-59893221D03*
%TD*%
D13*
%TO.C,R13*%
X153698000Y-48768000D03*
X150598000Y-48768000D03*
%TD*%
D21*
%TO.C,R7*%
X156186000Y-68300000D03*
X156186000Y-71400000D03*
%TD*%
D13*
%TO.C,R2*%
X130965000Y-50546000D03*
X127865000Y-50546000D03*
%TD*%
D10*
%TO.C,D3*%
X158689500Y-48768000D03*
X155714500Y-48768000D03*
%TD*%
D22*
%TO.C,J7*%
X143435200Y-45516800D03*
X146435200Y-45516800D03*
%TD*%
D23*
%TO.C,C1*%
X136882000Y-70866000D03*
X135157000Y-70866000D03*
%TD*%
D24*
%TO.C,C2*%
X131567500Y-71128000D03*
X133292500Y-71128000D03*
%TD*%
D21*
%TO.C,R4*%
X130301283Y-60655221D03*
X130301283Y-63755221D03*
%TD*%
%TO.C,R3*%
X130301283Y-55168221D03*
X130301283Y-58268221D03*
%TD*%
D25*
%TO.C,U2*%
X127797999Y-74817999D03*
X127797999Y-74167999D03*
X127797999Y-73517999D03*
X125137999Y-73517999D03*
X125137999Y-74817999D03*
%TD*%
D11*
%TO.C,J5*%
X121796570Y-67777199D03*
D12*
X121796570Y-70317199D03*
X121796570Y-72857199D03*
X121796570Y-75397199D03*
%TD*%
D21*
%TO.C,R6*%
X158472000Y-68300000D03*
X158472000Y-71400000D03*
%TD*%
%TO.C,R9*%
X151614000Y-68300000D03*
X151614000Y-71400000D03*
%TD*%
D12*
%TO.C,U1*%
X138103999Y-61467999D03*
X138103999Y-56387999D03*
X138103999Y-51307999D03*
X122403999Y-61467999D03*
X122403999Y-56387999D03*
X122403999Y-51307999D03*
D26*
X122404000Y-46228000D03*
D12*
X133608599Y-63987999D03*
X126902999Y-58907999D03*
D26*
X133608600Y-53828000D03*
D12*
X133608599Y-58907999D03*
D26*
X126903000Y-53828000D03*
D12*
X126902999Y-63987999D03*
D26*
X138104000Y-46228000D03*
%TD*%
D12*
%TO.C,J2*%
X144879282Y-54797220D03*
X142339282Y-54797220D03*
X149959282Y-54797220D03*
D11*
X155039282Y-54797220D03*
D12*
X152499282Y-54797220D03*
X147419282Y-54797220D03*
%TD*%
D21*
%TO.C,R1*%
X125579000Y-46583000D03*
X125579000Y-49683000D03*
%TD*%
D14*
%TO.C,Rs1*%
X147192283Y-62545000D03*
X150292283Y-62545000D03*
%TD*%
D21*
%TO.C,R8*%
X153900000Y-68300000D03*
X153900000Y-71400000D03*
%TD*%
D22*
%TO.C,J8*%
X156162000Y-76047600D03*
X153162000Y-76047600D03*
%TD*%
D21*
%TO.C,R5*%
X149328000Y-68300000D03*
X149328000Y-71400000D03*
%TD*%
D27*
%TO.C,Q2*%
X151256282Y-45923220D03*
D28*
X153796282Y-45923220D03*
X156336282Y-45923220D03*
%TD*%
D11*
%TO.C,J1*%
X131801999Y-68325999D03*
D12*
X134341999Y-68325999D03*
X136881999Y-68325999D03*
%TD*%
D14*
%TO.C,R10*%
X124918000Y-77216000D03*
X128018000Y-77216000D03*
%TD*%
D29*
%TO.C,D2*%
X143892400Y-66294000D03*
X146867400Y-66294000D03*
%TD*%
D11*
%TO.C,J4*%
X140928866Y-69849999D03*
D12*
X140928866Y-72389999D03*
X140928866Y-74929999D03*
X140928866Y-77469999D03*
%TD*%
M02*
