%TF.GenerationSoftware,KiCad,Pcbnew,(7.0.0-0)*%
%TF.CreationDate,2023-06-12T13:32:23+02:00*%
%TF.ProjectId,Monitoring_Board_v01,4d6f6e69-746f-4726-996e-675f426f6172,v01*%
%TF.SameCoordinates,Original*%
%TF.FileFunction,Copper,L1,Top*%
%TF.FilePolarity,Positive*%
%FSLAX46Y46*%
G04 Gerber Fmt 4.6, Leading zero omitted, Abs format (unit mm)*
G04 Created by KiCad (PCBNEW (7.0.0-0)) date 2023-06-12 13:32:23*
%MOMM*%
%LPD*%
G01*
G04 APERTURE LIST*
G04 Aperture macros list*
%AMRoundRect*
0 Rectangle with rounded corners*
0 $1 Rounding radius*
0 $2 $3 $4 $5 $6 $7 $8 $9 X,Y pos of 4 corners*
0 Add a 4 corners polygon primitive as box body*
4,1,4,$2,$3,$4,$5,$6,$7,$8,$9,$2,$3,0*
0 Add four circle primitives for the rounded corners*
1,1,$1+$1,$2,$3*
1,1,$1+$1,$4,$5*
1,1,$1+$1,$6,$7*
1,1,$1+$1,$8,$9*
0 Add four rect primitives between the rounded corners*
20,1,$1+$1,$2,$3,$4,$5,0*
20,1,$1+$1,$4,$5,$6,$7,0*
20,1,$1+$1,$6,$7,$8,$9,0*
20,1,$1+$1,$8,$9,$2,$3,0*%
G04 Aperture macros list end*
%TA.AperFunction,SMDPad,CuDef*%
%ADD10RoundRect,0.250001X0.462499X0.624999X-0.462499X0.624999X-0.462499X-0.624999X0.462499X-0.624999X0*%
%TD*%
%TA.AperFunction,ComponentPad*%
%ADD11R,1.700000X1.700000*%
%TD*%
%TA.AperFunction,ComponentPad*%
%ADD12O,1.700000X1.700000*%
%TD*%
%TA.AperFunction,SMDPad,CuDef*%
%ADD13RoundRect,0.250000X0.400000X0.625000X-0.400000X0.625000X-0.400000X-0.625000X0.400000X-0.625000X0*%
%TD*%
%TA.AperFunction,SMDPad,CuDef*%
%ADD14RoundRect,0.250000X-0.400000X-0.625000X0.400000X-0.625000X0.400000X0.625000X-0.400000X0.625000X0*%
%TD*%
%TA.AperFunction,SMDPad,CuDef*%
%ADD15R,1.663700X0.558800*%
%TD*%
%TA.AperFunction,SMDPad,CuDef*%
%ADD16RoundRect,0.250000X0.350000X0.450000X-0.350000X0.450000X-0.350000X-0.450000X0.350000X-0.450000X0*%
%TD*%
%TA.AperFunction,SMDPad,CuDef*%
%ADD17RoundRect,0.020000X-0.690000X-0.180000X0.690000X-0.180000X0.690000X0.180000X-0.690000X0.180000X0*%
%TD*%
%TA.AperFunction,SMDPad,CuDef*%
%ADD18RoundRect,0.150000X0.587500X0.150000X-0.587500X0.150000X-0.587500X-0.150000X0.587500X-0.150000X0*%
%TD*%
%TA.AperFunction,ComponentPad*%
%ADD19R,2.000000X1.905000*%
%TD*%
%TA.AperFunction,ComponentPad*%
%ADD20O,2.000000X1.905000*%
%TD*%
%TA.AperFunction,SMDPad,CuDef*%
%ADD21RoundRect,0.250000X-0.625000X0.400000X-0.625000X-0.400000X0.625000X-0.400000X0.625000X0.400000X0*%
%TD*%
%TA.AperFunction,ComponentPad*%
%ADD22C,3.000000*%
%TD*%
%TA.AperFunction,SMDPad,CuDef*%
%ADD23RoundRect,0.237500X0.300000X0.237500X-0.300000X0.237500X-0.300000X-0.237500X0.300000X-0.237500X0*%
%TD*%
%TA.AperFunction,SMDPad,CuDef*%
%ADD24RoundRect,0.237500X-0.300000X-0.237500X0.300000X-0.237500X0.300000X0.237500X-0.300000X0.237500X0*%
%TD*%
%TA.AperFunction,SMDPad,CuDef*%
%ADD25R,1.500000X0.400000*%
%TD*%
%TA.AperFunction,ComponentPad*%
%ADD26C,1.700000*%
%TD*%
%TA.AperFunction,ComponentPad*%
%ADD27R,1.905000X2.000000*%
%TD*%
%TA.AperFunction,ComponentPad*%
%ADD28O,1.905000X2.000000*%
%TD*%
%TA.AperFunction,SMDPad,CuDef*%
%ADD29RoundRect,0.250001X-0.462499X-0.624999X0.462499X-0.624999X0.462499X0.624999X-0.462499X0.624999X0*%
%TD*%
%TA.AperFunction,ViaPad*%
%ADD30C,0.800000*%
%TD*%
%TA.AperFunction,Conductor*%
%ADD31C,0.250000*%
%TD*%
%TA.AperFunction,Conductor*%
%ADD32C,0.500000*%
%TD*%
G04 APERTURE END LIST*
D10*
%TO.P,D1,1,A*%
%TO.N,GND1*%
X122731000Y-42799000D03*
%TO.P,D1,2,K*%
%TO.N,Net-(D1-A)*%
X125706000Y-42799000D03*
%TD*%
D11*
%TO.P,J6,1,Pin_1*%
%TO.N,VS*%
X143739999Y-50876220D03*
D12*
%TO.P,J6,2,Pin_2*%
%TO.N,Net-(J3-Pin_3)*%
X146279999Y-50876220D03*
%TD*%
D13*
%TO.P,R11,1*%
%TO.N,Force_Reset*%
X144932283Y-62179221D03*
%TO.P,R11,2*%
%TO.N,Net-(Q2-G)*%
X141832283Y-62179221D03*
%TD*%
D14*
%TO.P,R15,1*%
%TO.N,Net-(U5-+)*%
X152145283Y-62545000D03*
%TO.P,R15,2*%
%TO.N,Net-(J2-Pin_2)*%
X155245283Y-62545000D03*
%TD*%
D15*
%TO.P,U4,1,Vcc1*%
%TO.N,VS*%
X131230499Y-73024999D03*
%TO.P,U4,2,OUTA*%
%TO.N,Net-(U2-B)*%
X131230499Y-74294999D03*
%TO.P,U4,3,INB*%
%TO.N,Net-(U3-1Y)*%
X131230499Y-75564999D03*
%TO.P,U4,4,GND1*%
%TO.N,GND1*%
X131230499Y-76834999D03*
%TO.P,U4,5,GND2*%
%TO.N,/GND_OFF_Board  *%
X136881999Y-76834999D03*
%TO.P,U4,6,OUTB*%
%TO.N,/Comms_ISO_OUT*%
X136881999Y-75564999D03*
%TO.P,U4,7,INA*%
%TO.N,/Comms_ISO_IN*%
X136881999Y-74294999D03*
%TO.P,U4,8,Vcc2*%
%TO.N,/VCC_OFF_Board  *%
X136881999Y-73024999D03*
%TD*%
D12*
%TO.P,J3,5Vo*%
%TO.N,Net-(J3-Pin_3)*%
X152499282Y-51787220D03*
%TO.P,J3,En*%
%TO.N,/5V_EN*%
X149959282Y-51787220D03*
%TO.P,J3,G*%
%TO.N,GND1*%
X155039282Y-51787220D03*
D11*
%TO.P,J3,In*%
%TO.N,V_cell*%
X157579282Y-51787220D03*
%TD*%
D16*
%TO.P,TH1,1*%
%TO.N,VS*%
X134908000Y-50546000D03*
%TO.P,TH1,2*%
%TO.N,Net-(R2-Pad3)*%
X132908000Y-50546000D03*
%TD*%
D17*
%TO.P,U3,1,1A*%
%TO.N,TX0*%
X124635171Y-69396304D03*
%TO.P,U3,2,1B*%
%TO.N,/Comms_IN*%
X124635171Y-70046304D03*
%TO.P,U3,3,2Y*%
%TO.N,RX0*%
X124635171Y-70696304D03*
%TO.P,U3,4,-*%
%TO.N,GND1*%
X124635171Y-71346304D03*
%TO.P,U3,5,2A*%
%TO.N,/Comms_IN*%
X128175171Y-71346304D03*
%TO.P,U3,6,2B*%
%TO.N,Net-(U2-B)*%
X128175171Y-70696304D03*
%TO.P,U3,7,1Y*%
%TO.N,Net-(U3-1Y)*%
X128175171Y-70046304D03*
%TO.P,U3,8,+*%
%TO.N,VS*%
X128175171Y-69396304D03*
%TD*%
D18*
%TO.P,U5,1,+*%
%TO.N,Net-(U5-+)*%
X150109283Y-60574000D03*
%TO.P,U5,2,-*%
%TO.N,GND1*%
X150109283Y-58674000D03*
%TO.P,U5,3,NC*%
X148234283Y-59624000D03*
%TD*%
D19*
%TO.P,Q1,1,G*%
%TO.N,Net-(Q1-G)*%
X144501999Y-70764399D03*
D20*
%TO.P,Q1,2,D*%
%TO.N,Net-(D2-K)*%
X144501999Y-73304399D03*
%TO.P,Q1,3,S*%
%TO.N,GND1*%
X144501999Y-75844399D03*
%TD*%
D13*
%TO.P,R14,1*%
%TO.N,Net-(J2-Pin_2)*%
X155245283Y-60259000D03*
%TO.P,R14,2*%
%TO.N,GND1*%
X152145283Y-60259000D03*
%TD*%
D14*
%TO.P,R12,1*%
%TO.N,Net-(Q2-G)*%
X141832283Y-59893221D03*
%TO.P,R12,2*%
%TO.N,GND1*%
X144932283Y-59893221D03*
%TD*%
D13*
%TO.P,R13,1*%
%TO.N,Net-(D3-A)*%
X153698000Y-48768000D03*
%TO.P,R13,2*%
%TO.N,Net-(J3-Pin_3)*%
X150598000Y-48768000D03*
%TD*%
D21*
%TO.P,R7,1*%
%TO.N,V_cell*%
X156186000Y-68300000D03*
%TO.P,R7,2*%
%TO.N,Net-(D2-K)*%
X156186000Y-71400000D03*
%TD*%
D13*
%TO.P,R2,1*%
%TO.N,Net-(R2-Pad3)*%
X130965000Y-50546000D03*
%TO.P,R2,2*%
%TO.N,GND1*%
X127865000Y-50546000D03*
%TD*%
D10*
%TO.P,D3,1,K*%
%TO.N,GND1*%
X158689500Y-48768000D03*
%TO.P,D3,2,A*%
%TO.N,Net-(D3-A)*%
X155714500Y-48768000D03*
%TD*%
D22*
%TO.P,J7,1,Pin_1*%
%TO.N,V_cell*%
X143435200Y-45516800D03*
X146435200Y-45516800D03*
%TD*%
D23*
%TO.P,C1,1*%
%TO.N,/VCC_OFF_Board  *%
X136882000Y-70866000D03*
%TO.P,C1,2*%
%TO.N,/GND_OFF_Board  *%
X135157000Y-70866000D03*
%TD*%
D24*
%TO.P,C2,1*%
%TO.N,VS*%
X131567500Y-71128000D03*
%TO.P,C2,2*%
%TO.N,GND1*%
X133292500Y-71128000D03*
%TD*%
D21*
%TO.P,R4,1*%
%TO.N,Net-(Q1-G)*%
X130301283Y-60655221D03*
%TO.P,R4,2*%
%TO.N,GND1*%
X130301283Y-63755221D03*
%TD*%
%TO.P,R3,1*%
%TO.N,Dumpload_EN*%
X130301283Y-55168221D03*
%TO.P,R3,2*%
%TO.N,Net-(Q1-G)*%
X130301283Y-58268221D03*
%TD*%
D25*
%TO.P,U2,1,A*%
%TO.N,TX0*%
X127797999Y-74817999D03*
%TO.P,U2,2,B*%
%TO.N,Net-(U2-B)*%
X127797999Y-74167999D03*
%TO.P,U2,3,-*%
%TO.N,GND1*%
X127797999Y-73517999D03*
%TO.P,U2,4,Y*%
%TO.N,/Comms_OUT*%
X125137999Y-73517999D03*
%TO.P,U2,5,+*%
%TO.N,VS*%
X125137999Y-74817999D03*
%TD*%
D11*
%TO.P,J5,1,Pin_1*%
%TO.N,VS*%
X121796570Y-67777199D03*
D12*
%TO.P,J5,2,Pin_2*%
%TO.N,/Comms_IN*%
X121796570Y-70317199D03*
%TO.P,J5,3,Pin_3*%
%TO.N,/Comms_OUT*%
X121796570Y-72857199D03*
%TO.P,J5,4,Pin_4*%
%TO.N,GND1*%
X121796570Y-75397199D03*
%TD*%
D21*
%TO.P,R6,1*%
%TO.N,V_cell*%
X158472000Y-68300000D03*
%TO.P,R6,2*%
%TO.N,Net-(D2-K)*%
X158472000Y-71400000D03*
%TD*%
%TO.P,R9,1*%
%TO.N,V_cell*%
X151614000Y-68300000D03*
%TO.P,R9,2*%
%TO.N,Net-(D2-K)*%
X151614000Y-71400000D03*
%TD*%
D12*
%TO.P,U1,A0,A0*%
%TO.N,Force_Reset*%
X138103999Y-61467999D03*
%TO.P,U1,A1,A1*%
%TO.N,Net-(R2-Pad3)*%
X138103999Y-56387999D03*
%TO.P,U1,A2,A2*%
%TO.N,V_cell*%
X138103999Y-51307999D03*
%TO.P,U1,D9,D9*%
%TO.N,/DQ*%
X122403999Y-61467999D03*
%TO.P,U1,D10,D10*%
%TO.N,Dumpload_EN*%
X122403999Y-56387999D03*
%TO.P,U1,D11,D11*%
%TO.N,Net-(R1-Pad2)*%
X122403999Y-51307999D03*
D26*
%TO.P,U1,GND1,GND1*%
%TO.N,GND1*%
X122404000Y-46228000D03*
D12*
X133608599Y-63987999D03*
%TO.P,U1,RX1,RX1*%
%TO.N,RX0*%
X126902999Y-58907999D03*
D26*
%TO.P,U1,SCL1,SCL1*%
%TO.N,Net-(J2-Pin_5)*%
X133608600Y-53828000D03*
D12*
%TO.P,U1,SDA1,SDA1*%
%TO.N,Net-(J2-Pin_6)*%
X133608599Y-58907999D03*
D26*
%TO.P,U1,TX1,TX1*%
%TO.N,TX0*%
X126903000Y-53828000D03*
D12*
%TO.P,U1,VCC1,VCC1*%
%TO.N,VS*%
X126902999Y-63987999D03*
D26*
X138104000Y-46228000D03*
%TD*%
D12*
%TO.P,J2,SCL1*%
%TO.N,Net-(J2-Pin_5)*%
X144879282Y-54797220D03*
%TO.P,J2,SDA1*%
%TO.N,Net-(J2-Pin_6)*%
X142339282Y-54797220D03*
%TO.P,J2,Vcc*%
%TO.N,VS*%
X149959282Y-54797220D03*
D11*
%TO.P,J2,Vin+*%
%TO.N,V_cell*%
X155039282Y-54797220D03*
D12*
%TO.P,J2,Vin-*%
%TO.N,Net-(J2-Pin_2)*%
X152499282Y-54797220D03*
%TO.P,J2,gnd*%
%TO.N,GND1*%
X147419282Y-54797220D03*
%TD*%
D21*
%TO.P,R1,1*%
%TO.N,Net-(D1-A)*%
X125579000Y-46583000D03*
%TO.P,R1,2*%
%TO.N,Net-(R1-Pad2)*%
X125579000Y-49683000D03*
%TD*%
D14*
%TO.P,Rs1,1*%
%TO.N,VS*%
X147192283Y-62545000D03*
%TO.P,Rs1,2*%
%TO.N,Net-(U5-+)*%
X150292283Y-62545000D03*
%TD*%
D21*
%TO.P,R8,1*%
%TO.N,V_cell*%
X153900000Y-68300000D03*
%TO.P,R8,2*%
%TO.N,Net-(D2-K)*%
X153900000Y-71400000D03*
%TD*%
D22*
%TO.P,J8,1,Pin_1*%
%TO.N,GND1*%
X156162000Y-76047600D03*
X153162000Y-76047600D03*
%TD*%
D21*
%TO.P,R5,1*%
%TO.N,V_cell*%
X149328000Y-68300000D03*
%TO.P,R5,2*%
%TO.N,Net-(D2-A)*%
X149328000Y-71400000D03*
%TD*%
D27*
%TO.P,Q2,1,G*%
%TO.N,Net-(Q2-G)*%
X151256282Y-45923220D03*
D28*
%TO.P,Q2,2,D*%
%TO.N,/5V_EN*%
X153796282Y-45923220D03*
%TO.P,Q2,3,S*%
%TO.N,GND1*%
X156336282Y-45923220D03*
%TD*%
D11*
%TO.P,J1,1,Pin_1*%
%TO.N,/DQ*%
X131801999Y-68325999D03*
D12*
%TO.P,J1,2,Pin_2*%
%TO.N,VS*%
X134341999Y-68325999D03*
%TO.P,J1,3,Pin_3*%
%TO.N,GND1*%
X136881999Y-68325999D03*
%TD*%
D14*
%TO.P,R10,1*%
%TO.N,VS*%
X124918000Y-77216000D03*
%TO.P,R10,2*%
%TO.N,Net-(U2-B)*%
X128018000Y-77216000D03*
%TD*%
D29*
%TO.P,D2,1,K*%
%TO.N,Net-(D2-K)*%
X143892400Y-66294000D03*
%TO.P,D2,2,A*%
%TO.N,Net-(D2-A)*%
X146867400Y-66294000D03*
%TD*%
D11*
%TO.P,J4,1,Pin_1*%
%TO.N,/VCC_OFF_Board  *%
X140928866Y-69849999D03*
D12*
%TO.P,J4,2,Pin_2*%
%TO.N,/Comms_ISO_IN*%
X140928866Y-72389999D03*
%TO.P,J4,3,Pin_3*%
%TO.N,/Comms_ISO_OUT*%
X140928866Y-74929999D03*
%TO.P,J4,4,Pin_4*%
%TO.N,/GND_OFF_Board  *%
X140928866Y-77469999D03*
%TD*%
D30*
%TO.N,GND1*%
X152122000Y-57912000D03*
X129770000Y-78486000D03*
X127800000Y-72738000D03*
X157202000Y-57912000D03*
%TO.N,VS*%
X122310000Y-78238000D03*
%TO.N,V_cell*%
X156135200Y-66497200D03*
X154103200Y-65481200D03*
X155170000Y-43180000D03*
X156186000Y-43180000D03*
X156186000Y-42164000D03*
X141200000Y-51054000D03*
X153087200Y-66497200D03*
X155170000Y-42164000D03*
X152071200Y-66497200D03*
X159183200Y-65481200D03*
X152071200Y-65481200D03*
X155119200Y-65481200D03*
X157202000Y-43180000D03*
X157202000Y-42164000D03*
X151055200Y-66497200D03*
X154103200Y-66497200D03*
X155119200Y-66497200D03*
X157151200Y-66497200D03*
X153087200Y-65481200D03*
X157151200Y-65481200D03*
X149023200Y-66497200D03*
X154154000Y-42164000D03*
X158167200Y-65481200D03*
X150039200Y-65481200D03*
X151055200Y-65481200D03*
X150039200Y-66497200D03*
X156135200Y-65481200D03*
X149023200Y-65481200D03*
X158167200Y-66497200D03*
X159183200Y-66497200D03*
X154154000Y-43180000D03*
%TO.N,Net-(Q2-G)*%
X141867717Y-58204283D03*
%TO.N,RX0*%
X124690000Y-72644000D03*
X124182000Y-67818000D03*
%TO.N,TX0*%
X126520000Y-75758000D03*
X125240000Y-61388000D03*
X125960000Y-67808000D03*
%TO.N,Net-(U3-1Y)*%
X133100000Y-75268000D03*
X129680000Y-68238000D03*
%TD*%
D31*
%TO.N,GND1*%
X127800000Y-73516000D02*
X127798000Y-73518000D01*
X127800000Y-72738000D02*
X127800000Y-73516000D01*
%TO.N,Net-(D1-A)*%
X125706000Y-42799000D02*
X125579000Y-42926000D01*
X125579000Y-42926000D02*
X125579000Y-46583000D01*
%TO.N,Net-(D2-A)*%
X147550000Y-66294000D02*
X147804000Y-66548000D01*
X147804000Y-66548000D02*
X147804000Y-70866000D01*
X148338000Y-71400000D02*
X149328000Y-71400000D01*
X146867400Y-66294000D02*
X147550000Y-66294000D01*
X147804000Y-70866000D02*
X148338000Y-71400000D01*
%TO.N,Net-(D3-A)*%
X153698000Y-48768000D02*
X155714500Y-48768000D01*
%TO.N,VS*%
X125138000Y-74818000D02*
X125138000Y-76996000D01*
X134908000Y-50546000D02*
X134908000Y-47274000D01*
X146830000Y-62182717D02*
X147192283Y-62545000D01*
X128170000Y-66998000D02*
X128170000Y-69391133D01*
X149290000Y-56618000D02*
X148000000Y-56618000D01*
X133630000Y-70038000D02*
X132240000Y-70038000D01*
X131830000Y-70865500D02*
X131567500Y-71128000D01*
X132240000Y-70038000D02*
X131830000Y-70448000D01*
X149959283Y-54797221D02*
X149959283Y-55948717D01*
X131567500Y-71128000D02*
X131567500Y-72100500D01*
X128170000Y-69391133D02*
X128175171Y-69396304D01*
X134908000Y-47274000D02*
X135954000Y-46228000D01*
D32*
X143188000Y-48978000D02*
X138990000Y-48978000D01*
D31*
X131230500Y-72437500D02*
X131230500Y-73025000D01*
X148000000Y-56618000D02*
X146830000Y-57788000D01*
X126903000Y-65731000D02*
X128170000Y-66998000D01*
X122310000Y-78238000D02*
X123332000Y-77216000D01*
D32*
X138104000Y-48092000D02*
X138104000Y-46228000D01*
X143740000Y-50876221D02*
X143740000Y-49530000D01*
X143740000Y-49530000D02*
X143188000Y-48978000D01*
D31*
X125138000Y-76996000D02*
X124918000Y-77216000D01*
X123332000Y-77216000D02*
X124918000Y-77216000D01*
X126903000Y-63988000D02*
X126903000Y-65731000D01*
X135954000Y-46228000D02*
X138104000Y-46228000D01*
D32*
X138990000Y-48978000D02*
X138104000Y-48092000D01*
D31*
X149959283Y-55948717D02*
X149290000Y-56618000D01*
X134342000Y-69326000D02*
X133630000Y-70038000D01*
X134342000Y-68326000D02*
X134342000Y-69326000D01*
X131830000Y-70448000D02*
X131830000Y-70865500D01*
X131567500Y-72100500D02*
X131230500Y-72437500D01*
X146830000Y-57788000D02*
X146830000Y-62182717D01*
%TO.N,/GND_OFF_Board  *%
X139052000Y-77470000D02*
X140928867Y-77470000D01*
X135157000Y-70866000D02*
X135157000Y-75662450D01*
X136329550Y-76835000D02*
X136882000Y-76835000D01*
X136882000Y-76835000D02*
X138417000Y-76835000D01*
X135157000Y-75662450D02*
X136329550Y-76835000D01*
X138417000Y-76835000D02*
X139052000Y-77470000D01*
%TO.N,/Comms_ISO_IN*%
X139898000Y-72390000D02*
X140928867Y-72390000D01*
X136882000Y-74295000D02*
X137993000Y-74295000D01*
X137993000Y-74295000D02*
X139898000Y-72390000D01*
%TO.N,/Comms_ISO_OUT*%
X138723000Y-75565000D02*
X139358000Y-74930000D01*
X139358000Y-74930000D02*
X140928867Y-74930000D01*
X136882000Y-75565000D02*
X138723000Y-75565000D01*
%TO.N,/VCC_OFF_Board  *%
X139668000Y-69850000D02*
X138652000Y-70866000D01*
X136882000Y-70866000D02*
X136882000Y-73025000D01*
X140928867Y-69850000D02*
X139668000Y-69850000D01*
X138652000Y-70866000D02*
X136882000Y-70866000D01*
%TO.N,/Comms_IN*%
X124635171Y-70046304D02*
X123531696Y-70046304D01*
X123260800Y-70317200D02*
X121796571Y-70317200D01*
X127127138Y-71006175D02*
X127467267Y-71346304D01*
X123531696Y-70046304D02*
X123260800Y-70317200D01*
X127127138Y-70329708D02*
X127127138Y-71006175D01*
X124635171Y-70046304D02*
X126843734Y-70046304D01*
X127467267Y-71346304D02*
X128175171Y-71346304D01*
X126843734Y-70046304D02*
X127127138Y-70329708D01*
%TO.N,/Comms_OUT*%
X124170000Y-73518000D02*
X123509200Y-72857200D01*
X123509200Y-72857200D02*
X121796571Y-72857200D01*
X125138000Y-73518000D02*
X124170000Y-73518000D01*
D32*
%TO.N,Net-(J3-Pin_3)*%
X150598000Y-48768000D02*
X151614000Y-48768000D01*
X146280000Y-49638000D02*
X147150000Y-48768000D01*
X147150000Y-48768000D02*
X150598000Y-48768000D01*
X152122000Y-49276000D02*
X152122000Y-51409938D01*
X152122000Y-51409938D02*
X152499283Y-51787221D01*
X146280000Y-50876221D02*
X146280000Y-49638000D01*
X151614000Y-48768000D02*
X152122000Y-49276000D01*
%TO.N,V_cell*%
X155170000Y-42164000D02*
X155170000Y-43180000D01*
X155170000Y-42164000D02*
X154154000Y-42164000D01*
X154154000Y-42164000D02*
X146788000Y-42164000D01*
X154154000Y-43180000D02*
X148772000Y-43180000D01*
D31*
X138358000Y-51054000D02*
X138104000Y-51308000D01*
D32*
X146788000Y-42164000D02*
X143435200Y-45516800D01*
X156186000Y-43180000D02*
X155170000Y-43180000D01*
D31*
X141200000Y-51054000D02*
X138358000Y-51054000D01*
D32*
X148772000Y-43180000D02*
X146435200Y-45516800D01*
X156186000Y-42164000D02*
X156186000Y-43180000D01*
X157202000Y-42164000D02*
X157202000Y-43180000D01*
X154154000Y-42164000D02*
X154154000Y-43180000D01*
X157202000Y-43180000D02*
X156186000Y-43180000D01*
X155170000Y-43180000D02*
X154154000Y-43180000D01*
X157202000Y-42164000D02*
X156186000Y-42164000D01*
X156186000Y-42164000D02*
X155170000Y-42164000D01*
D31*
%TO.N,Net-(Q1-G)*%
X133057221Y-60655221D02*
X130301283Y-60655221D01*
X138230000Y-65828000D02*
X133057221Y-60655221D01*
X130301283Y-58268221D02*
X130301283Y-60655221D01*
X140830000Y-65828000D02*
X138230000Y-65828000D01*
X144502000Y-69500000D02*
X140830000Y-65828000D01*
X144502000Y-70764400D02*
X144502000Y-69500000D01*
%TO.N,Net-(Q2-G)*%
X141832283Y-62179221D02*
X141832283Y-59893221D01*
X141867717Y-58204283D02*
X141867717Y-59857787D01*
X141867717Y-59857787D02*
X141832283Y-59893221D01*
%TO.N,Net-(R1-Pad2)*%
X125579000Y-49683000D02*
X124029000Y-49683000D01*
X124029000Y-49683000D02*
X122404000Y-51308000D01*
%TO.N,Net-(U2-B)*%
X129420000Y-73838000D02*
X129420000Y-73888000D01*
X129410000Y-74458000D02*
X129120000Y-74168000D01*
X129700000Y-74168000D02*
X129920000Y-74168000D01*
X129420000Y-71048000D02*
X129420000Y-73838000D01*
X127798000Y-74168000D02*
X129090000Y-74168000D01*
X129920000Y-74168000D02*
X131103500Y-74168000D01*
X129410000Y-74178000D02*
X129400000Y-74168000D01*
X129420000Y-73838000D02*
X129420000Y-73868000D01*
X129400000Y-74168000D02*
X129920000Y-74168000D01*
X129120000Y-74168000D02*
X129090000Y-74168000D01*
X129410000Y-76758000D02*
X129410000Y-74518000D01*
X128952000Y-77216000D02*
X129410000Y-76758000D01*
X129068304Y-70696304D02*
X129420000Y-71048000D01*
X128018000Y-77216000D02*
X128952000Y-77216000D01*
X129410000Y-74518000D02*
X129410000Y-74458000D01*
X129410000Y-74518000D02*
X129410000Y-74178000D01*
X129420000Y-73888000D02*
X129700000Y-74168000D01*
X129420000Y-73868000D02*
X129120000Y-74168000D01*
X129090000Y-74168000D02*
X129400000Y-74168000D01*
X131103500Y-74168000D02*
X131230500Y-74295000D01*
X129410000Y-74458000D02*
X129700000Y-74168000D01*
X128175171Y-70696304D02*
X129068304Y-70696304D01*
%TO.N,Net-(J2-Pin_2)*%
X155245283Y-60259000D02*
X155245283Y-59023283D01*
X155245283Y-62545000D02*
X155245283Y-60259000D01*
X152499283Y-56277283D02*
X152499283Y-54797221D01*
X155245283Y-59023283D02*
X152499283Y-56277283D01*
%TO.N,Net-(U5-+)*%
X150292283Y-62545000D02*
X152145283Y-62545000D01*
X150109283Y-60574000D02*
X150109283Y-62362000D01*
X150109283Y-62362000D02*
X150292283Y-62545000D01*
%TO.N,Net-(R2-Pad3)*%
X130965000Y-50546000D02*
X130965000Y-53457000D01*
X130965000Y-50546000D02*
X132908000Y-50546000D01*
X138104000Y-56388000D02*
X133896000Y-56388000D01*
X133896000Y-56388000D02*
X130965000Y-53457000D01*
%TO.N,Force_Reset*%
X144750000Y-63322000D02*
X144750000Y-62361504D01*
X138104000Y-61468000D02*
X138104000Y-62746000D01*
X144750000Y-62361504D02*
X144932283Y-62179221D01*
X139000000Y-63642000D02*
X144430000Y-63642000D01*
X138104000Y-62746000D02*
X139000000Y-63642000D01*
X144430000Y-63642000D02*
X144750000Y-63322000D01*
%TO.N,Dumpload_EN*%
X122408000Y-56392000D02*
X130040000Y-56392000D01*
X130040000Y-56392000D02*
X130301283Y-56130717D01*
X122404000Y-56388000D02*
X122408000Y-56392000D01*
X130301283Y-56130717D02*
X130301283Y-55168221D01*
%TO.N,RX0*%
X124182000Y-67818000D02*
X124182000Y-59956000D01*
X123240000Y-71808000D02*
X124076000Y-72644000D01*
X124635171Y-70696304D02*
X123711696Y-70696304D01*
X123240000Y-71168000D02*
X123240000Y-71808000D01*
X123711696Y-70696304D02*
X123240000Y-71168000D01*
X125230000Y-58908000D02*
X126903000Y-58908000D01*
X124182000Y-59956000D02*
X125230000Y-58908000D01*
X124076000Y-72644000D02*
X124690000Y-72644000D01*
%TO.N,Net-(J2-Pin_5)*%
X143234062Y-53152000D02*
X136030000Y-53152000D01*
X135354000Y-53828000D02*
X133608600Y-53828000D01*
X136030000Y-53152000D02*
X135354000Y-53828000D01*
X144879283Y-54797221D02*
X143234062Y-53152000D01*
%TO.N,Net-(J2-Pin_6)*%
X142339283Y-56102717D02*
X139534000Y-58908000D01*
X142339283Y-54797221D02*
X142339283Y-56102717D01*
X139534000Y-58908000D02*
X133608600Y-58908000D01*
%TO.N,TX0*%
X125960000Y-67808000D02*
X125240000Y-67088000D01*
X124635171Y-69132829D02*
X125960000Y-67808000D01*
X124635171Y-69396304D02*
X124635171Y-69132829D01*
X125240000Y-67088000D02*
X125240000Y-61388000D01*
X127798000Y-75290000D02*
X127330000Y-75758000D01*
X127330000Y-75758000D02*
X126520000Y-75758000D01*
X127798000Y-74818000D02*
X127798000Y-75290000D01*
%TO.N,Net-(U3-1Y)*%
X128175171Y-70046304D02*
X129261696Y-70046304D01*
X131230500Y-75565000D02*
X132803000Y-75565000D01*
X129670000Y-69638000D02*
X129670000Y-68248000D01*
X129670000Y-68248000D02*
X129680000Y-68238000D01*
X132803000Y-75565000D02*
X133100000Y-75268000D01*
X129261696Y-70046304D02*
X129670000Y-69638000D01*
%TD*%
%TA.AperFunction,Conductor*%
%TO.N,V_cell*%
G36*
X152395255Y-64018271D02*
G01*
X152436483Y-64047382D01*
X152459671Y-64085535D01*
X152460524Y-64085169D01*
X152512039Y-64205072D01*
X152516991Y-64211391D01*
X152516992Y-64211393D01*
X152590059Y-64304636D01*
X152590064Y-64304642D01*
X152592532Y-64307791D01*
X152595389Y-64310599D01*
X152595393Y-64310603D01*
X152634957Y-64349483D01*
X152634961Y-64349487D01*
X152637816Y-64352292D01*
X152741928Y-64430984D01*
X152862715Y-64480400D01*
X152924089Y-64496654D01*
X153053502Y-64513500D01*
X154333045Y-64513500D01*
X154337064Y-64513500D01*
X154466477Y-64496654D01*
X154527851Y-64480400D01*
X154648638Y-64430984D01*
X154752750Y-64352292D01*
X154798034Y-64307791D01*
X154878527Y-64205072D01*
X154930042Y-64085169D01*
X154930894Y-64085535D01*
X154954083Y-64047382D01*
X154995311Y-64018271D01*
X155044724Y-64008000D01*
X155445842Y-64008000D01*
X155495255Y-64018271D01*
X155536483Y-64047382D01*
X155559671Y-64085535D01*
X155560524Y-64085169D01*
X155612039Y-64205072D01*
X155616991Y-64211391D01*
X155616992Y-64211393D01*
X155690059Y-64304636D01*
X155690064Y-64304642D01*
X155692532Y-64307791D01*
X155695389Y-64310599D01*
X155695393Y-64310603D01*
X155734957Y-64349483D01*
X155734961Y-64349487D01*
X155737816Y-64352292D01*
X155841928Y-64430984D01*
X155962715Y-64480400D01*
X156024089Y-64496654D01*
X156153502Y-64513500D01*
X156157521Y-64513500D01*
X159871500Y-64513500D01*
X159933500Y-64530113D01*
X159978887Y-64575500D01*
X159995500Y-64637500D01*
X159995500Y-68712500D01*
X159978887Y-68774500D01*
X159933500Y-68819887D01*
X159871500Y-68836500D01*
X159520913Y-68836500D01*
X159516674Y-68837089D01*
X159516666Y-68837090D01*
X159387237Y-68855088D01*
X159387233Y-68855088D01*
X159382996Y-68855678D01*
X159378894Y-68856841D01*
X159378881Y-68856844D01*
X159322016Y-68872971D01*
X159322010Y-68872973D01*
X159317899Y-68874139D01*
X159313995Y-68875856D01*
X159313986Y-68875860D01*
X159224198Y-68915367D01*
X159213264Y-68919573D01*
X159156238Y-68938470D01*
X159129848Y-68944121D01*
X159128399Y-68944269D01*
X159127548Y-68944356D01*
X159114935Y-68944999D01*
X157829065Y-68944999D01*
X157816456Y-68944356D01*
X157814157Y-68944121D01*
X157787762Y-68938470D01*
X157730732Y-68919572D01*
X157719797Y-68915365D01*
X157630029Y-68875868D01*
X157630030Y-68875868D01*
X157626102Y-68874140D01*
X157612696Y-68870338D01*
X157565134Y-68856849D01*
X157565124Y-68856847D01*
X157561006Y-68855679D01*
X157556758Y-68855088D01*
X157556757Y-68855088D01*
X157427331Y-68837090D01*
X157427328Y-68837089D01*
X157423087Y-68836500D01*
X157234913Y-68836500D01*
X157230674Y-68837089D01*
X157230666Y-68837090D01*
X157101237Y-68855088D01*
X157101233Y-68855088D01*
X157096996Y-68855678D01*
X157092894Y-68856841D01*
X157092881Y-68856844D01*
X157036016Y-68872971D01*
X157036010Y-68872973D01*
X157031899Y-68874139D01*
X157027995Y-68875856D01*
X157027986Y-68875860D01*
X156938198Y-68915367D01*
X156927264Y-68919573D01*
X156870238Y-68938470D01*
X156843848Y-68944121D01*
X156842399Y-68944269D01*
X156841548Y-68944356D01*
X156828935Y-68944999D01*
X155543065Y-68944999D01*
X155530456Y-68944356D01*
X155528157Y-68944121D01*
X155501762Y-68938470D01*
X155444732Y-68919572D01*
X155433797Y-68915365D01*
X155344029Y-68875868D01*
X155344030Y-68875868D01*
X155340102Y-68874140D01*
X155326696Y-68870338D01*
X155279134Y-68856849D01*
X155279124Y-68856847D01*
X155275006Y-68855679D01*
X155270758Y-68855088D01*
X155270757Y-68855088D01*
X155141331Y-68837090D01*
X155141328Y-68837089D01*
X155137087Y-68836500D01*
X154948913Y-68836500D01*
X154944674Y-68837089D01*
X154944666Y-68837090D01*
X154815237Y-68855088D01*
X154815233Y-68855088D01*
X154810996Y-68855678D01*
X154806894Y-68856841D01*
X154806881Y-68856844D01*
X154750016Y-68872971D01*
X154750010Y-68872973D01*
X154745899Y-68874139D01*
X154741995Y-68875856D01*
X154741986Y-68875860D01*
X154652198Y-68915367D01*
X154641264Y-68919573D01*
X154584238Y-68938470D01*
X154557848Y-68944121D01*
X154556399Y-68944269D01*
X154555548Y-68944356D01*
X154542935Y-68944999D01*
X153257065Y-68944999D01*
X153244456Y-68944356D01*
X153242157Y-68944121D01*
X153215762Y-68938470D01*
X153158732Y-68919572D01*
X153147797Y-68915365D01*
X153058029Y-68875868D01*
X153058030Y-68875868D01*
X153054102Y-68874140D01*
X153040696Y-68870338D01*
X152993134Y-68856849D01*
X152993124Y-68856847D01*
X152989006Y-68855679D01*
X152984758Y-68855088D01*
X152984757Y-68855088D01*
X152855331Y-68837090D01*
X152855328Y-68837089D01*
X152851087Y-68836500D01*
X152662913Y-68836500D01*
X152658674Y-68837089D01*
X152658666Y-68837090D01*
X152529237Y-68855088D01*
X152529233Y-68855088D01*
X152524996Y-68855678D01*
X152520894Y-68856841D01*
X152520881Y-68856844D01*
X152464016Y-68872971D01*
X152464010Y-68872973D01*
X152459899Y-68874139D01*
X152455995Y-68875856D01*
X152455986Y-68875860D01*
X152366198Y-68915367D01*
X152355264Y-68919573D01*
X152298238Y-68938470D01*
X152271848Y-68944121D01*
X152270399Y-68944269D01*
X152269548Y-68944356D01*
X152256935Y-68944999D01*
X150971065Y-68944999D01*
X150958456Y-68944356D01*
X150956157Y-68944121D01*
X150929762Y-68938470D01*
X150872732Y-68919572D01*
X150861797Y-68915365D01*
X150772029Y-68875868D01*
X150772030Y-68875868D01*
X150768102Y-68874140D01*
X150754696Y-68870338D01*
X150707134Y-68856849D01*
X150707124Y-68856847D01*
X150703006Y-68855679D01*
X150698758Y-68855088D01*
X150698757Y-68855088D01*
X150569331Y-68837090D01*
X150569328Y-68837089D01*
X150565087Y-68836500D01*
X150376913Y-68836500D01*
X150372674Y-68837089D01*
X150372666Y-68837090D01*
X150243237Y-68855088D01*
X150243233Y-68855088D01*
X150238996Y-68855678D01*
X150234894Y-68856841D01*
X150234881Y-68856844D01*
X150178016Y-68872971D01*
X150178010Y-68872973D01*
X150173899Y-68874139D01*
X150169995Y-68875856D01*
X150169986Y-68875860D01*
X150080198Y-68915367D01*
X150069264Y-68919573D01*
X150012238Y-68938470D01*
X149985848Y-68944121D01*
X149984399Y-68944269D01*
X149983548Y-68944356D01*
X149970935Y-68944999D01*
X148685057Y-68944999D01*
X148672456Y-68944357D01*
X148621776Y-68939180D01*
X148621774Y-68939179D01*
X148617477Y-68938741D01*
X148613161Y-68938903D01*
X148613155Y-68938903D01*
X148580786Y-68940120D01*
X148558156Y-68940970D01*
X148494209Y-68925965D01*
X148446898Y-68880399D01*
X148429500Y-68817059D01*
X148429500Y-66625771D01*
X148430020Y-66614718D01*
X148431672Y-66607332D01*
X148429561Y-66540144D01*
X148429500Y-66536250D01*
X148429500Y-66512545D01*
X148429500Y-66508650D01*
X148428998Y-66504681D01*
X148428080Y-66493024D01*
X148426954Y-66457173D01*
X148426709Y-66449373D01*
X148421120Y-66430140D01*
X148417174Y-66411083D01*
X148415641Y-66398944D01*
X148414664Y-66391208D01*
X148398582Y-66350591D01*
X148394803Y-66339551D01*
X148384795Y-66305102D01*
X148384793Y-66305099D01*
X148382618Y-66297610D01*
X148378647Y-66290896D01*
X148378645Y-66290891D01*
X148372421Y-66280368D01*
X148363858Y-66262890D01*
X148356486Y-66244268D01*
X148335681Y-66215633D01*
X148318069Y-66181066D01*
X148312000Y-66142748D01*
X148312000Y-65805827D01*
X148327932Y-65745021D01*
X148371636Y-65699840D01*
X148440101Y-65658262D01*
X148440102Y-65658260D01*
X148447647Y-65653679D01*
X148544313Y-65547959D01*
X148583511Y-65490481D01*
X148646640Y-65361884D01*
X148656335Y-65332043D01*
X148666871Y-65308379D01*
X148728443Y-65201734D01*
X148732316Y-65192378D01*
X148741088Y-65178471D01*
X148740987Y-65178420D01*
X148756339Y-65148289D01*
X148786693Y-65075004D01*
X148805210Y-64997872D01*
X148811278Y-64959556D01*
X148817500Y-64880487D01*
X148817500Y-64637500D01*
X148817500Y-64637499D01*
X148834113Y-64575500D01*
X148879500Y-64530113D01*
X148941500Y-64513500D01*
X149380045Y-64513500D01*
X149384064Y-64513500D01*
X149513477Y-64496654D01*
X149574851Y-64480400D01*
X149695638Y-64430984D01*
X149799750Y-64352292D01*
X149845034Y-64307791D01*
X149925527Y-64205072D01*
X149977042Y-64085169D01*
X149977894Y-64085535D01*
X150001083Y-64047382D01*
X150042311Y-64018271D01*
X150091724Y-64008000D01*
X152345842Y-64008000D01*
X152395255Y-64018271D01*
G37*
%TD.AperFunction*%
%TD*%
%TA.AperFunction,Conductor*%
%TO.N,Net-(D2-K)*%
G36*
X147442255Y-64018271D02*
G01*
X147483483Y-64047382D01*
X147506671Y-64085535D01*
X147507524Y-64085169D01*
X147559039Y-64205072D01*
X147563991Y-64211391D01*
X147563992Y-64211393D01*
X147637059Y-64304636D01*
X147637064Y-64304642D01*
X147639532Y-64307791D01*
X147642389Y-64310599D01*
X147642393Y-64310603D01*
X147681957Y-64349483D01*
X147681961Y-64349487D01*
X147684816Y-64352292D01*
X147788928Y-64430984D01*
X147909715Y-64480400D01*
X147971089Y-64496654D01*
X148100502Y-64513500D01*
X148104521Y-64513500D01*
X148188000Y-64513500D01*
X148250000Y-64530113D01*
X148295387Y-64575500D01*
X148312000Y-64637500D01*
X148312000Y-64880487D01*
X148305932Y-64918803D01*
X148290580Y-64948934D01*
X148290667Y-64948984D01*
X148289715Y-64950632D01*
X148289711Y-64950639D01*
X148287421Y-64954605D01*
X148287416Y-64954613D01*
X148199269Y-65107289D01*
X148199266Y-65107294D01*
X148196021Y-65112916D01*
X148194015Y-65119089D01*
X148194014Y-65119092D01*
X148165882Y-65205672D01*
X148126684Y-65263150D01*
X148062703Y-65290472D01*
X147994078Y-65279039D01*
X147942414Y-65232451D01*
X147922611Y-65200345D01*
X147798555Y-65076289D01*
X147792405Y-65072495D01*
X147792403Y-65072494D01*
X147655382Y-64987978D01*
X147655380Y-64987977D01*
X147649234Y-64984186D01*
X147482697Y-64929001D01*
X147475964Y-64928313D01*
X147475959Y-64928312D01*
X147383039Y-64918819D01*
X147383022Y-64918818D01*
X147379908Y-64918500D01*
X146354892Y-64918500D01*
X146351778Y-64918818D01*
X146351760Y-64918819D01*
X146258840Y-64928312D01*
X146258833Y-64928313D01*
X146252103Y-64929001D01*
X146245677Y-64931130D01*
X146245674Y-64931131D01*
X146092421Y-64981914D01*
X146092417Y-64981915D01*
X146085566Y-64984186D01*
X146079422Y-64987975D01*
X146079417Y-64987978D01*
X145942396Y-65072494D01*
X145942390Y-65072498D01*
X145936245Y-65076289D01*
X145931138Y-65081395D01*
X145931134Y-65081399D01*
X145817299Y-65195234D01*
X145817295Y-65195238D01*
X145812189Y-65200345D01*
X145808398Y-65206490D01*
X145808394Y-65206496D01*
X145723878Y-65343517D01*
X145723875Y-65343522D01*
X145720086Y-65349666D01*
X145717815Y-65356517D01*
X145717814Y-65356521D01*
X145667031Y-65509774D01*
X145664901Y-65516203D01*
X145664213Y-65522933D01*
X145664212Y-65522940D01*
X145654719Y-65615860D01*
X145654718Y-65615878D01*
X145654400Y-65618992D01*
X145654400Y-66969008D01*
X145654718Y-66972122D01*
X145654719Y-66972139D01*
X145664212Y-67065059D01*
X145664213Y-67065064D01*
X145664901Y-67071797D01*
X145667030Y-67078224D01*
X145667031Y-67078225D01*
X145711171Y-67211432D01*
X145720086Y-67238334D01*
X145723877Y-67244480D01*
X145723878Y-67244482D01*
X145793053Y-67356632D01*
X145812189Y-67387655D01*
X145936245Y-67511711D01*
X146085566Y-67603814D01*
X146252103Y-67658999D01*
X146354892Y-67669500D01*
X147054500Y-67669500D01*
X147116500Y-67686113D01*
X147161887Y-67731500D01*
X147178500Y-67793500D01*
X147178500Y-70788225D01*
X147177978Y-70799280D01*
X147176327Y-70806667D01*
X147176571Y-70814453D01*
X147176571Y-70814461D01*
X147178439Y-70873873D01*
X147178500Y-70877768D01*
X147178500Y-70905350D01*
X147178988Y-70909219D01*
X147178989Y-70909225D01*
X147179004Y-70909343D01*
X147179918Y-70920966D01*
X147181045Y-70956830D01*
X147181046Y-70956837D01*
X147181291Y-70964627D01*
X147183467Y-70972119D01*
X147183468Y-70972121D01*
X147186879Y-70983862D01*
X147190825Y-71002915D01*
X147190868Y-71003259D01*
X147193336Y-71022792D01*
X147196206Y-71030042D01*
X147196208Y-71030048D01*
X147209414Y-71063404D01*
X147213197Y-71074451D01*
X147225382Y-71116390D01*
X147229353Y-71123105D01*
X147229354Y-71123107D01*
X147235581Y-71133637D01*
X147244136Y-71151099D01*
X147248642Y-71162480D01*
X147248643Y-71162483D01*
X147251514Y-71169732D01*
X147262784Y-71185244D01*
X147277181Y-71205060D01*
X147283593Y-71214822D01*
X147301856Y-71245702D01*
X147301859Y-71245707D01*
X147305830Y-71252420D01*
X147311345Y-71257935D01*
X147319990Y-71266580D01*
X147332626Y-71281374D01*
X147339819Y-71291275D01*
X147339823Y-71291279D01*
X147344406Y-71297587D01*
X147350415Y-71302558D01*
X147350416Y-71302559D01*
X147378058Y-71325426D01*
X147386699Y-71333289D01*
X147840707Y-71787298D01*
X147848159Y-71795487D01*
X147852214Y-71801877D01*
X147901223Y-71847900D01*
X147904020Y-71850611D01*
X147921323Y-71867913D01*
X147921323Y-71867914D01*
X147923529Y-71870120D01*
X147923254Y-71870394D01*
X147949432Y-71904005D01*
X147960005Y-71939632D01*
X147960896Y-71939442D01*
X147962312Y-71946060D01*
X147963001Y-71952797D01*
X147965130Y-71959222D01*
X147965131Y-71959226D01*
X148007747Y-72087832D01*
X148018186Y-72119334D01*
X148021977Y-72125480D01*
X148106497Y-72262511D01*
X148106500Y-72262515D01*
X148110288Y-72268656D01*
X148234344Y-72392712D01*
X148240485Y-72396500D01*
X148240488Y-72396502D01*
X148258880Y-72407846D01*
X148383666Y-72484814D01*
X148550203Y-72539999D01*
X148652991Y-72550500D01*
X150003008Y-72550499D01*
X150105797Y-72539999D01*
X150272334Y-72484814D01*
X150421656Y-72392712D01*
X150545712Y-72268656D01*
X150637814Y-72119334D01*
X150692999Y-71952797D01*
X150703500Y-71850009D01*
X150703499Y-70949992D01*
X150692999Y-70847203D01*
X150637814Y-70680666D01*
X150555218Y-70546756D01*
X150549502Y-70537488D01*
X150549500Y-70537485D01*
X150545712Y-70531344D01*
X150421656Y-70407288D01*
X150415515Y-70403500D01*
X150415511Y-70403497D01*
X150278480Y-70318977D01*
X150272334Y-70315186D01*
X150236259Y-70303232D01*
X150112225Y-70262131D01*
X150112224Y-70262130D01*
X150105797Y-70260001D01*
X150099064Y-70259313D01*
X150099059Y-70259312D01*
X150006140Y-70249819D01*
X150006123Y-70249818D01*
X150003009Y-70249500D01*
X149999860Y-70249500D01*
X148656140Y-70249500D01*
X148656120Y-70249500D01*
X148652992Y-70249501D01*
X148649860Y-70249820D01*
X148649858Y-70249821D01*
X148566101Y-70258377D01*
X148498925Y-70246363D01*
X148448278Y-70200627D01*
X148429500Y-70135019D01*
X148429500Y-69564981D01*
X148448278Y-69499373D01*
X148498926Y-69453636D01*
X148566101Y-69441623D01*
X148652991Y-69450500D01*
X150003008Y-69450499D01*
X150105797Y-69439999D01*
X150272334Y-69384814D01*
X150311816Y-69360461D01*
X150376913Y-69342000D01*
X150565087Y-69342000D01*
X150630183Y-69360461D01*
X150652031Y-69373937D01*
X150669666Y-69384814D01*
X150836203Y-69439999D01*
X150938991Y-69450500D01*
X152289008Y-69450499D01*
X152391797Y-69439999D01*
X152558334Y-69384814D01*
X152597816Y-69360461D01*
X152662913Y-69342000D01*
X152851087Y-69342000D01*
X152916183Y-69360461D01*
X152938031Y-69373937D01*
X152955666Y-69384814D01*
X153122203Y-69439999D01*
X153224991Y-69450500D01*
X154575008Y-69450499D01*
X154677797Y-69439999D01*
X154844334Y-69384814D01*
X154883816Y-69360461D01*
X154948913Y-69342000D01*
X155137087Y-69342000D01*
X155202183Y-69360461D01*
X155224031Y-69373937D01*
X155241666Y-69384814D01*
X155408203Y-69439999D01*
X155510991Y-69450500D01*
X156861008Y-69450499D01*
X156963797Y-69439999D01*
X157130334Y-69384814D01*
X157169816Y-69360461D01*
X157234913Y-69342000D01*
X157423087Y-69342000D01*
X157488183Y-69360461D01*
X157510031Y-69373937D01*
X157527666Y-69384814D01*
X157694203Y-69439999D01*
X157796991Y-69450500D01*
X159147008Y-69450499D01*
X159249797Y-69439999D01*
X159416334Y-69384814D01*
X159455816Y-69360461D01*
X159520913Y-69342000D01*
X159871500Y-69342000D01*
X159933500Y-69358613D01*
X159978887Y-69404000D01*
X159995500Y-69466000D01*
X159995500Y-73792500D01*
X159978887Y-73854500D01*
X159933500Y-73899887D01*
X159871500Y-73916500D01*
X145529189Y-73916500D01*
X145526350Y-73916764D01*
X145526336Y-73916765D01*
X145438703Y-73924926D01*
X145438683Y-73924928D01*
X145435846Y-73925193D01*
X145433040Y-73925720D01*
X145433027Y-73925722D01*
X145393667Y-73933117D01*
X145393649Y-73933121D01*
X145390840Y-73933649D01*
X145388080Y-73934438D01*
X145388073Y-73934440D01*
X145306246Y-73957843D01*
X145306240Y-73957844D01*
X145300713Y-73959426D01*
X145295571Y-73962000D01*
X145295566Y-73962003D01*
X145219471Y-74000111D01*
X145219463Y-74000115D01*
X145216896Y-74001401D01*
X145214462Y-74002917D01*
X145214450Y-74002924D01*
X145193125Y-74016209D01*
X145193121Y-74016211D01*
X145186408Y-74020394D01*
X145186901Y-74021186D01*
X145177102Y-74029025D01*
X145171647Y-74032224D01*
X145169469Y-74033205D01*
X145168528Y-74031763D01*
X145159303Y-74037789D01*
X145159298Y-74037792D01*
X145010606Y-74134937D01*
X144992595Y-74144684D01*
X144867618Y-74199504D01*
X144848249Y-74206153D01*
X144715940Y-74239659D01*
X144695739Y-74243030D01*
X144593815Y-74251476D01*
X144583575Y-74251900D01*
X144420425Y-74251900D01*
X144410185Y-74251476D01*
X144308259Y-74243030D01*
X144288058Y-74239659D01*
X144155749Y-74206153D01*
X144136380Y-74199504D01*
X144011403Y-74144684D01*
X143993392Y-74134937D01*
X143844710Y-74037798D01*
X143844707Y-74037796D01*
X143835472Y-74031763D01*
X143834528Y-74033205D01*
X143832304Y-74032202D01*
X143826884Y-74029022D01*
X143817100Y-74021194D01*
X143817597Y-74020398D01*
X143787110Y-74001405D01*
X143703290Y-73959427D01*
X143697758Y-73957844D01*
X143697756Y-73957844D01*
X143615926Y-73934440D01*
X143615923Y-73934439D01*
X143613160Y-73933649D01*
X143610332Y-73933117D01*
X143610325Y-73933116D01*
X143589781Y-73929256D01*
X143584604Y-73928283D01*
X143532714Y-73905325D01*
X143496483Y-73861654D01*
X143483500Y-73806416D01*
X143483500Y-72341400D01*
X143500113Y-72279400D01*
X143545500Y-72234013D01*
X143607500Y-72217400D01*
X145496115Y-72217399D01*
X145549872Y-72217399D01*
X145609483Y-72210991D01*
X145744331Y-72160696D01*
X145859546Y-72074446D01*
X145945796Y-71959231D01*
X145996091Y-71824383D01*
X146002500Y-71764773D01*
X146002499Y-69764028D01*
X145996091Y-69704417D01*
X145945796Y-69569569D01*
X145859546Y-69454354D01*
X145782105Y-69396382D01*
X145751431Y-69373419D01*
X145751430Y-69373418D01*
X145744331Y-69368104D01*
X145609483Y-69317809D01*
X145601770Y-69316979D01*
X145601767Y-69316979D01*
X145553180Y-69311755D01*
X145553169Y-69311754D01*
X145549873Y-69311400D01*
X145546551Y-69311400D01*
X145187745Y-69311400D01*
X145140910Y-69302215D01*
X145101013Y-69276020D01*
X145082205Y-69248676D01*
X145080621Y-69249613D01*
X145070421Y-69232368D01*
X145061858Y-69214890D01*
X145054486Y-69196268D01*
X145049902Y-69189959D01*
X145049899Y-69189953D01*
X145028817Y-69160937D01*
X145022401Y-69151170D01*
X145004143Y-69120296D01*
X145004140Y-69120292D01*
X145000170Y-69113579D01*
X144986006Y-69099415D01*
X144973368Y-69084618D01*
X144966184Y-69074729D01*
X144966178Y-69074723D01*
X144961594Y-69068413D01*
X144953763Y-69061935D01*
X144927946Y-69040577D01*
X144919305Y-69032714D01*
X143014319Y-67127728D01*
X142987439Y-67087500D01*
X142978000Y-67040047D01*
X142978000Y-67007752D01*
X142986980Y-66961423D01*
X143012127Y-66922564D01*
X143012667Y-66922065D01*
X143050267Y-66878042D01*
X143116288Y-66779236D01*
X143157418Y-66667747D01*
X143170933Y-66611452D01*
X143184900Y-66493447D01*
X143184900Y-65651064D01*
X143185537Y-65638511D01*
X143185774Y-65636187D01*
X143191429Y-65609760D01*
X143201786Y-65578507D01*
X143213948Y-65552424D01*
X143228805Y-65528336D01*
X143246655Y-65505761D01*
X143299123Y-65453295D01*
X143361986Y-65376697D01*
X143388866Y-65336469D01*
X143435581Y-65249074D01*
X143464348Y-65154243D01*
X143473787Y-65106790D01*
X143483500Y-65008172D01*
X143483500Y-64391500D01*
X143483500Y-64391499D01*
X143500113Y-64329500D01*
X143545500Y-64284113D01*
X143607500Y-64267500D01*
X144352225Y-64267500D01*
X144363280Y-64268021D01*
X144370667Y-64269673D01*
X144437872Y-64267561D01*
X144441768Y-64267500D01*
X144465448Y-64267500D01*
X144469350Y-64267500D01*
X144473313Y-64266999D01*
X144484963Y-64266080D01*
X144528627Y-64264709D01*
X144547861Y-64259119D01*
X144566917Y-64255174D01*
X144586792Y-64252664D01*
X144619128Y-64239860D01*
X144667238Y-64231177D01*
X144714970Y-64241767D01*
X144754899Y-64269985D01*
X144826360Y-64345605D01*
X144870155Y-64382301D01*
X144968157Y-64446675D01*
X145078355Y-64486739D01*
X145133954Y-64499902D01*
X145250411Y-64513500D01*
X146280045Y-64513500D01*
X146284064Y-64513500D01*
X146413477Y-64496654D01*
X146474851Y-64480400D01*
X146595638Y-64430984D01*
X146699750Y-64352292D01*
X146745034Y-64307791D01*
X146825527Y-64205072D01*
X146877042Y-64085169D01*
X146877894Y-64085535D01*
X146901083Y-64047382D01*
X146942311Y-64018271D01*
X146991724Y-64008000D01*
X147392842Y-64008000D01*
X147442255Y-64018271D01*
G37*
%TD.AperFunction*%
%TD*%
%TA.AperFunction,Conductor*%
%TO.N,GND1*%
G36*
X126439638Y-70688417D02*
G01*
X126485025Y-70733804D01*
X126501638Y-70795804D01*
X126501638Y-70928400D01*
X126501116Y-70939455D01*
X126499465Y-70946842D01*
X126499709Y-70954628D01*
X126499709Y-70954636D01*
X126501577Y-71014048D01*
X126501638Y-71017943D01*
X126501638Y-71045525D01*
X126502126Y-71049394D01*
X126502127Y-71049400D01*
X126502142Y-71049518D01*
X126503056Y-71061141D01*
X126504183Y-71097005D01*
X126504184Y-71097012D01*
X126504429Y-71104802D01*
X126506605Y-71112294D01*
X126506606Y-71112296D01*
X126510017Y-71124037D01*
X126513963Y-71143090D01*
X126516474Y-71162967D01*
X126519344Y-71170217D01*
X126519346Y-71170223D01*
X126532552Y-71203579D01*
X126536335Y-71214626D01*
X126548520Y-71256565D01*
X126552491Y-71263280D01*
X126552492Y-71263282D01*
X126558719Y-71273812D01*
X126567274Y-71291274D01*
X126571780Y-71302655D01*
X126571781Y-71302658D01*
X126574652Y-71309907D01*
X126588627Y-71329142D01*
X126600319Y-71345235D01*
X126606731Y-71354997D01*
X126624994Y-71385877D01*
X126624997Y-71385882D01*
X126628968Y-71392595D01*
X126634482Y-71398109D01*
X126634483Y-71398110D01*
X126643128Y-71406755D01*
X126655764Y-71421549D01*
X126662957Y-71431450D01*
X126662961Y-71431454D01*
X126667544Y-71437762D01*
X126673554Y-71442734D01*
X126673555Y-71442735D01*
X126701194Y-71465600D01*
X126709834Y-71473462D01*
X126969974Y-71733601D01*
X126977424Y-71741789D01*
X126981481Y-71748181D01*
X126987166Y-71753519D01*
X126987168Y-71753522D01*
X127030491Y-71794205D01*
X127033288Y-71796916D01*
X127043260Y-71806888D01*
X127054383Y-71819644D01*
X127092262Y-71869595D01*
X127113661Y-71897814D01*
X127227670Y-71984269D01*
X127360776Y-72036760D01*
X127444417Y-72046804D01*
X128670500Y-72046804D01*
X128732500Y-72063417D01*
X128777887Y-72108804D01*
X128794500Y-72170804D01*
X128794500Y-73351036D01*
X128782118Y-73405049D01*
X128747445Y-73448275D01*
X128697405Y-73472082D01*
X128655709Y-73471805D01*
X128655483Y-73473909D01*
X128599180Y-73467855D01*
X128599169Y-73467854D01*
X128595873Y-73467500D01*
X128592550Y-73467500D01*
X127003439Y-73467500D01*
X127003420Y-73467500D01*
X127000128Y-73467501D01*
X126996850Y-73467853D01*
X126996838Y-73467854D01*
X126948231Y-73473079D01*
X126948225Y-73473080D01*
X126940517Y-73473909D01*
X126933252Y-73476618D01*
X126933246Y-73476620D01*
X126813980Y-73521104D01*
X126813978Y-73521104D01*
X126805669Y-73524204D01*
X126798572Y-73529516D01*
X126798568Y-73529519D01*
X126697550Y-73605141D01*
X126697546Y-73605144D01*
X126690454Y-73610454D01*
X126685144Y-73617546D01*
X126685140Y-73617551D01*
X126611765Y-73715567D01*
X126564009Y-73754050D01*
X126503652Y-73764939D01*
X126445459Y-73745570D01*
X126403667Y-73700682D01*
X126388499Y-73641257D01*
X126388499Y-73270128D01*
X126382091Y-73210517D01*
X126331796Y-73075669D01*
X126245546Y-72960454D01*
X126226227Y-72945992D01*
X126137431Y-72879519D01*
X126137430Y-72879518D01*
X126130331Y-72874204D01*
X125995483Y-72823909D01*
X125987770Y-72823079D01*
X125987767Y-72823079D01*
X125939180Y-72817855D01*
X125939169Y-72817854D01*
X125935873Y-72817500D01*
X125932551Y-72817500D01*
X125714941Y-72817500D01*
X125649231Y-72798658D01*
X125603491Y-72747859D01*
X125591620Y-72680539D01*
X125594781Y-72650462D01*
X125594781Y-72650460D01*
X125595460Y-72644000D01*
X125575674Y-72455744D01*
X125517179Y-72275716D01*
X125422533Y-72111784D01*
X125361313Y-72043793D01*
X125300220Y-71975942D01*
X125300219Y-71975941D01*
X125295871Y-71971112D01*
X125290613Y-71967292D01*
X125290611Y-71967290D01*
X125147988Y-71863669D01*
X125147987Y-71863668D01*
X125142730Y-71859849D01*
X125136792Y-71857205D01*
X124975745Y-71785501D01*
X124975740Y-71785499D01*
X124969803Y-71782856D01*
X124963444Y-71781504D01*
X124963440Y-71781503D01*
X124791008Y-71744852D01*
X124791005Y-71744851D01*
X124784646Y-71743500D01*
X124595354Y-71743500D01*
X124588995Y-71744851D01*
X124588991Y-71744852D01*
X124416559Y-71781503D01*
X124416552Y-71781505D01*
X124410197Y-71782856D01*
X124404262Y-71785498D01*
X124404254Y-71785501D01*
X124273035Y-71843925D01*
X124224763Y-71854627D01*
X124176148Y-71845617D01*
X124134918Y-71818327D01*
X123925076Y-71608485D01*
X123894826Y-71559122D01*
X123890284Y-71501406D01*
X123912439Y-71447919D01*
X123956462Y-71410319D01*
X124012757Y-71396804D01*
X125362224Y-71396804D01*
X125365925Y-71396804D01*
X125449566Y-71386760D01*
X125582672Y-71334269D01*
X125696681Y-71247814D01*
X125783136Y-71133805D01*
X125835627Y-71000699D01*
X125845671Y-70917058D01*
X125845671Y-70795804D01*
X125862284Y-70733804D01*
X125907671Y-70688417D01*
X125969671Y-70671804D01*
X126377638Y-70671804D01*
X126439638Y-70688417D01*
G37*
%TD.AperFunction*%
%TA.AperFunction,Conductor*%
G36*
X124710567Y-41416015D02*
G01*
X124754590Y-41453615D01*
X124776745Y-41507102D01*
X124772203Y-41564818D01*
X124741953Y-41614181D01*
X124655899Y-41700234D01*
X124655895Y-41700238D01*
X124650789Y-41705345D01*
X124646998Y-41711490D01*
X124646994Y-41711496D01*
X124562478Y-41848517D01*
X124562475Y-41848522D01*
X124558686Y-41854666D01*
X124556415Y-41861517D01*
X124556414Y-41861521D01*
X124505631Y-42014774D01*
X124503501Y-42021203D01*
X124502813Y-42027933D01*
X124502812Y-42027940D01*
X124493319Y-42120860D01*
X124493318Y-42120878D01*
X124493000Y-42123992D01*
X124493000Y-43474008D01*
X124493318Y-43477122D01*
X124493319Y-43477139D01*
X124502812Y-43570059D01*
X124502813Y-43570064D01*
X124503501Y-43576797D01*
X124505630Y-43583224D01*
X124505631Y-43583225D01*
X124542522Y-43694556D01*
X124558686Y-43743334D01*
X124562477Y-43749480D01*
X124562478Y-43749482D01*
X124631827Y-43861914D01*
X124650789Y-43892655D01*
X124774845Y-44016711D01*
X124894600Y-44090577D01*
X124937777Y-44135681D01*
X124953500Y-44196113D01*
X124953500Y-45315465D01*
X124938929Y-45373786D01*
X124898640Y-45418400D01*
X124842102Y-45438823D01*
X124807948Y-45442312D01*
X124801203Y-45443001D01*
X124794781Y-45445128D01*
X124794776Y-45445130D01*
X124641521Y-45495914D01*
X124641517Y-45495915D01*
X124634666Y-45498186D01*
X124628522Y-45501975D01*
X124628519Y-45501977D01*
X124491488Y-45586497D01*
X124491480Y-45586503D01*
X124485344Y-45590288D01*
X124480242Y-45595389D01*
X124480238Y-45595393D01*
X124366393Y-45709238D01*
X124366389Y-45709242D01*
X124361288Y-45714344D01*
X124357503Y-45720480D01*
X124357497Y-45720488D01*
X124272977Y-45857519D01*
X124269186Y-45863666D01*
X124214001Y-46030203D01*
X124213313Y-46036933D01*
X124213312Y-46036940D01*
X124203819Y-46129859D01*
X124203818Y-46129877D01*
X124203500Y-46132991D01*
X124203500Y-46136138D01*
X124203500Y-46136139D01*
X124203500Y-47029858D01*
X124203500Y-47029877D01*
X124203501Y-47033008D01*
X124203820Y-47036140D01*
X124203821Y-47036141D01*
X124213312Y-47129061D01*
X124213313Y-47129069D01*
X124214001Y-47135797D01*
X124216129Y-47142219D01*
X124216130Y-47142223D01*
X124266914Y-47295478D01*
X124269186Y-47302334D01*
X124276460Y-47314127D01*
X124357497Y-47445511D01*
X124357500Y-47445515D01*
X124361288Y-47451656D01*
X124485344Y-47575712D01*
X124491485Y-47579500D01*
X124491488Y-47579502D01*
X124502085Y-47586038D01*
X124634666Y-47667814D01*
X124801203Y-47722999D01*
X124903991Y-47733500D01*
X126254008Y-47733499D01*
X126356797Y-47722999D01*
X126523334Y-47667814D01*
X126672656Y-47575712D01*
X126796712Y-47451656D01*
X126888814Y-47302334D01*
X126943999Y-47135797D01*
X126954500Y-47033009D01*
X126954499Y-46132992D01*
X126943999Y-46030203D01*
X126888814Y-45863666D01*
X126796712Y-45714344D01*
X126672656Y-45590288D01*
X126666515Y-45586500D01*
X126666511Y-45586497D01*
X126550804Y-45515130D01*
X126523334Y-45498186D01*
X126356797Y-45443001D01*
X126350066Y-45442313D01*
X126350060Y-45442312D01*
X126326078Y-45439862D01*
X126315896Y-45438822D01*
X126259360Y-45418400D01*
X126219071Y-45373786D01*
X126204500Y-45315465D01*
X126204500Y-44287909D01*
X126219070Y-44229591D01*
X126259354Y-44184978D01*
X126308204Y-44167328D01*
X126307942Y-44166104D01*
X126314557Y-44164687D01*
X126321297Y-44163999D01*
X126487834Y-44108814D01*
X126637155Y-44016711D01*
X126761211Y-43892655D01*
X126853314Y-43743334D01*
X126908499Y-43576797D01*
X126919000Y-43474008D01*
X126919000Y-42123992D01*
X126908499Y-42021203D01*
X126853314Y-41854666D01*
X126761211Y-41705345D01*
X126670047Y-41614180D01*
X126639797Y-41564818D01*
X126635255Y-41507102D01*
X126657410Y-41453615D01*
X126701433Y-41416015D01*
X126757728Y-41402500D01*
X146187180Y-41402500D01*
X146242832Y-41415690D01*
X146286644Y-41452454D01*
X146309297Y-41504970D01*
X146305970Y-41562067D01*
X146277373Y-41611594D01*
X146258527Y-41631570D01*
X146250848Y-41639709D01*
X146248337Y-41642293D01*
X144273608Y-43617022D01*
X144212285Y-43650507D01*
X144142594Y-43645523D01*
X144004400Y-43593980D01*
X144004395Y-43593978D01*
X144000246Y-43592431D01*
X143995914Y-43591488D01*
X143995912Y-43591488D01*
X143724961Y-43532546D01*
X143724953Y-43532544D01*
X143720628Y-43531604D01*
X143716214Y-43531288D01*
X143716205Y-43531287D01*
X143439618Y-43511506D01*
X143435200Y-43511190D01*
X143430782Y-43511506D01*
X143154194Y-43531287D01*
X143154183Y-43531288D01*
X143149772Y-43531604D01*
X143145448Y-43532544D01*
X143145438Y-43532546D01*
X142874479Y-43591490D01*
X142874476Y-43591490D01*
X142870154Y-43592431D01*
X142866018Y-43593973D01*
X142866010Y-43593976D01*
X142606187Y-43690885D01*
X142606176Y-43690889D01*
X142602039Y-43692433D01*
X142598161Y-43694550D01*
X142598149Y-43694556D01*
X142354779Y-43827447D01*
X142354771Y-43827451D01*
X142350885Y-43829574D01*
X142347335Y-43832231D01*
X142347331Y-43832234D01*
X142125356Y-43998402D01*
X142125349Y-43998407D01*
X142121805Y-44001061D01*
X142118674Y-44004191D01*
X142118667Y-44004198D01*
X141922598Y-44200267D01*
X141922591Y-44200274D01*
X141919461Y-44203405D01*
X141916807Y-44206949D01*
X141916802Y-44206956D01*
X141750634Y-44428931D01*
X141747974Y-44432485D01*
X141745851Y-44436371D01*
X141745847Y-44436379D01*
X141612956Y-44679749D01*
X141612950Y-44679761D01*
X141610833Y-44683639D01*
X141609289Y-44687776D01*
X141609285Y-44687787D01*
X141512376Y-44947610D01*
X141512373Y-44947618D01*
X141510831Y-44951754D01*
X141509890Y-44956076D01*
X141509890Y-44956079D01*
X141450946Y-45227038D01*
X141450944Y-45227048D01*
X141450004Y-45231372D01*
X141449688Y-45235783D01*
X141449687Y-45235794D01*
X141435619Y-45432500D01*
X141429590Y-45516800D01*
X141429906Y-45521218D01*
X141449687Y-45797805D01*
X141449688Y-45797814D01*
X141450004Y-45802228D01*
X141450944Y-45806553D01*
X141450946Y-45806561D01*
X141498198Y-46023774D01*
X141510831Y-46081846D01*
X141512375Y-46085985D01*
X141512376Y-46085989D01*
X141565343Y-46228000D01*
X141610833Y-46349961D01*
X141612953Y-46353843D01*
X141612956Y-46353850D01*
X141745847Y-46597220D01*
X141747974Y-46601115D01*
X141919461Y-46830195D01*
X142121805Y-47032539D01*
X142350885Y-47204026D01*
X142602039Y-47341167D01*
X142870154Y-47441169D01*
X143149772Y-47501996D01*
X143435200Y-47522410D01*
X143720628Y-47501996D01*
X144000246Y-47441169D01*
X144268361Y-47341167D01*
X144519515Y-47204026D01*
X144748595Y-47032539D01*
X144847519Y-46933615D01*
X144903106Y-46901521D01*
X144967294Y-46901521D01*
X145022881Y-46933615D01*
X145121805Y-47032539D01*
X145350885Y-47204026D01*
X145602039Y-47341167D01*
X145870154Y-47441169D01*
X146149772Y-47501996D01*
X146435200Y-47522410D01*
X146720628Y-47501996D01*
X147000246Y-47441169D01*
X147268361Y-47341167D01*
X147519515Y-47204026D01*
X147748595Y-47032539D01*
X147950939Y-46830195D01*
X148122426Y-46601115D01*
X148259567Y-46349961D01*
X148359569Y-46081846D01*
X148420396Y-45802228D01*
X148440810Y-45516800D01*
X148420396Y-45231372D01*
X148359569Y-44951754D01*
X148306474Y-44809404D01*
X148298691Y-44763121D01*
X148308668Y-44717259D01*
X148334972Y-44678393D01*
X149046547Y-43966819D01*
X149086776Y-43939939D01*
X149134229Y-43930500D01*
X153614664Y-43930500D01*
X153652982Y-43936569D01*
X153687545Y-43954179D01*
X153701270Y-43964151D01*
X153874197Y-44041144D01*
X154059354Y-44080500D01*
X154242143Y-44080500D01*
X154248646Y-44080500D01*
X154433803Y-44041144D01*
X154606730Y-43964151D01*
X154607246Y-43965310D01*
X154662000Y-43950639D01*
X154716753Y-43965310D01*
X154717270Y-43964151D01*
X154890197Y-44041144D01*
X155075354Y-44080500D01*
X155258143Y-44080500D01*
X155264646Y-44080500D01*
X155449803Y-44041144D01*
X155622730Y-43964151D01*
X155623246Y-43965310D01*
X155678000Y-43950639D01*
X155732753Y-43965310D01*
X155733270Y-43964151D01*
X155906197Y-44041144D01*
X156091354Y-44080500D01*
X156274143Y-44080500D01*
X156280646Y-44080500D01*
X156465803Y-44041144D01*
X156638730Y-43964151D01*
X156639246Y-43965310D01*
X156694000Y-43950639D01*
X156748753Y-43965310D01*
X156749270Y-43964151D01*
X156922197Y-44041144D01*
X157107354Y-44080500D01*
X157290143Y-44080500D01*
X157296646Y-44080500D01*
X157481803Y-44041144D01*
X157654730Y-43964151D01*
X157807871Y-43852888D01*
X157934533Y-43712216D01*
X158029179Y-43548284D01*
X158087674Y-43368256D01*
X158107460Y-43180000D01*
X158087674Y-42991744D01*
X158029179Y-42811716D01*
X157984308Y-42733998D01*
X157967696Y-42671998D01*
X157984309Y-42610000D01*
X158029179Y-42532284D01*
X158087674Y-42352256D01*
X158107460Y-42164000D01*
X158087674Y-41975744D01*
X158029179Y-41795716D01*
X157998081Y-41741852D01*
X157981591Y-41685348D01*
X157993016Y-41627602D01*
X158029784Y-41581632D01*
X158083608Y-41557797D01*
X158142352Y-41561468D01*
X158165009Y-41568528D01*
X158175523Y-41572336D01*
X158315052Y-41630131D01*
X158318434Y-41631592D01*
X158461742Y-41696090D01*
X158470818Y-41700630D01*
X158604091Y-41774287D01*
X158608113Y-41776613D01*
X158714899Y-41841168D01*
X158741663Y-41857348D01*
X158749267Y-41862335D01*
X158873845Y-41950728D01*
X158878563Y-41954246D01*
X159000889Y-42050082D01*
X159007043Y-42055233D01*
X159121197Y-42157247D01*
X159126251Y-42162026D01*
X159235972Y-42271747D01*
X159240751Y-42276801D01*
X159342765Y-42390955D01*
X159347916Y-42397109D01*
X159443752Y-42519435D01*
X159447270Y-42524153D01*
X159535663Y-42648731D01*
X159540650Y-42656335D01*
X159621357Y-42789838D01*
X159623731Y-42793941D01*
X159686824Y-42908101D01*
X159697362Y-42927168D01*
X159701908Y-42936256D01*
X159766388Y-43079523D01*
X159767874Y-43082962D01*
X159825657Y-43222461D01*
X159829481Y-43233024D01*
X159876931Y-43385297D01*
X159877700Y-43387859D01*
X159918839Y-43530654D01*
X159921654Y-43542630D01*
X159951477Y-43705368D01*
X159951756Y-43706949D01*
X159975656Y-43847612D01*
X159977182Y-43860896D01*
X159988998Y-44056249D01*
X159989029Y-44056783D01*
X159995305Y-44168528D01*
X159995500Y-44175481D01*
X159995500Y-63884000D01*
X159978887Y-63946000D01*
X159933500Y-63991387D01*
X159871500Y-64008000D01*
X156153502Y-64008000D01*
X156092128Y-63991746D01*
X156046844Y-63947245D01*
X156029521Y-63886164D01*
X156044701Y-63824516D01*
X156088405Y-63778462D01*
X156107791Y-63766504D01*
X156107790Y-63766504D01*
X156113939Y-63762712D01*
X156237995Y-63638656D01*
X156330097Y-63489334D01*
X156385282Y-63322797D01*
X156395783Y-63220009D01*
X156395782Y-61869992D01*
X156385282Y-61767203D01*
X156330097Y-61600666D01*
X156247708Y-61467092D01*
X156229249Y-61402000D01*
X156247708Y-61336907D01*
X156330097Y-61203334D01*
X156385282Y-61036797D01*
X156395783Y-60934009D01*
X156395782Y-59583992D01*
X156385282Y-59481203D01*
X156330097Y-59314666D01*
X156237995Y-59165344D01*
X156113939Y-59041288D01*
X156107798Y-59037500D01*
X156107794Y-59037497D01*
X155970762Y-58952976D01*
X155970760Y-58952975D01*
X155964617Y-58949186D01*
X155957765Y-58946915D01*
X155957760Y-58946913D01*
X155932189Y-58938439D01*
X155886049Y-58910878D01*
X155855904Y-58866383D01*
X155839861Y-58825864D01*
X155836082Y-58814823D01*
X155831649Y-58799565D01*
X155823900Y-58772893D01*
X155819927Y-58766175D01*
X155813705Y-58755653D01*
X155805143Y-58738175D01*
X155800643Y-58726810D01*
X155800642Y-58726809D01*
X155797769Y-58719551D01*
X155772095Y-58684214D01*
X155765692Y-58674467D01*
X155743453Y-58636862D01*
X155729289Y-58622697D01*
X155716651Y-58607901D01*
X155709467Y-58598012D01*
X155709461Y-58598006D01*
X155704877Y-58591696D01*
X155671229Y-58563860D01*
X155662588Y-58555997D01*
X153223223Y-56116632D01*
X153194382Y-56071362D01*
X153187376Y-56018144D01*
X153203517Y-55966951D01*
X153239781Y-55927376D01*
X153366244Y-55838825D01*
X153366244Y-55838824D01*
X153370684Y-55835716D01*
X153492612Y-55713787D01*
X153545355Y-55682494D01*
X153606648Y-55680305D01*
X153661493Y-55707758D01*
X153696472Y-55758137D01*
X153704932Y-55780819D01*
X153745487Y-55889552D01*
X153750801Y-55896651D01*
X153750802Y-55896652D01*
X153812436Y-55978985D01*
X153831737Y-56004767D01*
X153946952Y-56091017D01*
X154081800Y-56141312D01*
X154141410Y-56147721D01*
X155937155Y-56147720D01*
X155996766Y-56141312D01*
X156131614Y-56091017D01*
X156246829Y-56004767D01*
X156333079Y-55889552D01*
X156383374Y-55754704D01*
X156389783Y-55695094D01*
X156389782Y-53899349D01*
X156383374Y-53839738D01*
X156333079Y-53704890D01*
X156246829Y-53589675D01*
X156239559Y-53584233D01*
X156138714Y-53508740D01*
X156138713Y-53508739D01*
X156131614Y-53503425D01*
X156024725Y-53463558D01*
X156004035Y-53455841D01*
X156004033Y-53455840D01*
X155996766Y-53453130D01*
X155989053Y-53452300D01*
X155989050Y-53452300D01*
X155940463Y-53447076D01*
X155940452Y-53447075D01*
X155937156Y-53446721D01*
X155933833Y-53446721D01*
X154144722Y-53446721D01*
X154144703Y-53446721D01*
X154141411Y-53446722D01*
X154138133Y-53447074D01*
X154138121Y-53447075D01*
X154089514Y-53452300D01*
X154089508Y-53452301D01*
X154081800Y-53453130D01*
X154074535Y-53455839D01*
X154074529Y-53455841D01*
X153955263Y-53500325D01*
X153955261Y-53500325D01*
X153946952Y-53503425D01*
X153939855Y-53508737D01*
X153939851Y-53508740D01*
X153838833Y-53584362D01*
X153838829Y-53584365D01*
X153831737Y-53589675D01*
X153826427Y-53596767D01*
X153826424Y-53596771D01*
X153750802Y-53697789D01*
X153750799Y-53697793D01*
X153745487Y-53704890D01*
X153742387Y-53713199D01*
X153742388Y-53713199D01*
X153696472Y-53836304D01*
X153661493Y-53886683D01*
X153606648Y-53914136D01*
X153545355Y-53911947D01*
X153492609Y-53880651D01*
X153374515Y-53762557D01*
X153374513Y-53762555D01*
X153370684Y-53758726D01*
X153366253Y-53755623D01*
X153366249Y-53755620D01*
X153181542Y-53626287D01*
X153181540Y-53626285D01*
X153177113Y-53623186D01*
X153172216Y-53620902D01*
X153172210Y-53620899D01*
X152967855Y-53525607D01*
X152967853Y-53525606D01*
X152962946Y-53523318D01*
X152957721Y-53521918D01*
X152957713Y-53521915D01*
X152739917Y-53463558D01*
X152739913Y-53463557D01*
X152734691Y-53462158D01*
X152729303Y-53461686D01*
X152729300Y-53461686D01*
X152504678Y-53442034D01*
X152499283Y-53441562D01*
X152493888Y-53442034D01*
X152269265Y-53461686D01*
X152269260Y-53461686D01*
X152263875Y-53462158D01*
X152258654Y-53463556D01*
X152258648Y-53463558D01*
X152040852Y-53521915D01*
X152040840Y-53521919D01*
X152035620Y-53523318D01*
X152030715Y-53525604D01*
X152030710Y-53525607D01*
X151826364Y-53620896D01*
X151826360Y-53620898D01*
X151821454Y-53623186D01*
X151817021Y-53626289D01*
X151817014Y-53626294D01*
X151632317Y-53755620D01*
X151632312Y-53755623D01*
X151627882Y-53758726D01*
X151624058Y-53762549D01*
X151624052Y-53762555D01*
X151464617Y-53921990D01*
X151464611Y-53921996D01*
X151460788Y-53925820D01*
X151457685Y-53930250D01*
X151457682Y-53930255D01*
X151330858Y-54111380D01*
X151286540Y-54150246D01*
X151229283Y-54164257D01*
X151172026Y-54150246D01*
X151127708Y-54111380D01*
X151062128Y-54017722D01*
X150997778Y-53925820D01*
X150830684Y-53758726D01*
X150826253Y-53755623D01*
X150826249Y-53755620D01*
X150641542Y-53626287D01*
X150641540Y-53626285D01*
X150637113Y-53623186D01*
X150632216Y-53620902D01*
X150632210Y-53620899D01*
X150427855Y-53525607D01*
X150427853Y-53525606D01*
X150422946Y-53523318D01*
X150417721Y-53521918D01*
X150417713Y-53521915D01*
X150199917Y-53463558D01*
X150199913Y-53463557D01*
X150194691Y-53462158D01*
X150189303Y-53461686D01*
X150189300Y-53461686D01*
X149964678Y-53442034D01*
X149959283Y-53441562D01*
X149953888Y-53442034D01*
X149729265Y-53461686D01*
X149729260Y-53461686D01*
X149723875Y-53462158D01*
X149718654Y-53463556D01*
X149718648Y-53463558D01*
X149500852Y-53521915D01*
X149500840Y-53521919D01*
X149495620Y-53523318D01*
X149490715Y-53525604D01*
X149490710Y-53525607D01*
X149286364Y-53620896D01*
X149286360Y-53620898D01*
X149281454Y-53623186D01*
X149277021Y-53626289D01*
X149277014Y-53626294D01*
X149092317Y-53755620D01*
X149092312Y-53755623D01*
X149087882Y-53758726D01*
X149084058Y-53762549D01*
X149084052Y-53762555D01*
X148924617Y-53921990D01*
X148924611Y-53921996D01*
X148920788Y-53925820D01*
X148917685Y-53930250D01*
X148917682Y-53930255D01*
X148788356Y-54114952D01*
X148788351Y-54114959D01*
X148785248Y-54119392D01*
X148782960Y-54124298D01*
X148782958Y-54124302D01*
X148687669Y-54328648D01*
X148687666Y-54328653D01*
X148685380Y-54333558D01*
X148683981Y-54338778D01*
X148683977Y-54338790D01*
X148625620Y-54556586D01*
X148625618Y-54556592D01*
X148624220Y-54561813D01*
X148623748Y-54567198D01*
X148623748Y-54567203D01*
X148610261Y-54721360D01*
X148603624Y-54797221D01*
X148604096Y-54802616D01*
X148609349Y-54862663D01*
X148624220Y-55032629D01*
X148625619Y-55037851D01*
X148625620Y-55037855D01*
X148683977Y-55255651D01*
X148683980Y-55255659D01*
X148685380Y-55260884D01*
X148687668Y-55265791D01*
X148687669Y-55265793D01*
X148782961Y-55470148D01*
X148782964Y-55470154D01*
X148785248Y-55475051D01*
X148788347Y-55479478D01*
X148788349Y-55479480D01*
X148917682Y-55664187D01*
X148917685Y-55664191D01*
X148920788Y-55668622D01*
X148924619Y-55672453D01*
X149032985Y-55780819D01*
X149063235Y-55830182D01*
X149067777Y-55887898D01*
X149045622Y-55941385D01*
X149001599Y-55978985D01*
X148945304Y-55992500D01*
X148077775Y-55992500D01*
X148066719Y-55991978D01*
X148059333Y-55990327D01*
X148051545Y-55990571D01*
X148051538Y-55990571D01*
X147992127Y-55992439D01*
X147988232Y-55992500D01*
X147960650Y-55992500D01*
X147956805Y-55992985D01*
X147956780Y-55992987D01*
X147956653Y-55993004D01*
X147945034Y-55993918D01*
X147909172Y-55995045D01*
X147909165Y-55995046D01*
X147901373Y-55995291D01*
X147893888Y-55997465D01*
X147893872Y-55997468D01*
X147882126Y-56000881D01*
X147863083Y-56004825D01*
X147850949Y-56006358D01*
X147850948Y-56006358D01*
X147843208Y-56007336D01*
X147835958Y-56010205D01*
X147835951Y-56010208D01*
X147802598Y-56023413D01*
X147791554Y-56027194D01*
X147757101Y-56037204D01*
X147757090Y-56037208D01*
X147749610Y-56039382D01*
X147742898Y-56043351D01*
X147742896Y-56043352D01*
X147732364Y-56049580D01*
X147714904Y-56058134D01*
X147703519Y-56062642D01*
X147703513Y-56062644D01*
X147696268Y-56065514D01*
X147689963Y-56070094D01*
X147689955Y-56070099D01*
X147660932Y-56091185D01*
X147651174Y-56097595D01*
X147620296Y-56115857D01*
X147620290Y-56115861D01*
X147613580Y-56119830D01*
X147608067Y-56125341D01*
X147608060Y-56125348D01*
X147599410Y-56133998D01*
X147584627Y-56146624D01*
X147574726Y-56153817D01*
X147574716Y-56153826D01*
X147568413Y-56158406D01*
X147563444Y-56164411D01*
X147563441Y-56164415D01*
X147540572Y-56192059D01*
X147532711Y-56200697D01*
X146442696Y-57290711D01*
X146434511Y-57298159D01*
X146428123Y-57302214D01*
X146422788Y-57307894D01*
X146422783Y-57307899D01*
X146382096Y-57351225D01*
X146379392Y-57354016D01*
X146362628Y-57370780D01*
X146362621Y-57370787D01*
X146359880Y-57373529D01*
X146357500Y-57376596D01*
X146357489Y-57376609D01*
X146357400Y-57376725D01*
X146349842Y-57385570D01*
X146325280Y-57411727D01*
X146325273Y-57411736D01*
X146319938Y-57417418D01*
X146316182Y-57424249D01*
X146316179Y-57424254D01*
X146310285Y-57434975D01*
X146299609Y-57451227D01*
X146292109Y-57460896D01*
X146292101Y-57460907D01*
X146287327Y-57467064D01*
X146284234Y-57474208D01*
X146284229Y-57474219D01*
X146269974Y-57507160D01*
X146264838Y-57517643D01*
X146247560Y-57549073D01*
X146243803Y-57555908D01*
X146241864Y-57563456D01*
X146241863Y-57563461D01*
X146238822Y-57575307D01*
X146232521Y-57593711D01*
X146227658Y-57604948D01*
X146227656Y-57604952D01*
X146224562Y-57612104D01*
X146223342Y-57619803D01*
X146223342Y-57619805D01*
X146217729Y-57655241D01*
X146215361Y-57666676D01*
X146206438Y-57701428D01*
X146206436Y-57701436D01*
X146204500Y-57708981D01*
X146204500Y-57716777D01*
X146204500Y-57729017D01*
X146202974Y-57748402D01*
X146199840Y-57768196D01*
X146200574Y-57775961D01*
X146200574Y-57775964D01*
X146203950Y-57811676D01*
X146204500Y-57823345D01*
X146204500Y-61101477D01*
X146188246Y-61162851D01*
X146143745Y-61208136D01*
X146082664Y-61225458D01*
X146021015Y-61210278D01*
X145974961Y-61166574D01*
X145954481Y-61133370D01*
X145924995Y-61085565D01*
X145800939Y-60961509D01*
X145794798Y-60957721D01*
X145794794Y-60957718D01*
X145657763Y-60873198D01*
X145651617Y-60869407D01*
X145574029Y-60843697D01*
X145491508Y-60816352D01*
X145491507Y-60816351D01*
X145485080Y-60814222D01*
X145478347Y-60813534D01*
X145478342Y-60813533D01*
X145385423Y-60804040D01*
X145385406Y-60804039D01*
X145382292Y-60803721D01*
X145379143Y-60803721D01*
X144485424Y-60803721D01*
X144485404Y-60803721D01*
X144482275Y-60803722D01*
X144479143Y-60804041D01*
X144479141Y-60804042D01*
X144386221Y-60813533D01*
X144386211Y-60813534D01*
X144379486Y-60814222D01*
X144373064Y-60816349D01*
X144373059Y-60816351D01*
X144219804Y-60867135D01*
X144219800Y-60867136D01*
X144212949Y-60869407D01*
X144206805Y-60873196D01*
X144206802Y-60873198D01*
X144069771Y-60957718D01*
X144069763Y-60957724D01*
X144063627Y-60961509D01*
X144058525Y-60966610D01*
X144058521Y-60966614D01*
X143944676Y-61080459D01*
X143944672Y-61080463D01*
X143939571Y-61085565D01*
X143935786Y-61091701D01*
X143935780Y-61091709D01*
X143851260Y-61228740D01*
X143847469Y-61234887D01*
X143845198Y-61241738D01*
X143845197Y-61241742D01*
X143794414Y-61394995D01*
X143792284Y-61401424D01*
X143791596Y-61408154D01*
X143791595Y-61408161D01*
X143782102Y-61501080D01*
X143782101Y-61501098D01*
X143781783Y-61504212D01*
X143781783Y-61507359D01*
X143781783Y-61507360D01*
X143781783Y-62851080D01*
X143781783Y-62851099D01*
X143781784Y-62854229D01*
X143782103Y-62857359D01*
X143782104Y-62857364D01*
X143784406Y-62879900D01*
X143772392Y-62947076D01*
X143726655Y-62997722D01*
X143661048Y-63016500D01*
X143103519Y-63016500D01*
X143037911Y-62997722D01*
X142992175Y-62947075D01*
X142980161Y-62879899D01*
X142981799Y-62863862D01*
X142982783Y-62854230D01*
X142982782Y-61504213D01*
X142972282Y-61401424D01*
X142917097Y-61234887D01*
X142834708Y-61101313D01*
X142816249Y-61036221D01*
X142834708Y-60971128D01*
X142917097Y-60837555D01*
X142972282Y-60671018D01*
X142982783Y-60568230D01*
X142982782Y-59218213D01*
X142972282Y-59115424D01*
X142917097Y-58948887D01*
X142842191Y-58827444D01*
X142828785Y-58805709D01*
X142828783Y-58805706D01*
X142824995Y-58799565D01*
X142724790Y-58699360D01*
X142697484Y-58658089D01*
X142688492Y-58609425D01*
X142696577Y-58573113D01*
X142694896Y-58572567D01*
X142733286Y-58454415D01*
X142753391Y-58392539D01*
X142773177Y-58204283D01*
X142753391Y-58016027D01*
X142694896Y-57835999D01*
X142600250Y-57672067D01*
X142590301Y-57661018D01*
X142477937Y-57536225D01*
X142477936Y-57536224D01*
X142473588Y-57531395D01*
X142468330Y-57527575D01*
X142468328Y-57527573D01*
X142325705Y-57423952D01*
X142325704Y-57423951D01*
X142320447Y-57420132D01*
X142198812Y-57365976D01*
X142151873Y-57329466D01*
X142127328Y-57275296D01*
X142130830Y-57215928D01*
X142161569Y-57165020D01*
X142726594Y-56599995D01*
X142734764Y-56592561D01*
X142741160Y-56588503D01*
X142787201Y-56539473D01*
X142789818Y-56536771D01*
X142809403Y-56517188D01*
X142811868Y-56514009D01*
X142819450Y-56505133D01*
X142849345Y-56473299D01*
X142858996Y-56455740D01*
X142869673Y-56439487D01*
X142881956Y-56423653D01*
X142899301Y-56383569D01*
X142904434Y-56373088D01*
X142925480Y-56334809D01*
X142930462Y-56315401D01*
X142936765Y-56296993D01*
X142944720Y-56278613D01*
X142951554Y-56235461D01*
X142953916Y-56224055D01*
X142964783Y-56181736D01*
X142964783Y-56161700D01*
X142966310Y-56142302D01*
X142968222Y-56130230D01*
X142968221Y-56130230D01*
X142969443Y-56122521D01*
X142965783Y-56083802D01*
X142976669Y-56020121D01*
X143018110Y-55970558D01*
X143206244Y-55838825D01*
X143206244Y-55838824D01*
X143210684Y-55835716D01*
X143377778Y-55668622D01*
X143404892Y-55629900D01*
X143507708Y-55483063D01*
X143552026Y-55444197D01*
X143609283Y-55430186D01*
X143666540Y-55444197D01*
X143710858Y-55483063D01*
X143837678Y-55664182D01*
X143837684Y-55664189D01*
X143840788Y-55668622D01*
X144007882Y-55835716D01*
X144012314Y-55838819D01*
X144012316Y-55838821D01*
X144127434Y-55919427D01*
X144201453Y-55971256D01*
X144206353Y-55973541D01*
X144206355Y-55973542D01*
X144252996Y-55995291D01*
X144415620Y-56071124D01*
X144420850Y-56072525D01*
X144420852Y-56072526D01*
X144454296Y-56081487D01*
X144643875Y-56132284D01*
X144879283Y-56152880D01*
X145114691Y-56132284D01*
X145342946Y-56071124D01*
X145557113Y-55971256D01*
X145750684Y-55835716D01*
X145917778Y-55668622D01*
X146053318Y-55475051D01*
X146153186Y-55260884D01*
X146214346Y-55032629D01*
X146234942Y-54797221D01*
X146214346Y-54561813D01*
X146153186Y-54333558D01*
X146053318Y-54119392D01*
X145917778Y-53925820D01*
X145750684Y-53758726D01*
X145746253Y-53755623D01*
X145746249Y-53755620D01*
X145561542Y-53626287D01*
X145561540Y-53626285D01*
X145557113Y-53623186D01*
X145552216Y-53620902D01*
X145552210Y-53620899D01*
X145347855Y-53525607D01*
X145347853Y-53525606D01*
X145342946Y-53523318D01*
X145337721Y-53521918D01*
X145337713Y-53521915D01*
X145119917Y-53463558D01*
X145119913Y-53463557D01*
X145114691Y-53462158D01*
X145109303Y-53461686D01*
X145109300Y-53461686D01*
X144884678Y-53442034D01*
X144879283Y-53441562D01*
X144873888Y-53442034D01*
X144649265Y-53461686D01*
X144649260Y-53461686D01*
X144643875Y-53462158D01*
X144638653Y-53463556D01*
X144638648Y-53463558D01*
X144543409Y-53489077D01*
X144479222Y-53489077D01*
X144423635Y-53456983D01*
X144098793Y-53132141D01*
X143731348Y-52764695D01*
X143723904Y-52756514D01*
X143719848Y-52750123D01*
X143670837Y-52704098D01*
X143668040Y-52701387D01*
X143651289Y-52684636D01*
X143651289Y-52684635D01*
X143648533Y-52681880D01*
X143645352Y-52679412D01*
X143636476Y-52671830D01*
X143610331Y-52647278D01*
X143610329Y-52647276D01*
X143604644Y-52641938D01*
X143597811Y-52638182D01*
X143597805Y-52638177D01*
X143587087Y-52632285D01*
X143570828Y-52621606D01*
X143561157Y-52614104D01*
X143561154Y-52614102D01*
X143554998Y-52609327D01*
X143547841Y-52606229D01*
X143547838Y-52606228D01*
X143514911Y-52591978D01*
X143504425Y-52586841D01*
X143472994Y-52569562D01*
X143472985Y-52569558D01*
X143466154Y-52565803D01*
X143458597Y-52563862D01*
X143458593Y-52563861D01*
X143446750Y-52560820D01*
X143428346Y-52554519D01*
X143417119Y-52549660D01*
X143417112Y-52549658D01*
X143409958Y-52546562D01*
X143402254Y-52545341D01*
X143402252Y-52545341D01*
X143366821Y-52539729D01*
X143355386Y-52537361D01*
X143320633Y-52528438D01*
X143320625Y-52528437D01*
X143313081Y-52526500D01*
X143305285Y-52526500D01*
X143293045Y-52526500D01*
X143273659Y-52524974D01*
X143253866Y-52521840D01*
X143246100Y-52522574D01*
X143246097Y-52522574D01*
X143210386Y-52525950D01*
X143198717Y-52526500D01*
X139094758Y-52526500D01*
X139038463Y-52512985D01*
X138994440Y-52475385D01*
X138972285Y-52421898D01*
X138976827Y-52364182D01*
X139007077Y-52314819D01*
X139071012Y-52250884D01*
X139142495Y-52179401D01*
X139278035Y-51985830D01*
X139377903Y-51771663D01*
X139379303Y-51766435D01*
X139381157Y-51761344D01*
X139382874Y-51761969D01*
X139402784Y-51723763D01*
X139445361Y-51691109D01*
X139497747Y-51679500D01*
X140496252Y-51679500D01*
X140546685Y-51690219D01*
X140584781Y-51717895D01*
X140584950Y-51717709D01*
X140586728Y-51719310D01*
X140588398Y-51720523D01*
X140594129Y-51726888D01*
X140599387Y-51730708D01*
X140599388Y-51730709D01*
X140620682Y-51746180D01*
X140747270Y-51838151D01*
X140920197Y-51915144D01*
X141105354Y-51954500D01*
X141288143Y-51954500D01*
X141294646Y-51954500D01*
X141479803Y-51915144D01*
X141652730Y-51838151D01*
X141805871Y-51726888D01*
X141932533Y-51586216D01*
X142027179Y-51422284D01*
X142085674Y-51242256D01*
X142105460Y-51054000D01*
X142085674Y-50865744D01*
X142027179Y-50685716D01*
X141932533Y-50521784D01*
X141926968Y-50515604D01*
X141810220Y-50385942D01*
X141810219Y-50385941D01*
X141805871Y-50381112D01*
X141800613Y-50377292D01*
X141800611Y-50377290D01*
X141657988Y-50273669D01*
X141657987Y-50273668D01*
X141652730Y-50269849D01*
X141646792Y-50267205D01*
X141485745Y-50195501D01*
X141485740Y-50195499D01*
X141479803Y-50192856D01*
X141473444Y-50191504D01*
X141473440Y-50191503D01*
X141301008Y-50154852D01*
X141301005Y-50154851D01*
X141294646Y-50153500D01*
X141105354Y-50153500D01*
X141098995Y-50154851D01*
X141098991Y-50154852D01*
X140926559Y-50191503D01*
X140926552Y-50191505D01*
X140920197Y-50192856D01*
X140914262Y-50195498D01*
X140914254Y-50195501D01*
X140753207Y-50267205D01*
X140753202Y-50267207D01*
X140747270Y-50269849D01*
X140742016Y-50273665D01*
X140742011Y-50273669D01*
X140599388Y-50377290D01*
X140599381Y-50377295D01*
X140594129Y-50381112D01*
X140589780Y-50385941D01*
X140589781Y-50385941D01*
X140588399Y-50387476D01*
X140586728Y-50388689D01*
X140584950Y-50390291D01*
X140584781Y-50390104D01*
X140546685Y-50417781D01*
X140496252Y-50428500D01*
X139185758Y-50428500D01*
X139138305Y-50419061D01*
X139098077Y-50392181D01*
X138979232Y-50273336D01*
X138979230Y-50273334D01*
X138975401Y-50269505D01*
X138970970Y-50266402D01*
X138970966Y-50266399D01*
X138786259Y-50137066D01*
X138786257Y-50137064D01*
X138781830Y-50133965D01*
X138776933Y-50131681D01*
X138776927Y-50131678D01*
X138572572Y-50036386D01*
X138572570Y-50036385D01*
X138567663Y-50034097D01*
X138562438Y-50032697D01*
X138562430Y-50032694D01*
X138344634Y-49974337D01*
X138344630Y-49974336D01*
X138339408Y-49972937D01*
X138334020Y-49972465D01*
X138334017Y-49972465D01*
X138109395Y-49952813D01*
X138104000Y-49952341D01*
X138098605Y-49952813D01*
X137873982Y-49972465D01*
X137873977Y-49972465D01*
X137868592Y-49972937D01*
X137863371Y-49974335D01*
X137863365Y-49974337D01*
X137645569Y-50032694D01*
X137645557Y-50032698D01*
X137640337Y-50034097D01*
X137635432Y-50036383D01*
X137635427Y-50036386D01*
X137431081Y-50131675D01*
X137431077Y-50131677D01*
X137426171Y-50133965D01*
X137421738Y-50137068D01*
X137421731Y-50137073D01*
X137237034Y-50266399D01*
X137237029Y-50266402D01*
X137232599Y-50269505D01*
X137228775Y-50273328D01*
X137228769Y-50273334D01*
X137069334Y-50432769D01*
X137069328Y-50432775D01*
X137065505Y-50436599D01*
X137062402Y-50441029D01*
X137062399Y-50441034D01*
X136933073Y-50625731D01*
X136933068Y-50625738D01*
X136929965Y-50630171D01*
X136927677Y-50635077D01*
X136927675Y-50635081D01*
X136832386Y-50839427D01*
X136832383Y-50839432D01*
X136830097Y-50844337D01*
X136828698Y-50849557D01*
X136828694Y-50849569D01*
X136770337Y-51067365D01*
X136770336Y-51067369D01*
X136768937Y-51072592D01*
X136768465Y-51077977D01*
X136768465Y-51077982D01*
X136761792Y-51154257D01*
X136748341Y-51308000D01*
X136748813Y-51313395D01*
X136764293Y-51490334D01*
X136768937Y-51543408D01*
X136770336Y-51548630D01*
X136770337Y-51548634D01*
X136828694Y-51766430D01*
X136828697Y-51766438D01*
X136830097Y-51771663D01*
X136832385Y-51776569D01*
X136832386Y-51776572D01*
X136927678Y-51980927D01*
X136927681Y-51980933D01*
X136929965Y-51985830D01*
X136933064Y-51990257D01*
X136933066Y-51990259D01*
X137062399Y-52174966D01*
X137062402Y-52174970D01*
X137065505Y-52179401D01*
X137069336Y-52183232D01*
X137200923Y-52314819D01*
X137231173Y-52364182D01*
X137235715Y-52421898D01*
X137213560Y-52475385D01*
X137169537Y-52512985D01*
X137113242Y-52526500D01*
X136107771Y-52526500D01*
X136096718Y-52525979D01*
X136089332Y-52524328D01*
X136081534Y-52524573D01*
X136022144Y-52526439D01*
X136018250Y-52526500D01*
X135990650Y-52526500D01*
X135986799Y-52526986D01*
X135986768Y-52526988D01*
X135986640Y-52527005D01*
X135975029Y-52527918D01*
X135939171Y-52529045D01*
X135939164Y-52529046D01*
X135931372Y-52529291D01*
X135923888Y-52531465D01*
X135923877Y-52531467D01*
X135912128Y-52534881D01*
X135893083Y-52538825D01*
X135880947Y-52540358D01*
X135880944Y-52540358D01*
X135873208Y-52541336D01*
X135865960Y-52544205D01*
X135865950Y-52544208D01*
X135832592Y-52557415D01*
X135821550Y-52561196D01*
X135787097Y-52571207D01*
X135787092Y-52571208D01*
X135779610Y-52573383D01*
X135772902Y-52577349D01*
X135772897Y-52577352D01*
X135762364Y-52583581D01*
X135744900Y-52592136D01*
X135733524Y-52596640D01*
X135733517Y-52596643D01*
X135726268Y-52599514D01*
X135719962Y-52604094D01*
X135719957Y-52604098D01*
X135690927Y-52625189D01*
X135681169Y-52631598D01*
X135650298Y-52649856D01*
X135643579Y-52653830D01*
X135638063Y-52659344D01*
X135638056Y-52659351D01*
X135629407Y-52668000D01*
X135614624Y-52680626D01*
X135604727Y-52687817D01*
X135604720Y-52687823D01*
X135598413Y-52692406D01*
X135593446Y-52698408D01*
X135593435Y-52698420D01*
X135570570Y-52726059D01*
X135562710Y-52734697D01*
X135131228Y-53166181D01*
X135091000Y-53193061D01*
X135043547Y-53202500D01*
X134883826Y-53202500D01*
X134826569Y-53188489D01*
X134782251Y-53149623D01*
X134773917Y-53137721D01*
X134647095Y-52956599D01*
X134480001Y-52789505D01*
X134475570Y-52786402D01*
X134475566Y-52786399D01*
X134290859Y-52657066D01*
X134290857Y-52657064D01*
X134286430Y-52653965D01*
X134281533Y-52651681D01*
X134281527Y-52651678D01*
X134077172Y-52556386D01*
X134077170Y-52556385D01*
X134072263Y-52554097D01*
X134067038Y-52552697D01*
X134067030Y-52552694D01*
X133849234Y-52494337D01*
X133849230Y-52494336D01*
X133844008Y-52492937D01*
X133838620Y-52492465D01*
X133838617Y-52492465D01*
X133613995Y-52472813D01*
X133608600Y-52472341D01*
X133603205Y-52472813D01*
X133378582Y-52492465D01*
X133378577Y-52492465D01*
X133373192Y-52492937D01*
X133367971Y-52494335D01*
X133367965Y-52494337D01*
X133150169Y-52552694D01*
X133150157Y-52552698D01*
X133144937Y-52554097D01*
X133140032Y-52556383D01*
X133140027Y-52556386D01*
X132935681Y-52651675D01*
X132935677Y-52651677D01*
X132930771Y-52653965D01*
X132926338Y-52657068D01*
X132926331Y-52657073D01*
X132741634Y-52786399D01*
X132741629Y-52786402D01*
X132737199Y-52789505D01*
X132733375Y-52793328D01*
X132733369Y-52793334D01*
X132573934Y-52952769D01*
X132573928Y-52952775D01*
X132570105Y-52956599D01*
X132567002Y-52961029D01*
X132566999Y-52961034D01*
X132437673Y-53145731D01*
X132437668Y-53145738D01*
X132434565Y-53150171D01*
X132432277Y-53155077D01*
X132432275Y-53155081D01*
X132336986Y-53359427D01*
X132336983Y-53359432D01*
X132334697Y-53364337D01*
X132333298Y-53369557D01*
X132333294Y-53369569D01*
X132274937Y-53587365D01*
X132274935Y-53587371D01*
X132273537Y-53592592D01*
X132273065Y-53597980D01*
X132272125Y-53603316D01*
X132269627Y-53602875D01*
X132248334Y-53657558D01*
X132192368Y-53698567D01*
X132123133Y-53703091D01*
X132062306Y-53669715D01*
X131626819Y-53234228D01*
X131599939Y-53194000D01*
X131590500Y-53146547D01*
X131590500Y-51976449D01*
X131601122Y-51926235D01*
X131631168Y-51884624D01*
X131671031Y-51861349D01*
X131670933Y-51861138D01*
X131673219Y-51860071D01*
X131675492Y-51858745D01*
X131677130Y-51858201D01*
X131684334Y-51855814D01*
X131833656Y-51763712D01*
X131957712Y-51639656D01*
X131959927Y-51636064D01*
X132005830Y-51600487D01*
X132064455Y-51590149D01*
X132121140Y-51608324D01*
X132238666Y-51680814D01*
X132405203Y-51735999D01*
X132507991Y-51746500D01*
X133308008Y-51746499D01*
X133410797Y-51735999D01*
X133577334Y-51680814D01*
X133726656Y-51588712D01*
X133820318Y-51495049D01*
X133875906Y-51462955D01*
X133940094Y-51462955D01*
X133995681Y-51495049D01*
X134089344Y-51588712D01*
X134095485Y-51592500D01*
X134095488Y-51592502D01*
X134108434Y-51600487D01*
X134238666Y-51680814D01*
X134405203Y-51735999D01*
X134507991Y-51746500D01*
X135308008Y-51746499D01*
X135410797Y-51735999D01*
X135577334Y-51680814D01*
X135726656Y-51588712D01*
X135850712Y-51464656D01*
X135942814Y-51315334D01*
X135997999Y-51148797D01*
X136008500Y-51046009D01*
X136008499Y-50045992D01*
X135997999Y-49943203D01*
X135942814Y-49776666D01*
X135866888Y-49653569D01*
X135854502Y-49633488D01*
X135854500Y-49633485D01*
X135850712Y-49627344D01*
X135726656Y-49503288D01*
X135592402Y-49420479D01*
X135549223Y-49375374D01*
X135533500Y-49314942D01*
X135533500Y-47584452D01*
X135542939Y-47536999D01*
X135569819Y-47496771D01*
X136176772Y-46889819D01*
X136217000Y-46862939D01*
X136264453Y-46853500D01*
X136828772Y-46853500D01*
X136886029Y-46867511D01*
X136930347Y-46906376D01*
X137062399Y-47094966D01*
X137062402Y-47094970D01*
X137065505Y-47099401D01*
X137232599Y-47266495D01*
X137237031Y-47269598D01*
X137237033Y-47269600D01*
X137300624Y-47314127D01*
X137339489Y-47358445D01*
X137353500Y-47415702D01*
X137353500Y-48028293D01*
X137352191Y-48046264D01*
X137350896Y-48055109D01*
X137348711Y-48070023D01*
X137349340Y-48077214D01*
X137349340Y-48077221D01*
X137353028Y-48119369D01*
X137353500Y-48130176D01*
X137353500Y-48135709D01*
X137353916Y-48139272D01*
X137353917Y-48139282D01*
X137357098Y-48166496D01*
X137357464Y-48170082D01*
X137363371Y-48237604D01*
X137363372Y-48237609D01*
X137364001Y-48244797D01*
X137366271Y-48251649D01*
X137366976Y-48255063D01*
X137367028Y-48255384D01*
X137367120Y-48255709D01*
X137367920Y-48259085D01*
X137368759Y-48266255D01*
X137394413Y-48336742D01*
X137395582Y-48340108D01*
X137416913Y-48404479D01*
X137416917Y-48404489D01*
X137419186Y-48411334D01*
X137422971Y-48417472D01*
X137424443Y-48420628D01*
X137424570Y-48420935D01*
X137424729Y-48421220D01*
X137426295Y-48424338D01*
X137428763Y-48431117D01*
X137432727Y-48437144D01*
X137432729Y-48437148D01*
X137469979Y-48493784D01*
X137471900Y-48496799D01*
X137511288Y-48560656D01*
X137516392Y-48565760D01*
X137518542Y-48568479D01*
X137518739Y-48568752D01*
X137518973Y-48569007D01*
X137521202Y-48571663D01*
X137525170Y-48577696D01*
X137530423Y-48582652D01*
X137530424Y-48582653D01*
X137579710Y-48629152D01*
X137582297Y-48631665D01*
X138414269Y-49463637D01*
X138426045Y-49477262D01*
X138440390Y-49496530D01*
X138478352Y-49528384D01*
X138486314Y-49535681D01*
X138490223Y-49539590D01*
X138493055Y-49541829D01*
X138493065Y-49541838D01*
X138514542Y-49558819D01*
X138517298Y-49561063D01*
X138574786Y-49609302D01*
X138581245Y-49612546D01*
X138584134Y-49614446D01*
X138584417Y-49614650D01*
X138584710Y-49614814D01*
X138587659Y-49616632D01*
X138593323Y-49621111D01*
X138661357Y-49652835D01*
X138664483Y-49654348D01*
X138731567Y-49688040D01*
X138738597Y-49689705D01*
X138741831Y-49690883D01*
X138742163Y-49691020D01*
X138742493Y-49691114D01*
X138745781Y-49692203D01*
X138752327Y-49695256D01*
X138825862Y-49710439D01*
X138829223Y-49711184D01*
X138902279Y-49728500D01*
X138909509Y-49728500D01*
X138912949Y-49728902D01*
X138913286Y-49728956D01*
X138913640Y-49728972D01*
X138917066Y-49729271D01*
X138924144Y-49730733D01*
X138999110Y-49728552D01*
X139002717Y-49728500D01*
X142288270Y-49728500D01*
X142345745Y-49742624D01*
X142390126Y-49781780D01*
X142411303Y-49837046D01*
X142404452Y-49895833D01*
X142398620Y-49911468D01*
X142398619Y-49911471D01*
X142395909Y-49918738D01*
X142395079Y-49926448D01*
X142395079Y-49926453D01*
X142389855Y-49975040D01*
X142389854Y-49975052D01*
X142389500Y-49978348D01*
X142389500Y-49981669D01*
X142389500Y-49981670D01*
X142389500Y-51770781D01*
X142389500Y-51770799D01*
X142389501Y-51774093D01*
X142389853Y-51777371D01*
X142389854Y-51777382D01*
X142395079Y-51825989D01*
X142395080Y-51825994D01*
X142395909Y-51833704D01*
X142398619Y-51840970D01*
X142398620Y-51840974D01*
X142414901Y-51884624D01*
X142446204Y-51968552D01*
X142451518Y-51975651D01*
X142451519Y-51975652D01*
X142507367Y-52050256D01*
X142532454Y-52083767D01*
X142647669Y-52170017D01*
X142782517Y-52220312D01*
X142842127Y-52226721D01*
X144637872Y-52226720D01*
X144697483Y-52220312D01*
X144832331Y-52170017D01*
X144947546Y-52083767D01*
X145033796Y-51968552D01*
X145082810Y-51837137D01*
X145117789Y-51786758D01*
X145172634Y-51759305D01*
X145233927Y-51761494D01*
X145286673Y-51792790D01*
X145408599Y-51914716D01*
X145413031Y-51917819D01*
X145413033Y-51917821D01*
X145496763Y-51976449D01*
X145602170Y-52050256D01*
X145816337Y-52150124D01*
X146044592Y-52211284D01*
X146280000Y-52231880D01*
X146515408Y-52211284D01*
X146743663Y-52150124D01*
X146957830Y-52050256D01*
X147151401Y-51914716D01*
X147318495Y-51747622D01*
X147454035Y-51554051D01*
X147553903Y-51339884D01*
X147615063Y-51111629D01*
X147635659Y-50876221D01*
X147615063Y-50640813D01*
X147553903Y-50412558D01*
X147454035Y-50198392D01*
X147318495Y-50004820D01*
X147234201Y-49920526D01*
X147202108Y-49864939D01*
X147202108Y-49800752D01*
X147234202Y-49745165D01*
X147303597Y-49675771D01*
X147424548Y-49554819D01*
X147464777Y-49527939D01*
X147512230Y-49518500D01*
X149359415Y-49518500D01*
X149409631Y-49529123D01*
X149451242Y-49559171D01*
X149477120Y-49603494D01*
X149492172Y-49648917D01*
X149506077Y-49690883D01*
X149513186Y-49712334D01*
X149523448Y-49728972D01*
X149601497Y-49855511D01*
X149601500Y-49855515D01*
X149605288Y-49861656D01*
X149729344Y-49985712D01*
X149735485Y-49989500D01*
X149735488Y-49989502D01*
X149782316Y-50018385D01*
X149878666Y-50077814D01*
X150045203Y-50132999D01*
X150147991Y-50143500D01*
X151048008Y-50143499D01*
X151150797Y-50132999D01*
X151208497Y-50113878D01*
X151266362Y-50109028D01*
X151320093Y-50131055D01*
X151357903Y-50175129D01*
X151371500Y-50231585D01*
X151371500Y-51004240D01*
X151365761Y-51041529D01*
X151349074Y-51075365D01*
X151330856Y-51101382D01*
X151286537Y-51140247D01*
X151229281Y-51154257D01*
X151172024Y-51140246D01*
X151127709Y-51101382D01*
X150997778Y-50915820D01*
X150830684Y-50748726D01*
X150826253Y-50745623D01*
X150826249Y-50745620D01*
X150641542Y-50616287D01*
X150641540Y-50616285D01*
X150637113Y-50613186D01*
X150632216Y-50610902D01*
X150632210Y-50610899D01*
X150427855Y-50515607D01*
X150427853Y-50515606D01*
X150422946Y-50513318D01*
X150417721Y-50511918D01*
X150417713Y-50511915D01*
X150199917Y-50453558D01*
X150199913Y-50453557D01*
X150194691Y-50452158D01*
X150189303Y-50451686D01*
X150189300Y-50451686D01*
X149964678Y-50432034D01*
X149959283Y-50431562D01*
X149953888Y-50432034D01*
X149729265Y-50451686D01*
X149729260Y-50451686D01*
X149723875Y-50452158D01*
X149718654Y-50453556D01*
X149718648Y-50453558D01*
X149500852Y-50511915D01*
X149500840Y-50511919D01*
X149495620Y-50513318D01*
X149490715Y-50515604D01*
X149490710Y-50515607D01*
X149286364Y-50610896D01*
X149286360Y-50610898D01*
X149281454Y-50613186D01*
X149277021Y-50616289D01*
X149277014Y-50616294D01*
X149092317Y-50745620D01*
X149092312Y-50745623D01*
X149087882Y-50748726D01*
X149084058Y-50752549D01*
X149084052Y-50752555D01*
X148924617Y-50911990D01*
X148924611Y-50911996D01*
X148920788Y-50915820D01*
X148917685Y-50920250D01*
X148917682Y-50920255D01*
X148788356Y-51104952D01*
X148788351Y-51104959D01*
X148785248Y-51109392D01*
X148782960Y-51114298D01*
X148782958Y-51114302D01*
X148687669Y-51318648D01*
X148687666Y-51318653D01*
X148685380Y-51323558D01*
X148683981Y-51328778D01*
X148683977Y-51328790D01*
X148625620Y-51546586D01*
X148625618Y-51546592D01*
X148624220Y-51551813D01*
X148623748Y-51557198D01*
X148623748Y-51557203D01*
X148606066Y-51759305D01*
X148603624Y-51787221D01*
X148604096Y-51792616D01*
X148620179Y-51976449D01*
X148624220Y-52022629D01*
X148625619Y-52027851D01*
X148625620Y-52027855D01*
X148683977Y-52245651D01*
X148683980Y-52245659D01*
X148685380Y-52250884D01*
X148687668Y-52255791D01*
X148687669Y-52255793D01*
X148782961Y-52460148D01*
X148782964Y-52460154D01*
X148785248Y-52465051D01*
X148788347Y-52469478D01*
X148788349Y-52469480D01*
X148917682Y-52654187D01*
X148917685Y-52654191D01*
X148920788Y-52658622D01*
X149087882Y-52825716D01*
X149092314Y-52828819D01*
X149092316Y-52828821D01*
X149236543Y-52929810D01*
X149281453Y-52961256D01*
X149495620Y-53061124D01*
X149723875Y-53122284D01*
X149959283Y-53142880D01*
X150194691Y-53122284D01*
X150422946Y-53061124D01*
X150637113Y-52961256D01*
X150830684Y-52825716D01*
X150997778Y-52658622D01*
X151016701Y-52631598D01*
X151127708Y-52473063D01*
X151172026Y-52434197D01*
X151229283Y-52420186D01*
X151286540Y-52434197D01*
X151330858Y-52473063D01*
X151457678Y-52654182D01*
X151457684Y-52654189D01*
X151460788Y-52658622D01*
X151627882Y-52825716D01*
X151632314Y-52828819D01*
X151632316Y-52828821D01*
X151776543Y-52929810D01*
X151821453Y-52961256D01*
X152035620Y-53061124D01*
X152263875Y-53122284D01*
X152499283Y-53142880D01*
X152734691Y-53122284D01*
X152962946Y-53061124D01*
X153177113Y-52961256D01*
X153370684Y-52825716D01*
X153514601Y-52681799D01*
X156228783Y-52681799D01*
X156228784Y-52685093D01*
X156229136Y-52688371D01*
X156229137Y-52688382D01*
X156234362Y-52736989D01*
X156234363Y-52736994D01*
X156235192Y-52744704D01*
X156237902Y-52751970D01*
X156237903Y-52751974D01*
X156263978Y-52821884D01*
X156285487Y-52879552D01*
X156290801Y-52886651D01*
X156290802Y-52886652D01*
X156346650Y-52961256D01*
X156371737Y-52994767D01*
X156486952Y-53081017D01*
X156621800Y-53131312D01*
X156681410Y-53137721D01*
X158477155Y-53137720D01*
X158536766Y-53131312D01*
X158671614Y-53081017D01*
X158786829Y-52994767D01*
X158873079Y-52879552D01*
X158923374Y-52744704D01*
X158929783Y-52685094D01*
X158929782Y-50889349D01*
X158923374Y-50829738D01*
X158873079Y-50694890D01*
X158786829Y-50579675D01*
X158749400Y-50551656D01*
X158678714Y-50498740D01*
X158678713Y-50498739D01*
X158671614Y-50493425D01*
X158564725Y-50453558D01*
X158544035Y-50445841D01*
X158544033Y-50445840D01*
X158536766Y-50443130D01*
X158529053Y-50442300D01*
X158529050Y-50442300D01*
X158480463Y-50437076D01*
X158480452Y-50437075D01*
X158477156Y-50436721D01*
X158473833Y-50436721D01*
X156684722Y-50436721D01*
X156684703Y-50436721D01*
X156681411Y-50436722D01*
X156678133Y-50437074D01*
X156678121Y-50437075D01*
X156629514Y-50442300D01*
X156629508Y-50442301D01*
X156621800Y-50443130D01*
X156614535Y-50445839D01*
X156614529Y-50445841D01*
X156495263Y-50490325D01*
X156495261Y-50490325D01*
X156486952Y-50493425D01*
X156479855Y-50498737D01*
X156479851Y-50498740D01*
X156378833Y-50574362D01*
X156378829Y-50574365D01*
X156371737Y-50579675D01*
X156366427Y-50586767D01*
X156366424Y-50586771D01*
X156290802Y-50687789D01*
X156290799Y-50687793D01*
X156285487Y-50694890D01*
X156282387Y-50703199D01*
X156282387Y-50703201D01*
X156237903Y-50822468D01*
X156237902Y-50822471D01*
X156235192Y-50829738D01*
X156234362Y-50837448D01*
X156234362Y-50837453D01*
X156229138Y-50886040D01*
X156229137Y-50886052D01*
X156228783Y-50889348D01*
X156228783Y-50892669D01*
X156228783Y-50892670D01*
X156228783Y-52681781D01*
X156228783Y-52681799D01*
X153514601Y-52681799D01*
X153537778Y-52658622D01*
X153673318Y-52465051D01*
X153773186Y-52250884D01*
X153834346Y-52022629D01*
X153854942Y-51787221D01*
X153834346Y-51551813D01*
X153778876Y-51344793D01*
X153774588Y-51328790D01*
X153774587Y-51328788D01*
X153773186Y-51323558D01*
X153673318Y-51109392D01*
X153537778Y-50915820D01*
X153370684Y-50748726D01*
X153366253Y-50745623D01*
X153366249Y-50745620D01*
X153181542Y-50616287D01*
X153181540Y-50616285D01*
X153177113Y-50613186D01*
X153172216Y-50610902D01*
X153172210Y-50610899D01*
X152981101Y-50521784D01*
X152962946Y-50513318D01*
X152957725Y-50511919D01*
X152954085Y-50510594D01*
X152911404Y-50484266D01*
X152882641Y-50443186D01*
X152872500Y-50394074D01*
X152872500Y-50214354D01*
X152886097Y-50157898D01*
X152923907Y-50113824D01*
X152977637Y-50091797D01*
X153035502Y-50096647D01*
X153145203Y-50132999D01*
X153247991Y-50143500D01*
X154148008Y-50143499D01*
X154250797Y-50132999D01*
X154417334Y-50077814D01*
X154566656Y-49985712D01*
X154587320Y-49965048D01*
X154642907Y-49932954D01*
X154707095Y-49932954D01*
X154762682Y-49965048D01*
X154783345Y-49985711D01*
X154932666Y-50077814D01*
X155099203Y-50132999D01*
X155201992Y-50143500D01*
X156223859Y-50143500D01*
X156227008Y-50143500D01*
X156329797Y-50132999D01*
X156496334Y-50077814D01*
X156645655Y-49985711D01*
X156769711Y-49861655D01*
X156861814Y-49712334D01*
X156916999Y-49545797D01*
X156927500Y-49443008D01*
X156927500Y-48092992D01*
X156916999Y-47990203D01*
X156861814Y-47823666D01*
X156769711Y-47674345D01*
X156645655Y-47550289D01*
X156639505Y-47546495D01*
X156639503Y-47546494D01*
X156502482Y-47461978D01*
X156502478Y-47461976D01*
X156496334Y-47458186D01*
X156458083Y-47445511D01*
X156336225Y-47405131D01*
X156336224Y-47405130D01*
X156329797Y-47403001D01*
X156323064Y-47402313D01*
X156323059Y-47402312D01*
X156230139Y-47392819D01*
X156230122Y-47392818D01*
X156227008Y-47392500D01*
X155201992Y-47392500D01*
X155198878Y-47392818D01*
X155198860Y-47392819D01*
X155105940Y-47402312D01*
X155105933Y-47402313D01*
X155099203Y-47403001D01*
X155092777Y-47405130D01*
X155092774Y-47405131D01*
X154939521Y-47455914D01*
X154939517Y-47455915D01*
X154932666Y-47458186D01*
X154926522Y-47461975D01*
X154926517Y-47461978D01*
X154789496Y-47546494D01*
X154789490Y-47546498D01*
X154783345Y-47550289D01*
X154778238Y-47555395D01*
X154778234Y-47555399D01*
X154762682Y-47570952D01*
X154707095Y-47603046D01*
X154642907Y-47603046D01*
X154587320Y-47570952D01*
X154571761Y-47555393D01*
X154566656Y-47550288D01*
X154560515Y-47546500D01*
X154560511Y-47546497D01*
X154451763Y-47479422D01*
X154407737Y-47432776D01*
X154392909Y-47370372D01*
X154411246Y-47308907D01*
X154457842Y-47264828D01*
X154531856Y-47224773D01*
X154593722Y-47191293D01*
X154783746Y-47043392D01*
X154946834Y-46866231D01*
X155078538Y-46664643D01*
X155175266Y-46444126D01*
X155234378Y-46210697D01*
X155249283Y-46030821D01*
X155249283Y-45815621D01*
X155234378Y-45635745D01*
X155175266Y-45402316D01*
X155078538Y-45181799D01*
X154946834Y-44980211D01*
X154943366Y-44976444D01*
X154943364Y-44976441D01*
X154789597Y-44809406D01*
X154783746Y-44803050D01*
X154763767Y-44787500D01*
X154597768Y-44658298D01*
X154597767Y-44658297D01*
X154593722Y-44655149D01*
X154428389Y-44565675D01*
X154386451Y-44542979D01*
X154386446Y-44542977D01*
X154381947Y-44540542D01*
X154377101Y-44538878D01*
X154377098Y-44538877D01*
X154159049Y-44464021D01*
X154159048Y-44464020D01*
X154154196Y-44462355D01*
X154149146Y-44461512D01*
X154149137Y-44461510D01*
X153921744Y-44423565D01*
X153921735Y-44423564D01*
X153916682Y-44422721D01*
X153675884Y-44422721D01*
X153670831Y-44423564D01*
X153670821Y-44423565D01*
X153443428Y-44461510D01*
X153443416Y-44461512D01*
X153438370Y-44462355D01*
X153433520Y-44464019D01*
X153433516Y-44464021D01*
X153215467Y-44538877D01*
X153215459Y-44538880D01*
X153210619Y-44540542D01*
X153206123Y-44542974D01*
X153206114Y-44542979D01*
X153003352Y-44652709D01*
X153003348Y-44652711D01*
X152998844Y-44655149D01*
X152994804Y-44658293D01*
X152994797Y-44658298D01*
X152856352Y-44766054D01*
X152803923Y-44789908D01*
X152746374Y-44787500D01*
X152696121Y-44759350D01*
X152664008Y-44711533D01*
X152652579Y-44680890D01*
X152566329Y-44565675D01*
X152451114Y-44479425D01*
X152335702Y-44436379D01*
X152323535Y-44431841D01*
X152323533Y-44431840D01*
X152316266Y-44429130D01*
X152308553Y-44428300D01*
X152308550Y-44428300D01*
X152259963Y-44423076D01*
X152259952Y-44423075D01*
X152256656Y-44422721D01*
X152253333Y-44422721D01*
X150259222Y-44422721D01*
X150259203Y-44422721D01*
X150255911Y-44422722D01*
X150252633Y-44423074D01*
X150252621Y-44423075D01*
X150204014Y-44428300D01*
X150204008Y-44428301D01*
X150196300Y-44429130D01*
X150189035Y-44431839D01*
X150189029Y-44431841D01*
X150069763Y-44476325D01*
X150069761Y-44476325D01*
X150061452Y-44479425D01*
X150054355Y-44484737D01*
X150054351Y-44484740D01*
X149953333Y-44560362D01*
X149953329Y-44560365D01*
X149946237Y-44565675D01*
X149940927Y-44572767D01*
X149940924Y-44572771D01*
X149865302Y-44673789D01*
X149865299Y-44673793D01*
X149859987Y-44680890D01*
X149856887Y-44689199D01*
X149856887Y-44689201D01*
X149812403Y-44808468D01*
X149812402Y-44808471D01*
X149809692Y-44815738D01*
X149808862Y-44823448D01*
X149808862Y-44823453D01*
X149803638Y-44872040D01*
X149803637Y-44872052D01*
X149803283Y-44875348D01*
X149803283Y-44878669D01*
X149803283Y-44878670D01*
X149803283Y-46967781D01*
X149803283Y-46967799D01*
X149803284Y-46971093D01*
X149803636Y-46974371D01*
X149803637Y-46974382D01*
X149808862Y-47022989D01*
X149808863Y-47022994D01*
X149809692Y-47030704D01*
X149812402Y-47037970D01*
X149812403Y-47037974D01*
X149835314Y-47099401D01*
X149859987Y-47165552D01*
X149865301Y-47172651D01*
X149865302Y-47172652D01*
X149936245Y-47267420D01*
X149958547Y-47317298D01*
X149957247Y-47371919D01*
X149932598Y-47420679D01*
X149889385Y-47454112D01*
X149885515Y-47455916D01*
X149878666Y-47458186D01*
X149872525Y-47461973D01*
X149872520Y-47461976D01*
X149735488Y-47546497D01*
X149735480Y-47546503D01*
X149729344Y-47550288D01*
X149724242Y-47555389D01*
X149724238Y-47555393D01*
X149610393Y-47669238D01*
X149610389Y-47669242D01*
X149605288Y-47674344D01*
X149601503Y-47680480D01*
X149601497Y-47680488D01*
X149516977Y-47817519D01*
X149513186Y-47823666D01*
X149510916Y-47830514D01*
X149510914Y-47830520D01*
X149477121Y-47932504D01*
X149451242Y-47976829D01*
X149409631Y-48006877D01*
X149359415Y-48017500D01*
X147213707Y-48017500D01*
X147195736Y-48016191D01*
X147179126Y-48013758D01*
X147179124Y-48013757D01*
X147171977Y-48012711D01*
X147164784Y-48013340D01*
X147164778Y-48013340D01*
X147122631Y-48017028D01*
X147111824Y-48017500D01*
X147106291Y-48017500D01*
X147102730Y-48017916D01*
X147102715Y-48017917D01*
X147075501Y-48021098D01*
X147071916Y-48021464D01*
X147004393Y-48027371D01*
X147004385Y-48027372D01*
X146997203Y-48028001D01*
X146990352Y-48030270D01*
X146986935Y-48030976D01*
X146986619Y-48031027D01*
X146986295Y-48031119D01*
X146982913Y-48031920D01*
X146975745Y-48032759D01*
X146968968Y-48035225D01*
X146968957Y-48035228D01*
X146905231Y-48058421D01*
X146901831Y-48059603D01*
X146871863Y-48069533D01*
X146830666Y-48083186D01*
X146824528Y-48086971D01*
X146821367Y-48088445D01*
X146821061Y-48088571D01*
X146820781Y-48088728D01*
X146817659Y-48090296D01*
X146810883Y-48092763D01*
X146804855Y-48096727D01*
X146804854Y-48096728D01*
X146748220Y-48133976D01*
X146745182Y-48135911D01*
X146687492Y-48171495D01*
X146687483Y-48171501D01*
X146681345Y-48175288D01*
X146676243Y-48180389D01*
X146673504Y-48182555D01*
X146673239Y-48182745D01*
X146672995Y-48182970D01*
X146670331Y-48185205D01*
X146664304Y-48189170D01*
X146659355Y-48194414D01*
X146659353Y-48194417D01*
X146612833Y-48243725D01*
X146610321Y-48246310D01*
X145794358Y-49062272D01*
X145780730Y-49074050D01*
X145767263Y-49084076D01*
X145767257Y-49084081D01*
X145761470Y-49088390D01*
X145756832Y-49093916D01*
X145756830Y-49093919D01*
X145729633Y-49126330D01*
X145722350Y-49134280D01*
X145720969Y-49135661D01*
X145720955Y-49135676D01*
X145718409Y-49138223D01*
X145716173Y-49141050D01*
X145716171Y-49141053D01*
X145699176Y-49162546D01*
X145696902Y-49165337D01*
X145653339Y-49217254D01*
X145653335Y-49217258D01*
X145648698Y-49222786D01*
X145645460Y-49229230D01*
X145643537Y-49232155D01*
X145643352Y-49232411D01*
X145643192Y-49232698D01*
X145641363Y-49235663D01*
X145636889Y-49241323D01*
X145633839Y-49247862D01*
X145633838Y-49247865D01*
X145605192Y-49309294D01*
X145603623Y-49312536D01*
X145573196Y-49373122D01*
X145573194Y-49373127D01*
X145569960Y-49379567D01*
X145568296Y-49386584D01*
X145567109Y-49389847D01*
X145566977Y-49390163D01*
X145566888Y-49390480D01*
X145565791Y-49393787D01*
X145562743Y-49400327D01*
X145561284Y-49407390D01*
X145561283Y-49407395D01*
X145547574Y-49473787D01*
X145546794Y-49477306D01*
X145531164Y-49543255D01*
X145531163Y-49543260D01*
X145529500Y-49550279D01*
X145529500Y-49557491D01*
X145529097Y-49560939D01*
X145529043Y-49561273D01*
X145529028Y-49561626D01*
X145528726Y-49565070D01*
X145527266Y-49572144D01*
X145527476Y-49579360D01*
X145527476Y-49579361D01*
X145529448Y-49647130D01*
X145529500Y-49650737D01*
X145529500Y-49688521D01*
X145515489Y-49745778D01*
X145476624Y-49790094D01*
X145461404Y-49800752D01*
X145413033Y-49834620D01*
X145413023Y-49834627D01*
X145408599Y-49837726D01*
X145404775Y-49841549D01*
X145404775Y-49841550D01*
X145286673Y-49959652D01*
X145233926Y-49990947D01*
X145172633Y-49993136D01*
X145117789Y-49965683D01*
X145082810Y-49915303D01*
X145067457Y-49874139D01*
X145033796Y-49783890D01*
X144947546Y-49668675D01*
X144926346Y-49652805D01*
X144839431Y-49587740D01*
X144839430Y-49587739D01*
X144832331Y-49582425D01*
X144723512Y-49541838D01*
X144704752Y-49534841D01*
X144704750Y-49534840D01*
X144697483Y-49532130D01*
X144689770Y-49531300D01*
X144689767Y-49531300D01*
X144641180Y-49526076D01*
X144641169Y-49526075D01*
X144637873Y-49525721D01*
X144634551Y-49525721D01*
X144606617Y-49525721D01*
X144547766Y-49510866D01*
X144503016Y-49469859D01*
X144483089Y-49412527D01*
X144481160Y-49390480D01*
X144479999Y-49377203D01*
X144477726Y-49370345D01*
X144477027Y-49366957D01*
X144476972Y-49366619D01*
X144476878Y-49366286D01*
X144476079Y-49362915D01*
X144475241Y-49355745D01*
X144471628Y-49345819D01*
X144449592Y-49285274D01*
X144448408Y-49281868D01*
X144440187Y-49257059D01*
X144424814Y-49210666D01*
X144421019Y-49204513D01*
X144419564Y-49201393D01*
X144419430Y-49201069D01*
X144419259Y-49200763D01*
X144417710Y-49197680D01*
X144415237Y-49190883D01*
X144374001Y-49128188D01*
X144372086Y-49125181D01*
X144371219Y-49123776D01*
X144349408Y-49088413D01*
X144336504Y-49067492D01*
X144336501Y-49067489D01*
X144332712Y-49061345D01*
X144327605Y-49056238D01*
X144325463Y-49053529D01*
X144325257Y-49053244D01*
X144325027Y-49052993D01*
X144322796Y-49050335D01*
X144318830Y-49044304D01*
X144264274Y-48992833D01*
X144261687Y-48990320D01*
X143763729Y-48492361D01*
X143751947Y-48478727D01*
X143741925Y-48465265D01*
X143741921Y-48465261D01*
X143737610Y-48459470D01*
X143699667Y-48427631D01*
X143691691Y-48420323D01*
X143690329Y-48418961D01*
X143690328Y-48418960D01*
X143687777Y-48416409D01*
X143684953Y-48414176D01*
X143684944Y-48414168D01*
X143663445Y-48397170D01*
X143660674Y-48394913D01*
X143603214Y-48346698D01*
X143596760Y-48343456D01*
X143593859Y-48341548D01*
X143593588Y-48341352D01*
X143593292Y-48341187D01*
X143590339Y-48339366D01*
X143584677Y-48334889D01*
X143578134Y-48331838D01*
X143578131Y-48331836D01*
X143516692Y-48303186D01*
X143513446Y-48301615D01*
X143452884Y-48271200D01*
X143452885Y-48271200D01*
X143446433Y-48267960D01*
X143439409Y-48266295D01*
X143436151Y-48265109D01*
X143435832Y-48264977D01*
X143435504Y-48264884D01*
X143432218Y-48263795D01*
X143425673Y-48260743D01*
X143418604Y-48259283D01*
X143418600Y-48259282D01*
X143352212Y-48245574D01*
X143348691Y-48244794D01*
X143282741Y-48229163D01*
X143282734Y-48229162D01*
X143275721Y-48227500D01*
X143268510Y-48227500D01*
X143265061Y-48227097D01*
X143264727Y-48227043D01*
X143264374Y-48227028D01*
X143260929Y-48226726D01*
X143253856Y-48225266D01*
X143246638Y-48225476D01*
X143178870Y-48227448D01*
X143175263Y-48227500D01*
X139352230Y-48227500D01*
X139304777Y-48218061D01*
X139264549Y-48191181D01*
X138890819Y-47817451D01*
X138863939Y-47777223D01*
X138854500Y-47729770D01*
X138854500Y-47415702D01*
X138868511Y-47358445D01*
X138907376Y-47314127D01*
X138947432Y-47286079D01*
X138975401Y-47266495D01*
X139142495Y-47099401D01*
X139278035Y-46905830D01*
X139377903Y-46691663D01*
X139439063Y-46463408D01*
X139459659Y-46228000D01*
X139439063Y-45992592D01*
X139377903Y-45764337D01*
X139278035Y-45550171D01*
X139142495Y-45356599D01*
X138975401Y-45189505D01*
X138970970Y-45186402D01*
X138970966Y-45186399D01*
X138786259Y-45057066D01*
X138786257Y-45057064D01*
X138781830Y-45053965D01*
X138776933Y-45051681D01*
X138776927Y-45051678D01*
X138572572Y-44956386D01*
X138572570Y-44956385D01*
X138567663Y-44954097D01*
X138562438Y-44952697D01*
X138562430Y-44952694D01*
X138344634Y-44894337D01*
X138344630Y-44894336D01*
X138339408Y-44892937D01*
X138334020Y-44892465D01*
X138334017Y-44892465D01*
X138109395Y-44872813D01*
X138104000Y-44872341D01*
X138098605Y-44872813D01*
X137873982Y-44892465D01*
X137873977Y-44892465D01*
X137868592Y-44892937D01*
X137863371Y-44894335D01*
X137863365Y-44894337D01*
X137645569Y-44952694D01*
X137645557Y-44952698D01*
X137640337Y-44954097D01*
X137635432Y-44956383D01*
X137635427Y-44956386D01*
X137431081Y-45051675D01*
X137431077Y-45051677D01*
X137426171Y-45053965D01*
X137421738Y-45057068D01*
X137421731Y-45057073D01*
X137237034Y-45186399D01*
X137237029Y-45186402D01*
X137232599Y-45189505D01*
X137228775Y-45193328D01*
X137228769Y-45193334D01*
X137069334Y-45352769D01*
X137069328Y-45352775D01*
X137065505Y-45356599D01*
X137062402Y-45361029D01*
X137062399Y-45361034D01*
X136930349Y-45549623D01*
X136886031Y-45588489D01*
X136828774Y-45602500D01*
X136031771Y-45602500D01*
X136020718Y-45601979D01*
X136013332Y-45600328D01*
X136005534Y-45600573D01*
X135946144Y-45602439D01*
X135942250Y-45602500D01*
X135914650Y-45602500D01*
X135910799Y-45602986D01*
X135910768Y-45602988D01*
X135910640Y-45603005D01*
X135899029Y-45603918D01*
X135863171Y-45605045D01*
X135863164Y-45605046D01*
X135855372Y-45605291D01*
X135847888Y-45607465D01*
X135847877Y-45607467D01*
X135836128Y-45610881D01*
X135817083Y-45614825D01*
X135804947Y-45616358D01*
X135804944Y-45616358D01*
X135797208Y-45617336D01*
X135789960Y-45620205D01*
X135789950Y-45620208D01*
X135756592Y-45633415D01*
X135745550Y-45637196D01*
X135711097Y-45647207D01*
X135711092Y-45647208D01*
X135703610Y-45649383D01*
X135696902Y-45653349D01*
X135696897Y-45653352D01*
X135686364Y-45659581D01*
X135668900Y-45668136D01*
X135657524Y-45672640D01*
X135657517Y-45672643D01*
X135650268Y-45675514D01*
X135643962Y-45680094D01*
X135643957Y-45680098D01*
X135614927Y-45701189D01*
X135605169Y-45707598D01*
X135574298Y-45725856D01*
X135567579Y-45729830D01*
X135562063Y-45735344D01*
X135562056Y-45735351D01*
X135553407Y-45744000D01*
X135538624Y-45756626D01*
X135528727Y-45763817D01*
X135528720Y-45763823D01*
X135522413Y-45768406D01*
X135517446Y-45774408D01*
X135517435Y-45774420D01*
X135494570Y-45802059D01*
X135486710Y-45810697D01*
X134520696Y-46776711D01*
X134512511Y-46784159D01*
X134506123Y-46788214D01*
X134500788Y-46793894D01*
X134500783Y-46793899D01*
X134460096Y-46837225D01*
X134457392Y-46840016D01*
X134440628Y-46856780D01*
X134440621Y-46856787D01*
X134437880Y-46859529D01*
X134435500Y-46862596D01*
X134435489Y-46862609D01*
X134435400Y-46862725D01*
X134427842Y-46871570D01*
X134403280Y-46897727D01*
X134403273Y-46897736D01*
X134397938Y-46903418D01*
X134394182Y-46910249D01*
X134394179Y-46910254D01*
X134388285Y-46920975D01*
X134377609Y-46937227D01*
X134370109Y-46946896D01*
X134370101Y-46946907D01*
X134365327Y-46953064D01*
X134362234Y-46960208D01*
X134362229Y-46960219D01*
X134347974Y-46993160D01*
X134342838Y-47003643D01*
X134326695Y-47033009D01*
X134321803Y-47041908D01*
X134319864Y-47049456D01*
X134319863Y-47049461D01*
X134316822Y-47061307D01*
X134310521Y-47079711D01*
X134305658Y-47090948D01*
X134305656Y-47090952D01*
X134302562Y-47098104D01*
X134301342Y-47105803D01*
X134301342Y-47105805D01*
X134295729Y-47141241D01*
X134293361Y-47152676D01*
X134284438Y-47187428D01*
X134284436Y-47187436D01*
X134282500Y-47194981D01*
X134282500Y-47202777D01*
X134282500Y-47215017D01*
X134280974Y-47234402D01*
X134277840Y-47254196D01*
X134278574Y-47261961D01*
X134278574Y-47261964D01*
X134281950Y-47297676D01*
X134282500Y-47309345D01*
X134282500Y-49314942D01*
X134266777Y-49375374D01*
X134223597Y-49420479D01*
X134187074Y-49443008D01*
X134100301Y-49496530D01*
X134089344Y-49503288D01*
X134084242Y-49508389D01*
X134084238Y-49508393D01*
X133995681Y-49596951D01*
X133940094Y-49629045D01*
X133875906Y-49629045D01*
X133820319Y-49596951D01*
X133731761Y-49508393D01*
X133731760Y-49508392D01*
X133726656Y-49503288D01*
X133720515Y-49499500D01*
X133720511Y-49499497D01*
X133583480Y-49414977D01*
X133577334Y-49411186D01*
X133512937Y-49389847D01*
X133417225Y-49358131D01*
X133417224Y-49358130D01*
X133410797Y-49356001D01*
X133404064Y-49355313D01*
X133404059Y-49355312D01*
X133311140Y-49345819D01*
X133311123Y-49345818D01*
X133308009Y-49345500D01*
X133304860Y-49345500D01*
X132511141Y-49345500D01*
X132511121Y-49345500D01*
X132507992Y-49345501D01*
X132504860Y-49345820D01*
X132504858Y-49345821D01*
X132411938Y-49355312D01*
X132411928Y-49355313D01*
X132405203Y-49356001D01*
X132398781Y-49358128D01*
X132398776Y-49358130D01*
X132245521Y-49408914D01*
X132245517Y-49408915D01*
X132238666Y-49411186D01*
X132232525Y-49414973D01*
X132232518Y-49414977D01*
X132121142Y-49483674D01*
X132064456Y-49501849D01*
X132005832Y-49491513D01*
X131959927Y-49455935D01*
X131957712Y-49452344D01*
X131833656Y-49328288D01*
X131827515Y-49324500D01*
X131827511Y-49324497D01*
X131690480Y-49239977D01*
X131684334Y-49236186D01*
X131674695Y-49232992D01*
X131524225Y-49183131D01*
X131524224Y-49183130D01*
X131517797Y-49181001D01*
X131511064Y-49180313D01*
X131511059Y-49180312D01*
X131418140Y-49170819D01*
X131418123Y-49170818D01*
X131415009Y-49170500D01*
X131411860Y-49170500D01*
X130518141Y-49170500D01*
X130518121Y-49170500D01*
X130514992Y-49170501D01*
X130511860Y-49170820D01*
X130511858Y-49170821D01*
X130418938Y-49180312D01*
X130418928Y-49180313D01*
X130412203Y-49181001D01*
X130405781Y-49183128D01*
X130405776Y-49183130D01*
X130252521Y-49233914D01*
X130252517Y-49233915D01*
X130245666Y-49236186D01*
X130239522Y-49239975D01*
X130239519Y-49239977D01*
X130102488Y-49324497D01*
X130102480Y-49324503D01*
X130096344Y-49328288D01*
X130091242Y-49333389D01*
X130091238Y-49333393D01*
X129977393Y-49447238D01*
X129977389Y-49447242D01*
X129972288Y-49452344D01*
X129968503Y-49458480D01*
X129968497Y-49458488D01*
X129883977Y-49595519D01*
X129880186Y-49601666D01*
X129877915Y-49608517D01*
X129877914Y-49608521D01*
X129838157Y-49728500D01*
X129825001Y-49768203D01*
X129824313Y-49774933D01*
X129824312Y-49774940D01*
X129814819Y-49867859D01*
X129814818Y-49867877D01*
X129814500Y-49870991D01*
X129814500Y-49874138D01*
X129814500Y-49874139D01*
X129814500Y-51217859D01*
X129814500Y-51217878D01*
X129814501Y-51221008D01*
X129814820Y-51224140D01*
X129814821Y-51224141D01*
X129824312Y-51317061D01*
X129824313Y-51317069D01*
X129825001Y-51323797D01*
X129827129Y-51330219D01*
X129827130Y-51330223D01*
X129869641Y-51458511D01*
X129880186Y-51490334D01*
X129883977Y-51496480D01*
X129968497Y-51633511D01*
X129968500Y-51633515D01*
X129972288Y-51639656D01*
X130096344Y-51763712D01*
X130102485Y-51767500D01*
X130102488Y-51767502D01*
X130134458Y-51787221D01*
X130245666Y-51855814D01*
X130252527Y-51858087D01*
X130252528Y-51858088D01*
X130254508Y-51858745D01*
X130256780Y-51860071D01*
X130259067Y-51861138D01*
X130258968Y-51861349D01*
X130298832Y-51884624D01*
X130328878Y-51926235D01*
X130339500Y-51976449D01*
X130339500Y-53379225D01*
X130338978Y-53390280D01*
X130337327Y-53397667D01*
X130337571Y-53405453D01*
X130337571Y-53405461D01*
X130339439Y-53464873D01*
X130339500Y-53468768D01*
X130339500Y-53496350D01*
X130339988Y-53500219D01*
X130339989Y-53500225D01*
X130340004Y-53500343D01*
X130340918Y-53511966D01*
X130342045Y-53547830D01*
X130342046Y-53547837D01*
X130342291Y-53555627D01*
X130344467Y-53563119D01*
X130344468Y-53563121D01*
X130347879Y-53574862D01*
X130351825Y-53593915D01*
X130354336Y-53613792D01*
X130357206Y-53621042D01*
X130357208Y-53621048D01*
X130370414Y-53654404D01*
X130374197Y-53665451D01*
X130386382Y-53707390D01*
X130390353Y-53714105D01*
X130390354Y-53714107D01*
X130396581Y-53724637D01*
X130405136Y-53742099D01*
X130409642Y-53753480D01*
X130409643Y-53753483D01*
X130412514Y-53760732D01*
X130424697Y-53777500D01*
X130438181Y-53796060D01*
X130444594Y-53805823D01*
X130459247Y-53830600D01*
X130476511Y-53892747D01*
X130460225Y-53955158D01*
X130414796Y-54000945D01*
X130352515Y-54017721D01*
X129629424Y-54017721D01*
X129629404Y-54017721D01*
X129626275Y-54017722D01*
X129623143Y-54018041D01*
X129623141Y-54018042D01*
X129530221Y-54027533D01*
X129530211Y-54027534D01*
X129523486Y-54028222D01*
X129517064Y-54030349D01*
X129517059Y-54030351D01*
X129363804Y-54081135D01*
X129363800Y-54081136D01*
X129356949Y-54083407D01*
X129350805Y-54087196D01*
X129350802Y-54087198D01*
X129213771Y-54171718D01*
X129213763Y-54171724D01*
X129207627Y-54175509D01*
X129202525Y-54180610D01*
X129202521Y-54180614D01*
X129088676Y-54294459D01*
X129088672Y-54294463D01*
X129083571Y-54299565D01*
X129079786Y-54305701D01*
X129079780Y-54305709D01*
X128996226Y-54441174D01*
X128991469Y-54448887D01*
X128989198Y-54455738D01*
X128989197Y-54455742D01*
X128938414Y-54608995D01*
X128936284Y-54615424D01*
X128935596Y-54622154D01*
X128935595Y-54622161D01*
X128926102Y-54715080D01*
X128926101Y-54715098D01*
X128925783Y-54718212D01*
X128925783Y-54721359D01*
X128925783Y-54721360D01*
X128925783Y-55615079D01*
X128925783Y-55615098D01*
X128925784Y-55618229D01*
X128926103Y-55621359D01*
X128926104Y-55621364D01*
X128926976Y-55629900D01*
X128914962Y-55697076D01*
X128869225Y-55747722D01*
X128803618Y-55766500D01*
X123681603Y-55766500D01*
X123619603Y-55749887D01*
X123579124Y-55709408D01*
X123578035Y-55710171D01*
X123442495Y-55516599D01*
X123275401Y-55349505D01*
X123270970Y-55346402D01*
X123270966Y-55346399D01*
X123086259Y-55217066D01*
X123086257Y-55217064D01*
X123081830Y-55213965D01*
X123076933Y-55211681D01*
X123076927Y-55211678D01*
X122872572Y-55116386D01*
X122872570Y-55116385D01*
X122867663Y-55114097D01*
X122862438Y-55112697D01*
X122862430Y-55112694D01*
X122644634Y-55054337D01*
X122644630Y-55054336D01*
X122639408Y-55052937D01*
X122634020Y-55052465D01*
X122634017Y-55052465D01*
X122409395Y-55032813D01*
X122404000Y-55032341D01*
X122398605Y-55032813D01*
X122173982Y-55052465D01*
X122173977Y-55052465D01*
X122168592Y-55052937D01*
X122163371Y-55054335D01*
X122163365Y-55054337D01*
X121945569Y-55112694D01*
X121945557Y-55112698D01*
X121940337Y-55114097D01*
X121935432Y-55116383D01*
X121935427Y-55116386D01*
X121731081Y-55211675D01*
X121731077Y-55211677D01*
X121726171Y-55213965D01*
X121721738Y-55217068D01*
X121721731Y-55217073D01*
X121537034Y-55346399D01*
X121537029Y-55346402D01*
X121532599Y-55349505D01*
X121528775Y-55353328D01*
X121528769Y-55353334D01*
X121369334Y-55512769D01*
X121369328Y-55512775D01*
X121365505Y-55516599D01*
X121362402Y-55521029D01*
X121362399Y-55521034D01*
X121233073Y-55705731D01*
X121233068Y-55705738D01*
X121229965Y-55710171D01*
X121227677Y-55715077D01*
X121227675Y-55715081D01*
X121132386Y-55919427D01*
X121132383Y-55919432D01*
X121130097Y-55924337D01*
X121128698Y-55929557D01*
X121128694Y-55929569D01*
X121070337Y-56147365D01*
X121070337Y-56147366D01*
X121068937Y-56152592D01*
X121068465Y-56157977D01*
X121068465Y-56157982D01*
X121051193Y-56355397D01*
X121048341Y-56388000D01*
X121048813Y-56393395D01*
X121067834Y-56610810D01*
X121068937Y-56623408D01*
X121070336Y-56628630D01*
X121070337Y-56628634D01*
X121128694Y-56846430D01*
X121128697Y-56846438D01*
X121130097Y-56851663D01*
X121132385Y-56856570D01*
X121132386Y-56856572D01*
X121227678Y-57060927D01*
X121227681Y-57060933D01*
X121229965Y-57065830D01*
X121233064Y-57070257D01*
X121233066Y-57070259D01*
X121362399Y-57254966D01*
X121362402Y-57254970D01*
X121365505Y-57259401D01*
X121532599Y-57426495D01*
X121537031Y-57429598D01*
X121537033Y-57429600D01*
X121590537Y-57467064D01*
X121726170Y-57562035D01*
X121731070Y-57564320D01*
X121731072Y-57564321D01*
X121754632Y-57575307D01*
X121940337Y-57661903D01*
X122168592Y-57723063D01*
X122404000Y-57743659D01*
X122639408Y-57723063D01*
X122867663Y-57661903D01*
X123081830Y-57562035D01*
X123275401Y-57426495D01*
X123442495Y-57259401D01*
X123574851Y-57070376D01*
X123619170Y-57031511D01*
X123676427Y-57017500D01*
X129188688Y-57017500D01*
X129250062Y-57033754D01*
X129295347Y-57078255D01*
X129312669Y-57139336D01*
X129297489Y-57200985D01*
X129253785Y-57247038D01*
X129207627Y-57275509D01*
X129202525Y-57280610D01*
X129202521Y-57280614D01*
X129088676Y-57394459D01*
X129088672Y-57394463D01*
X129083571Y-57399565D01*
X129079786Y-57405701D01*
X129079780Y-57405709D01*
X128995260Y-57542740D01*
X128991469Y-57548887D01*
X128989198Y-57555738D01*
X128989197Y-57555742D01*
X128938419Y-57708981D01*
X128936284Y-57715424D01*
X128935596Y-57722154D01*
X128935595Y-57722161D01*
X128926102Y-57815080D01*
X128926101Y-57815098D01*
X128925783Y-57818212D01*
X128925783Y-57821359D01*
X128925783Y-57821360D01*
X128925783Y-58715079D01*
X128925783Y-58715098D01*
X128925784Y-58718229D01*
X128926103Y-58721361D01*
X128926104Y-58721362D01*
X128935595Y-58814282D01*
X128935596Y-58814290D01*
X128936284Y-58821018D01*
X128938412Y-58827440D01*
X128938413Y-58827444D01*
X128980927Y-58955742D01*
X128991469Y-58987555D01*
X128995260Y-58993701D01*
X129079780Y-59130732D01*
X129079783Y-59130736D01*
X129083571Y-59136877D01*
X129207627Y-59260933D01*
X129213768Y-59264721D01*
X129213771Y-59264723D01*
X129262671Y-59294884D01*
X129351111Y-59349434D01*
X129356949Y-59353035D01*
X129356341Y-59354020D01*
X129403175Y-59395084D01*
X129422601Y-59461705D01*
X129403191Y-59528330D01*
X129356344Y-59569426D01*
X129356949Y-59570407D01*
X129351148Y-59573984D01*
X129351144Y-59573987D01*
X129350813Y-59574191D01*
X129350808Y-59574194D01*
X129213771Y-59658718D01*
X129213763Y-59658724D01*
X129207627Y-59662509D01*
X129202525Y-59667610D01*
X129202521Y-59667614D01*
X129088676Y-59781459D01*
X129088672Y-59781463D01*
X129083571Y-59786565D01*
X129079786Y-59792701D01*
X129079780Y-59792709D01*
X128996029Y-59928494D01*
X128991469Y-59935887D01*
X128989198Y-59942738D01*
X128989197Y-59942742D01*
X128938414Y-60095995D01*
X128936284Y-60102424D01*
X128935596Y-60109154D01*
X128935595Y-60109161D01*
X128926102Y-60202080D01*
X128926101Y-60202098D01*
X128925783Y-60205212D01*
X128925783Y-60208359D01*
X128925783Y-60208360D01*
X128925783Y-61102079D01*
X128925783Y-61102098D01*
X128925784Y-61105229D01*
X128926103Y-61108361D01*
X128926104Y-61108362D01*
X128935595Y-61201282D01*
X128935596Y-61201290D01*
X128936284Y-61208018D01*
X128938412Y-61214440D01*
X128938413Y-61214444D01*
X128984212Y-61352656D01*
X128991469Y-61374555D01*
X128995260Y-61380701D01*
X129079780Y-61517732D01*
X129079783Y-61517736D01*
X129083571Y-61523877D01*
X129207627Y-61647933D01*
X129213768Y-61651721D01*
X129213771Y-61651723D01*
X129251777Y-61675165D01*
X129356949Y-61740035D01*
X129523486Y-61795220D01*
X129626274Y-61805721D01*
X130976291Y-61805720D01*
X131079080Y-61795220D01*
X131245617Y-61740035D01*
X131394939Y-61647933D01*
X131518995Y-61523877D01*
X131611097Y-61374555D01*
X131613484Y-61367351D01*
X131614028Y-61365713D01*
X131615354Y-61363440D01*
X131616421Y-61361154D01*
X131616632Y-61361252D01*
X131639907Y-61321389D01*
X131681518Y-61291343D01*
X131731732Y-61280721D01*
X132746769Y-61280721D01*
X132794222Y-61290160D01*
X132834449Y-61317039D01*
X135283913Y-63766504D01*
X137732707Y-66215298D01*
X137740159Y-66223487D01*
X137744214Y-66229877D01*
X137793223Y-66275900D01*
X137796019Y-66278610D01*
X137815529Y-66298120D01*
X137818709Y-66300587D01*
X137827571Y-66308155D01*
X137841020Y-66320785D01*
X137853732Y-66332723D01*
X137853734Y-66332724D01*
X137859418Y-66338062D01*
X137866251Y-66341818D01*
X137866252Y-66341819D01*
X137876973Y-66347713D01*
X137893234Y-66358394D01*
X137909064Y-66370673D01*
X137949155Y-66388021D01*
X137959635Y-66393155D01*
X137997908Y-66414197D01*
X138017316Y-66419180D01*
X138035719Y-66425481D01*
X138046944Y-66430339D01*
X138046946Y-66430339D01*
X138054104Y-66433437D01*
X138097258Y-66440271D01*
X138108644Y-66442629D01*
X138150981Y-66453500D01*
X138171017Y-66453500D01*
X138190415Y-66455027D01*
X138202486Y-66456939D01*
X138202487Y-66456939D01*
X138210196Y-66458160D01*
X138248276Y-66454560D01*
X138253676Y-66454050D01*
X138265345Y-66453500D01*
X140519548Y-66453500D01*
X140567001Y-66462939D01*
X140607229Y-66489819D01*
X142941681Y-68824272D01*
X142968561Y-68864500D01*
X142978000Y-68911953D01*
X142978000Y-69342000D01*
X142978000Y-74422000D01*
X143474811Y-74422000D01*
X143519817Y-74430456D01*
X143550304Y-74449449D01*
X143551175Y-74448331D01*
X143555215Y-74451476D01*
X143558990Y-74454951D01*
X143563278Y-74457752D01*
X143563280Y-74457754D01*
X143599175Y-74481205D01*
X143760578Y-74586655D01*
X143981095Y-74683383D01*
X144214524Y-74742495D01*
X144394400Y-74757400D01*
X144607030Y-74757400D01*
X144609600Y-74757400D01*
X144789476Y-74742495D01*
X145022905Y-74683383D01*
X145243422Y-74586655D01*
X145445010Y-74454951D01*
X145448786Y-74451474D01*
X145452825Y-74448331D01*
X145453695Y-74449449D01*
X145484183Y-74430456D01*
X145529189Y-74422000D01*
X149836000Y-74422000D01*
X159871500Y-74422000D01*
X159933500Y-74438613D01*
X159978887Y-74484000D01*
X159995500Y-74546000D01*
X159995500Y-76728519D01*
X159995305Y-76735472D01*
X159989029Y-76847215D01*
X159988998Y-76847749D01*
X159977182Y-77043102D01*
X159975656Y-77056386D01*
X159951756Y-77197049D01*
X159951477Y-77198630D01*
X159921654Y-77361368D01*
X159918839Y-77373344D01*
X159877700Y-77516139D01*
X159876931Y-77518701D01*
X159829481Y-77670974D01*
X159825657Y-77681537D01*
X159767874Y-77821036D01*
X159766388Y-77824475D01*
X159701908Y-77967742D01*
X159697362Y-77976830D01*
X159665123Y-78035164D01*
X159623755Y-78110013D01*
X159621357Y-78114160D01*
X159540650Y-78247663D01*
X159535663Y-78255267D01*
X159447270Y-78379845D01*
X159443752Y-78384563D01*
X159347916Y-78506889D01*
X159342765Y-78513043D01*
X159240751Y-78627197D01*
X159235972Y-78632251D01*
X159126251Y-78741972D01*
X159121197Y-78746751D01*
X159007043Y-78848765D01*
X159000889Y-78853916D01*
X158878563Y-78949752D01*
X158873845Y-78953270D01*
X158749267Y-79041663D01*
X158741663Y-79046650D01*
X158608160Y-79127357D01*
X158604013Y-79129755D01*
X158562383Y-79152763D01*
X158470830Y-79203362D01*
X158461742Y-79207908D01*
X158318475Y-79272388D01*
X158315036Y-79273874D01*
X158175537Y-79331657D01*
X158164974Y-79335481D01*
X158012701Y-79382931D01*
X158010139Y-79383700D01*
X157867344Y-79424839D01*
X157855368Y-79427654D01*
X157692630Y-79457477D01*
X157691049Y-79457756D01*
X157550386Y-79481656D01*
X157537102Y-79483182D01*
X157341749Y-79494998D01*
X157341215Y-79495029D01*
X157229472Y-79501305D01*
X157222519Y-79501500D01*
X122635481Y-79501500D01*
X122628528Y-79501305D01*
X122516783Y-79495029D01*
X122516249Y-79494998D01*
X122320896Y-79483182D01*
X122307612Y-79481656D01*
X122166949Y-79457756D01*
X122165368Y-79457477D01*
X122002630Y-79427654D01*
X121990654Y-79424839D01*
X121847859Y-79383700D01*
X121845297Y-79382931D01*
X121693024Y-79335481D01*
X121682461Y-79331657D01*
X121542962Y-79273874D01*
X121539523Y-79272388D01*
X121396256Y-79207908D01*
X121387168Y-79203362D01*
X121368101Y-79192824D01*
X121253941Y-79129731D01*
X121249854Y-79127366D01*
X121198792Y-79096498D01*
X121116335Y-79046650D01*
X121108731Y-79041663D01*
X120984153Y-78953270D01*
X120979435Y-78949752D01*
X120857109Y-78853916D01*
X120850955Y-78848765D01*
X120736801Y-78746751D01*
X120731747Y-78741972D01*
X120622026Y-78632251D01*
X120617247Y-78627197D01*
X120515233Y-78513043D01*
X120510082Y-78506889D01*
X120414246Y-78384563D01*
X120410728Y-78379845D01*
X120383450Y-78341401D01*
X120322335Y-78255267D01*
X120317348Y-78247663D01*
X120299371Y-78217926D01*
X120236613Y-78114113D01*
X120234287Y-78110091D01*
X120160630Y-77976818D01*
X120156090Y-77967742D01*
X120148176Y-77950158D01*
X120091592Y-77824434D01*
X120090124Y-77821036D01*
X120032336Y-77681523D01*
X120028522Y-77670989D01*
X119981049Y-77518643D01*
X119980315Y-77516197D01*
X119939154Y-77373322D01*
X119936349Y-77361392D01*
X119906489Y-77198450D01*
X119906275Y-77197240D01*
X119882338Y-77056355D01*
X119880819Y-77043132D01*
X119868986Y-76847495D01*
X119868970Y-76847215D01*
X119862694Y-76735471D01*
X119862500Y-76728521D01*
X119862500Y-72857200D01*
X120440912Y-72857200D01*
X120441384Y-72862595D01*
X120459727Y-73072259D01*
X120461508Y-73092608D01*
X120462907Y-73097830D01*
X120462908Y-73097834D01*
X120521265Y-73315630D01*
X120521268Y-73315638D01*
X120522668Y-73320863D01*
X120524956Y-73325770D01*
X120524957Y-73325772D01*
X120620249Y-73530127D01*
X120620252Y-73530133D01*
X120622536Y-73535030D01*
X120625635Y-73539457D01*
X120625637Y-73539459D01*
X120754970Y-73724166D01*
X120754973Y-73724170D01*
X120758076Y-73728601D01*
X120925170Y-73895695D01*
X120929602Y-73898798D01*
X120929604Y-73898800D01*
X121017480Y-73960331D01*
X121118741Y-74031235D01*
X121332908Y-74131103D01*
X121561163Y-74192263D01*
X121796571Y-74212859D01*
X122031979Y-74192263D01*
X122260234Y-74131103D01*
X122474401Y-74031235D01*
X122667972Y-73895695D01*
X122835066Y-73728601D01*
X122914021Y-73615840D01*
X122970224Y-73535576D01*
X123014542Y-73496711D01*
X123071799Y-73482700D01*
X123198748Y-73482700D01*
X123246201Y-73492139D01*
X123286428Y-73519018D01*
X123482976Y-73715567D01*
X123672707Y-73905298D01*
X123680159Y-73913487D01*
X123684214Y-73919877D01*
X123727293Y-73960331D01*
X123733223Y-73965900D01*
X123736020Y-73968611D01*
X123755529Y-73988120D01*
X123758709Y-73990587D01*
X123767571Y-73998155D01*
X123781020Y-74010785D01*
X123793732Y-74022723D01*
X123793734Y-74022724D01*
X123799418Y-74028062D01*
X123806251Y-74031818D01*
X123806252Y-74031819D01*
X123816973Y-74037713D01*
X123833234Y-74048394D01*
X123849064Y-74060673D01*
X123889155Y-74078021D01*
X123899633Y-74083155D01*
X123931068Y-74100437D01*
X123931070Y-74100437D01*
X123937908Y-74104197D01*
X123945467Y-74106137D01*
X123949284Y-74107649D01*
X123995648Y-74139815D01*
X124022958Y-74189197D01*
X124025556Y-74245567D01*
X124002905Y-74297252D01*
X123949521Y-74368564D01*
X123949516Y-74368572D01*
X123944204Y-74375669D01*
X123941104Y-74383978D01*
X123941104Y-74383980D01*
X123896620Y-74503247D01*
X123896619Y-74503250D01*
X123893909Y-74510517D01*
X123893079Y-74518227D01*
X123893079Y-74518232D01*
X123887855Y-74566819D01*
X123887854Y-74566831D01*
X123887500Y-74570127D01*
X123887500Y-74573448D01*
X123887500Y-74573449D01*
X123887500Y-75062560D01*
X123887500Y-75062578D01*
X123887501Y-75065872D01*
X123887853Y-75069150D01*
X123887854Y-75069161D01*
X123893079Y-75117768D01*
X123893080Y-75117773D01*
X123893909Y-75125483D01*
X123896619Y-75132749D01*
X123896620Y-75132753D01*
X123906789Y-75160017D01*
X123944204Y-75260331D01*
X124030454Y-75375546D01*
X124145669Y-75461796D01*
X124280517Y-75512091D01*
X124340127Y-75518500D01*
X124388500Y-75518500D01*
X124450500Y-75535113D01*
X124495887Y-75580500D01*
X124512500Y-75642500D01*
X124512500Y-75723976D01*
X124497929Y-75782297D01*
X124457640Y-75826912D01*
X124401101Y-75847334D01*
X124371938Y-75850312D01*
X124371928Y-75850313D01*
X124365203Y-75851001D01*
X124358781Y-75853128D01*
X124358776Y-75853130D01*
X124205521Y-75903914D01*
X124205517Y-75903915D01*
X124198666Y-75906186D01*
X124192522Y-75909975D01*
X124192519Y-75909977D01*
X124055488Y-75994497D01*
X124055480Y-75994503D01*
X124049344Y-75998288D01*
X124044242Y-76003389D01*
X124044238Y-76003393D01*
X123930393Y-76117238D01*
X123930389Y-76117242D01*
X123925288Y-76122344D01*
X123921503Y-76128480D01*
X123921497Y-76128488D01*
X123842073Y-76257257D01*
X123833186Y-76271666D01*
X123830915Y-76278517D01*
X123830914Y-76278521D01*
X123780131Y-76431774D01*
X123778001Y-76438203D01*
X123777313Y-76444931D01*
X123777312Y-76444939D01*
X123773823Y-76479102D01*
X123753400Y-76535640D01*
X123708786Y-76575929D01*
X123650465Y-76590500D01*
X123409771Y-76590500D01*
X123398718Y-76589979D01*
X123391332Y-76588328D01*
X123383534Y-76588573D01*
X123324144Y-76590439D01*
X123320250Y-76590500D01*
X123292650Y-76590500D01*
X123288799Y-76590986D01*
X123288768Y-76590988D01*
X123288640Y-76591005D01*
X123277029Y-76591918D01*
X123241172Y-76593045D01*
X123241165Y-76593046D01*
X123233373Y-76593291D01*
X123225888Y-76595465D01*
X123225872Y-76595468D01*
X123214126Y-76598881D01*
X123195083Y-76602825D01*
X123182949Y-76604358D01*
X123182948Y-76604358D01*
X123175208Y-76605336D01*
X123167958Y-76608205D01*
X123167951Y-76608208D01*
X123134598Y-76621413D01*
X123123554Y-76625194D01*
X123089105Y-76635203D01*
X123089095Y-76635207D01*
X123081610Y-76637382D01*
X123074900Y-76641349D01*
X123074898Y-76641351D01*
X123071505Y-76643357D01*
X123064360Y-76647583D01*
X123046900Y-76656136D01*
X123028268Y-76663514D01*
X123021965Y-76668092D01*
X123021958Y-76668097D01*
X122992939Y-76689181D01*
X122983179Y-76695592D01*
X122952294Y-76713857D01*
X122952284Y-76713864D01*
X122945579Y-76717830D01*
X122940063Y-76723345D01*
X122940060Y-76723348D01*
X122931407Y-76732000D01*
X122916624Y-76744626D01*
X122906727Y-76751817D01*
X122906720Y-76751823D01*
X122900413Y-76756406D01*
X122895446Y-76762408D01*
X122895435Y-76762420D01*
X122872570Y-76790059D01*
X122864710Y-76798697D01*
X122362228Y-77301181D01*
X122322000Y-77328061D01*
X122274547Y-77337500D01*
X122215354Y-77337500D01*
X122208995Y-77338851D01*
X122208991Y-77338852D01*
X122036559Y-77375503D01*
X122036552Y-77375505D01*
X122030197Y-77376856D01*
X122024262Y-77379498D01*
X122024254Y-77379501D01*
X121863207Y-77451205D01*
X121863202Y-77451207D01*
X121857270Y-77453849D01*
X121852016Y-77457665D01*
X121852011Y-77457669D01*
X121709388Y-77561290D01*
X121709381Y-77561295D01*
X121704129Y-77565112D01*
X121699784Y-77569937D01*
X121699779Y-77569942D01*
X121581813Y-77700956D01*
X121581808Y-77700962D01*
X121577467Y-77705784D01*
X121574222Y-77711404D01*
X121574218Y-77711410D01*
X121486069Y-77864089D01*
X121486066Y-77864094D01*
X121482821Y-77869716D01*
X121480815Y-77875888D01*
X121480813Y-77875894D01*
X121426333Y-78043564D01*
X121426331Y-78043573D01*
X121424326Y-78049744D01*
X121423648Y-78056194D01*
X121423646Y-78056204D01*
X121407960Y-78205463D01*
X121404540Y-78238000D01*
X121405219Y-78244460D01*
X121423646Y-78419795D01*
X121423647Y-78419803D01*
X121424326Y-78426256D01*
X121426331Y-78432428D01*
X121426333Y-78432435D01*
X121477913Y-78591180D01*
X121482821Y-78606284D01*
X121486068Y-78611908D01*
X121486069Y-78611910D01*
X121563919Y-78746751D01*
X121577467Y-78770216D01*
X121581811Y-78775041D01*
X121581813Y-78775043D01*
X121626963Y-78825187D01*
X121704129Y-78910888D01*
X121857270Y-79022151D01*
X122030197Y-79099144D01*
X122215354Y-79138500D01*
X122398143Y-79138500D01*
X122404646Y-79138500D01*
X122589803Y-79099144D01*
X122762730Y-79022151D01*
X122915871Y-78910888D01*
X123042533Y-78770216D01*
X123137179Y-78606284D01*
X123195674Y-78426256D01*
X123213321Y-78258345D01*
X123224721Y-78217926D01*
X123248955Y-78183634D01*
X123554774Y-77877816D01*
X123595000Y-77850939D01*
X123642453Y-77841500D01*
X123650465Y-77841500D01*
X123708786Y-77856071D01*
X123753400Y-77896360D01*
X123773823Y-77952898D01*
X123778001Y-77993797D01*
X123780129Y-78000219D01*
X123780130Y-78000223D01*
X123830510Y-78152259D01*
X123833186Y-78160334D01*
X123836977Y-78166480D01*
X123921497Y-78303511D01*
X123921500Y-78303515D01*
X123925288Y-78309656D01*
X124049344Y-78433712D01*
X124055485Y-78437500D01*
X124055488Y-78437502D01*
X124089945Y-78458755D01*
X124198666Y-78525814D01*
X124365203Y-78580999D01*
X124467991Y-78591500D01*
X125368008Y-78591499D01*
X125470797Y-78580999D01*
X125637334Y-78525814D01*
X125786656Y-78433712D01*
X125910712Y-78309656D01*
X126002814Y-78160334D01*
X126057999Y-77993797D01*
X126068500Y-77891009D01*
X126068499Y-76733311D01*
X126082015Y-76677016D01*
X126119615Y-76632993D01*
X126173104Y-76610838D01*
X126230821Y-76615382D01*
X126234249Y-76616496D01*
X126240197Y-76619144D01*
X126425354Y-76658500D01*
X126608143Y-76658500D01*
X126614646Y-76658500D01*
X126717720Y-76636591D01*
X126772447Y-76637307D01*
X126821536Y-76661515D01*
X126855421Y-76704498D01*
X126867500Y-76757881D01*
X126867500Y-77887859D01*
X126867501Y-77887877D01*
X126867501Y-77891008D01*
X126867820Y-77894140D01*
X126867821Y-77894141D01*
X126877312Y-77987061D01*
X126877313Y-77987069D01*
X126878001Y-77993797D01*
X126880129Y-78000219D01*
X126880130Y-78000223D01*
X126930510Y-78152259D01*
X126933186Y-78160334D01*
X126936977Y-78166480D01*
X127021497Y-78303511D01*
X127021500Y-78303515D01*
X127025288Y-78309656D01*
X127149344Y-78433712D01*
X127155485Y-78437500D01*
X127155488Y-78437502D01*
X127189945Y-78458755D01*
X127298666Y-78525814D01*
X127465203Y-78580999D01*
X127567991Y-78591500D01*
X128468008Y-78591499D01*
X128570797Y-78580999D01*
X128737334Y-78525814D01*
X128886656Y-78433712D01*
X129010712Y-78309656D01*
X129102814Y-78160334D01*
X129157999Y-77993797D01*
X129168500Y-77891009D01*
X129168499Y-77887322D01*
X129168536Y-77887139D01*
X129168661Y-77884700D01*
X129169024Y-77884718D01*
X129178181Y-77839259D01*
X129205738Y-77798702D01*
X129241748Y-77775317D01*
X129241639Y-77775118D01*
X129244360Y-77773621D01*
X129246860Y-77771998D01*
X129255732Y-77768486D01*
X129291069Y-77742811D01*
X129300824Y-77736403D01*
X129338420Y-77714170D01*
X129352584Y-77700005D01*
X129367379Y-77687368D01*
X129383587Y-77675594D01*
X129411428Y-77641938D01*
X129419279Y-77633309D01*
X129797313Y-77255275D01*
X129805480Y-77247844D01*
X129811877Y-77243786D01*
X129857918Y-77194756D01*
X129860535Y-77192054D01*
X129880120Y-77172471D01*
X129882585Y-77169292D01*
X129890167Y-77160416D01*
X129920062Y-77128582D01*
X129929713Y-77111023D01*
X129940390Y-77094770D01*
X129952673Y-77078936D01*
X129970026Y-77038832D01*
X129975158Y-77028361D01*
X129992435Y-76996935D01*
X129992435Y-76996934D01*
X129996197Y-76990092D01*
X130001177Y-76970691D01*
X130007481Y-76952281D01*
X130011238Y-76943600D01*
X130015438Y-76933896D01*
X130022272Y-76890741D01*
X130024638Y-76879321D01*
X130033560Y-76844574D01*
X130035500Y-76837019D01*
X130035500Y-76816983D01*
X130037025Y-76797597D01*
X130040160Y-76777804D01*
X130036482Y-76738897D01*
X130036050Y-76734324D01*
X130035500Y-76722655D01*
X130035500Y-76421727D01*
X130049624Y-76364252D01*
X130088780Y-76319871D01*
X130144046Y-76298694D01*
X130202833Y-76305545D01*
X130241056Y-76319800D01*
X130291167Y-76338491D01*
X130350777Y-76344900D01*
X132110222Y-76344899D01*
X132169833Y-76338491D01*
X132304681Y-76288196D01*
X132402146Y-76215233D01*
X132437299Y-76196846D01*
X132476458Y-76190500D01*
X132725225Y-76190500D01*
X132736280Y-76191021D01*
X132743667Y-76192673D01*
X132810872Y-76190561D01*
X132814768Y-76190500D01*
X132838448Y-76190500D01*
X132842350Y-76190500D01*
X132846313Y-76189999D01*
X132857963Y-76189080D01*
X132901627Y-76187709D01*
X132920861Y-76182119D01*
X132939917Y-76178174D01*
X132959792Y-76175664D01*
X132967050Y-76172790D01*
X132970307Y-76171954D01*
X133005354Y-76169383D01*
X133005354Y-76168500D01*
X133188143Y-76168500D01*
X133194646Y-76168500D01*
X133379803Y-76129144D01*
X133552730Y-76052151D01*
X133705871Y-75940888D01*
X133832533Y-75800216D01*
X133927179Y-75636284D01*
X133985674Y-75456256D01*
X134005460Y-75268000D01*
X133985674Y-75079744D01*
X133927179Y-74899716D01*
X133832533Y-74735784D01*
X133795443Y-74694592D01*
X133710220Y-74599942D01*
X133710219Y-74599941D01*
X133705871Y-74595112D01*
X133700613Y-74591292D01*
X133700611Y-74591290D01*
X133557988Y-74487669D01*
X133557987Y-74487668D01*
X133552730Y-74483849D01*
X133533940Y-74475483D01*
X133385745Y-74409501D01*
X133385740Y-74409499D01*
X133379803Y-74406856D01*
X133373444Y-74405504D01*
X133373440Y-74405503D01*
X133201008Y-74368852D01*
X133201005Y-74368851D01*
X133194646Y-74367500D01*
X133005354Y-74367500D01*
X132998995Y-74368851D01*
X132998991Y-74368852D01*
X132826559Y-74405503D01*
X132826552Y-74405505D01*
X132820197Y-74406856D01*
X132737282Y-74443772D01*
X132677120Y-74454110D01*
X132619314Y-74434487D01*
X132577876Y-74389660D01*
X132562849Y-74330492D01*
X132562849Y-73971039D01*
X132562849Y-73967728D01*
X132556441Y-73908117D01*
X132506146Y-73773269D01*
X132476980Y-73734308D01*
X132455081Y-73686359D01*
X132455081Y-73633641D01*
X132476980Y-73585691D01*
X132506146Y-73546731D01*
X132556441Y-73411883D01*
X132562850Y-73352273D01*
X132562849Y-72697728D01*
X132556441Y-72638117D01*
X132506146Y-72503269D01*
X132419896Y-72388054D01*
X132304681Y-72301804D01*
X132296373Y-72298705D01*
X132296367Y-72298702D01*
X132273665Y-72290235D01*
X132231430Y-72263796D01*
X132203012Y-72222866D01*
X132193000Y-72174054D01*
X132193000Y-72159483D01*
X132194525Y-72140097D01*
X132197660Y-72120304D01*
X132196755Y-72110730D01*
X132197028Y-72109258D01*
X132197171Y-72104736D01*
X132197865Y-72104757D01*
X132209199Y-72043793D01*
X132255108Y-71993516D01*
X132265055Y-71987381D01*
X132328350Y-71948340D01*
X132450340Y-71826350D01*
X132540908Y-71679516D01*
X132595174Y-71515753D01*
X132605500Y-71414677D01*
X132605499Y-70841324D01*
X132601288Y-70800100D01*
X132613302Y-70732925D01*
X132659038Y-70682278D01*
X132724646Y-70663500D01*
X133552225Y-70663500D01*
X133563280Y-70664021D01*
X133570667Y-70665673D01*
X133637872Y-70663561D01*
X133641768Y-70663500D01*
X133665448Y-70663500D01*
X133669350Y-70663500D01*
X133673313Y-70662999D01*
X133684963Y-70662080D01*
X133728627Y-70660709D01*
X133747861Y-70655119D01*
X133766917Y-70651174D01*
X133786792Y-70648664D01*
X133819406Y-70635751D01*
X133827397Y-70632587D01*
X133838450Y-70628802D01*
X133880390Y-70616618D01*
X133897629Y-70606422D01*
X133915103Y-70597862D01*
X133926476Y-70593359D01*
X133926477Y-70593358D01*
X133933732Y-70590486D01*
X133937027Y-70588091D01*
X133996942Y-70573205D01*
X134058118Y-70590456D01*
X134102709Y-70635751D01*
X134119000Y-70697190D01*
X134119000Y-71149526D01*
X134119000Y-71149545D01*
X134119001Y-71152676D01*
X134119320Y-71155808D01*
X134119321Y-71155809D01*
X134128637Y-71247017D01*
X134128638Y-71247025D01*
X134129326Y-71253753D01*
X134131454Y-71260175D01*
X134131455Y-71260179D01*
X134176728Y-71396804D01*
X134183592Y-71417516D01*
X134274160Y-71564350D01*
X134396150Y-71686340D01*
X134445989Y-71717081D01*
X134472597Y-71733493D01*
X134515777Y-71778600D01*
X134531500Y-71839032D01*
X134531500Y-75584675D01*
X134530978Y-75595730D01*
X134529327Y-75603117D01*
X134529571Y-75610903D01*
X134529571Y-75610911D01*
X134531439Y-75670323D01*
X134531500Y-75674218D01*
X134531500Y-75701800D01*
X134531988Y-75705669D01*
X134531989Y-75705675D01*
X134532004Y-75705793D01*
X134532918Y-75717416D01*
X134534045Y-75753280D01*
X134534046Y-75753287D01*
X134534291Y-75761077D01*
X134536467Y-75768569D01*
X134536468Y-75768571D01*
X134539879Y-75780312D01*
X134543825Y-75799365D01*
X134543932Y-75800216D01*
X134546336Y-75819242D01*
X134549206Y-75826492D01*
X134549208Y-75826498D01*
X134562414Y-75859854D01*
X134566197Y-75870901D01*
X134578382Y-75912840D01*
X134582353Y-75919555D01*
X134582354Y-75919557D01*
X134588581Y-75930087D01*
X134597136Y-75947549D01*
X134601642Y-75958930D01*
X134601643Y-75958933D01*
X134604514Y-75966182D01*
X134616223Y-75982298D01*
X134630181Y-76001510D01*
X134636593Y-76011272D01*
X134654856Y-76042152D01*
X134654859Y-76042157D01*
X134658830Y-76048870D01*
X134664344Y-76054384D01*
X134664345Y-76054385D01*
X134672990Y-76063030D01*
X134685626Y-76077824D01*
X134692819Y-76087725D01*
X134692823Y-76087729D01*
X134697406Y-76094037D01*
X134703415Y-76099008D01*
X134703416Y-76099009D01*
X134731058Y-76121876D01*
X134739699Y-76129739D01*
X135513331Y-76903372D01*
X135540211Y-76943600D01*
X135549650Y-76991052D01*
X135549650Y-77158960D01*
X135549650Y-77158978D01*
X135549651Y-77162272D01*
X135550003Y-77165550D01*
X135550004Y-77165561D01*
X135555229Y-77214168D01*
X135555230Y-77214173D01*
X135556059Y-77221883D01*
X135558769Y-77229149D01*
X135558770Y-77229153D01*
X135585635Y-77301181D01*
X135606354Y-77356731D01*
X135611668Y-77363830D01*
X135611669Y-77363831D01*
X135687108Y-77464605D01*
X135692604Y-77471946D01*
X135807819Y-77558196D01*
X135942667Y-77608491D01*
X136002277Y-77614900D01*
X137761722Y-77614899D01*
X137821333Y-77608491D01*
X137956181Y-77558196D01*
X138041404Y-77494397D01*
X138095149Y-77471382D01*
X138153469Y-77475553D01*
X138203394Y-77505984D01*
X138554707Y-77857297D01*
X138562156Y-77865483D01*
X138566214Y-77871877D01*
X138571899Y-77877215D01*
X138571901Y-77877218D01*
X138615239Y-77917915D01*
X138618035Y-77920625D01*
X138637530Y-77940120D01*
X138640615Y-77942513D01*
X138640701Y-77942580D01*
X138649573Y-77950158D01*
X138681418Y-77980062D01*
X138688248Y-77983817D01*
X138688251Y-77983819D01*
X138698971Y-77989712D01*
X138715222Y-78000386D01*
X138731064Y-78012674D01*
X138738221Y-78015771D01*
X138738223Y-78015772D01*
X138771155Y-78030022D01*
X138781650Y-78035164D01*
X138819908Y-78056197D01*
X138839312Y-78061179D01*
X138857714Y-78067480D01*
X138868941Y-78072338D01*
X138876105Y-78075438D01*
X138913697Y-78081391D01*
X138919239Y-78082269D01*
X138930682Y-78084639D01*
X138965425Y-78093560D01*
X138965426Y-78093560D01*
X138972981Y-78095500D01*
X138993017Y-78095500D01*
X139012402Y-78097025D01*
X139032196Y-78100160D01*
X139070276Y-78096560D01*
X139075676Y-78096050D01*
X139087345Y-78095500D01*
X139653639Y-78095500D01*
X139710896Y-78109511D01*
X139755214Y-78148376D01*
X139887266Y-78336966D01*
X139887269Y-78336970D01*
X139890372Y-78341401D01*
X140057466Y-78508495D01*
X140061898Y-78511598D01*
X140061900Y-78511600D01*
X140197123Y-78606284D01*
X140251037Y-78644035D01*
X140465204Y-78743903D01*
X140693459Y-78805063D01*
X140928867Y-78825659D01*
X141164275Y-78805063D01*
X141392530Y-78743903D01*
X141606697Y-78644035D01*
X141800268Y-78508495D01*
X141967362Y-78341401D01*
X142102902Y-78147830D01*
X142202770Y-77933663D01*
X142263930Y-77705408D01*
X142284526Y-77470000D01*
X142263930Y-77234592D01*
X142202770Y-77006337D01*
X142102902Y-76792171D01*
X141967362Y-76598599D01*
X141800268Y-76431505D01*
X141795835Y-76428401D01*
X141795828Y-76428395D01*
X141614709Y-76301575D01*
X141575843Y-76257257D01*
X141561832Y-76200000D01*
X141575843Y-76142743D01*
X141614709Y-76098425D01*
X141795828Y-75971604D01*
X141795828Y-75971603D01*
X141800268Y-75968495D01*
X141967362Y-75801401D01*
X142102902Y-75607830D01*
X142202770Y-75393663D01*
X142263930Y-75165408D01*
X142284526Y-74930000D01*
X142263930Y-74694592D01*
X142202770Y-74466337D01*
X142102902Y-74252171D01*
X141967362Y-74058599D01*
X141800268Y-73891505D01*
X141795835Y-73888401D01*
X141795828Y-73888395D01*
X141614709Y-73761575D01*
X141575843Y-73717257D01*
X141561832Y-73660000D01*
X141575843Y-73602743D01*
X141614709Y-73558425D01*
X141795828Y-73431604D01*
X141795828Y-73431603D01*
X141800268Y-73428495D01*
X141967362Y-73261401D01*
X142102902Y-73067830D01*
X142202770Y-72853663D01*
X142263930Y-72625408D01*
X142284526Y-72390000D01*
X142263930Y-72154592D01*
X142209860Y-71952797D01*
X142204172Y-71931569D01*
X142204171Y-71931567D01*
X142202770Y-71926337D01*
X142102902Y-71712171D01*
X141967362Y-71518599D01*
X141845436Y-71396673D01*
X141814140Y-71343927D01*
X141811951Y-71282634D01*
X141839404Y-71227789D01*
X141889783Y-71192810D01*
X142021198Y-71143796D01*
X142136413Y-71057546D01*
X142222663Y-70942331D01*
X142272958Y-70807483D01*
X142279367Y-70747873D01*
X142279366Y-68952128D01*
X142272958Y-68892517D01*
X142222663Y-68757669D01*
X142136413Y-68642454D01*
X142044684Y-68573786D01*
X142028298Y-68561519D01*
X142028297Y-68561518D01*
X142021198Y-68556204D01*
X141886350Y-68505909D01*
X141878637Y-68505079D01*
X141878634Y-68505079D01*
X141830047Y-68499855D01*
X141830036Y-68499854D01*
X141826740Y-68499500D01*
X141823417Y-68499500D01*
X140034306Y-68499500D01*
X140034287Y-68499500D01*
X140030995Y-68499501D01*
X140027717Y-68499853D01*
X140027705Y-68499854D01*
X139979098Y-68505079D01*
X139979092Y-68505080D01*
X139971384Y-68505909D01*
X139964119Y-68508618D01*
X139964113Y-68508620D01*
X139844847Y-68553104D01*
X139844845Y-68553104D01*
X139836536Y-68556204D01*
X139829439Y-68561516D01*
X139829435Y-68561519D01*
X139728417Y-68637141D01*
X139728413Y-68637144D01*
X139721321Y-68642454D01*
X139716011Y-68649546D01*
X139716008Y-68649550D01*
X139640386Y-68750568D01*
X139640383Y-68750572D01*
X139635071Y-68757669D01*
X139631971Y-68765978D01*
X139631971Y-68765980D01*
X139587487Y-68885247D01*
X139587486Y-68885250D01*
X139584776Y-68892517D01*
X139583946Y-68900227D01*
X139583946Y-68900232D01*
X139578722Y-68948819D01*
X139578721Y-68948831D01*
X139578367Y-68952127D01*
X139578367Y-68955449D01*
X139578367Y-69128476D01*
X139568677Y-69176530D01*
X139541122Y-69217074D01*
X139500011Y-69243768D01*
X139485258Y-69249610D01*
X139470596Y-69255414D01*
X139459554Y-69259194D01*
X139425101Y-69269204D01*
X139425090Y-69269208D01*
X139417610Y-69271382D01*
X139410898Y-69275351D01*
X139410896Y-69275352D01*
X139400364Y-69281580D01*
X139382904Y-69290134D01*
X139371519Y-69294642D01*
X139371513Y-69294644D01*
X139364268Y-69297514D01*
X139357963Y-69302094D01*
X139357955Y-69302099D01*
X139328932Y-69323185D01*
X139319174Y-69329595D01*
X139288296Y-69347857D01*
X139288290Y-69347861D01*
X139281580Y-69351830D01*
X139276067Y-69357341D01*
X139276060Y-69357348D01*
X139267410Y-69365998D01*
X139252627Y-69378624D01*
X139242726Y-69385817D01*
X139242716Y-69385826D01*
X139236413Y-69390406D01*
X139231444Y-69396411D01*
X139231441Y-69396415D01*
X139208572Y-69424059D01*
X139200711Y-69432697D01*
X138429228Y-70204181D01*
X138389000Y-70231061D01*
X138341547Y-70240500D01*
X137878982Y-70240500D01*
X137818551Y-70224778D01*
X137773445Y-70181599D01*
X137768637Y-70173804D01*
X137768631Y-70173797D01*
X137764840Y-70167650D01*
X137642850Y-70045660D01*
X137496016Y-69955092D01*
X137489164Y-69952821D01*
X137489161Y-69952820D01*
X137396588Y-69922144D01*
X137332253Y-69900826D01*
X137325520Y-69900138D01*
X137325515Y-69900137D01*
X137234308Y-69890819D01*
X137234291Y-69890818D01*
X137231177Y-69890500D01*
X137228028Y-69890500D01*
X136535973Y-69890500D01*
X136535953Y-69890500D01*
X136532824Y-69890501D01*
X136529692Y-69890820D01*
X136529690Y-69890821D01*
X136438482Y-69900137D01*
X136438472Y-69900138D01*
X136431747Y-69900826D01*
X136425326Y-69902953D01*
X136425320Y-69902955D01*
X136274838Y-69952820D01*
X136274832Y-69952822D01*
X136267984Y-69955092D01*
X136261840Y-69958881D01*
X136261839Y-69958882D01*
X136127299Y-70041867D01*
X136121150Y-70045660D01*
X136116042Y-70050767D01*
X136116038Y-70050771D01*
X136107181Y-70059629D01*
X136051594Y-70091723D01*
X135987406Y-70091723D01*
X135931819Y-70059629D01*
X135922961Y-70050771D01*
X135922961Y-70050770D01*
X135917850Y-70045660D01*
X135771016Y-69955092D01*
X135764164Y-69952821D01*
X135764161Y-69952820D01*
X135671588Y-69922144D01*
X135607253Y-69900826D01*
X135600520Y-69900138D01*
X135600515Y-69900137D01*
X135509308Y-69890819D01*
X135509291Y-69890818D01*
X135506177Y-69890500D01*
X135503028Y-69890500D01*
X134953326Y-69890500D01*
X134888535Y-69872226D01*
X134842840Y-69822792D01*
X134829709Y-69756766D01*
X134851819Y-69696839D01*
X134852062Y-69696582D01*
X134861713Y-69679023D01*
X134872390Y-69662770D01*
X134884673Y-69646936D01*
X134902026Y-69606832D01*
X134907153Y-69596369D01*
X134920004Y-69572993D01*
X134943941Y-69542192D01*
X134976262Y-69520351D01*
X135014925Y-69502322D01*
X135019830Y-69500035D01*
X135213401Y-69364495D01*
X135380495Y-69197401D01*
X135516035Y-69003830D01*
X135615903Y-68789663D01*
X135677063Y-68561408D01*
X135697659Y-68326000D01*
X135677063Y-68090592D01*
X135615903Y-67862337D01*
X135516035Y-67648171D01*
X135380495Y-67454599D01*
X135213401Y-67287505D01*
X135208970Y-67284402D01*
X135208966Y-67284399D01*
X135024259Y-67155066D01*
X135024257Y-67155064D01*
X135019830Y-67151965D01*
X135014933Y-67149681D01*
X135014927Y-67149678D01*
X134810572Y-67054386D01*
X134810570Y-67054385D01*
X134805663Y-67052097D01*
X134800438Y-67050697D01*
X134800430Y-67050694D01*
X134582634Y-66992337D01*
X134582630Y-66992336D01*
X134577408Y-66990937D01*
X134572020Y-66990465D01*
X134572017Y-66990465D01*
X134347395Y-66970813D01*
X134342000Y-66970341D01*
X134336605Y-66970813D01*
X134111982Y-66990465D01*
X134111977Y-66990465D01*
X134106592Y-66990937D01*
X134101371Y-66992335D01*
X134101365Y-66992337D01*
X133883569Y-67050694D01*
X133883557Y-67050698D01*
X133878337Y-67052097D01*
X133873432Y-67054383D01*
X133873427Y-67054386D01*
X133669081Y-67149675D01*
X133669077Y-67149677D01*
X133664171Y-67151965D01*
X133659738Y-67155068D01*
X133659731Y-67155073D01*
X133475034Y-67284399D01*
X133475029Y-67284402D01*
X133470599Y-67287505D01*
X133466774Y-67291329D01*
X133466775Y-67291329D01*
X133348673Y-67409431D01*
X133295926Y-67440726D01*
X133234633Y-67442915D01*
X133179789Y-67415462D01*
X133144810Y-67365082D01*
X133117304Y-67291336D01*
X133095796Y-67233669D01*
X133009546Y-67118454D01*
X132947220Y-67071797D01*
X132901431Y-67037519D01*
X132901430Y-67037518D01*
X132894331Y-67032204D01*
X132787442Y-66992337D01*
X132766752Y-66984620D01*
X132766750Y-66984619D01*
X132759483Y-66981909D01*
X132751770Y-66981079D01*
X132751767Y-66981079D01*
X132703180Y-66975855D01*
X132703169Y-66975854D01*
X132699873Y-66975500D01*
X132696550Y-66975500D01*
X130907439Y-66975500D01*
X130907420Y-66975500D01*
X130904128Y-66975501D01*
X130900850Y-66975853D01*
X130900838Y-66975854D01*
X130852231Y-66981079D01*
X130852225Y-66981080D01*
X130844517Y-66981909D01*
X130837252Y-66984618D01*
X130837246Y-66984620D01*
X130717980Y-67029104D01*
X130717978Y-67029104D01*
X130709669Y-67032204D01*
X130702572Y-67037516D01*
X130702568Y-67037519D01*
X130601550Y-67113141D01*
X130601546Y-67113144D01*
X130594454Y-67118454D01*
X130589144Y-67125546D01*
X130589141Y-67125550D01*
X130513519Y-67226568D01*
X130513516Y-67226572D01*
X130508204Y-67233669D01*
X130505104Y-67241978D01*
X130505104Y-67241980D01*
X130460620Y-67361247D01*
X130460619Y-67361250D01*
X130457909Y-67368517D01*
X130457079Y-67376227D01*
X130457079Y-67376232D01*
X130451855Y-67424819D01*
X130451854Y-67424831D01*
X130451500Y-67428127D01*
X130451500Y-67431449D01*
X130451500Y-67442085D01*
X130433227Y-67506875D01*
X130383795Y-67552570D01*
X130317771Y-67565703D01*
X130254615Y-67542403D01*
X130137988Y-67457669D01*
X130137987Y-67457668D01*
X130132730Y-67453849D01*
X130126792Y-67451205D01*
X129965745Y-67379501D01*
X129965740Y-67379499D01*
X129959803Y-67376856D01*
X129953444Y-67375504D01*
X129953440Y-67375503D01*
X129781008Y-67338852D01*
X129781005Y-67338851D01*
X129774646Y-67337500D01*
X129585354Y-67337500D01*
X129578995Y-67338851D01*
X129578991Y-67338852D01*
X129406559Y-67375503D01*
X129406552Y-67375505D01*
X129400197Y-67376856D01*
X129394262Y-67379498D01*
X129394254Y-67379501D01*
X129233207Y-67451205D01*
X129233202Y-67451207D01*
X129227270Y-67453849D01*
X129222016Y-67457665D01*
X129222011Y-67457669D01*
X129079388Y-67561290D01*
X129079381Y-67561295D01*
X129074129Y-67565112D01*
X129069784Y-67569937D01*
X129069779Y-67569942D01*
X129011650Y-67634502D01*
X128962723Y-67667753D01*
X128903959Y-67674552D01*
X128848732Y-67653353D01*
X128809611Y-67608979D01*
X128795500Y-67551530D01*
X128795500Y-67075775D01*
X128796021Y-67064719D01*
X128797673Y-67057333D01*
X128795561Y-66990113D01*
X128795500Y-66986219D01*
X128795500Y-66962542D01*
X128795500Y-66958650D01*
X128794998Y-66954683D01*
X128794081Y-66943026D01*
X128792710Y-66899373D01*
X128787118Y-66880128D01*
X128783174Y-66861083D01*
X128780664Y-66841208D01*
X128764579Y-66800583D01*
X128760806Y-66789562D01*
X128748618Y-66747610D01*
X128738417Y-66730360D01*
X128729863Y-66712901D01*
X128722486Y-66694268D01*
X128696808Y-66658925D01*
X128690401Y-66649171D01*
X128672142Y-66618296D01*
X128672141Y-66618294D01*
X128668170Y-66611580D01*
X128654005Y-66597415D01*
X128641370Y-66582622D01*
X128629594Y-66566413D01*
X128623583Y-66561440D01*
X128623581Y-66561438D01*
X128595941Y-66538573D01*
X128587300Y-66530710D01*
X127564819Y-65508228D01*
X127537939Y-65468000D01*
X127528500Y-65420547D01*
X127528500Y-65263228D01*
X127542511Y-65205971D01*
X127581376Y-65161653D01*
X127745375Y-65046819D01*
X127774401Y-65026495D01*
X127941495Y-64859401D01*
X128077035Y-64665830D01*
X128176903Y-64451663D01*
X128238063Y-64223408D01*
X128258659Y-63988000D01*
X128238063Y-63752592D01*
X128176903Y-63524337D01*
X128077035Y-63310171D01*
X127941495Y-63116599D01*
X127774401Y-62949505D01*
X127769970Y-62946402D01*
X127769966Y-62946399D01*
X127585259Y-62817066D01*
X127585257Y-62817064D01*
X127580830Y-62813965D01*
X127575933Y-62811681D01*
X127575927Y-62811678D01*
X127371572Y-62716386D01*
X127371570Y-62716385D01*
X127366663Y-62714097D01*
X127361438Y-62712697D01*
X127361430Y-62712694D01*
X127143634Y-62654337D01*
X127143630Y-62654336D01*
X127138408Y-62652937D01*
X127133020Y-62652465D01*
X127133017Y-62652465D01*
X126908395Y-62632813D01*
X126903000Y-62632341D01*
X126897605Y-62632813D01*
X126672982Y-62652465D01*
X126672977Y-62652465D01*
X126667592Y-62652937D01*
X126662371Y-62654335D01*
X126662365Y-62654337D01*
X126444569Y-62712694D01*
X126444557Y-62712698D01*
X126439337Y-62714097D01*
X126434432Y-62716383D01*
X126434427Y-62716386D01*
X126230081Y-62811675D01*
X126230077Y-62811677D01*
X126225171Y-62813965D01*
X126220738Y-62817068D01*
X126220731Y-62817073D01*
X126060623Y-62929182D01*
X125997610Y-62951342D01*
X125932243Y-62937596D01*
X125883491Y-62891935D01*
X125865500Y-62827607D01*
X125865500Y-62086687D01*
X125873736Y-62042249D01*
X125897350Y-62003715D01*
X125972533Y-61920216D01*
X126067179Y-61756284D01*
X126125674Y-61576256D01*
X126145460Y-61388000D01*
X126125674Y-61199744D01*
X126067179Y-61019716D01*
X125972533Y-60855784D01*
X125961653Y-60843701D01*
X125850220Y-60719942D01*
X125850219Y-60719941D01*
X125845871Y-60715112D01*
X125840613Y-60711292D01*
X125840611Y-60711290D01*
X125697988Y-60607669D01*
X125697987Y-60607668D01*
X125692730Y-60603849D01*
X125686792Y-60601205D01*
X125525745Y-60529501D01*
X125525740Y-60529499D01*
X125519803Y-60526856D01*
X125513444Y-60525504D01*
X125513440Y-60525503D01*
X125341008Y-60488852D01*
X125341005Y-60488851D01*
X125334646Y-60487500D01*
X125145354Y-60487500D01*
X125138995Y-60488851D01*
X125138991Y-60488852D01*
X124960197Y-60526856D01*
X124959851Y-60525231D01*
X124912089Y-60528984D01*
X124858607Y-60506826D01*
X124821013Y-60462804D01*
X124807500Y-60406513D01*
X124807500Y-60266452D01*
X124816939Y-60218999D01*
X124843819Y-60178771D01*
X125452772Y-59569819D01*
X125493000Y-59542939D01*
X125540453Y-59533500D01*
X125627772Y-59533500D01*
X125685029Y-59547511D01*
X125729347Y-59586376D01*
X125861399Y-59774966D01*
X125861402Y-59774970D01*
X125864505Y-59779401D01*
X126031599Y-59946495D01*
X126036031Y-59949598D01*
X126036033Y-59949600D01*
X126131742Y-60016616D01*
X126225170Y-60082035D01*
X126439337Y-60181903D01*
X126667592Y-60243063D01*
X126903000Y-60263659D01*
X127138408Y-60243063D01*
X127366663Y-60181903D01*
X127580830Y-60082035D01*
X127774401Y-59946495D01*
X127941495Y-59779401D01*
X128077035Y-59585830D01*
X128176903Y-59371663D01*
X128238063Y-59143408D01*
X128258659Y-58908000D01*
X128238063Y-58672592D01*
X128176903Y-58444337D01*
X128077035Y-58230171D01*
X127941495Y-58036599D01*
X127774401Y-57869505D01*
X127769970Y-57866402D01*
X127769966Y-57866399D01*
X127585259Y-57737066D01*
X127585257Y-57737064D01*
X127580830Y-57733965D01*
X127575933Y-57731681D01*
X127575927Y-57731678D01*
X127371572Y-57636386D01*
X127371570Y-57636385D01*
X127366663Y-57634097D01*
X127361438Y-57632697D01*
X127361430Y-57632694D01*
X127143634Y-57574337D01*
X127143630Y-57574336D01*
X127138408Y-57572937D01*
X127133020Y-57572465D01*
X127133017Y-57572465D01*
X126908395Y-57552813D01*
X126903000Y-57552341D01*
X126897605Y-57552813D01*
X126672982Y-57572465D01*
X126672977Y-57572465D01*
X126667592Y-57572937D01*
X126662371Y-57574335D01*
X126662365Y-57574337D01*
X126444569Y-57632694D01*
X126444557Y-57632698D01*
X126439337Y-57634097D01*
X126434432Y-57636383D01*
X126434427Y-57636386D01*
X126230081Y-57731675D01*
X126230077Y-57731677D01*
X126225171Y-57733965D01*
X126220738Y-57737068D01*
X126220731Y-57737073D01*
X126036034Y-57866399D01*
X126036029Y-57866402D01*
X126031599Y-57869505D01*
X126027775Y-57873328D01*
X126027769Y-57873334D01*
X125868334Y-58032769D01*
X125868328Y-58032775D01*
X125864505Y-58036599D01*
X125861402Y-58041029D01*
X125861399Y-58041034D01*
X125729349Y-58229623D01*
X125685031Y-58268489D01*
X125627774Y-58282500D01*
X125307775Y-58282500D01*
X125296719Y-58281978D01*
X125289333Y-58280327D01*
X125281545Y-58280571D01*
X125281538Y-58280571D01*
X125222127Y-58282439D01*
X125218232Y-58282500D01*
X125190650Y-58282500D01*
X125186805Y-58282985D01*
X125186780Y-58282987D01*
X125186653Y-58283004D01*
X125175034Y-58283918D01*
X125139172Y-58285045D01*
X125139165Y-58285046D01*
X125131373Y-58285291D01*
X125123888Y-58287465D01*
X125123872Y-58287468D01*
X125112126Y-58290881D01*
X125093083Y-58294825D01*
X125080949Y-58296358D01*
X125080948Y-58296358D01*
X125073208Y-58297336D01*
X125065958Y-58300205D01*
X125065951Y-58300208D01*
X125032598Y-58313413D01*
X125021554Y-58317194D01*
X124987101Y-58327204D01*
X124987090Y-58327208D01*
X124979610Y-58329382D01*
X124972898Y-58333351D01*
X124972896Y-58333352D01*
X124962364Y-58339580D01*
X124944904Y-58348134D01*
X124933519Y-58352642D01*
X124933513Y-58352644D01*
X124926268Y-58355514D01*
X124919963Y-58360094D01*
X124919955Y-58360099D01*
X124890932Y-58381185D01*
X124881174Y-58387595D01*
X124850296Y-58405857D01*
X124850290Y-58405861D01*
X124843580Y-58409830D01*
X124838067Y-58415341D01*
X124838060Y-58415348D01*
X124829410Y-58423998D01*
X124814627Y-58436624D01*
X124804726Y-58443817D01*
X124804716Y-58443826D01*
X124798413Y-58448406D01*
X124793444Y-58454411D01*
X124793441Y-58454415D01*
X124770572Y-58482059D01*
X124762711Y-58490697D01*
X123794696Y-59458711D01*
X123786511Y-59466159D01*
X123780123Y-59470214D01*
X123774788Y-59475894D01*
X123774783Y-59475899D01*
X123734096Y-59519225D01*
X123731392Y-59522016D01*
X123714628Y-59538780D01*
X123714621Y-59538787D01*
X123711880Y-59541529D01*
X123709500Y-59544596D01*
X123709489Y-59544609D01*
X123709400Y-59544725D01*
X123701842Y-59553570D01*
X123677280Y-59579727D01*
X123677273Y-59579736D01*
X123671938Y-59585418D01*
X123668182Y-59592249D01*
X123668179Y-59592254D01*
X123662285Y-59602975D01*
X123651609Y-59619227D01*
X123644109Y-59628896D01*
X123644101Y-59628907D01*
X123639327Y-59635064D01*
X123636234Y-59642208D01*
X123636229Y-59642219D01*
X123621974Y-59675160D01*
X123616838Y-59685643D01*
X123595803Y-59723908D01*
X123593864Y-59731456D01*
X123593863Y-59731461D01*
X123590822Y-59743307D01*
X123584521Y-59761711D01*
X123579658Y-59772948D01*
X123579656Y-59772952D01*
X123576562Y-59780104D01*
X123575342Y-59787803D01*
X123575342Y-59787805D01*
X123569729Y-59823241D01*
X123567361Y-59834676D01*
X123558438Y-59869428D01*
X123558436Y-59869436D01*
X123556500Y-59876981D01*
X123556500Y-59884777D01*
X123556500Y-59897017D01*
X123554974Y-59916402D01*
X123551840Y-59936196D01*
X123552574Y-59943961D01*
X123552574Y-59943964D01*
X123555950Y-59979676D01*
X123556500Y-59991345D01*
X123556500Y-60411242D01*
X123542985Y-60467537D01*
X123505385Y-60511560D01*
X123451898Y-60533715D01*
X123394182Y-60529173D01*
X123344819Y-60498923D01*
X123279232Y-60433336D01*
X123279230Y-60433334D01*
X123275401Y-60429505D01*
X123270970Y-60426402D01*
X123270966Y-60426399D01*
X123086259Y-60297066D01*
X123086257Y-60297064D01*
X123081830Y-60293965D01*
X123076933Y-60291681D01*
X123076927Y-60291678D01*
X122872572Y-60196386D01*
X122872570Y-60196385D01*
X122867663Y-60194097D01*
X122862438Y-60192697D01*
X122862430Y-60192694D01*
X122644634Y-60134337D01*
X122644630Y-60134336D01*
X122639408Y-60132937D01*
X122634020Y-60132465D01*
X122634017Y-60132465D01*
X122409395Y-60112813D01*
X122404000Y-60112341D01*
X122398605Y-60112813D01*
X122173982Y-60132465D01*
X122173977Y-60132465D01*
X122168592Y-60132937D01*
X122163371Y-60134335D01*
X122163365Y-60134337D01*
X121945569Y-60192694D01*
X121945557Y-60192698D01*
X121940337Y-60194097D01*
X121935432Y-60196383D01*
X121935427Y-60196386D01*
X121731081Y-60291675D01*
X121731077Y-60291677D01*
X121726171Y-60293965D01*
X121721738Y-60297068D01*
X121721731Y-60297073D01*
X121537034Y-60426399D01*
X121537029Y-60426402D01*
X121532599Y-60429505D01*
X121528775Y-60433328D01*
X121528769Y-60433334D01*
X121369334Y-60592769D01*
X121369328Y-60592775D01*
X121365505Y-60596599D01*
X121362402Y-60601029D01*
X121362399Y-60601034D01*
X121233073Y-60785731D01*
X121233068Y-60785738D01*
X121229965Y-60790171D01*
X121227677Y-60795077D01*
X121227675Y-60795081D01*
X121132386Y-60999427D01*
X121132383Y-60999432D01*
X121130097Y-61004337D01*
X121128698Y-61009557D01*
X121128694Y-61009569D01*
X121070337Y-61227365D01*
X121070335Y-61227371D01*
X121068937Y-61232592D01*
X121068465Y-61237977D01*
X121068465Y-61237982D01*
X121053576Y-61408161D01*
X121048341Y-61468000D01*
X121048813Y-61473395D01*
X121063636Y-61642827D01*
X121068937Y-61703408D01*
X121070336Y-61708630D01*
X121070337Y-61708634D01*
X121128694Y-61926430D01*
X121128697Y-61926438D01*
X121130097Y-61931663D01*
X121132385Y-61936570D01*
X121132386Y-61936572D01*
X121227678Y-62140927D01*
X121227681Y-62140933D01*
X121229965Y-62145830D01*
X121233064Y-62150257D01*
X121233066Y-62150259D01*
X121362399Y-62334966D01*
X121362402Y-62334970D01*
X121365505Y-62339401D01*
X121532599Y-62506495D01*
X121726170Y-62642035D01*
X121731070Y-62644320D01*
X121731072Y-62644321D01*
X121762380Y-62658920D01*
X121940337Y-62741903D01*
X122168592Y-62803063D01*
X122404000Y-62823659D01*
X122639408Y-62803063D01*
X122867663Y-62741903D01*
X123081830Y-62642035D01*
X123275401Y-62506495D01*
X123344819Y-62437076D01*
X123394182Y-62406827D01*
X123451898Y-62402285D01*
X123505385Y-62424440D01*
X123542985Y-62468463D01*
X123556500Y-62524758D01*
X123556500Y-67119313D01*
X123548264Y-67163751D01*
X123524650Y-67202285D01*
X123453813Y-67280956D01*
X123453808Y-67280962D01*
X123449467Y-67285784D01*
X123446222Y-67291404D01*
X123446218Y-67291410D01*
X123378457Y-67408776D01*
X123333070Y-67454163D01*
X123271070Y-67470776D01*
X123209070Y-67454163D01*
X123163683Y-67408776D01*
X123147070Y-67346776D01*
X123147070Y-66882639D01*
X123147070Y-66879328D01*
X123140662Y-66819717D01*
X123090367Y-66684869D01*
X123004117Y-66569654D01*
X122888902Y-66483404D01*
X122803524Y-66451560D01*
X122761323Y-66435820D01*
X122761321Y-66435819D01*
X122754054Y-66433109D01*
X122746341Y-66432279D01*
X122746338Y-66432279D01*
X122697751Y-66427055D01*
X122697740Y-66427054D01*
X122694444Y-66426700D01*
X122691121Y-66426700D01*
X120902010Y-66426700D01*
X120901991Y-66426700D01*
X120898699Y-66426701D01*
X120895421Y-66427053D01*
X120895409Y-66427054D01*
X120846802Y-66432279D01*
X120846796Y-66432280D01*
X120839088Y-66433109D01*
X120831823Y-66435818D01*
X120831817Y-66435820D01*
X120712551Y-66480304D01*
X120712549Y-66480304D01*
X120704240Y-66483404D01*
X120697143Y-66488716D01*
X120697139Y-66488719D01*
X120596121Y-66564341D01*
X120596117Y-66564344D01*
X120589025Y-66569654D01*
X120583715Y-66576746D01*
X120583712Y-66576750D01*
X120508090Y-66677768D01*
X120508087Y-66677772D01*
X120502775Y-66684869D01*
X120499675Y-66693178D01*
X120499675Y-66693180D01*
X120455191Y-66812447D01*
X120455190Y-66812450D01*
X120452480Y-66819717D01*
X120451650Y-66827427D01*
X120451650Y-66827432D01*
X120446426Y-66876019D01*
X120446425Y-66876031D01*
X120446071Y-66879327D01*
X120446071Y-66882648D01*
X120446071Y-66882649D01*
X120446071Y-68671760D01*
X120446071Y-68671778D01*
X120446072Y-68675072D01*
X120446424Y-68678350D01*
X120446425Y-68678361D01*
X120451650Y-68726968D01*
X120451651Y-68726973D01*
X120452480Y-68734683D01*
X120455190Y-68741949D01*
X120455191Y-68741953D01*
X120488788Y-68832031D01*
X120502775Y-68869531D01*
X120589025Y-68984746D01*
X120704240Y-69070996D01*
X120781492Y-69099809D01*
X120835653Y-69120010D01*
X120886033Y-69154989D01*
X120913486Y-69209833D01*
X120911297Y-69271126D01*
X120880002Y-69323873D01*
X120758076Y-69445799D01*
X120754973Y-69450229D01*
X120754970Y-69450234D01*
X120625644Y-69634931D01*
X120625639Y-69634938D01*
X120622536Y-69639371D01*
X120620248Y-69644277D01*
X120620246Y-69644281D01*
X120524957Y-69848627D01*
X120524954Y-69848632D01*
X120522668Y-69853537D01*
X120521269Y-69858757D01*
X120521265Y-69858769D01*
X120462908Y-70076565D01*
X120462906Y-70076571D01*
X120461508Y-70081792D01*
X120461036Y-70087177D01*
X120461036Y-70087182D01*
X120441747Y-70307660D01*
X120440912Y-70317200D01*
X120441384Y-70322595D01*
X120459647Y-70531344D01*
X120461508Y-70552608D01*
X120462907Y-70557830D01*
X120462908Y-70557834D01*
X120521265Y-70775630D01*
X120521268Y-70775638D01*
X120522668Y-70780863D01*
X120524956Y-70785770D01*
X120524957Y-70785772D01*
X120620249Y-70990127D01*
X120620252Y-70990133D01*
X120622536Y-70995030D01*
X120625635Y-70999457D01*
X120625637Y-70999459D01*
X120754970Y-71184166D01*
X120754973Y-71184170D01*
X120758076Y-71188601D01*
X120925170Y-71355695D01*
X120929603Y-71358799D01*
X120929609Y-71358804D01*
X121110729Y-71485625D01*
X121149595Y-71529943D01*
X121163606Y-71587200D01*
X121149595Y-71644457D01*
X121110730Y-71688775D01*
X120929959Y-71815352D01*
X120925170Y-71818705D01*
X120921346Y-71822528D01*
X120921340Y-71822534D01*
X120761905Y-71981969D01*
X120761899Y-71981975D01*
X120758076Y-71985799D01*
X120754973Y-71990229D01*
X120754970Y-71990234D01*
X120625644Y-72174931D01*
X120625639Y-72174938D01*
X120622536Y-72179371D01*
X120620248Y-72184277D01*
X120620246Y-72184281D01*
X120524957Y-72388627D01*
X120524954Y-72388632D01*
X120522668Y-72393537D01*
X120521269Y-72398757D01*
X120521265Y-72398769D01*
X120462908Y-72616565D01*
X120462906Y-72616571D01*
X120461508Y-72621792D01*
X120461036Y-72627177D01*
X120461036Y-72627182D01*
X120453026Y-72718736D01*
X120440912Y-72857200D01*
X119862500Y-72857200D01*
X119862500Y-53828000D01*
X125547341Y-53828000D01*
X125547813Y-53833395D01*
X125564858Y-54028222D01*
X125567937Y-54063408D01*
X125569336Y-54068630D01*
X125569337Y-54068634D01*
X125627694Y-54286430D01*
X125627697Y-54286438D01*
X125629097Y-54291663D01*
X125631385Y-54296570D01*
X125631386Y-54296572D01*
X125726678Y-54500927D01*
X125726681Y-54500933D01*
X125728965Y-54505830D01*
X125732064Y-54510257D01*
X125732066Y-54510259D01*
X125861399Y-54694966D01*
X125861402Y-54694970D01*
X125864505Y-54699401D01*
X126031599Y-54866495D01*
X126225170Y-55002035D01*
X126439337Y-55101903D01*
X126667592Y-55163063D01*
X126903000Y-55183659D01*
X127138408Y-55163063D01*
X127366663Y-55101903D01*
X127580830Y-55002035D01*
X127774401Y-54866495D01*
X127941495Y-54699401D01*
X128077035Y-54505830D01*
X128176903Y-54291663D01*
X128238063Y-54063408D01*
X128258659Y-53828000D01*
X128238063Y-53592592D01*
X128176903Y-53364337D01*
X128077035Y-53150171D01*
X127941495Y-52956599D01*
X127774401Y-52789505D01*
X127769970Y-52786402D01*
X127769966Y-52786399D01*
X127585259Y-52657066D01*
X127585257Y-52657064D01*
X127580830Y-52653965D01*
X127575933Y-52651681D01*
X127575927Y-52651678D01*
X127371572Y-52556386D01*
X127371570Y-52556385D01*
X127366663Y-52554097D01*
X127361438Y-52552697D01*
X127361430Y-52552694D01*
X127143634Y-52494337D01*
X127143630Y-52494336D01*
X127138408Y-52492937D01*
X127133020Y-52492465D01*
X127133017Y-52492465D01*
X126908395Y-52472813D01*
X126903000Y-52472341D01*
X126897605Y-52472813D01*
X126672982Y-52492465D01*
X126672977Y-52492465D01*
X126667592Y-52492937D01*
X126662371Y-52494335D01*
X126662365Y-52494337D01*
X126444569Y-52552694D01*
X126444557Y-52552698D01*
X126439337Y-52554097D01*
X126434432Y-52556383D01*
X126434427Y-52556386D01*
X126230081Y-52651675D01*
X126230077Y-52651677D01*
X126225171Y-52653965D01*
X126220738Y-52657068D01*
X126220731Y-52657073D01*
X126036034Y-52786399D01*
X126036029Y-52786402D01*
X126031599Y-52789505D01*
X126027775Y-52793328D01*
X126027769Y-52793334D01*
X125868334Y-52952769D01*
X125868328Y-52952775D01*
X125864505Y-52956599D01*
X125861402Y-52961029D01*
X125861399Y-52961034D01*
X125732073Y-53145731D01*
X125732068Y-53145738D01*
X125728965Y-53150171D01*
X125726677Y-53155077D01*
X125726675Y-53155081D01*
X125631386Y-53359427D01*
X125631383Y-53359432D01*
X125629097Y-53364337D01*
X125627698Y-53369557D01*
X125627694Y-53369569D01*
X125569337Y-53587365D01*
X125569335Y-53587371D01*
X125567937Y-53592592D01*
X125567465Y-53597977D01*
X125567465Y-53597982D01*
X125553402Y-53758726D01*
X125547341Y-53828000D01*
X119862500Y-53828000D01*
X119862500Y-51308000D01*
X121048341Y-51308000D01*
X121048813Y-51313395D01*
X121064293Y-51490334D01*
X121068937Y-51543408D01*
X121070336Y-51548630D01*
X121070337Y-51548634D01*
X121128694Y-51766430D01*
X121128697Y-51766438D01*
X121130097Y-51771663D01*
X121132385Y-51776569D01*
X121132386Y-51776572D01*
X121227678Y-51980927D01*
X121227681Y-51980933D01*
X121229965Y-51985830D01*
X121233064Y-51990257D01*
X121233066Y-51990259D01*
X121362399Y-52174966D01*
X121362402Y-52174970D01*
X121365505Y-52179401D01*
X121532599Y-52346495D01*
X121537031Y-52349598D01*
X121537033Y-52349600D01*
X121657850Y-52434197D01*
X121726170Y-52482035D01*
X121731070Y-52484320D01*
X121731072Y-52484321D01*
X121785443Y-52509674D01*
X121940337Y-52581903D01*
X121945567Y-52583304D01*
X121945569Y-52583305D01*
X121987619Y-52594572D01*
X122168592Y-52643063D01*
X122404000Y-52663659D01*
X122639408Y-52643063D01*
X122867663Y-52581903D01*
X123081830Y-52482035D01*
X123275401Y-52346495D01*
X123442495Y-52179401D01*
X123578035Y-51985830D01*
X123677903Y-51771663D01*
X123739063Y-51543408D01*
X123759659Y-51308000D01*
X123739063Y-51072592D01*
X123712143Y-50972126D01*
X123712143Y-50907939D01*
X123744235Y-50852353D01*
X124129712Y-50466877D01*
X124176678Y-50437435D01*
X124231785Y-50431399D01*
X124284014Y-50449980D01*
X124322927Y-50489464D01*
X124357495Y-50545508D01*
X124357499Y-50545513D01*
X124361288Y-50551656D01*
X124485344Y-50675712D01*
X124491485Y-50679500D01*
X124491488Y-50679502D01*
X124529911Y-50703201D01*
X124634666Y-50767814D01*
X124801203Y-50822999D01*
X124903991Y-50833500D01*
X126254008Y-50833499D01*
X126356797Y-50822999D01*
X126523334Y-50767814D01*
X126672656Y-50675712D01*
X126796712Y-50551656D01*
X126888814Y-50402334D01*
X126943999Y-50235797D01*
X126954500Y-50133009D01*
X126954499Y-49232992D01*
X126943999Y-49130203D01*
X126888814Y-48963666D01*
X126796712Y-48814344D01*
X126672656Y-48690288D01*
X126666515Y-48686500D01*
X126666511Y-48686497D01*
X126529480Y-48601977D01*
X126523334Y-48598186D01*
X126461499Y-48577696D01*
X126363225Y-48545131D01*
X126363224Y-48545130D01*
X126356797Y-48543001D01*
X126350064Y-48542313D01*
X126350059Y-48542312D01*
X126257140Y-48532819D01*
X126257123Y-48532818D01*
X126254009Y-48532500D01*
X126250860Y-48532500D01*
X124907140Y-48532500D01*
X124907120Y-48532500D01*
X124903992Y-48532501D01*
X124900860Y-48532820D01*
X124900858Y-48532821D01*
X124807938Y-48542312D01*
X124807928Y-48542313D01*
X124801203Y-48543001D01*
X124794781Y-48545128D01*
X124794776Y-48545130D01*
X124641521Y-48595914D01*
X124641517Y-48595915D01*
X124634666Y-48598186D01*
X124628522Y-48601975D01*
X124628519Y-48601977D01*
X124491488Y-48686497D01*
X124491480Y-48686503D01*
X124485344Y-48690288D01*
X124480242Y-48695389D01*
X124480238Y-48695393D01*
X124366393Y-48809238D01*
X124366389Y-48809242D01*
X124361288Y-48814344D01*
X124357503Y-48820480D01*
X124357497Y-48820488D01*
X124272977Y-48957519D01*
X124269186Y-48963666D01*
X124266914Y-48970519D01*
X124266911Y-48970528D01*
X124266255Y-48972508D01*
X124264928Y-48974780D01*
X124263862Y-48977067D01*
X124263650Y-48976968D01*
X124240376Y-49016832D01*
X124198765Y-49046878D01*
X124148551Y-49057500D01*
X124106772Y-49057500D01*
X124095719Y-49056979D01*
X124088333Y-49055328D01*
X124080535Y-49055573D01*
X124021145Y-49057439D01*
X124017251Y-49057500D01*
X123989650Y-49057500D01*
X123985799Y-49057986D01*
X123985768Y-49057988D01*
X123985640Y-49058005D01*
X123974029Y-49058918D01*
X123938172Y-49060045D01*
X123938165Y-49060046D01*
X123930373Y-49060291D01*
X123922888Y-49062465D01*
X123922872Y-49062468D01*
X123911126Y-49065881D01*
X123892083Y-49069825D01*
X123879949Y-49071358D01*
X123879948Y-49071358D01*
X123872208Y-49072336D01*
X123864958Y-49075205D01*
X123864951Y-49075208D01*
X123831598Y-49088413D01*
X123820554Y-49092194D01*
X123786101Y-49102204D01*
X123786090Y-49102208D01*
X123778610Y-49104382D01*
X123771898Y-49108351D01*
X123771896Y-49108352D01*
X123761364Y-49114580D01*
X123743904Y-49123134D01*
X123732519Y-49127642D01*
X123732513Y-49127644D01*
X123725268Y-49130514D01*
X123718963Y-49135094D01*
X123718955Y-49135099D01*
X123689932Y-49156185D01*
X123680174Y-49162595D01*
X123649296Y-49180857D01*
X123649290Y-49180861D01*
X123642580Y-49184830D01*
X123637067Y-49190341D01*
X123637060Y-49190348D01*
X123628410Y-49198998D01*
X123613627Y-49211624D01*
X123603726Y-49218817D01*
X123603716Y-49218826D01*
X123597413Y-49223406D01*
X123592444Y-49229411D01*
X123592441Y-49229415D01*
X123569572Y-49257059D01*
X123561711Y-49265697D01*
X122859646Y-49967762D01*
X122804059Y-49999856D01*
X122739872Y-49999856D01*
X122644634Y-49974337D01*
X122644630Y-49974336D01*
X122639408Y-49972937D01*
X122634020Y-49972465D01*
X122634017Y-49972465D01*
X122409395Y-49952813D01*
X122404000Y-49952341D01*
X122398605Y-49952813D01*
X122173982Y-49972465D01*
X122173977Y-49972465D01*
X122168592Y-49972937D01*
X122163371Y-49974335D01*
X122163365Y-49974337D01*
X121945569Y-50032694D01*
X121945557Y-50032698D01*
X121940337Y-50034097D01*
X121935432Y-50036383D01*
X121935427Y-50036386D01*
X121731081Y-50131675D01*
X121731077Y-50131677D01*
X121726171Y-50133965D01*
X121721738Y-50137068D01*
X121721731Y-50137073D01*
X121537034Y-50266399D01*
X121537029Y-50266402D01*
X121532599Y-50269505D01*
X121528775Y-50273328D01*
X121528769Y-50273334D01*
X121369334Y-50432769D01*
X121369328Y-50432775D01*
X121365505Y-50436599D01*
X121362402Y-50441029D01*
X121362399Y-50441034D01*
X121233073Y-50625731D01*
X121233068Y-50625738D01*
X121229965Y-50630171D01*
X121227677Y-50635077D01*
X121227675Y-50635081D01*
X121132386Y-50839427D01*
X121132383Y-50839432D01*
X121130097Y-50844337D01*
X121128698Y-50849557D01*
X121128694Y-50849569D01*
X121070337Y-51067365D01*
X121070336Y-51067369D01*
X121068937Y-51072592D01*
X121068465Y-51077977D01*
X121068465Y-51077982D01*
X121061792Y-51154257D01*
X121048341Y-51308000D01*
X119862500Y-51308000D01*
X119862500Y-44175479D01*
X119862695Y-44168527D01*
X119863069Y-44161868D01*
X119868989Y-44056445D01*
X119880819Y-43860862D01*
X119882337Y-43847648D01*
X119906305Y-43706589D01*
X119906479Y-43705601D01*
X119936351Y-43542598D01*
X119939151Y-43530686D01*
X119980329Y-43387755D01*
X119981047Y-43385365D01*
X120028527Y-43232995D01*
X120032330Y-43222490D01*
X120090151Y-43082897D01*
X120091570Y-43079613D01*
X120156100Y-42936234D01*
X120160619Y-42927200D01*
X120234311Y-42793864D01*
X120236587Y-42789931D01*
X120317359Y-42656317D01*
X120322318Y-42648756D01*
X120410760Y-42524109D01*
X120414214Y-42519477D01*
X120510104Y-42397081D01*
X120515210Y-42390982D01*
X120617281Y-42276764D01*
X120621991Y-42271783D01*
X120731783Y-42161991D01*
X120736764Y-42157281D01*
X120850982Y-42055210D01*
X120857081Y-42050104D01*
X120979477Y-41954214D01*
X120984109Y-41950760D01*
X121108756Y-41862318D01*
X121116317Y-41857359D01*
X121249931Y-41776587D01*
X121253864Y-41774311D01*
X121387200Y-41700619D01*
X121396234Y-41696100D01*
X121539613Y-41631570D01*
X121542897Y-41630151D01*
X121682490Y-41572330D01*
X121692995Y-41568527D01*
X121845409Y-41521033D01*
X121847752Y-41520329D01*
X121990686Y-41479151D01*
X122002598Y-41476351D01*
X122165601Y-41446479D01*
X122166684Y-41446288D01*
X122307648Y-41422337D01*
X122320862Y-41420819D01*
X122516445Y-41408989D01*
X122628528Y-41402694D01*
X122635479Y-41402500D01*
X124654272Y-41402500D01*
X124710567Y-41416015D01*
G37*
%TD.AperFunction*%
%TA.AperFunction,Conductor*%
G36*
X151286540Y-55444197D02*
G01*
X151330858Y-55483063D01*
X151457678Y-55664182D01*
X151457684Y-55664189D01*
X151460788Y-55668622D01*
X151627882Y-55835716D01*
X151632314Y-55838819D01*
X151632316Y-55838821D01*
X151820907Y-55970874D01*
X151859772Y-56015192D01*
X151873783Y-56072449D01*
X151873783Y-56199508D01*
X151873261Y-56210563D01*
X151871610Y-56217950D01*
X151871854Y-56225736D01*
X151871854Y-56225744D01*
X151873722Y-56285156D01*
X151873783Y-56289051D01*
X151873783Y-56316633D01*
X151874271Y-56320502D01*
X151874272Y-56320508D01*
X151874287Y-56320626D01*
X151875201Y-56332249D01*
X151876328Y-56368113D01*
X151876329Y-56368120D01*
X151876574Y-56375910D01*
X151878750Y-56383402D01*
X151878751Y-56383404D01*
X151882162Y-56395145D01*
X151886108Y-56414198D01*
X151888619Y-56434075D01*
X151891489Y-56441325D01*
X151891491Y-56441331D01*
X151904697Y-56474687D01*
X151908480Y-56485734D01*
X151920665Y-56527673D01*
X151924636Y-56534388D01*
X151924637Y-56534390D01*
X151930864Y-56544920D01*
X151939419Y-56562382D01*
X151943925Y-56573763D01*
X151943926Y-56573766D01*
X151946797Y-56581015D01*
X151960595Y-56600006D01*
X151972464Y-56616343D01*
X151978876Y-56626105D01*
X151997139Y-56656985D01*
X151997142Y-56656990D01*
X152001113Y-56663703D01*
X152006628Y-56669218D01*
X152015273Y-56677863D01*
X152027909Y-56692657D01*
X152035102Y-56702558D01*
X152035106Y-56702562D01*
X152039689Y-56708870D01*
X152045698Y-56713841D01*
X152045699Y-56713842D01*
X152073341Y-56736709D01*
X152081981Y-56744571D01*
X154289982Y-58952573D01*
X154322075Y-59008158D01*
X154322075Y-59072344D01*
X154289982Y-59127932D01*
X154257676Y-59160237D01*
X154257668Y-59160246D01*
X154252571Y-59165344D01*
X154248786Y-59171480D01*
X154248780Y-59171488D01*
X154164260Y-59308519D01*
X154160469Y-59314666D01*
X154158198Y-59321517D01*
X154158197Y-59321521D01*
X154107414Y-59474774D01*
X154105284Y-59481203D01*
X154104596Y-59487933D01*
X154104595Y-59487940D01*
X154095102Y-59580859D01*
X154095101Y-59580877D01*
X154094783Y-59583991D01*
X154094783Y-59587138D01*
X154094783Y-59587139D01*
X154094783Y-60930859D01*
X154094783Y-60930878D01*
X154094784Y-60934008D01*
X154095103Y-60937140D01*
X154095104Y-60937141D01*
X154104595Y-61030061D01*
X154104596Y-61030069D01*
X154105284Y-61036797D01*
X154107412Y-61043219D01*
X154107413Y-61043223D01*
X154158125Y-61196260D01*
X154160469Y-61203334D01*
X154176142Y-61228744D01*
X154242855Y-61336904D01*
X154261316Y-61402000D01*
X154242855Y-61467096D01*
X154171714Y-61582435D01*
X154160469Y-61600666D01*
X154158198Y-61607517D01*
X154158197Y-61607521D01*
X154108902Y-61756284D01*
X154105284Y-61767203D01*
X154104596Y-61773933D01*
X154104595Y-61773940D01*
X154095102Y-61866859D01*
X154095101Y-61866877D01*
X154094783Y-61869991D01*
X154094783Y-61873138D01*
X154094783Y-61873139D01*
X154094783Y-63216859D01*
X154094783Y-63216878D01*
X154094784Y-63220008D01*
X154095103Y-63223140D01*
X154095104Y-63223141D01*
X154104595Y-63316061D01*
X154104596Y-63316069D01*
X154105284Y-63322797D01*
X154107412Y-63329219D01*
X154107413Y-63329223D01*
X154129850Y-63396933D01*
X154160469Y-63489334D01*
X154164260Y-63495480D01*
X154248780Y-63632511D01*
X154248783Y-63632515D01*
X154252571Y-63638656D01*
X154376627Y-63762712D01*
X154382770Y-63766501D01*
X154382774Y-63766504D01*
X154402161Y-63778462D01*
X154445865Y-63824516D01*
X154461045Y-63886164D01*
X154443722Y-63947245D01*
X154398438Y-63991746D01*
X154337064Y-64008000D01*
X153053502Y-64008000D01*
X152992128Y-63991746D01*
X152946844Y-63947245D01*
X152929521Y-63886164D01*
X152944701Y-63824516D01*
X152988405Y-63778462D01*
X153007791Y-63766504D01*
X153007790Y-63766504D01*
X153013939Y-63762712D01*
X153137995Y-63638656D01*
X153230097Y-63489334D01*
X153285282Y-63322797D01*
X153295783Y-63220009D01*
X153295782Y-61869992D01*
X153285282Y-61767203D01*
X153230097Y-61600666D01*
X153151596Y-61473395D01*
X153141785Y-61457488D01*
X153141783Y-61457485D01*
X153137995Y-61451344D01*
X153013939Y-61327288D01*
X153007798Y-61323500D01*
X153007794Y-61323497D01*
X152882235Y-61246053D01*
X152864617Y-61235186D01*
X152845176Y-61228744D01*
X152704508Y-61182131D01*
X152704507Y-61182130D01*
X152698080Y-61180001D01*
X152691347Y-61179313D01*
X152691342Y-61179312D01*
X152598423Y-61169819D01*
X152598406Y-61169818D01*
X152595292Y-61169500D01*
X152592143Y-61169500D01*
X151698424Y-61169500D01*
X151698404Y-61169500D01*
X151695275Y-61169501D01*
X151692143Y-61169820D01*
X151692141Y-61169821D01*
X151599221Y-61179312D01*
X151599211Y-61179313D01*
X151592486Y-61180001D01*
X151586064Y-61182128D01*
X151586059Y-61182130D01*
X151432804Y-61232914D01*
X151432800Y-61232915D01*
X151425949Y-61235186D01*
X151419807Y-61238974D01*
X151419797Y-61238979D01*
X151419385Y-61239234D01*
X151419022Y-61239340D01*
X151413258Y-61242029D01*
X151412853Y-61241160D01*
X151356914Y-61257662D01*
X151293721Y-61241887D01*
X151247241Y-61196260D01*
X151230297Y-61133370D01*
X151247563Y-61070572D01*
X151298527Y-60984398D01*
X151344381Y-60826569D01*
X151347283Y-60789694D01*
X151347283Y-60358306D01*
X151344381Y-60321431D01*
X151298527Y-60163602D01*
X151248454Y-60078933D01*
X151218836Y-60028851D01*
X151218835Y-60028849D01*
X151214864Y-60022135D01*
X151098648Y-59905919D01*
X151091934Y-59901948D01*
X151091931Y-59901946D01*
X150963896Y-59826227D01*
X150963894Y-59826226D01*
X150957181Y-59822256D01*
X150942670Y-59818040D01*
X150805440Y-59778170D01*
X150805433Y-59778168D01*
X150799352Y-59776402D01*
X150793041Y-59775905D01*
X150793034Y-59775904D01*
X150764911Y-59773691D01*
X150764897Y-59773690D01*
X150762477Y-59773500D01*
X149456089Y-59773500D01*
X149453669Y-59773690D01*
X149453654Y-59773691D01*
X149425531Y-59775904D01*
X149425522Y-59775905D01*
X149419214Y-59776402D01*
X149413134Y-59778168D01*
X149413125Y-59778170D01*
X149268877Y-59820079D01*
X149268874Y-59820080D01*
X149261385Y-59822256D01*
X149254674Y-59826224D01*
X149254669Y-59826227D01*
X149126634Y-59901946D01*
X149126627Y-59901950D01*
X149119918Y-59905919D01*
X149114403Y-59911433D01*
X149114399Y-59911437D01*
X149009220Y-60016616D01*
X149009216Y-60016620D01*
X149003702Y-60022135D01*
X148999733Y-60028844D01*
X148999729Y-60028851D01*
X148924010Y-60156886D01*
X148924007Y-60156891D01*
X148920039Y-60163602D01*
X148917863Y-60171091D01*
X148917862Y-60171094D01*
X148875953Y-60315342D01*
X148875951Y-60315351D01*
X148874185Y-60321431D01*
X148873688Y-60327739D01*
X148873687Y-60327748D01*
X148871474Y-60355871D01*
X148871473Y-60355886D01*
X148871283Y-60358306D01*
X148871283Y-60789694D01*
X148871473Y-60792114D01*
X148871474Y-60792128D01*
X148873687Y-60820251D01*
X148873688Y-60820258D01*
X148874185Y-60826569D01*
X148875951Y-60832650D01*
X148875953Y-60832657D01*
X148916183Y-60971125D01*
X148920039Y-60984398D01*
X148924009Y-60991111D01*
X148924010Y-60991113D01*
X148999729Y-61119148D01*
X148999731Y-61119151D01*
X149003702Y-61125865D01*
X149119918Y-61242081D01*
X149126632Y-61246052D01*
X149126634Y-61246053D01*
X149237391Y-61311554D01*
X149282676Y-61358085D01*
X149298238Y-61421122D01*
X149279809Y-61483382D01*
X149211260Y-61594518D01*
X149211260Y-61594519D01*
X149207469Y-61600666D01*
X149205198Y-61607517D01*
X149205197Y-61607521D01*
X149155902Y-61756284D01*
X149152284Y-61767203D01*
X149151596Y-61773933D01*
X149151595Y-61773940D01*
X149142102Y-61866859D01*
X149142101Y-61866877D01*
X149141783Y-61869991D01*
X149141783Y-61873138D01*
X149141783Y-61873139D01*
X149141783Y-63216859D01*
X149141783Y-63216878D01*
X149141784Y-63220008D01*
X149142103Y-63223140D01*
X149142104Y-63223141D01*
X149151595Y-63316061D01*
X149151596Y-63316069D01*
X149152284Y-63322797D01*
X149154412Y-63329219D01*
X149154413Y-63329223D01*
X149176850Y-63396933D01*
X149207469Y-63489334D01*
X149211260Y-63495480D01*
X149295780Y-63632511D01*
X149295783Y-63632515D01*
X149299571Y-63638656D01*
X149423627Y-63762712D01*
X149429770Y-63766501D01*
X149429774Y-63766504D01*
X149449161Y-63778462D01*
X149492865Y-63824516D01*
X149508045Y-63886164D01*
X149490722Y-63947245D01*
X149445438Y-63991746D01*
X149384064Y-64008000D01*
X148100502Y-64008000D01*
X148039128Y-63991746D01*
X147993844Y-63947245D01*
X147976521Y-63886164D01*
X147991701Y-63824516D01*
X148035405Y-63778462D01*
X148054791Y-63766504D01*
X148054790Y-63766504D01*
X148060939Y-63762712D01*
X148184995Y-63638656D01*
X148277097Y-63489334D01*
X148332282Y-63322797D01*
X148342783Y-63220009D01*
X148342782Y-61869992D01*
X148332282Y-61767203D01*
X148277097Y-61600666D01*
X148198596Y-61473395D01*
X148188785Y-61457488D01*
X148188783Y-61457485D01*
X148184995Y-61451344D01*
X148060939Y-61327288D01*
X148054798Y-61323500D01*
X148054794Y-61323497D01*
X147929235Y-61246053D01*
X147911617Y-61235186D01*
X147892176Y-61228744D01*
X147751508Y-61182131D01*
X147751507Y-61182130D01*
X147745080Y-61180001D01*
X147738347Y-61179313D01*
X147738342Y-61179312D01*
X147645423Y-61169819D01*
X147645406Y-61169818D01*
X147642292Y-61169500D01*
X147639143Y-61169500D01*
X147579500Y-61169500D01*
X147517500Y-61152887D01*
X147472113Y-61107500D01*
X147455500Y-61045500D01*
X147455500Y-58098452D01*
X147464939Y-58050999D01*
X147491819Y-58010771D01*
X148222772Y-57279819D01*
X148263000Y-57252939D01*
X148310453Y-57243500D01*
X149212225Y-57243500D01*
X149223280Y-57244021D01*
X149230667Y-57245673D01*
X149297872Y-57243561D01*
X149301768Y-57243500D01*
X149325448Y-57243500D01*
X149329350Y-57243500D01*
X149333313Y-57242999D01*
X149344963Y-57242080D01*
X149388627Y-57240709D01*
X149407861Y-57235119D01*
X149426917Y-57231174D01*
X149446792Y-57228664D01*
X149487395Y-57212587D01*
X149498450Y-57208802D01*
X149540390Y-57196618D01*
X149557629Y-57186422D01*
X149575103Y-57177862D01*
X149586474Y-57173360D01*
X149586476Y-57173358D01*
X149593732Y-57170486D01*
X149629069Y-57144811D01*
X149638824Y-57138403D01*
X149676420Y-57116170D01*
X149690584Y-57102005D01*
X149705379Y-57089368D01*
X149721587Y-57077594D01*
X149749428Y-57043938D01*
X149757279Y-57035309D01*
X150346593Y-56445995D01*
X150354764Y-56438561D01*
X150361160Y-56434503D01*
X150407201Y-56385473D01*
X150409818Y-56382771D01*
X150429403Y-56363188D01*
X150431868Y-56360009D01*
X150439450Y-56351133D01*
X150469345Y-56319299D01*
X150478996Y-56301740D01*
X150489673Y-56285487D01*
X150501956Y-56269653D01*
X150519301Y-56229569D01*
X150524434Y-56219088D01*
X150545480Y-56180809D01*
X150550462Y-56161401D01*
X150556765Y-56142993D01*
X150564720Y-56124613D01*
X150571554Y-56081461D01*
X150573919Y-56070046D01*
X150579902Y-56046744D01*
X150601240Y-56002606D01*
X150636459Y-55971560D01*
X150637113Y-55971256D01*
X150830684Y-55835716D01*
X150997778Y-55668622D01*
X151024892Y-55629900D01*
X151127708Y-55483063D01*
X151172026Y-55444197D01*
X151229283Y-55430186D01*
X151286540Y-55444197D01*
G37*
%TD.AperFunction*%
%TD*%
M02*
