%TF.GenerationSoftware,KiCad,Pcbnew,(7.0.0-0)*%
%TF.CreationDate,2023-07-06T20:29:09+02:00*%
%TF.ProjectId,Monitoring_Board_v01,4d6f6e69-746f-4726-996e-675f426f6172,v01*%
%TF.SameCoordinates,Original*%
%TF.FileFunction,Paste,Top*%
%TF.FilePolarity,Positive*%
%FSLAX46Y46*%
G04 Gerber Fmt 4.6, Leading zero omitted, Abs format (unit mm)*
G04 Created by KiCad (PCBNEW (7.0.0-0)) date 2023-07-06 20:29:09*
%MOMM*%
%LPD*%
G01*
G04 APERTURE LIST*
G04 Aperture macros list*
%AMRoundRect*
0 Rectangle with rounded corners*
0 $1 Rounding radius*
0 $2 $3 $4 $5 $6 $7 $8 $9 X,Y pos of 4 corners*
0 Add a 4 corners polygon primitive as box body*
4,1,4,$2,$3,$4,$5,$6,$7,$8,$9,$2,$3,0*
0 Add four circle primitives for the rounded corners*
1,1,$1+$1,$2,$3*
1,1,$1+$1,$4,$5*
1,1,$1+$1,$6,$7*
1,1,$1+$1,$8,$9*
0 Add four rect primitives between the rounded corners*
20,1,$1+$1,$2,$3,$4,$5,0*
20,1,$1+$1,$4,$5,$6,$7,0*
20,1,$1+$1,$6,$7,$8,$9,0*
20,1,$1+$1,$8,$9,$2,$3,0*%
G04 Aperture macros list end*
%ADD10RoundRect,0.250001X0.462499X0.624999X-0.462499X0.624999X-0.462499X-0.624999X0.462499X-0.624999X0*%
%ADD11RoundRect,0.250000X0.400000X0.625000X-0.400000X0.625000X-0.400000X-0.625000X0.400000X-0.625000X0*%
%ADD12RoundRect,0.250000X-0.400000X-0.625000X0.400000X-0.625000X0.400000X0.625000X-0.400000X0.625000X0*%
%ADD13R,1.663700X0.558800*%
%ADD14RoundRect,0.250000X0.350000X0.450000X-0.350000X0.450000X-0.350000X-0.450000X0.350000X-0.450000X0*%
%ADD15RoundRect,0.020000X-0.690000X-0.180000X0.690000X-0.180000X0.690000X0.180000X-0.690000X0.180000X0*%
%ADD16RoundRect,0.150000X0.587500X0.150000X-0.587500X0.150000X-0.587500X-0.150000X0.587500X-0.150000X0*%
%ADD17RoundRect,0.250000X-0.625000X0.400000X-0.625000X-0.400000X0.625000X-0.400000X0.625000X0.400000X0*%
%ADD18RoundRect,0.237500X0.300000X0.237500X-0.300000X0.237500X-0.300000X-0.237500X0.300000X-0.237500X0*%
%ADD19RoundRect,0.237500X-0.300000X-0.237500X0.300000X-0.237500X0.300000X0.237500X-0.300000X0.237500X0*%
%ADD20R,1.500000X0.400000*%
%ADD21RoundRect,0.250001X-0.462499X-0.624999X0.462499X-0.624999X0.462499X0.624999X-0.462499X0.624999X0*%
G04 APERTURE END LIST*
D10*
%TO.C,D1*%
X122731000Y-42799000D03*
X125706000Y-42799000D03*
%TD*%
D11*
%TO.C,R11*%
X144932283Y-62179221D03*
X141832283Y-62179221D03*
%TD*%
D12*
%TO.C,R15*%
X152145283Y-62545000D03*
X155245283Y-62545000D03*
%TD*%
D13*
%TO.C,U4*%
X131230499Y-73024999D03*
X131230499Y-74294999D03*
X131230499Y-75564999D03*
X131230499Y-76834999D03*
X136881999Y-76834999D03*
X136881999Y-75564999D03*
X136881999Y-74294999D03*
X136881999Y-73024999D03*
%TD*%
D14*
%TO.C,TH1*%
X134908000Y-50546000D03*
X132908000Y-50546000D03*
%TD*%
D15*
%TO.C,U3*%
X124635171Y-69396304D03*
X124635171Y-70046304D03*
X124635171Y-70696304D03*
X124635171Y-71346304D03*
X128175171Y-71346304D03*
X128175171Y-70696304D03*
X128175171Y-70046304D03*
X128175171Y-69396304D03*
%TD*%
D16*
%TO.C,U5*%
X150109283Y-60574000D03*
X150109283Y-58674000D03*
X148234283Y-59624000D03*
%TD*%
D11*
%TO.C,R14*%
X155245283Y-60259000D03*
X152145283Y-60259000D03*
%TD*%
D12*
%TO.C,R12*%
X141832283Y-59893221D03*
X144932283Y-59893221D03*
%TD*%
D11*
%TO.C,R13*%
X153698000Y-48768000D03*
X150598000Y-48768000D03*
%TD*%
D17*
%TO.C,R7*%
X156186000Y-68300000D03*
X156186000Y-71400000D03*
%TD*%
D11*
%TO.C,R2*%
X130965000Y-50546000D03*
X127865000Y-50546000D03*
%TD*%
D10*
%TO.C,D3*%
X158689500Y-48768000D03*
X155714500Y-48768000D03*
%TD*%
D18*
%TO.C,C1*%
X136882000Y-70866000D03*
X135157000Y-70866000D03*
%TD*%
D19*
%TO.C,C2*%
X131567500Y-71128000D03*
X133292500Y-71128000D03*
%TD*%
D17*
%TO.C,R4*%
X130301283Y-60655221D03*
X130301283Y-63755221D03*
%TD*%
%TO.C,R3*%
X130301283Y-55168221D03*
X130301283Y-58268221D03*
%TD*%
D20*
%TO.C,U2*%
X127797999Y-74817999D03*
X127797999Y-74167999D03*
X127797999Y-73517999D03*
X125137999Y-73517999D03*
X125137999Y-74817999D03*
%TD*%
D17*
%TO.C,R6*%
X158472000Y-68300000D03*
X158472000Y-71400000D03*
%TD*%
%TO.C,R9*%
X151614000Y-68300000D03*
X151614000Y-71400000D03*
%TD*%
%TO.C,R1*%
X125579000Y-46583000D03*
X125579000Y-49683000D03*
%TD*%
D12*
%TO.C,Rs1*%
X147192283Y-62545000D03*
X150292283Y-62545000D03*
%TD*%
D17*
%TO.C,R8*%
X153900000Y-68300000D03*
X153900000Y-71400000D03*
%TD*%
%TO.C,R5*%
X149328000Y-68300000D03*
X149328000Y-71400000D03*
%TD*%
D12*
%TO.C,R10*%
X124918000Y-77216000D03*
X128018000Y-77216000D03*
%TD*%
D21*
%TO.C,D2*%
X143892400Y-66294000D03*
X146867400Y-66294000D03*
%TD*%
M02*
